<svg width="247" height="152" viewBox="0 0 247 152" fill="none" xmlns="http://www.w3.org/2000/svg">
<g filter="url(#filter0_d)">
<path d="M24.7118 114.508L4 82.138L30.1113 52.7805C32.9279 49.7234 36.0947 48.1948 39.612 48.1948C40.9309 48.1948 42.2293 48.6219 43.507 49.4761C44.7848 50.3453 45.6847 51.5966 46.2068 53.2301L41.3225 58.4002L21.9296 80.2722L34.2125 98.2554C35.2566 99.694 35.7787 101.2 35.7787 102.774C35.7787 104.362 35.5589 105.801 35.1193 107.09C34.6796 108.393 33.9789 109.57 33.0172 110.619C31.0799 113.017 28.3115 114.313 24.7118 114.508ZM108.074 118.104C96.8082 118.104 90.653 109.375 89.6089 91.9163H66.9186C65.16 96.3372 63.6624 100.466 62.4259 104.302L59.0048 115.227H40.5394L82.0867 20.276H110.444L115.988 90.1855C116.867 100.256 119.066 106.782 122.583 109.765C120.027 115.324 115.191 118.104 108.074 118.104ZM78.2534 63.1433L70.9991 81.4187H89.1967L87.6304 44.4408V40.552L78.2534 63.1433ZM147.767 136.672C147.767 134.934 148.165 132.82 148.962 130.333L192.076 0.427097C193.669 0.142363 196.026 0 199.145 0C202.263 0 204.771 0.449575 206.667 1.34873C208.549 2.26288 209.49 4.11364 209.49 6.90103C209.49 9.29878 208.789 12.7006 207.388 17.1065L165.449 143.416C164.735 143.805 162.317 144 158.195 144C151.243 144 147.767 141.557 147.767 136.672ZM200.793 109.337L209.49 99.9863L225.05 82.2729L216.353 69.4824C215.034 67.6541 213.845 65.9756 212.788 64.4471C211.73 62.9035 211.201 61.3675 211.201 59.8389C211.201 58.3103 211.42 56.8717 211.86 55.5229C212.3 54.1742 213.007 52.9753 213.983 51.9263C216.002 49.5286 218.771 48.2323 222.288 48.0375L243 80.4071L216.889 109.765C214.072 112.837 210.905 114.373 207.388 114.373C206.069 114.373 204.771 113.938 203.493 113.069C202.215 112.2 201.315 110.956 200.793 109.337Z" fill="black"/>
</g>
<defs>
<filter id="filter0_d" x="0" y="0" width="247" height="152" filterUnits="userSpaceOnUse" color-interpolation-filters="sRGB">
<feFlood flood-opacity="0" result="BackgroundImageFix"/>
<feColorMatrix in="SourceAlpha" type="matrix" values="0 0 0 0 0 0 0 0 0 0 0 0 0 0 0 0 0 0 127 0" result="hardAlpha"/>
<feOffset dy="4"/>
<feGaussianBlur stdDeviation="2"/>
<feComposite in2="hardAlpha" operator="out"/>
<feColorMatrix type="matrix" values="0 0 0 0 0 0 0 0 0 0 0 0 0 0 0 0 0 0 0.25 0"/>
<feBlend mode="normal" in2="BackgroundImageFix" result="effect1_dropShadow"/>
<feBlend mode="normal" in="SourceGraphic" in2="effect1_dropShadow" result="shape"/>
</filter>
</defs>
</svg>
