<svg width="93" height="55" viewBox="0 0 93 55" fill="none" xmlns="http://www.w3.org/2000/svg">
    <g filter="url(#filter0_d)">
    <path fill-rule="evenodd" clip-rule="evenodd" d="M34.5549 30.0481C34.9219 35.6251 37.0852 38.4137 41.0448 38.4137C43.5462 38.4137 45.2459 37.5257 46.1441 35.7496C44.9079 34.797 44.1353 32.7121 43.8262 29.4952L41.8778 7.16297H31.9111L17.3087 37.4945H23.7986L25.001 34.0047C25.4356 32.7792 25.962 31.4603 26.5801 30.0481H34.5549ZM28.0142 26.6947L30.5638 20.8567L33.8595 13.64V14.8823L34.41 26.6947H28.0142ZM55.4154 42.32C55.1354 43.1147 54.9953 43.7897 54.9953 44.345C54.9953 45.9056 56.217 46.6859 58.6604 46.6859C60.1091 46.6859 60.9589 46.6237 61.21 46.4992L75.9501 6.15048C76.4426 4.74305 76.6889 3.65636 76.6889 2.89041C76.6889 2 76.3581 1.40878 75.6965 1.11676C75.0302 0.829533 74.1489 0.685919 73.0528 0.685919C71.9566 0.685919 71.1285 0.731396 70.5683 0.822352L55.4154 42.32ZM76.6889 32.626L73.6322 35.6132C73.8157 36.1302 74.132 36.5275 74.5811 36.8052C75.0302 37.0828 75.4865 37.2217 75.9501 37.2217C77.1862 37.2217 78.2993 36.731 79.2892 35.7496L88.4664 26.3715L81.1869 16.0312C79.9507 16.0935 78.9777 16.5075 78.2679 17.2735C77.9251 17.6086 77.6764 17.9916 77.5219 18.4224C77.3673 18.8533 77.2901 19.3128 77.2901 19.8011C77.2901 20.2894 77.476 20.7801 77.8478 21.2732C78.2196 21.7615 78.6373 22.2976 79.1009 22.8817L82.1575 26.9675L76.6889 32.626Z" fill="#0E198D"/>
    <path d="M11.7459 37.2647L4.46641 26.9244L13.6436 17.5464C14.6335 16.5698 15.7466 16.0815 16.9827 16.0815C17.4463 16.0815 17.9026 16.2179 18.3517 16.4908C18.8008 16.7684 19.1171 17.1682 19.3006 17.69L17.5839 19.3416L10.768 26.3284L15.085 32.0731C15.452 32.5326 15.6355 33.0137 15.6355 33.5164C15.6355 34.0238 15.5582 34.4834 15.4037 34.8951C15.2492 35.3116 15.0029 35.6874 14.6649 36.0225C13.984 36.7884 13.011 37.2025 11.7459 37.2647Z" fill="#0E198D"/>
    </g>
    <defs>
    <filter id="filter0_d" x="0.466408" y="0.685913" width="92" height="54" filterUnits="userSpaceOnUse" color-interpolation-filters="sRGB">
    <feFlood flood-opacity="0" result="BackgroundImageFix"/>
    <feColorMatrix in="SourceAlpha" type="matrix" values="0 0 0 0 0 0 0 0 0 0 0 0 0 0 0 0 0 0 127 0" result="hardAlpha"/>
    <feOffset dy="4"/>
    <feGaussianBlur stdDeviation="2"/>
    <feComposite in2="hardAlpha" operator="out"/>
    <feColorMatrix type="matrix" values="0 0 0 0 0 0 0 0 0 0 0 0 0 0 0 0 0 0 0.25 0"/>
    <feBlend mode="normal" in2="BackgroundImageFix" result="effect1_dropShadow"/>
    <feBlend mode="normal" in="SourceGraphic" in2="effect1_dropShadow" result="shape"/>
    </filter>
    </defs>
    </svg>
    