<svg xmlns="http://www.w3.org/2000/svg" version="1.1" xmlns:xlink="http://www.w3.org/1999/xlink" xmlns:svgjs="http://svgjs.com/svgjs" width="1440" height="560" preserveAspectRatio="none" viewBox="0 0 1440 560"><g mask="url(&quot;#SvgjsMask1005&quot;)" fill="none"><path d="M273.17 0C277.96 0.24 276.94 7 280 7C282.61 7 280.46 0.2 284.52 0C350.46 -3.3 352.26 0 420 0C488.85 0 489.28 -1.07 557.7 0C559.28 0.02 558.64 2.19 560 2.19C562.48 2.19 562.48 0.05 565.38 0C632.48 -1.05 632.69 0 700 0C770 0 770 0 840 0C910 0 910 0 980 0C1050 0 1050 0 1120 0C1190 0 1190 0 1260 0C1330 0 1330 0 1400 0C1468.54 0 1537.08 -28.39 1537.08 0C1537.08 40.15 1479.44 107.71 1400 137.08C1340.9 158.93 1328.53 101.56 1260 102.44C1214.53 103.02 1176 106.14 1172 140C1165.5 194.92 1200.44 215.94 1239 280C1244.44 289.03 1249.19 286.18 1260 286.18C1294.69 286.18 1304.96 299.88 1330 280C1374.96 244.29 1350.83 192.41 1400 175C1455.83 155.23 1493.92 171.07 1540 205.63C1563.92 223.57 1540 242.82 1540 280C1540 350 1540 350 1540 420C1540 490 1575 525 1540 560C1505 595 1470 560 1400 560C1330 560 1330 560 1260 560C1190 560 1190 560 1120 560C1050 560 1050 560 980 560C910 560 910 560 840 560C770 560 770 560 700 560C630 560 630 560 560 560C490 560 490 560 420 560C350 560 350 560 280 560C210 560 210 560 140 560C70 560 35 595 0 560C-35 525 0 490 0 420C0 350 0 350 0 280C0 210 0 210 0 140C0 70 -35 35 0 0C35 -35 70 0 140 0C206.59 0 207.96 -3.26 273.17 0" stroke="rgba(172, 187, 120, 1)" stroke-width="2"></path><path d="M140 182C108.18 193.25 122.81 234.49 122.81 280C122.81 289.7 132.9 284.57 140 292.41C196.28 354.57 205.37 350.25 249.57 420C275.37 460.71 263.67 513.33 280 513.33C296.61 513.33 301.38 467.79 315.44 420C335.7 351.12 359.61 340.59 348.63 280C341.89 242.81 319.26 242.88 280 224.44C214.95 193.88 186.78 165.47 140 182" stroke="rgba(172, 187, 120, 1)" stroke-width="2"></path><path d="M980 194.19C956.99 194.19 950.44 236.65 950.44 280C950.44 332.75 957.2 338.1 980 386.4C990.24 408.1 999.42 402.05 1016.52 420C1069.42 475.51 1082.41 533.33 1120 533.33C1148.66 533.33 1149.02 475.63 1149.02 420C1149.02 383.97 1140.95 380.83 1120 350C1093.38 310.83 1086.06 315.8 1053.89 280C1016.06 237.9 1008.71 194.19 980 194.19" stroke="rgba(172, 187, 120, 1)" stroke-width="2"></path><path d="M560 414.25C555.63 414.25 553.23 416.16 553.23 420C553.23 429.54 550.1 441 560 441C623.49 441 631.82 412.61 700 420C771.82 427.78 772.11 471.33 840 471.33C887.41 471.33 930.59 438.56 930.59 420C930.59 403.51 885.63 401.22 840 401.22C770.33 401.22 770.28 416.73 700 420C630.28 423.24 629.01 414.25 560 414.25" stroke="rgba(172, 187, 120, 1)" stroke-width="2"></path><path d="M140 54.44C95.72 54.44 42 14.52 42 0C42 -12.7 91 0 140 0C163.9 0 187.8 -10.82 187.8 0C187.8 16.4 168.62 54.44 140 54.44" stroke="rgba(172, 187, 120, 1)" stroke-width="2"></path><path d="M228 140C228 120.01 258.5 121.14 280 94.5C314.99 51.14 299.86 27.75 340.97 0C369.86 -19.5 380.49 0 420 0C460.16 0 465.78 -14.04 500.33 0C535.78 14.4 524.76 56.88 560 56.88C624.6 56.88 627.64 9.81 700 0C767.64 -9.17 771.08 18.92 840 18.92C866.08 18.92 863.91 3.53 890 0C933.91 -5.93 935 0 980 0C1050 0 1050 0 1120 0C1190 0 1190 0 1260 0C1330 0 1330 0 1400 0C1432.09 0 1464.17 -13.29 1464.17 0C1464.17 18.79 1440.14 52.42 1400 64.17C1338.05 82.3 1328.76 51.45 1260 59.76C1188.76 68.37 1189.84 98.62 1120 98C1049.84 97.38 1035.3 44.4 980 57.27C945.08 65.4 952.98 96.34 939.56 140C918.76 207.7 940.1 217.35 911.56 280C890.32 326.62 885.38 345.97 840 358.54C779.6 375.27 769.68 336.67 700 338.6C629.68 340.55 624.26 340.56 560 366.3C522.65 381.26 506.22 384.05 496.77 420C480.76 480.9 532.58 517.16 509.09 560C494.2 587.16 464.54 560 420 560C386.21 560 362.21 582.77 352.41 560C332.08 512.77 344.16 487.32 359.75 420C376.58 347.32 435.65 337.95 417.25 280C395.78 212.39 350.78 221.25 280 168.89C256.16 151.25 228 157.21 228 140" stroke="rgba(172, 187, 120, 1)" stroke-width="2"></path><path d="M0 202.22C17.2 202.22 26.01 246 61.4 280C96.01 313.25 104.8 303.89 140 336.71C179.86 373.89 190.03 371.44 211.52 420C239.44 483.09 259.94 518.65 238.82 560C224.18 588.65 189.41 560 140 560C70 560 35 595 0 560C-35 525 0 490 0 420C0 350 0 350 0 280C0 241.11 -13.5 202.22 0 202.22" stroke="rgba(172, 187, 120, 1)" stroke-width="2"></path><path d="M1191.71 420C1191.71 376.95 1215.13 351.22 1260 337.65C1319.28 319.72 1338.1 331.51 1400 357C1438.1 372.69 1444.46 381.38 1460 420C1485.3 482.88 1500.7 515.6 1481.67 560C1470.7 585.6 1440.84 560 1400 560C1358 560 1355.01 570.11 1316 560C1285.01 551.96 1281.72 548.17 1260 523.7C1219.58 478.17 1191.71 469.97 1191.71 420" stroke="rgba(172, 187, 120, 1)" stroke-width="2"></path><path d="M613.33 560C613.33 547.23 656.17 512.11 700 512.11C747.4 512.11 795.79 547.36 795.79 560C795.79 571.31 747.89 560 700 560C656.66 560 613.33 571.18 613.33 560" stroke="rgba(172, 187, 120, 1)" stroke-width="2"></path><path d="M420 82.35C408.62 82.35 397.42 32.56 397.42 0C397.42 -8.61 408.71 0 420 0C431.48 0 442.95 -8.71 442.95 0C442.95 32.46 431.39 82.35 420 82.35" stroke="rgba(172, 187, 120, 1)" stroke-width="2"></path><path d="M469 140C481.75 106.26 513.34 114.59 560 111.56C628.84 107.09 629.96 124.51 700 125C769.96 125.49 774.98 107.48 840 113.51C855.87 114.98 858.57 123.66 861.78 140C874.91 206.91 880.76 214.65 872.67 280C869.87 302.57 860.94 315.85 840 315.85C792.1 315.85 771.12 314.53 735 280C701.12 247.61 717.79 182 700 182C682.14 182 697.71 246.87 663.7 280C627.71 315.05 610.04 318.36 560 318.36C526.37 318.36 511.94 310.54 496.36 280C466.44 221.36 449.93 190.48 469 140" stroke="rgba(172, 187, 120, 1)" stroke-width="2"></path><path d="M1120 10.5C1107.95 9.23 1097.89 2.76 1097.89 0C1097.89 -2.49 1108.95 0 1120 0C1190 0 1190 0 1260 0C1313.85 0 1367.69 -4.24 1367.69 0C1367.69 4.29 1314.19 14.77 1260 17.07C1190.34 20.02 1189 17.77 1120 10.5" stroke="rgba(172, 187, 120, 1)" stroke-width="2"></path><path d="M0 280C38.65 269.23 73.16 327.07 140 381.01C159.9 397.07 169.43 395.97 173.48 420C184.53 485.47 183.97 502.42 170.2 560C167.23 572.42 155.1 560 140 560C70 560 35 595 0 560C-35 525 0 490 0 420C0 350 -31.35 288.73 0 280" stroke="rgba(172, 187, 120, 1)" stroke-width="2"></path><path d="M404.05 420C404.05 400.32 411.13 381.82 420 381.82C429.27 381.82 440.32 400.01 440.32 420C440.32 450.6 429.15 483 420 483C411.02 483 404.05 450.91 404.05 420" stroke="rgba(172, 187, 120, 1)" stroke-width="2"></path><path d="M1234.39 420C1234.39 403.85 1242.71 389.12 1260 389.12C1303.24 389.12 1355.45 402.79 1355.45 420C1355.45 437.68 1301.69 458.89 1260 458.89C1241.16 458.89 1234.39 438.74 1234.39 420" stroke="rgba(172, 187, 120, 1)" stroke-width="2"></path></g><defs><mask id="SvgjsMask1005"><rect width="1440" height="560" fill="#ffffff"></rect></mask></defs></svg>