<svg width="1507" height="927" viewBox="0 0 1507 927" fill="none" xmlns="http://www.w3.org/2000/svg">
    <path d="M1507 8H0V927H1507V8Z" fill="#1E3266" />
    <g opacity="0.7">
        <path opacity="0.7" d="M221.15 536.462C231.197 536.462 239.341 531.621 239.341 525.648C239.341 519.676 231.197 514.834 221.15 514.834C211.104 514.834 202.96 519.676 202.96 525.648C202.96 531.621 211.104 536.462 221.15 536.462Z" fill="url(#paint0_linear)" />
    </g>
    <g opacity="0.7">
        <path opacity="0.7" d="M783.95 53.3578C793.996 53.3578 802.141 48.5162 802.141 42.5437C802.141 36.5712 793.996 31.7295 783.95 31.7295C773.904 31.7295 765.76 36.5712 765.76 42.5437C765.76 48.5162 773.904 53.3578 783.95 53.3578Z" fill="url(#paint1_linear)" />
    </g>
    <g opacity="0.7">
        <path opacity="0.7" d="M1185.51 494.925C1195.55 494.925 1203.7 490.084 1203.7 484.111C1203.7 478.139 1195.55 473.297 1185.51 473.297C1175.46 473.297 1167.32 478.139 1167.32 484.111C1167.32 490.084 1175.46 494.925 1185.51 494.925Z" fill="url(#paint2_linear)" />
    </g>
    <g opacity="0.7">
        <path opacity="0.7" d="M1047.52 191.476C1057.57 191.476 1065.71 186.634 1065.71 180.662C1065.71 174.689 1057.57 169.848 1047.52 169.848C1037.47 169.848 1029.33 174.689 1029.33 180.662C1029.33 186.634 1037.47 191.476 1047.52 191.476Z" fill="url(#paint3_linear)" />
    </g>
    <g opacity="0.7">
        <path opacity="0.7" d="M846.742 196.667C856.788 196.667 864.932 191.826 864.932 185.853C864.932 179.881 856.788 175.039 846.742 175.039C836.695 175.039 828.551 179.881 828.551 185.853C828.551 191.826 836.695 196.667 846.742 196.667Z" fill="url(#paint4_linear)" />
    </g>
    <g opacity="0.7">
        <path opacity="0.7" d="M448.43 245.127C458.476 245.127 466.62 240.286 466.62 234.313C466.62 228.341 458.476 223.499 448.43 223.499C438.383 223.499 430.239 228.341 430.239 234.313C430.239 240.286 438.383 245.127 448.43 245.127Z" fill="url(#paint5_linear)" />
    </g>
    <g opacity="0.7">
        <path opacity="0.7" d="M1412.79 203.59C1422.83 203.59 1430.98 198.749 1430.98 192.776C1430.98 186.804 1422.83 181.962 1412.79 181.962C1402.74 181.962 1394.6 186.804 1394.6 192.776C1394.6 198.749 1402.74 203.59 1412.79 203.59Z" fill="url(#paint6_linear)" />
    </g>
    <path opacity="0.2" d="M221.5 536C231.165 536 239 531.299 239 525.5C239 519.701 231.165 515 221.5 515C211.835 515 204 519.701 204 525.5C204 531.299 211.835 536 221.5 536Z" fill="black" />
    <path opacity="0.2" d="M784.5 53C794.165 53 802 48.299 802 42.5C802 36.701 794.165 32 784.5 32C774.835 32 767 36.701 767 42.5C767 48.299 774.835 53 784.5 53Z" fill="black" />
    <path opacity="0.2" d="M1185.5 494C1195.16 494 1203 489.523 1203 484C1203 478.477 1195.16 474 1185.5 474C1175.84 474 1168 478.477 1168 484C1168 489.523 1175.84 494 1185.5 494Z" fill="black" />
    <path opacity="0.2" d="M1047.5 191C1057.16 191 1065 186.299 1065 180.5C1065 174.701 1057.16 170 1047.5 170C1037.84 170 1030 174.701 1030 180.5C1030 186.299 1037.84 191 1047.5 191Z" fill="black" />
    <path opacity="0.2" d="M846.5 196C856.165 196 864 191.299 864 185.5C864 179.701 856.165 175 846.5 175C836.835 175 829 179.701 829 185.5C829 191.299 836.835 196 846.5 196Z" fill="black" />
    <path opacity="0.2" d="M448.5 245C458.165 245 466 240.299 466 234.5C466 228.701 458.165 224 448.5 224C438.835 224 431 228.701 431 234.5C431 240.299 438.835 245 448.5 245Z" fill="black" />
    <path opacity="0.2" d="M1413 203C1422.39 203 1430 198.299 1430 192.5C1430 186.701 1422.39 182 1413 182C1403.61 182 1396 186.701 1396 192.5C1396 198.299 1403.61 203 1413 203Z" fill="black" />
    <path d="M330 509C333.866 509 337 507.433 337 505.5C337 503.567 333.866 502 330 502C326.134 502 323 503.567 323 505.5C323 507.433 326.134 509 330 509Z" fill="white" />
    <path d="M1295 468C1298.87 468 1302 466.209 1302 464C1302 461.791 1298.87 460 1295 460C1291.13 460 1288 461.791 1288 464C1288 466.209 1291.13 468 1295 468Z" fill="white" />
    <path d="M1157 164C1160.87 164 1164 162.433 1164 160.5C1164 158.567 1160.87 157 1157 157C1153.13 157 1150 158.567 1150 160.5C1150 162.433 1153.13 164 1157 164Z" fill="white" />
    <path d="M956 170C959.866 170 963 168.209 963 166C963 163.791 959.866 162 956 162C952.134 162 949 163.791 949 166C949 168.209 952.134 170 956 170Z" fill="white" />
    <path d="M557.5 218C561.09 218 564 216.433 564 214.5C564 212.567 561.09 211 557.5 211C553.91 211 551 212.567 551 214.5C551 216.433 553.91 218 557.5 218Z" fill="white" />
    <path d="M123 318C126.866 318 130 316.433 130 314.5C130 312.567 126.866 311 123 311C119.134 311 116 312.567 116 314.5C116 316.433 119.134 318 123 318Z" fill="white" />
    <path d="M319.5 569C321.433 569 323 568.105 323 567C323 565.895 321.433 565 319.5 565C317.567 565 316 565.895 316 567C316 568.105 317.567 569 319.5 569Z" fill="white" />
    <path d="M547 278C549.209 278 551 276.881 551 275.5C551 274.119 549.209 273 547 273C544.791 273 543 274.119 543 275.5C543 276.881 544.791 278 547 278Z" fill="white" />
    <path d="M1358 652C1360.21 652 1362 651.105 1362 650C1362 648.895 1360.21 648 1358 648C1355.79 648 1354 648.895 1354 650C1354 651.105 1355.79 652 1358 652Z" fill="white" />
    <path d="M1358 652C1360.21 652 1362 651.105 1362 650C1362 648.895 1360.21 648 1358 648C1355.79 648 1354 648.895 1354 650C1354 651.105 1355.79 652 1358 652Z" fill="white" />
    <path d="M533 666C535.209 666 537 665.105 537 664C537 662.895 535.209 662 533 662C530.791 662 529 662.895 529 664C529 665.105 530.791 666 533 666Z" fill="white" />
    <path d="M1220 348C1222.21 348 1224 347.105 1224 346C1224 344.895 1222.21 344 1220 344C1217.79 344 1216 344.895 1216 346C1216 347.105 1217.79 348 1220 348Z" fill="white" />
    <path d="M345 261C347.209 261 349 260.105 349 259C349 257.895 347.209 257 345 257C342.791 257 341 257.895 341 259C341 260.105 342.791 261 345 261Z" fill="white" />
    <path d="M1309 219C1311.21 219 1313 218.105 1313 217C1313 215.895 1311.21 215 1309 215C1306.79 215 1305 215.895 1305 217C1305 218.105 1306.79 219 1309 219Z" fill="white" />
    <path d="M1143.5 452C1145.43 452 1147 450.881 1147 449.5C1147 448.119 1145.43 447 1143.5 447C1141.57 447 1140 448.119 1140 449.5C1140 450.881 1141.57 452 1143.5 452Z" fill="white" />
    <path d="M130 61C132.209 61 134 59.8807 134 58.5C134 57.1193 132.209 56 130 56C127.791 56 126 57.1193 126 58.5C126 59.8807 127.791 61 130 61Z" fill="white" />
    <path d="M449 379C452.866 379 456 377.209 456 375C456 372.791 452.866 371 449 371C445.134 371 442 372.791 442 375C442 377.209 445.134 379 449 379Z" fill="white" />
    <path d="M1413 337C1416.87 337 1420 335.209 1420 333C1420 330.791 1416.87 329 1413 329C1409.13 329 1406 330.791 1406 333C1406 335.209 1409.13 337 1413 337Z" fill="white" />
    <path d="M1275 34C1278.87 34 1282 32.2091 1282 30C1282 27.7909 1278.87 26 1275 26C1271.13 26 1268 27.7909 1268 30C1268 32.2091 1271.13 34 1275 34Z" fill="white" />
    <path d="M264 645.326H258.185V642H255.815V645.326H250V646.681H255.815V650H258.185V646.681H264V645.326Z" fill="white" />
    <path d="M827 161.742H820.769V158H818.231V161.742H812V163.266H818.231V167H820.769V163.266H827V161.742Z" fill="white" />
    <path d="M492 353.742H485.769V350H483.231V353.742H477V355.266H483.231V359H485.769V355.266H492V353.742Z" fill="white" />
    <path d="M1456 312.326H1449.77V309H1447.23V312.326H1441V313.681H1447.23V317H1449.77V313.681H1456V312.326Z" fill="white" />
    <path d="M57 454.326H51.1848V451H48.8152V454.326H43V455.681H48.8152V459H51.1848V455.681H57V454.326Z" fill="white" />
    <path d="M414 643.326H408.185V640H405.815V643.326H400V644.681H405.815V648H408.185V644.681H414V643.326Z" fill="white" />
    <path d="M207 452.326H201.185V449H198.815V452.326H193V453.681H198.815V457H201.185V453.681H207V452.326Z" fill="white" />
    <path d="M1171 411.326H1165.18V408H1162.82V411.326H1157V412.681H1162.82V416H1165.18V412.681H1171V411.326Z" fill="white" />
    <path d="M1033 107.326H1027.18V104H1024.82V107.326H1019V108.681H1024.82V112H1027.18V108.681H1033V107.326Z" fill="white" />
    <path d="M833 113.326H827.185V110H824.815V113.326H819V114.681H824.815V118H827.185V114.681H833V113.326Z" fill="white" />
    <path d="M929 283.663H926.09V282H924.91V283.663H922V284.337H924.91V286H926.09V284.337H929V283.663Z" fill="white" />
    <path d="M1317 432.663H1314.51V431H1313.49V432.663H1311V433.337H1313.49V435H1314.51V433.337H1317V432.663Z" fill="white" />
    <path d="M1179 129.078H1176.51V127H1175.49V129.078H1173V129.922H1175.49V132H1176.51V129.922H1179V129.078Z" fill="white" />
    <path d="M978 134.663H975.506V133H974.494V134.663H972V135.337H974.494V137H975.506V135.337H978V134.663Z" fill="white" />
    <path d="M304 41.6626H301.506V40H300.494V41.6626H298V42.3373H300.494V44H301.506V42.3373H304V41.6626Z" fill="white" />
    <path d="M1088 529.663H1085.09V528H1083.91V529.663H1081V530.337H1083.91V532H1085.09V530.337H1088V529.663Z" fill="white" />
    <path d="M74 138.663H71.5061V137H70.494V138.663H68V139.337H70.494V141H71.5061V139.337H74V138.663Z" fill="white" />
    <path d="M146 653.663H143.506V652H142.494V653.663H140V654.337H142.494V656H143.506V654.337H146V653.663Z" fill="white" />
    <path d="M709 170.663H706.09V169H704.91V170.663H702V171.337H704.91V173H706.09V171.337H709V170.663Z" fill="white" />
    <path d="M154 590.663H151.506V589H150.494V590.663H148V591.337H150.494V593H151.506V591.337H154V590.663Z" fill="white" />
    <path d="M717 107.663H714.506V106H713.494V107.663H711V108.337H713.494V110H714.506V108.337H717V107.663Z" fill="white" />
    <path d="M829 240.663H826.506V239H825.494V240.663H823V241.337H825.494V243H826.506V241.337H829V240.663Z" fill="white" />
    <path d="M60 532.663H57.0903V531H55.9096V532.663H53V533.337H55.9096V535H57.0903V533.337H60V532.663Z" fill="white" />
    <path d="M619 303.247H616.09V302H614.91V303.247H612V303.753H614.91V305H616.09V303.753H619V303.247Z" fill="white" />
    <path d="M453 537.663H450.09V536H448.91V537.663H446V538.337H448.91V540H450.09V538.337H453V537.663Z" fill="white" />
    <path d="M246 346.663H243.09V345H241.91V346.663H239V347.337H241.91V349H243.09V347.337H246V346.663Z" fill="white" />
    <path d="M1210 304.663H1207.09V303H1205.91V304.663H1203V305.337H1205.91V307H1207.09V305.337H1210V304.663Z" fill="white" />
    <path d="M1072 1.66264H1069.09V0H1067.91V1.66264H1065V2.33734H1067.91V4H1069.09V2.33734H1072V1.66264Z" fill="white" />
    <path d="M871 6.66264H868.09V5H866.91V6.66264H864V7.33734H866.91V9H868.09V7.33734H871V6.66264Z" fill="white" />
    <path d="M473 55.6626H470.09V54H468.91V55.6626H466V56.3373H468.91V58H470.09V56.3373H473V55.6626Z" fill="white" />
    <path d="M488 469.663H485.09V468H483.91V469.663H481V470.337H483.91V472H485.09V470.337H488V469.663Z" fill="white" />
    <path d="M1453 428.663H1450.09V427H1448.91V428.663H1446V429.337H1448.91V431H1450.09V429.337H1453V428.663Z" fill="white" />
    <path d="M281 279.078H278.09V277H276.91V279.078H274V279.922H276.91V282H278.09V279.922H281V279.078Z" fill="white" />
    <path d="M1246 237.663H1243.09V236H1241.91V237.663H1239V238.337H1241.91V240H1243.09V238.337H1246V237.663Z" fill="white" />
    <g opacity="0.7">
        <path opacity="0.7" d="M1048.57 625.591C1056.95 625.591 1063.75 621.549 1063.75 616.563C1063.75 611.577 1056.95 607.536 1048.57 607.536C1040.18 607.536 1033.38 611.577 1033.38 616.563C1033.38 621.549 1040.18 625.591 1048.57 625.591Z" fill="url(#paint7_linear)" />
    </g>
    <path opacity="0.2" d="M1048.5 625C1056.51 625 1063 621.194 1063 616.5C1063 611.806 1056.51 608 1048.5 608C1040.49 608 1034 611.806 1034 616.5C1034 621.194 1040.49 625 1048.5 625Z" fill="black" />
    <path opacity="0.2" d="M1086.5 685C1095.06 685 1102 680.747 1102 675.5C1102 670.253 1095.06 666 1086.5 666C1077.94 666 1071 670.253 1071 675.5C1071 680.747 1077.94 685 1086.5 685Z" fill="black" />
    <path opacity="0.2" d="M1086.5 685C1095.06 685 1102 680.747 1102 675.5C1102 670.253 1095.06 666 1086.5 666C1077.94 666 1071 670.253 1071 675.5C1071 680.747 1077.94 685 1086.5 685Z" fill="black" />
    <path opacity="0.2" d="M262 699C270.837 699 278 694.971 278 690C278 685.029 270.837 681 262 681C253.163 681 246 685.029 246 690C246 694.971 253.163 699 262 699Z" fill="black" />
    <path opacity="0.2" d="M73 294C81.8366 294 89 289.747 89 284.5C89 279.253 81.8366 275 73 275C64.1634 275 57 279.253 57 284.5C57 289.747 64.1634 294 73 294Z" fill="black" />
    <path opacity="0.2" d="M707 326C715.837 326 723 321.747 723 316.5C723 311.253 715.837 307 707 307C698.163 307 691 311.253 691 316.5C691 321.747 698.163 326 707 326Z" fill="black" />
    <g opacity="0.1">
        <path opacity="0.1" d="M712.02 626.147H735.245L733.69 619.839H713.575L712.02 626.147Z" fill="black" />
    </g>
    <g opacity="0.1">
        <path opacity="0.1" d="M775.686 626.147H798.911L797.343 619.839H777.241L775.686 626.147Z" fill="black" />
    </g>
    <g opacity="0.1">
        <path opacity="0.1" d="M822.164 305.225H682.559V308.445H822.164V305.225Z" fill="black" />
    </g>
    <path d="M1065 424.688C1061.4 421.82 1056.9 419.414 1051.75 417.61V417.61C1045.84 415.542 1039.22 414.326 1032.41 414.057C1025.6 413.788 1018.77 414.473 1012.47 416.058C1006.16 417.643 1000.54 420.087 996.044 423.2C991.544 426.313 988.284 430.012 986.517 434.011C984.75 438.01 984.523 442.202 985.854 446.263C987.184 450.323 990.036 454.144 994.19 457.43C998.343 460.715 1003.69 463.377 1009.81 465.21C1015.93 467.043 1022.66 467.997 1029.49 468C1030.43 468 1031.38 468 1032.3 467.937C1040.32 467.63 1048.06 466.011 1054.69 463.251C1061.31 460.492 1066.58 456.695 1069.94 452.265C1073.29 447.834 1074.61 442.935 1073.74 438.088C1072.87 433.241 1069.86 428.627 1065.02 424.736L1065 424.688Z" fill="url(#paint8_linear)" />
    <path d="M123.902 548.688C120.26 545.82 115.705 543.414 110.501 541.61V541.61C104.521 539.542 97.8287 538.326 90.9408 538.057C84.0529 537.788 77.1541 538.473 70.7777 540.058C64.4013 541.643 58.7182 544.087 54.1676 547.2C49.617 550.313 46.321 554.012 44.5343 558.011C42.7476 562.01 42.5179 566.202 43.8633 570.263C45.2087 574.323 48.093 578.144 52.2932 581.43C56.4934 584.715 61.8969 587.377 68.0861 589.21C74.2753 591.043 81.0844 591.997 87.9869 592C88.9441 592 89.9012 592 90.8322 591.937C98.9446 591.63 106.767 590.011 113.468 587.251C120.17 584.492 125.5 580.695 128.893 576.265C132.285 571.834 133.614 566.935 132.738 562.088C131.861 557.241 128.812 552.627 123.915 548.736L123.902 548.688Z" fill="url(#paint9_linear)" />
    <path d="M685.902 65.6883C682.26 62.82 677.705 60.414 672.501 58.61V58.61C666.521 56.5419 659.829 55.3262 652.941 55.0571C646.053 54.788 639.154 55.4725 632.778 57.0579C626.401 58.6432 620.718 61.0869 616.168 64.1999C611.617 67.3129 608.321 71.0119 606.534 75.0109C604.748 79.01 604.518 83.2019 605.863 87.2626C607.209 91.3234 610.093 95.1441 614.293 98.4296C618.493 101.715 623.897 104.377 630.086 106.21C636.275 108.043 643.084 108.997 649.987 109C650.944 109 651.901 109 652.832 108.937C660.945 108.63 668.767 107.011 675.468 104.251C682.17 101.492 687.5 97.6953 690.893 93.2647C694.285 88.8342 695.614 83.9352 694.738 79.0881C693.861 74.241 690.812 69.6267 685.915 65.7355L685.902 65.6883Z" fill="url(#paint10_linear)" />
    <path opacity="0.2" d="M1072 441.508C1072 447.989 1067.88 454.227 1060.49 458.952C1053.1 463.678 1042.98 466.536 1032.2 466.945C1031.33 466.945 1030.42 467 1029.52 467C1023 467.002 1016.57 466.104 1010.72 464.375C1004.87 462.646 999.759 460.133 995.788 457.029C991.818 453.925 989.09 450.315 987.817 446.478C986.545 442.64 986.761 438.678 988.448 434.899C990.136 431.12 993.251 427.624 997.551 424.683C1001.85 421.741 1007.22 419.433 1013.25 417.937C1019.27 416.441 1025.79 415.798 1032.3 416.055C1038.8 416.313 1045.12 417.466 1050.77 419.425V419.425C1055.69 421.138 1059.99 423.425 1063.41 426.15V426.15C1068.99 430.569 1072.01 435.963 1072 441.508Z" fill="black" />
    <path opacity="0.2" d="M130 565.508C129.998 571.989 125.882 578.227 118.49 582.952C111.097 587.678 100.982 590.536 90.2029 590.945C89.3258 590.945 88.4225 591 87.5192 591C80.9989 591.002 74.5651 590.104 68.7159 588.375C62.8668 586.646 57.7591 584.133 53.7883 581.029C49.8176 577.925 47.0902 574.315 45.8175 570.478C44.5447 566.64 44.7606 562.678 46.4484 558.899C48.1363 555.12 51.251 551.624 55.5511 548.683C59.8513 545.741 65.2217 543.433 71.2466 541.937C77.2715 540.441 83.7893 539.798 90.2955 540.055C96.8016 540.313 103.122 541.466 108.766 543.425V543.425C113.686 545.138 117.986 547.425 121.412 550.15V550.15C126.994 554.569 130.011 559.963 130 565.508Z" fill="black" />
    <path opacity="0.2" d="M693 82.5078C692.998 88.9893 688.882 95.227 681.49 99.9523C674.097 104.678 663.982 107.536 653.203 107.945C652.326 107.945 651.422 108 650.519 108C643.999 108.002 637.565 107.104 631.716 105.375C625.867 103.646 620.759 101.133 616.788 98.029C612.818 94.9254 610.09 91.3152 608.817 87.4777C607.545 83.6402 607.761 79.6784 609.448 75.899C611.136 72.1196 614.251 68.624 618.551 65.6827C622.851 62.7415 628.222 60.4335 634.247 58.9375C640.272 57.4415 646.789 56.7975 653.295 57.0555C659.802 57.3135 666.122 58.4664 671.766 60.4251V60.4251C676.686 62.1383 680.986 64.4247 684.412 67.1497V67.1497C689.994 71.5685 693.011 76.9629 693 82.5078Z" fill="black" />
    <path opacity="0.1" d="M1019.45 425.269C1017.25 425.852 1015.12 426.54 1013.1 427.328C1011.74 427.783 1010.58 428.424 1009.69 429.201C1009.26 429.593 1009.01 430.055 1009 430.53C1008.99 431.005 1009.2 431.473 1009.62 431.874C1010.65 432.746 1012.65 432.875 1014.41 432.94C1016.26 433.084 1018.14 432.968 1019.9 432.6C1021.09 432.238 1022.18 431.755 1023.11 431.171L1026.77 429.128C1028.09 428.418 1029.4 427.441 1028.89 426.44C1028.58 426.082 1028.14 425.777 1027.6 425.551C1027.05 425.326 1026.43 425.187 1025.77 425.148C1022.61 424.769 1019.34 425.123 1016.58 426.141" fill="black" />
    <path opacity="0.1" d="M77.4545 549.269C75.2507 549.852 73.1248 550.54 71.0964 551.328C69.7423 551.783 68.5778 552.424 67.6941 553.201C67.2558 553.593 67.0147 554.055 67.0006 554.53C66.9866 555.005 67.2004 555.473 67.6153 555.874C68.6531 556.746 70.6498 556.875 72.4101 556.94C74.2586 557.084 76.1365 556.968 77.9012 556.6C79.0928 556.238 80.1764 555.755 81.1065 555.171L84.7716 553.128C86.0852 552.418 87.3989 551.441 86.8865 550.44C86.5835 550.082 86.14 549.777 85.5964 549.551C85.0527 549.326 84.4261 549.187 83.7732 549.148C80.6136 548.769 77.338 549.123 74.5776 550.141" fill="black" />
    <g opacity="0.1">
        <path opacity="0.1" d="M1003.55 452.689C1004.8 452.689 1005.81 452.089 1005.81 451.349C1005.81 450.609 1004.8 450.009 1003.55 450.009C1002.31 450.009 1001.3 450.609 1001.3 451.349C1001.3 452.089 1002.31 452.689 1003.55 452.689Z" fill="black" />
    </g>
    <g opacity="0.1">
        <path opacity="0.1" d="M1049.32 447.776C1053.88 447.776 1057.57 445.58 1057.57 442.87C1057.57 440.161 1053.88 437.965 1049.32 437.965C1044.76 437.965 1041.07 440.161 1041.07 442.87C1041.07 445.58 1044.76 447.776 1049.32 447.776Z" fill="black" />
    </g>
    <g opacity="0.1">
        <path opacity="0.1" d="M107.445 571.809C112.002 571.809 115.697 569.613 115.697 566.904C115.697 564.194 112.002 561.998 107.445 561.998C102.888 561.998 99.1934 564.194 99.1934 566.904C99.1934 569.613 102.888 571.809 107.445 571.809Z" fill="black" />
    </g>
    <g opacity="0.1">
        <path opacity="0.1" d="M1063.65 425.991C1063.62 427.273 1062.98 428.525 1061.79 429.596C1060.61 430.667 1058.93 431.513 1056.96 432.033C1054.98 432.554 1052.8 432.726 1050.67 432.53C1048.54 432.333 1046.55 431.777 1044.93 430.927C1043.31 430.077 1042.14 428.969 1041.56 427.734C1040.97 426.5 1040.99 425.191 1041.62 423.965C1042.25 422.738 1043.46 421.644 1045.11 420.814C1046.75 419.984 1048.76 419.453 1050.9 419.283V419.283C1055.86 420.991 1060.19 423.272 1063.65 425.991Z" fill="black" />
    </g>
    <g opacity="0.1">
        <path opacity="0.1" d="M121.773 550.024C121.749 551.307 121.105 552.558 119.919 553.63C118.733 554.701 117.054 555.547 115.082 556.067C113.109 556.587 110.927 556.759 108.795 556.563C106.663 556.367 104.671 555.811 103.055 554.961C101.44 554.111 100.269 553.002 99.6832 551.768C99.097 550.534 99.1199 549.225 99.749 547.998C100.378 546.771 101.587 545.678 103.232 544.848C104.877 544.018 106.888 543.486 109.027 543.316V543.316C113.986 545.025 118.319 547.305 121.773 550.024Z" fill="black" />
    </g>
    <g opacity="0.1">
        <path opacity="0.1" d="M1064.41 455.949C1060.73 459.063 1055.92 461.644 1050.34 463.503C1044.75 465.361 1038.53 466.449 1032.14 466.685C1032.14 466.332 1032.07 465.979 1032.07 465.619C1032.07 463.387 1033.11 461.2 1035.09 459.301C1037.06 457.402 1039.88 455.865 1043.23 454.863C1046.58 453.86 1050.34 453.431 1054.08 453.623C1057.82 453.814 1061.4 454.62 1064.41 455.949V455.949Z" fill="black" />
    </g>
    <g opacity="0.1">
        <path opacity="0.1" d="M122.538 579.982C118.858 583.096 114.047 585.678 108.461 587.536C102.876 589.394 96.6582 590.482 90.2695 590.718C90.2695 590.365 90.1904 590.013 90.1904 589.652C90.194 587.421 91.2398 585.233 93.2112 583.334C95.1826 581.435 98.0021 579.899 101.356 578.896C104.709 577.893 108.465 577.464 112.205 577.656C115.945 577.848 119.522 578.653 122.538 579.982V579.982Z" fill="black" />
    </g>
    <path d="M481.649 569.816C479.071 567.736 475.838 565.99 472.14 564.681V564.681C467.896 563.162 463.134 562.261 458.226 562.049C453.318 561.837 448.395 562.318 443.842 563.457C439.289 564.595 435.229 566.359 431.977 568.612C428.725 570.865 426.369 573.545 425.093 576.444C423.817 579.343 423.656 582.383 424.621 585.326C425.587 588.27 427.653 591.037 430.66 593.414C433.666 595.79 437.531 597.711 441.953 599.027C446.376 600.343 451.237 601.018 456.157 601C456.837 601 457.489 601 458.182 600.959C463.921 600.723 469.449 599.548 474.183 597.555C478.918 595.563 482.684 592.829 485.084 589.64C487.484 586.451 488.429 582.927 487.82 579.438C487.211 575.949 485.07 572.625 481.623 569.816H481.649Z" fill="url(#paint11_linear)" />
    <path d="M274.649 379.615C272.071 377.589 268.838 375.888 265.14 374.612V374.612C260.896 373.132 256.134 372.254 251.226 372.048C246.318 371.841 241.395 372.31 236.842 373.419C232.289 374.529 228.229 376.248 224.977 378.442C221.725 380.637 219.369 383.249 218.093 386.074C216.817 388.899 216.656 391.86 217.621 394.728C218.587 397.596 220.653 400.293 223.66 402.608C226.666 404.924 230.531 406.795 234.953 408.077C239.376 409.359 244.237 410.017 249.157 410C249.837 410 250.489 410 251.182 409.96C256.921 409.73 262.449 408.585 267.183 406.644C271.918 404.703 275.684 402.038 278.084 398.931C280.484 395.824 281.429 392.39 280.82 388.991C280.211 385.591 278.07 382.352 274.623 379.615H274.649Z" fill="url(#paint12_linear)" />
    <path d="M1238.65 337.615C1236.07 335.589 1232.84 333.888 1229.14 332.612V332.612C1224.9 331.132 1220.13 330.254 1215.23 330.048C1210.32 329.841 1205.4 330.31 1200.84 331.419C1196.29 332.529 1192.23 334.248 1188.98 336.442C1185.72 338.637 1183.37 341.249 1182.09 344.074C1180.82 346.899 1180.66 349.86 1181.62 352.728C1182.59 355.596 1184.65 358.293 1187.66 360.608C1190.67 362.924 1194.53 364.795 1198.95 366.077C1203.38 367.359 1208.24 368.017 1213.16 368C1213.84 368 1214.49 368 1215.18 367.96C1220.92 367.73 1226.45 366.585 1231.18 364.644C1235.92 362.703 1239.68 360.038 1242.08 356.931C1244.48 353.824 1245.43 350.39 1244.82 346.991C1244.21 343.591 1242.07 340.352 1238.62 337.615H1238.65Z" fill="url(#paint13_linear)" />
    <path d="M1100.65 34.6155C1098.07 32.5886 1094.84 30.8877 1091.14 29.6122V29.6122C1086.9 28.1321 1082.13 27.2545 1077.23 27.0476C1072.32 26.8407 1067.4 27.3101 1062.84 28.4193C1058.29 29.5285 1054.23 31.2476 1050.98 33.4425C1047.72 35.6374 1045.37 38.249 1044.09 41.0737C1042.82 43.8985 1042.66 46.8602 1043.62 49.7282C1044.59 52.5961 1046.65 55.2929 1049.66 57.6083C1052.67 59.9238 1056.53 61.7954 1060.95 63.0774C1065.38 64.3595 1070.24 65.0173 1075.16 64.9997C1075.84 64.9997 1076.49 64.9997 1077.18 64.9601C1082.92 64.7305 1088.45 63.5848 1093.18 61.6437C1097.92 59.7027 1101.68 57.0382 1104.08 53.9313C1106.48 50.8244 1107.43 47.3902 1106.82 43.9906C1106.21 40.5911 1104.07 37.3522 1100.62 34.6155H1100.65Z" fill="url(#paint14_linear)" />
    <path d="M899.749 39.6155C897.21 37.5886 894.028 35.8877 890.388 34.6122V34.6122C886.21 33.1321 881.523 32.2545 876.691 32.0476C871.86 31.8407 867.014 32.3101 862.532 33.4193C858.051 34.5285 854.053 36.2476 850.852 38.4425C847.651 40.6374 845.332 43.249 844.076 46.0737C842.82 48.8985 842.661 51.8602 843.612 54.7282C844.562 57.5961 846.596 60.2929 849.556 62.6083C852.515 64.9238 856.319 66.7954 860.673 68.0774C865.027 69.3595 869.811 70.0173 874.655 69.9997C875.324 69.9997 875.966 69.9997 876.648 69.9601C882.297 69.7305 887.738 68.5848 892.399 66.6437C897.06 64.7027 900.767 62.0382 903.13 58.9313C905.492 55.8244 906.423 52.3902 905.823 48.9906C905.223 45.5911 903.116 42.3522 899.722 39.6155H899.749Z" fill="url(#paint15_linear)" />
    <path d="M501.649 87.6155C499.071 85.5886 495.838 83.8877 492.14 82.6122V82.6122C487.896 81.1321 483.134 80.2545 478.226 80.0476C473.318 79.8407 468.395 80.3101 463.842 81.4193C459.289 82.5285 455.229 84.2476 451.977 86.4425C448.725 88.6374 446.369 91.249 445.093 94.0737C443.817 96.8985 443.656 99.8602 444.621 102.728C445.587 105.596 447.653 108.293 450.66 110.608C453.666 112.924 457.531 114.795 461.953 116.077C466.376 117.359 471.237 118.017 476.157 118C476.837 118 477.489 118 478.182 117.96C483.921 117.73 489.449 116.585 494.183 114.644C498.918 112.703 502.684 110.038 505.084 106.931C507.484 103.824 508.429 100.39 507.82 96.9906C507.211 93.5911 505.07 90.3522 501.623 87.6155H501.649Z" fill="url(#paint16_linear)" />
    <path d="M1465.75 46.6155C1463.21 44.5886 1460.03 42.8877 1456.39 41.6122V41.6122C1452.21 40.1321 1447.52 39.2545 1442.69 39.0476C1437.86 38.8407 1433.01 39.3101 1428.53 40.4193C1424.05 41.5285 1420.05 43.2476 1416.85 45.4425C1413.65 47.6374 1411.33 50.249 1410.08 53.0737C1408.82 55.8985 1408.66 58.8602 1409.61 61.7282C1410.56 64.5961 1412.6 67.2929 1415.56 69.6083C1418.51 71.9238 1422.32 73.7954 1426.67 75.0774C1431.03 76.3595 1435.81 77.0173 1440.66 76.9997C1441.32 76.9997 1441.97 76.9997 1442.65 76.9601C1448.3 76.7305 1453.74 75.5848 1458.4 73.6437C1463.06 71.7027 1466.77 69.0382 1469.13 65.9313C1471.49 62.8244 1472.42 59.3902 1471.82 55.9906C1471.22 52.5911 1469.12 49.3522 1465.72 46.6155H1465.75Z" fill="url(#paint17_linear)" />
    <path opacity="0.2" d="M486 581.539C485.998 585.988 483.091 590.27 477.87 593.513C472.648 596.757 465.504 598.719 457.891 599C457.269 599 456.566 599 455.996 599C451.395 598.999 446.855 598.381 442.729 597.194C438.602 596.006 434.999 594.281 432.198 592.152C429.397 590.022 427.474 587.546 426.576 584.913C425.679 582.281 425.831 579.563 427.022 576.971C428.213 574.378 430.41 571.981 433.444 569.963C436.478 567.945 440.267 566.361 444.518 565.333C448.769 564.306 453.368 563.862 457.959 564.037C462.551 564.212 467.012 565.001 470.998 566.342V566.342C474.478 567.523 477.516 569.1 479.93 570.98C483.881 574.017 486.014 577.726 486 581.539V581.539Z" fill="black" />
    <path opacity="0.2" d="M279 390.539C278.998 394.988 276.091 399.27 270.87 402.513C265.648 405.757 258.504 407.719 250.891 408C250.269 408 249.566 408 248.996 408C244.395 407.999 239.855 407.381 235.729 406.194C231.602 405.006 227.999 403.281 225.198 401.152C222.397 399.022 220.474 396.546 219.576 393.913C218.679 391.281 218.831 388.563 220.022 385.971C221.213 383.378 223.41 380.981 226.444 378.963C229.478 376.945 233.267 375.361 237.518 374.333C241.769 373.306 246.368 372.862 250.959 373.037C255.551 373.212 260.012 374.001 263.998 375.342V375.342C267.478 376.523 270.516 378.1 272.93 379.98C276.881 383.017 279.014 386.726 279 390.539V390.539Z" fill="black" />
    <path opacity="0.2" d="M1243 349.04C1243 353.616 1240.14 358.02 1235.01 361.357C1229.87 364.693 1222.85 366.711 1215.36 367C1214.75 367 1214.06 367 1213.5 367C1208.97 366.999 1204.51 366.364 1200.45 365.142C1196.39 363.921 1192.85 362.146 1190.09 359.956C1187.34 357.766 1185.45 355.218 1184.57 352.511C1183.68 349.803 1183.83 347.008 1185.01 344.342C1186.18 341.675 1188.34 339.209 1191.32 337.133C1194.3 335.057 1198.03 333.428 1202.21 332.371C1206.39 331.314 1210.91 330.858 1215.43 331.038C1219.94 331.218 1224.33 332.029 1228.25 333.409V333.409C1231.67 334.624 1234.66 336.246 1237.03 338.179C1240.92 341.303 1243.01 345.119 1243 349.04V349.04Z" fill="black" />
    <path opacity="0.2" d="M1105 45.5387C1105 49.988 1102.14 54.2698 1097.01 57.5135C1091.87 60.7572 1084.85 62.719 1077.36 63C1076.75 63 1076.06 63 1075.5 63C1070.97 62.9993 1066.51 62.3814 1062.45 61.1939C1058.39 60.0064 1054.85 58.2812 1052.09 56.1517C1049.34 54.0223 1047.45 51.5456 1046.57 48.9133C1045.68 46.2809 1045.83 43.5634 1047.01 40.971C1048.18 38.3785 1050.34 35.9805 1053.32 33.9625C1056.3 31.9445 1060.03 30.3606 1064.21 29.3331C1068.39 28.3057 1072.91 27.8623 1077.43 28.0372C1081.94 28.2122 1086.33 29.0008 1090.25 30.3421V30.3421C1093.67 31.5233 1096.66 33.1004 1099.03 34.9799C1102.92 38.0168 1105.01 41.7264 1105 45.5387V45.5387Z" fill="black" />
    <path opacity="0.2" d="M905 51.0398C904.998 55.6162 902.091 60.0204 896.87 63.3567C891.648 66.6931 884.504 68.7109 876.891 69C876.269 69 875.566 69 874.996 69C870.395 68.9993 865.855 68.3637 861.729 67.1423C857.602 65.9209 853.999 64.1464 851.198 61.9561C848.397 59.7658 846.474 57.2184 845.576 54.5108C844.679 51.8032 844.831 49.0081 846.022 46.3416C847.213 43.675 849.41 41.2086 852.444 39.1329C855.478 37.0572 859.267 35.428 863.518 34.3712C867.769 33.3144 872.368 32.8583 876.959 33.0383C881.551 33.2182 886.012 34.0294 889.998 35.409V35.409C893.478 36.6239 896.516 38.2462 898.93 40.1793C902.881 43.303 905.014 47.1186 905 51.0398V51.0398Z" fill="black" />
    <path opacity="0.2" d="M506 99.0398C505.998 103.616 503.14 108.02 498.005 111.357C492.871 114.693 485.846 116.711 478.36 117C477.747 117 477.057 117 476.496 117C471.972 116.999 467.508 116.364 463.45 115.142C459.392 113.921 455.849 112.146 453.095 109.956C450.341 107.766 448.449 105.218 447.567 102.511C446.684 99.8032 446.834 97.0081 448.005 94.3416C449.176 91.675 451.337 89.2086 454.32 87.1329C457.303 85.0572 461.029 83.428 465.209 82.3712C469.389 81.3144 473.912 80.8583 478.427 81.0383C482.942 81.2182 487.329 82.0294 491.248 83.409V83.409C494.67 84.6239 497.657 86.2462 500.031 88.1793C503.917 91.303 506.013 95.1186 506 99.0398V99.0398Z" fill="black" />
    <path opacity="0.2" d="M1471 58.0398C1471 62.6162 1468.09 67.0204 1462.87 70.3567C1457.65 73.6931 1450.5 75.7109 1442.89 76C1442.27 76 1441.57 76 1441 76C1436.39 75.9993 1431.86 75.3637 1427.73 74.1423C1423.6 72.9209 1420 71.1464 1417.2 68.9561C1414.4 66.7658 1412.47 64.2184 1411.58 61.5108C1410.68 58.8032 1410.83 56.0081 1412.02 53.3416C1413.21 50.675 1415.41 48.2086 1418.44 46.1329C1421.48 44.0572 1425.27 42.428 1429.52 41.3712C1433.77 40.3144 1438.37 39.8583 1442.96 40.0383C1447.55 40.2182 1452.01 41.0294 1456 42.409V42.409C1459.48 43.6239 1462.52 45.2462 1464.93 47.1793C1468.88 50.303 1471.01 54.1186 1471 58.0398V58.0398Z" fill="black" />
    <path opacity="0.1" d="M448.783 570.207C447.135 570.639 445.546 571.153 444.032 571.743C443.023 572.09 442.151 572.57 441.48 573.15C441.167 573.448 441 573.797 441 574.152C441 574.508 441.167 574.856 441.48 575.155C441.948 575.439 442.51 575.658 443.128 575.796C443.747 575.934 444.406 575.987 445.061 575.954C446.447 576.064 447.855 575.978 449.178 575.702C450.074 575.429 450.89 575.065 451.589 574.625L454.324 573.097C455.283 572.559 456.326 571.83 455.903 571.083C455.687 570.81 455.359 570.577 454.951 570.406C454.543 570.235 454.069 570.134 453.577 570.111C451.217 569.827 448.77 570.093 446.711 570.858" fill="black" />
    <path opacity="0.1" d="M241.783 379.207C240.135 379.639 238.546 380.153 237.032 380.743C236.023 381.09 235.151 381.57 234.48 382.15C234.167 382.448 234 382.797 234 383.152C234 383.508 234.167 383.856 234.48 384.155C234.948 384.439 235.51 384.658 236.128 384.796C236.747 384.934 237.406 384.987 238.061 384.954C239.447 385.064 240.855 384.978 242.178 384.702C243.074 384.429 243.89 384.065 244.589 383.625L247.324 382.097C248.283 381.559 249.326 380.83 248.903 380.083C248.687 379.81 248.359 379.577 247.951 379.406C247.543 379.235 247.069 379.134 246.577 379.111C244.217 378.827 241.77 379.093 239.711 379.858" fill="black" />
    <path opacity="0.1" d="M1205.78 337.207C1204.13 337.639 1202.55 338.153 1201.03 338.743C1200.02 339.09 1199.15 339.57 1198.48 340.15C1198.17 340.448 1198 340.797 1198 341.152C1198 341.508 1198.17 341.856 1198.48 342.155C1198.95 342.439 1199.51 342.658 1200.13 342.796C1200.75 342.934 1201.41 342.987 1202.06 342.954C1203.45 343.064 1204.85 342.978 1206.18 342.702C1207.07 342.429 1207.89 342.065 1208.59 341.625L1211.32 340.097C1212.28 339.559 1213.33 338.83 1212.9 338.083C1212.69 337.81 1212.36 337.577 1211.95 337.406C1211.54 337.235 1211.07 337.134 1210.58 337.111C1208.22 336.827 1205.77 337.093 1203.71 337.858" fill="black" />
    <path opacity="0.1" d="M1067.78 34.2067C1066.13 34.6389 1064.55 35.1528 1063.03 35.7432C1062.02 36.09 1061.15 36.5703 1060.48 37.1496C1060.17 37.4484 1060 37.7966 1060 38.1522C1060 38.5079 1060.17 38.856 1060.48 39.1549C1060.95 39.4393 1061.51 39.6579 1062.13 39.7958C1062.75 39.9336 1063.41 39.9875 1064.06 39.9535C1065.45 40.0636 1066.85 39.9775 1068.18 39.7018C1069.07 39.4292 1069.89 39.0653 1070.59 38.6253L1073.32 37.0975C1074.28 36.5593 1075.33 35.83 1074.9 35.0835C1074.69 34.8103 1074.36 34.5767 1073.95 34.4061C1073.54 34.2354 1073.07 34.1338 1072.58 34.1112C1070.22 33.8266 1067.77 34.0927 1065.71 34.8578" fill="black" />
    <path opacity="0.1" d="M867.264 39.2067C865.726 39.6389 864.242 40.1528 862.83 40.7432C861.888 41.09 861.074 41.5703 860.448 42.1496C860.156 42.4484 860 42.7966 860 43.1522C860 43.5079 860.156 43.856 860.448 44.1549C860.885 44.4393 861.409 44.6579 861.986 44.7958C862.563 44.9336 863.179 44.9875 863.79 44.9535C865.083 45.0636 866.398 44.9775 867.633 44.7018C868.469 44.4292 869.23 44.0653 869.883 43.6253L872.436 42.0975C873.331 41.5593 874.304 40.83 873.91 40.0835C873.708 39.8103 873.402 39.5767 873.021 39.4061C872.64 39.2354 872.198 39.1338 871.738 39.1112C869.536 38.8266 867.252 39.0927 865.33 39.8578" fill="black" />
    <path opacity="0.1" d="M468.783 88.1722C467.135 88.5324 465.546 88.9607 464.032 89.4527C463.023 89.7417 462.151 90.1419 461.48 90.6246C461.167 90.8737 461 91.1638 461 91.4602C461 91.7566 461.167 92.0467 461.48 92.2957C461.948 92.5327 462.51 92.7149 463.128 92.8298C463.747 92.9447 464.406 92.9896 465.061 92.9613C466.447 93.053 467.855 92.9813 469.178 92.7515C470.074 92.5243 470.89 92.2211 471.589 91.8545L474.324 90.5812C475.283 90.1327 476.326 89.525 475.903 88.9029C475.687 88.6752 475.359 88.4806 474.951 88.3384C474.543 88.1962 474.069 88.1115 473.577 88.0927C471.217 87.8555 468.77 88.0773 466.711 88.7148" fill="black" />
    <path opacity="0.1" d="M1433.26 46.2067C1431.73 46.6389 1430.24 47.1528 1428.83 47.7432C1427.89 48.09 1427.07 48.5703 1426.45 49.1496C1426.16 49.4484 1426 49.7966 1426 50.1522C1426 50.5079 1426.16 50.856 1426.45 51.1549C1426.88 51.4393 1427.41 51.6579 1427.99 51.7958C1428.56 51.9336 1429.18 51.9875 1429.79 51.9535C1431.08 52.0636 1432.4 51.9775 1433.63 51.7018C1434.47 51.4292 1435.23 51.0653 1435.88 50.6253L1438.44 49.0975C1439.33 48.5593 1440.3 47.83 1439.91 47.0835C1439.71 46.8103 1439.4 46.5767 1439.02 46.4061C1438.64 46.2354 1438.2 46.1338 1437.74 46.1112C1435.54 45.8266 1433.25 46.0927 1431.33 46.8578" fill="black" />
    <g opacity="0.1">
        <path opacity="0.1" d="M437.977 589.512C438.843 589.512 439.545 589.095 439.545 588.58C439.545 588.064 438.843 587.647 437.977 587.647C437.11 587.647 436.408 588.064 436.408 588.58C436.408 589.095 437.11 589.512 437.977 589.512Z" fill="black" />
    </g>
    <g opacity="0.1">
        <path opacity="0.1" d="M230.997 398.558C231.864 398.558 232.566 398.14 232.566 397.625C232.566 397.11 231.864 396.693 230.997 396.693C230.131 396.693 229.429 397.11 229.429 397.625C229.429 398.14 230.131 398.558 230.997 398.558Z" fill="black" />
    </g>
    <g opacity="0.1">
        <path opacity="0.1" d="M1195.35 357.021C1196.22 357.021 1196.92 356.604 1196.92 356.089C1196.92 355.574 1196.22 355.156 1195.35 355.156C1194.49 355.156 1193.78 355.574 1193.78 356.089C1193.78 356.604 1194.49 357.021 1195.35 357.021Z" fill="black" />
    </g>
    <g opacity="0.1">
        <path opacity="0.1" d="M1057.37 53.5711C1058.23 53.5711 1058.94 53.1536 1058.94 52.6386C1058.94 52.1236 1058.23 51.7061 1057.37 51.7061C1056.5 51.7061 1055.8 52.1236 1055.8 52.6386C1055.8 53.1536 1056.5 53.5711 1057.37 53.5711Z" fill="black" />
    </g>
    <g opacity="0.1">
        <path opacity="0.1" d="M856.588 58.7635C857.454 58.7635 858.157 58.346 858.157 57.831C858.157 57.3159 857.454 56.8984 856.588 56.8984C855.722 56.8984 855.02 57.3159 855.02 57.831C855.02 58.346 855.722 58.7635 856.588 58.7635Z" fill="black" />
    </g>
    <g opacity="0.1">
        <path opacity="0.1" d="M458.276 107.223C459.142 107.223 459.845 106.806 459.845 106.291C459.845 105.776 459.142 105.358 458.276 105.358C457.41 105.358 456.708 105.776 456.708 106.291C456.708 106.806 457.41 107.223 458.276 107.223Z" fill="black" />
    </g>
    <g opacity="0.1">
        <path opacity="0.1" d="M1422.63 65.6864C1423.5 65.6864 1424.2 65.2688 1424.2 64.7538C1424.2 64.2388 1423.5 63.8213 1422.63 63.8213C1421.77 63.8213 1421.06 64.2388 1421.06 64.7538C1421.06 65.2688 1421.77 65.6864 1422.63 65.6864Z" fill="black" />
    </g>
    <g opacity="0.1">
        <path opacity="0.1" d="M469.916 586.095C473.097 586.095 475.676 584.562 475.676 582.671C475.676 580.779 473.097 579.246 469.916 579.246C466.734 579.246 464.155 580.779 464.155 582.671C464.155 584.562 466.734 586.095 469.916 586.095Z" fill="black" />
    </g>
    <g opacity="0.1">
        <path opacity="0.1" d="M262.936 395.141C266.117 395.141 268.696 393.608 268.696 391.716C268.696 389.825 266.117 388.292 262.936 388.292C259.755 388.292 257.176 389.825 257.176 391.716C257.176 393.608 259.755 395.141 262.936 395.141Z" fill="black" />
    </g>
    <g opacity="0.1">
        <path opacity="0.1" d="M1227.29 353.604C1230.47 353.604 1233.05 352.071 1233.05 350.179C1233.05 348.288 1230.47 346.755 1227.29 346.755C1224.11 346.755 1221.53 348.288 1221.53 350.179C1221.53 352.071 1224.11 353.604 1227.29 353.604Z" fill="black" />
    </g>
    <g opacity="0.1">
        <path opacity="0.1" d="M1089.31 50.1546C1092.49 50.1546 1095.07 48.6214 1095.07 46.7302C1095.07 44.8389 1092.49 43.3057 1089.31 43.3057C1086.12 43.3057 1083.54 44.8389 1083.54 46.7302C1083.54 48.6214 1086.12 50.1546 1089.31 50.1546Z" fill="black" />
    </g>
    <g opacity="0.1">
        <path opacity="0.1" d="M888.527 55.3465C891.708 55.3465 894.287 53.8133 894.287 51.9221C894.287 50.0308 891.708 48.4976 888.527 48.4976C885.346 48.4976 882.767 50.0308 882.767 51.9221C882.767 53.8133 885.346 55.3465 888.527 55.3465Z" fill="black" />
    </g>
    <g opacity="0.1">
        <path opacity="0.1" d="M490.215 103.806C493.396 103.806 495.975 102.273 495.975 100.382C495.975 98.4902 493.396 96.957 490.215 96.957C487.034 96.957 484.455 98.4902 484.455 100.382C484.455 102.273 487.034 103.806 490.215 103.806Z" fill="black" />
    </g>
    <g opacity="0.1">
        <path opacity="0.1" d="M1454.57 62.2694C1457.75 62.2694 1460.33 60.7362 1460.33 58.8449C1460.33 56.9536 1457.75 55.4204 1454.57 55.4204C1451.39 55.4204 1448.81 56.9536 1448.81 58.8449C1448.81 60.7362 1451.39 62.2694 1454.57 62.2694Z" fill="black" />
    </g>
    <g opacity="0.1">
        <path opacity="0.1" d="M479.867 570.893C479.855 571.796 479.406 572.678 478.573 573.434C477.74 574.189 476.559 574.786 475.17 575.153C473.782 575.519 472.245 575.641 470.744 575.502C469.242 575.363 467.84 574.97 466.704 574.37C465.569 573.77 464.748 572.988 464.34 572.118C463.932 571.248 463.955 570.326 464.405 569.463C464.854 568.601 465.713 567.833 466.877 567.253C468.042 566.673 469.462 566.304 470.97 566.191C474.436 567.388 477.462 568.987 479.867 570.893V570.893Z" fill="black" />
    </g>
    <g opacity="0.1">
        <path opacity="0.1" d="M272.888 379.939C272.876 380.842 272.427 381.724 271.594 382.479C270.761 383.235 269.579 383.832 268.191 384.198C266.802 384.565 265.265 384.686 263.764 384.548C262.263 384.409 260.86 384.016 259.725 383.416C258.589 382.816 257.768 382.034 257.361 381.164C256.953 380.294 256.975 379.372 257.425 378.509C257.875 377.647 258.733 376.879 259.898 376.299C261.062 375.718 262.483 375.35 263.99 375.237C267.457 376.433 270.482 378.032 272.888 379.939V379.939Z" fill="black" />
    </g>
    <g opacity="0.1">
        <path opacity="0.1" d="M1237.24 338.402C1237.23 339.305 1236.78 340.187 1235.95 340.943C1235.12 341.698 1233.94 342.295 1232.55 342.662C1231.16 343.029 1229.62 343.15 1228.12 343.011C1226.62 342.872 1225.22 342.479 1224.08 341.879C1222.95 341.279 1222.12 340.497 1221.72 339.627C1221.31 338.757 1221.33 337.835 1221.78 336.973C1222.23 336.11 1223.09 335.343 1224.25 334.762C1225.42 334.182 1226.84 333.813 1228.35 333.7C1231.81 334.897 1234.84 336.496 1237.24 338.402V338.402Z" fill="black" />
    </g>
    <g opacity="0.1">
        <path opacity="0.1" d="M1099.26 34.9523C1099.24 35.8555 1098.8 36.7377 1097.96 37.4931C1097.13 38.2485 1095.95 38.8453 1094.56 39.2121C1093.17 39.5789 1091.63 39.7001 1090.13 39.5614C1088.63 39.4226 1087.23 39.0297 1086.09 38.4296C1084.96 37.8295 1084.14 37.0476 1083.73 36.1775C1083.32 35.3074 1083.34 34.3858 1083.79 33.523C1084.24 32.6603 1085.1 31.8928 1086.27 31.3125C1087.43 30.7321 1088.85 30.3634 1090.36 30.2505C1093.83 31.4471 1096.85 33.0461 1099.26 34.9523V34.9523Z" fill="black" />
    </g>
    <g opacity="0.1">
        <path opacity="0.1" d="M898.479 40.1442C898.467 41.0474 898.018 41.9295 897.185 42.685C896.352 43.4404 895.17 44.0372 893.782 44.404C892.393 44.7708 890.857 44.892 889.355 44.7533C887.854 44.6145 886.451 44.2216 885.316 43.6215C884.18 43.0214 883.359 42.2395 882.952 41.3694C882.544 40.4993 882.566 39.5777 883.016 38.7149C883.466 37.8521 884.325 37.0847 885.489 36.5044C886.653 35.924 888.074 35.5553 889.581 35.4424C893.048 36.639 896.073 38.238 898.479 40.1442V40.1442Z" fill="black" />
    </g>
    <g opacity="0.1">
        <path opacity="0.1" d="M500.167 88.6042C500.155 89.5074 499.705 90.3895 498.872 91.1449C498.039 91.9004 496.858 92.4972 495.47 92.864C494.081 93.2308 492.544 93.352 491.043 93.2132C489.542 93.0744 488.139 92.6815 487.004 92.0814C485.868 91.4813 485.047 90.6995 484.639 89.8293C484.232 88.9592 484.254 88.0376 484.704 87.1749C485.154 86.3121 486.012 85.5447 487.177 84.9643C488.341 84.384 489.762 84.0153 491.269 83.9023C494.735 85.099 497.761 86.698 500.167 88.6042V88.6042Z" fill="black" />
    </g>
    <g opacity="0.1">
        <path opacity="0.1" d="M1464.52 47.067C1464.51 47.9703 1464.06 48.8524 1463.23 49.6078C1462.4 50.3633 1461.21 50.9601 1459.83 51.3269C1458.44 51.6937 1456.9 51.8149 1455.4 51.6761C1453.9 51.5373 1452.5 51.1444 1451.36 50.5443C1450.22 49.9442 1449.4 49.1624 1449 48.2922C1448.59 47.4221 1448.61 46.5005 1449.06 45.6378C1449.51 44.775 1450.37 44.0076 1451.53 43.4272C1452.7 42.8469 1454.12 42.4782 1455.63 42.3652C1459.09 43.5619 1462.12 45.1609 1464.52 47.067V47.067Z" fill="black" />
    </g>
    <g opacity="0.1">
        <path opacity="0.1" d="M480.448 591.792C477.88 593.965 474.523 595.766 470.626 597.063C466.729 598.36 462.391 599.119 457.934 599.284C457.934 599.041 457.934 598.79 457.934 598.5C457.936 596.943 458.665 595.418 460.041 594.093C461.416 592.768 463.383 591.696 465.723 590.996C468.062 590.297 470.683 589.997 473.292 590.131C475.901 590.264 478.396 590.826 480.5 591.753L480.448 591.792Z" fill="black" />
    </g>
    <g opacity="0.1">
        <path opacity="0.1" d="M273.468 400.838C270.901 403.011 267.544 404.812 263.647 406.109C259.75 407.406 255.412 408.165 250.954 408.33C250.954 408.087 250.954 407.836 250.954 407.546C250.956 405.989 251.686 404.463 253.061 403.138C254.436 401.813 256.403 400.742 258.743 400.042C261.083 399.343 263.703 399.043 266.312 399.177C268.921 399.31 271.417 399.872 273.521 400.799L273.468 400.838Z" fill="black" />
    </g>
    <g opacity="0.1">
        <path opacity="0.1" d="M1237.82 359.301C1235.26 361.474 1231.9 363.275 1228 364.572C1224.11 365.869 1219.77 366.628 1215.31 366.793C1215.31 366.55 1215.31 366.299 1215.31 366.009C1215.31 364.452 1216.04 362.926 1217.42 361.601C1218.79 360.276 1220.76 359.204 1223.1 358.505C1225.44 357.805 1228.06 357.506 1230.67 357.639C1233.28 357.773 1235.77 358.335 1237.88 359.262L1237.82 359.301Z" fill="black" />
    </g>
    <g opacity="0.1">
        <path opacity="0.1" d="M1099.84 55.852C1097.27 58.0245 1093.91 59.8259 1090.02 61.1227C1086.12 62.4195 1081.78 63.1785 1077.32 63.3436C1077.32 63.1006 1077.32 62.8499 1077.32 62.5599C1077.33 61.003 1078.06 59.4771 1079.43 58.1521C1080.81 56.8272 1082.77 55.7552 1085.11 55.0557C1087.45 54.3562 1090.07 54.0566 1092.68 54.1902C1095.29 54.3239 1097.79 54.8857 1099.89 55.8128L1099.84 55.852Z" fill="black" />
    </g>
    <g opacity="0.1">
        <path opacity="0.1" d="M899.059 61.0439C896.491 63.2164 893.135 65.0178 889.238 66.3146C885.34 67.6114 881.002 68.3704 876.545 68.5355C876.545 68.2925 876.545 68.0418 876.545 67.7518C876.547 66.1949 877.277 64.669 878.652 63.344C880.027 62.0191 881.994 60.9471 884.334 60.2476C886.673 59.5481 889.294 59.2484 891.903 59.3821C894.512 59.5158 897.008 60.0776 899.112 61.0047L899.059 61.0439Z" fill="black" />
    </g>
    <g opacity="0.1">
        <path opacity="0.1" d="M500.747 109.503C498.179 111.676 494.823 113.477 490.926 114.774C487.028 116.071 482.69 116.83 478.233 116.995C478.233 116.752 478.233 116.501 478.233 116.211C478.235 114.654 478.965 113.128 480.34 111.803C481.715 110.479 483.682 109.407 486.022 108.707C488.361 108.008 490.982 107.708 493.591 107.842C496.2 107.975 498.696 108.537 500.8 109.464L500.747 109.503Z" fill="black" />
    </g>
    <g opacity="0.1">
        <path opacity="0.1" d="M1465.1 67.9668C1462.54 70.1393 1459.18 71.9407 1455.28 73.2375C1451.38 74.5343 1447.05 75.2933 1442.59 75.4583C1442.59 75.2154 1442.59 74.9646 1442.59 74.6747C1442.59 73.1178 1443.32 71.5918 1444.7 70.2669C1446.07 68.9419 1448.04 67.87 1450.38 67.1705C1452.72 66.4709 1455.34 66.1713 1457.95 66.305C1460.56 66.4387 1463.05 67.0004 1465.16 67.9276L1465.1 67.9668Z" fill="black" />
    </g>
    <g class="" style="transform-origin: 50px 50px 0px; transform: scale(0.92);">
        <g class="" style="transform-origin: 50px 50px 0px;">
            <style type="text/css" class="ld ld-tremble-px" style="transform-origin: 50px 50px 0px; animation-duration: 0.6s; animation-delay: -0.6s;">.st0{fill:#666666;} .st1{fill:#EBB885;} .st2{fill:#E0E0E0;} .st3{fill:#A0C8D7;} .st4{fill:#66503A;} .st5{fill:#ABBD81;} .st6{fill:#A0C8D7;stroke:#333333;stroke-width:2;stroke-miterlimit:10;} .st7{fill:#FFFFFF;} .st8{fill:#66503A;stroke:#333333;stroke-width:2;stroke-miterlimit:10;} .st9{fill:#E0E0E0;stroke:#333333;stroke-width:2;stroke-miterlimit:10;} .st10{fill:#03AFF3;} .st11{fill:none;stroke:#333333;stroke-width:5;stroke-linecap:round;stroke-miterlimit:10;} .st12{fill:#8C6239;} .st13{fill:#F5E6C8;} .st14{fill:#333333;} .st15{fill:#F47E60;} .st16{fill:#E15B64;} .st17{fill:none;stroke:#000000;stroke-width:6;stroke-miterlimit:10;} .st18{fill:#4A3827;} .st19{fill:none;stroke:#666666;stroke-width:5.8262;stroke-linecap:round;stroke-miterlimit:10;} .st20{fill:#77A4BD;} .st21{fill:#F8B26A;} .st22{fill:#849B87;} .st23{fill:none;} .st24{fill:#FFFFFF;stroke:#000000;stroke-width:4;stroke-miterlimit:10;} .st25{fill:none;stroke:#849B87;stroke-width:4;stroke-miterlimit:10;} .st26{fill:none;stroke:#849B87;stroke-width:4.1718;stroke-miterlimit:10;} .st27{fill:#C33737;} .st28{fill:#FFDC6C;stroke:#FFFFFF;stroke-width:2.4393;stroke-miterlimit:10;} .st29{stroke:#000000;stroke-width:3;stroke-miterlimit:10;} .st30{stroke:#000000;stroke-width:3;stroke-linecap:round;stroke-linejoin:round;stroke-miterlimit:10;} .st31{fill:#E0E0E0;stroke:#000000;stroke-width:3;stroke-miterlimit:10;} .st32{fill:#735441;} .st33{fill:#C8DC96;} .st34{fill:#F5E6C8;stroke:#C33737;stroke-width:6;stroke-miterlimit:10;} .st35{fill:#F5E6C8;stroke:#000000;stroke-width:4.2393;stroke-miterlimit:10;} .st36{fill:#F5E169;} .st37{fill:#FFDC6C;} .st38{fill:none;stroke:#000000;stroke-width:5.1342;stroke-miterlimit:10;} .st39{fill:none;stroke:#000000;stroke-width:4.908;stroke-miterlimit:10;} .st40{fill:none;stroke:#000000;stroke-width:5.0371;stroke-miterlimit:10;} .st41{fill:none;stroke:#000000;stroke-width:5.4333;stroke-miterlimit:10;} .st42{fill:none;stroke:#333333;stroke-width:4.308;stroke-miterlimit:10;} .st43{fill:#F8B26A;stroke:#333333;stroke-width:3;stroke-miterlimit:10;} .st44{fill:#FFFF00;stroke:#333333;stroke-width:3;stroke-miterlimit:10;} .st45{fill:#F8B26A;stroke:#F47E60;stroke-width:2.326;stroke-miterlimit:10;} .st46{fill:#333333;stroke:#333333;stroke-width:3;stroke-miterlimit:10;} .st47{fill:#8A8A8A;} .st48{fill:none;stroke:#333333;stroke-width:3;stroke-linecap:round;stroke-linejoin:round;stroke-miterlimit:10;} .st49{fill:none;stroke:#333333;stroke-width:2;stroke-linecap:round;stroke-linejoin:round;stroke-miterlimit:10;} .st50{fill:#983733;} .st51{fill:#D50D01;} .st52{fill:#81C927;} .st53{fill:#C33737;stroke:#333333;stroke-width:2;stroke-miterlimit:10;} .st54{fill:#F5E6C8;stroke:#333333;stroke-width:2;stroke-miterlimit:10;} .st55{fill:#FFFFFF;stroke:#333333;stroke-width:4;stroke-miterlimit:10;} .st56{fill:none;stroke:#E15B64;stroke-width:3;stroke-miterlimit:10;} .st57{fill:#FFFFFF;stroke:#333333;stroke-width:6;stroke-linecap:round;stroke-miterlimit:10;}</style>
            <g class="ld ld-tremble-px" style="transform-origin: 50px 50px 0px; animation-duration: 0.6s; animation-delay: -0.564706s;">
                <path d="M724.697 612.876L665.45 561.046C661.013 557.164 662.895 550.55 668.892 548.938L700.228 540.528L748.158 582.454L738.543 609.865C736.701 615.111 729.135 616.757 724.697 612.876Z" fill="#F47E60"/>
            </g>
            <g class="ld ld-tremble-px" style="transform-origin: 50px 50px 0px; animation-duration: 0.6s; animation-delay: -0.529412s;">
                <path d="M793.08 677.998C793.08 678.002 793.08 677.998 793.08 677.998C827.254 652.622 812 625.686 792.099 602.231C784.528 593.311 784.317 581.165 791.601 572.064L822.637 533.291C833.547 519.662 857.348 521.83 864.806 537.137C889.777 588.399 882.982 655.336 793.08 677.998Z" fill="#E15B64"/>
            </g>
            <g class="ld ld-tremble-px" style="transform-origin: 50px 50px 0px; animation-duration: 0.6s; animation-delay: -0.494118s;">
                <path d="M591.003 501.23C590.999 501.234 590.999 501.234 591.003 501.23C620.013 471.337 650.806 484.68 677.62 502.088C687.817 508.711 701.703 508.895 712.107 502.524L756.432 475.376C772.013 465.832 769.534 445.012 752.035 438.488C693.433 416.645 616.911 422.593 591.003 501.23Z" fill="#E15B64"/>
                
            </g>
            <g class="ld ld-tremble-px" style="transform-origin: 50px 50px 0px; animation-duration: 0.6s; animation-delay: -0.458824s;">
                <path d="M898.967 537.035C851.464 578.585 790.813 596.296 747.29 584.913C738.164 576.93 707.823 550.402 697.424 541.305C684.398 503.234 704.645 450.169 752.153 408.611C835.439 335.758 945.063 334.511 962.585 349.837C980.106 365.164 980.402 465.801 898.967 537.035Z" fill="#E0E0E0"/>
            </g>
            <g class="ld ld-tremble-px" style="transform-origin: 50px 50px 0px; animation-duration: 0.6s; animation-delay: -0.423529s;">
                <path d="M895.655 458.257C910.413 445.348 910.413 424.418 895.655 411.508C880.897 398.599 856.969 398.599 842.211 411.508C827.453 424.418 827.453 445.348 842.211 458.257C856.969 471.167 880.897 471.167 895.655 458.257Z" fill="#77A4BD"/>
            </g>
            <g class="ld ld-tremble-px" style="transform-origin: 50px 50px 0px; animation-duration: 0.6s; animation-delay: -0.388235s;">
                <path d="M962.583 349.837C953.744 342.105 921.435 338.608 880.902 346.387L967.881 422.471C975.797 386.489 971.342 357.498 962.583 349.837Z" fill="#F47E60"/>
            </g>
            <g class="ld ld-tremble-px" style="transform-origin: 50px 50px 0px; animation-duration: 0.6s; animation-delay: -0.352941s;">
                <path d="M676.208 656.465L709.436 599.523L695.074 586.964L694.577 586.525L680.22 573.966L615.119 603.032L643.815 607.654L615.119 656.034L613.541 657.41L614.581 656.94L614.043 657.845L615.616 656.469L670.919 631.364L676.208 656.465Z" fill="#C33737"/>
            </g>
        </g>
    </g>
    <path d="M224.697 817.763H246.47V826H214.443V776.234H224.697V817.763ZM268.755 826.684C263.332 826.684 258.911 825.02 255.493 821.693C252.098 818.367 250.4 813.935 250.4 808.397V807.44C250.4 803.726 251.118 800.411 252.554 797.494C253.989 794.555 256.017 792.299 258.638 790.727C261.281 789.132 264.289 788.334 267.661 788.334C272.72 788.334 276.696 789.929 279.59 793.119C282.507 796.309 283.965 800.832 283.965 806.688V810.722H260.415C260.734 813.137 261.691 815.074 263.286 816.532C264.904 817.991 266.943 818.72 269.404 818.72C273.21 818.72 276.183 817.341 278.325 814.584L283.179 820.019C281.698 822.115 279.692 823.756 277.163 824.94C274.634 826.103 271.831 826.684 268.755 826.684ZM267.627 796.332C265.667 796.332 264.072 796.993 262.842 798.314C261.634 799.636 260.859 801.527 260.518 803.988H274.258V803.202C274.212 801.015 273.62 799.328 272.48 798.144C271.341 796.936 269.723 796.332 267.627 796.332ZM301.431 779.926V789.018H307.754V796.264H301.431V814.721C301.431 816.088 301.693 817.068 302.217 817.66C302.741 818.253 303.743 818.549 305.225 818.549C306.318 818.549 307.287 818.469 308.13 818.31V825.795C306.193 826.387 304.199 826.684 302.148 826.684C295.221 826.684 291.689 823.186 291.553 816.19V796.264H286.152V789.018H291.553V779.926H301.431ZM333.286 815.78C333.286 814.573 332.682 813.627 331.475 812.943C330.29 812.237 328.376 811.61 325.732 811.063C316.937 809.218 312.539 805.481 312.539 799.853C312.539 796.571 313.895 793.837 316.606 791.649C319.341 789.439 322.907 788.334 327.305 788.334C331.999 788.334 335.747 789.439 338.55 791.649C341.375 793.86 342.788 796.731 342.788 800.263H332.91C332.91 798.85 332.454 797.688 331.543 796.776C330.632 795.842 329.207 795.375 327.271 795.375C325.607 795.375 324.32 795.751 323.408 796.503C322.497 797.255 322.041 798.212 322.041 799.374C322.041 800.468 322.554 801.356 323.579 802.04C324.627 802.701 326.382 803.282 328.843 803.783C331.304 804.262 333.377 804.809 335.063 805.424C340.282 807.338 342.891 810.653 342.891 815.37C342.891 818.743 341.444 821.477 338.55 823.573C335.656 825.647 331.919 826.684 327.339 826.684C324.24 826.684 321.483 826.137 319.067 825.043C316.675 823.926 314.795 822.411 313.428 820.497C312.061 818.56 311.377 816.475 311.377 814.242H320.742C320.833 815.997 321.483 817.341 322.69 818.275C323.898 819.21 325.516 819.677 327.544 819.677C329.435 819.677 330.859 819.324 331.816 818.617C332.796 817.888 333.286 816.942 333.286 815.78ZM377.617 817.763H399.39V826H367.363V776.234H377.617V817.763ZM426.084 826C425.628 825.111 425.298 824.006 425.093 822.685C422.7 825.351 419.59 826.684 415.762 826.684C412.139 826.684 409.131 825.635 406.738 823.539C404.368 821.443 403.184 818.799 403.184 815.609C403.184 811.69 404.631 808.682 407.524 806.586C410.441 804.49 414.645 803.43 420.137 803.407H424.683V801.288C424.683 799.579 424.238 798.212 423.35 797.187C422.484 796.161 421.105 795.648 419.214 795.648C417.55 795.648 416.24 796.047 415.283 796.845C414.349 797.642 413.882 798.736 413.882 800.126H404.004C404.004 797.984 404.665 796.002 405.986 794.179C407.308 792.356 409.176 790.932 411.592 789.906C414.007 788.858 416.719 788.334 419.727 788.334C424.284 788.334 427.896 789.485 430.562 791.786C433.25 794.065 434.595 797.278 434.595 801.425V817.455C434.618 820.964 435.107 823.619 436.064 825.419V826H426.084ZM417.915 819.13C419.373 819.13 420.718 818.811 421.948 818.173C423.179 817.512 424.09 816.635 424.683 815.541V809.184H420.991C416.047 809.184 413.415 810.893 413.096 814.311L413.062 814.892C413.062 816.122 413.494 817.136 414.36 817.934C415.226 818.731 416.411 819.13 417.915 819.13ZM464.331 822.24C461.893 825.202 458.521 826.684 454.214 826.684C450.249 826.684 447.218 825.544 445.122 823.266C443.049 820.987 441.989 817.649 441.943 813.251V789.018H451.821V812.909C451.821 816.76 453.576 818.686 457.085 818.686C460.435 818.686 462.736 817.523 463.989 815.199V789.018H473.901V826H464.604L464.331 822.24ZM490.444 789.018L490.752 793.29C493.395 789.986 496.938 788.334 501.382 788.334C505.301 788.334 508.218 789.485 510.132 791.786C512.046 794.088 513.026 797.528 513.071 802.108V826H503.193V802.348C503.193 800.251 502.738 798.736 501.826 797.802C500.915 796.845 499.399 796.366 497.28 796.366C494.5 796.366 492.415 797.551 491.025 799.921V826H481.147V789.018H490.444ZM535.972 818.72C537.795 818.72 539.276 818.218 540.415 817.216C541.554 816.213 542.147 814.88 542.192 813.217H551.455C551.432 815.723 550.749 818.025 549.404 820.121C548.06 822.195 546.214 823.812 543.867 824.975C541.543 826.114 538.968 826.684 536.143 826.684C530.856 826.684 526.686 825.009 523.633 821.659C520.579 818.287 519.053 813.638 519.053 807.714V807.064C519.053 801.368 520.568 796.822 523.599 793.427C526.629 790.032 530.788 788.334 536.074 788.334C540.7 788.334 544.403 789.656 547.183 792.299C549.985 794.919 551.41 798.417 551.455 802.792H542.192C542.147 800.878 541.554 799.328 540.415 798.144C539.276 796.936 537.772 796.332 535.903 796.332C533.602 796.332 531.859 797.175 530.674 798.861C529.512 800.525 528.931 803.236 528.931 806.996V808.021C528.931 811.827 529.512 814.561 530.674 816.225C531.836 817.888 533.602 818.72 535.972 818.72ZM566.733 793.051C569.354 789.906 572.646 788.334 576.611 788.334C584.632 788.334 588.7 792.994 588.813 802.313V826H578.936V802.587C578.936 800.468 578.48 798.907 577.568 797.904C576.657 796.879 575.142 796.366 573.022 796.366C570.129 796.366 568.032 797.483 566.733 799.716V826H556.855V773.5H566.733V793.051ZM640.151 812.943C640.151 811.007 639.468 809.525 638.101 808.5C636.733 807.452 634.272 806.358 630.718 805.219C627.163 804.057 624.349 802.917 622.275 801.801C616.624 798.747 613.799 794.634 613.799 789.462C613.799 786.773 614.551 784.381 616.055 782.284C617.581 780.165 619.757 778.513 622.583 777.328C625.431 776.143 628.621 775.551 632.153 775.551C635.708 775.551 638.875 776.2 641.655 777.499C644.435 778.775 646.589 780.587 648.115 782.934C649.665 785.281 650.439 787.947 650.439 790.932H640.186C640.186 788.653 639.468 786.887 638.032 785.634C636.597 784.358 634.58 783.72 631.982 783.72C629.476 783.72 627.528 784.255 626.138 785.326C624.748 786.374 624.053 787.764 624.053 789.496C624.053 791.114 624.862 792.47 626.479 793.563C628.12 794.657 630.524 795.683 633.691 796.64C639.525 798.394 643.774 800.57 646.44 803.168C649.106 805.766 650.439 809.001 650.439 812.875C650.439 817.182 648.81 820.565 645.552 823.026C642.293 825.465 637.907 826.684 632.393 826.684C628.564 826.684 625.078 825.989 621.934 824.599C618.789 823.186 616.385 821.26 614.722 818.822C613.081 816.384 612.261 813.559 612.261 810.346H622.549C622.549 815.837 625.83 818.583 632.393 818.583C634.831 818.583 636.733 818.093 638.101 817.113C639.468 816.111 640.151 814.721 640.151 812.943ZM655.225 807.167C655.225 803.498 655.931 800.229 657.344 797.357C658.757 794.486 660.785 792.265 663.428 790.692C666.094 789.12 669.181 788.334 672.69 788.334C677.681 788.334 681.748 789.861 684.893 792.914C688.06 795.967 689.826 800.115 690.19 805.355L690.259 807.885C690.259 813.559 688.675 818.116 685.508 821.557C682.34 824.975 678.091 826.684 672.759 826.684C667.427 826.684 663.166 824.975 659.976 821.557C656.808 818.139 655.225 813.49 655.225 807.611V807.167ZM665.103 807.885C665.103 811.394 665.763 814.083 667.085 815.951C668.407 817.797 670.298 818.72 672.759 818.72C675.151 818.72 677.02 817.808 678.364 815.985C679.709 814.14 680.381 811.2 680.381 807.167C680.381 803.726 679.709 801.06 678.364 799.169C677.02 797.278 675.129 796.332 672.69 796.332C670.275 796.332 668.407 797.278 667.085 799.169C665.763 801.037 665.103 803.943 665.103 807.885ZM705.605 789.018L705.913 793.153C708.534 789.94 712.077 788.334 716.543 788.334C721.305 788.334 724.575 790.214 726.353 793.974C728.95 790.214 732.653 788.334 737.461 788.334C741.471 788.334 744.456 789.507 746.416 791.854C748.376 794.179 749.355 797.688 749.355 802.382V826H739.443V802.416C739.443 800.32 739.033 798.793 738.213 797.836C737.393 796.856 735.946 796.366 733.872 796.366C730.91 796.366 728.859 797.779 727.72 800.604L727.754 826H717.876V802.45C717.876 800.308 717.454 798.759 716.611 797.802C715.768 796.845 714.333 796.366 712.305 796.366C709.502 796.366 707.474 797.528 706.221 799.853V826H696.343V789.018H705.605ZM773.999 826.684C768.576 826.684 764.155 825.02 760.737 821.693C757.342 818.367 755.645 813.935 755.645 808.397V807.44C755.645 803.726 756.362 800.411 757.798 797.494C759.233 794.555 761.261 792.299 763.882 790.727C766.525 789.132 769.533 788.334 772.905 788.334C777.964 788.334 781.94 789.929 784.834 793.119C787.751 796.309 789.209 800.832 789.209 806.688V810.722H765.659C765.978 813.137 766.935 815.074 768.53 816.532C770.148 817.991 772.188 818.72 774.648 818.72C778.454 818.72 781.427 817.341 783.569 814.584L788.423 820.019C786.942 822.115 784.937 823.756 782.407 824.94C779.878 826.103 777.075 826.684 773.999 826.684ZM772.871 796.332C770.911 796.332 769.316 796.993 768.086 798.314C766.878 799.636 766.104 801.527 765.762 803.988H779.502V803.202C779.456 801.015 778.864 799.328 777.725 798.144C776.585 796.936 774.967 796.332 772.871 796.332ZM806.675 779.926V789.018H812.998V796.264H806.675V814.721C806.675 816.088 806.937 817.068 807.461 817.66C807.985 818.253 808.988 818.549 810.469 818.549C811.562 818.549 812.531 818.469 813.374 818.31V825.795C811.437 826.387 809.443 826.684 807.393 826.684C800.465 826.684 796.934 823.186 796.797 816.19V796.264H791.396V789.018H796.797V779.926H806.675ZM828.14 793.051C830.76 789.906 834.053 788.334 838.018 788.334C846.038 788.334 850.106 792.994 850.22 802.313V826H840.342V802.587C840.342 800.468 839.886 798.907 838.975 797.904C838.063 796.879 836.548 796.366 834.429 796.366C831.535 796.366 829.438 797.483 828.14 799.716V826H818.262V773.5H828.14V793.051ZM868.096 826H858.184V789.018H868.096V826ZM857.603 779.447C857.603 777.966 858.092 776.747 859.072 775.79C860.075 774.833 861.431 774.354 863.14 774.354C864.826 774.354 866.17 774.833 867.173 775.79C868.175 776.747 868.677 777.966 868.677 779.447C868.677 780.951 868.164 782.182 867.139 783.139C866.136 784.096 864.803 784.574 863.14 784.574C861.476 784.574 860.132 784.096 859.106 783.139C858.104 782.182 857.603 780.951 857.603 779.447ZM885.356 789.018L885.664 793.29C888.307 789.986 891.851 788.334 896.294 788.334C900.213 788.334 903.13 789.485 905.044 791.786C906.958 794.088 907.938 797.528 907.983 802.108V826H898.105V802.348C898.105 800.251 897.65 798.736 896.738 797.802C895.827 796.845 894.312 796.366 892.192 796.366C889.412 796.366 887.327 797.551 885.938 799.921V826H876.06V789.018H885.356ZM914.067 807.235C914.067 801.562 915.412 796.993 918.101 793.529C920.812 790.066 924.458 788.334 929.038 788.334C933.094 788.334 936.25 789.724 938.506 792.504L938.916 789.018H947.871V824.77C947.871 828.005 947.131 830.819 945.649 833.212C944.191 835.604 942.129 837.427 939.463 838.681C936.797 839.934 933.675 840.561 930.098 840.561C927.386 840.561 924.743 840.014 922.168 838.92C919.593 837.849 917.645 836.459 916.323 834.75L920.698 828.734C923.159 831.492 926.144 832.87 929.653 832.87C932.274 832.87 934.313 832.164 935.771 830.751C937.23 829.361 937.959 827.379 937.959 824.804V822.821C935.68 825.396 932.684 826.684 928.97 826.684C924.526 826.684 920.926 824.952 918.169 821.488C915.435 818.002 914.067 813.388 914.067 807.646V807.235ZM923.945 807.953C923.945 811.303 924.618 813.935 925.962 815.849C927.306 817.74 929.152 818.686 931.499 818.686C934.507 818.686 936.66 817.558 937.959 815.302V799.75C936.637 797.494 934.507 796.366 931.567 796.366C929.198 796.366 927.329 797.335 925.962 799.271C924.618 801.208 923.945 804.102 923.945 807.953ZM1008.98 784.54H993.74V826H983.486V784.54H968.447V776.234H1008.98V784.54ZM1005.57 807.167C1005.57 803.498 1006.27 800.229 1007.69 797.357C1009.1 794.486 1011.13 792.265 1013.77 790.692C1016.44 789.12 1019.52 788.334 1023.03 788.334C1028.02 788.334 1032.09 789.861 1035.23 792.914C1038.4 795.967 1040.17 800.115 1040.53 805.355L1040.6 807.885C1040.6 813.559 1039.02 818.116 1035.85 821.557C1032.68 824.975 1028.43 826.684 1023.1 826.684C1017.77 826.684 1013.51 824.975 1010.32 821.557C1007.15 818.139 1005.57 813.49 1005.57 807.611V807.167ZM1015.44 807.885C1015.44 811.394 1016.11 814.083 1017.43 815.951C1018.75 817.797 1020.64 818.72 1023.1 818.72C1025.49 818.72 1027.36 817.808 1028.71 815.985C1030.05 814.14 1030.72 811.2 1030.72 807.167C1030.72 803.726 1030.05 801.06 1028.71 799.169C1027.36 797.278 1025.47 796.332 1023.03 796.332C1020.62 796.332 1018.75 797.278 1017.43 799.169C1016.11 801.037 1015.44 803.943 1015.44 807.885ZM1045.25 807.235C1045.25 801.562 1046.59 796.993 1049.28 793.529C1051.99 790.066 1055.64 788.334 1060.22 788.334C1064.28 788.334 1067.43 789.724 1069.69 792.504L1070.1 789.018H1079.05V824.77C1079.05 828.005 1078.31 830.819 1076.83 833.212C1075.37 835.604 1073.31 837.427 1070.64 838.681C1067.98 839.934 1064.86 840.561 1061.28 840.561C1058.57 840.561 1055.92 840.014 1053.35 838.92C1050.77 837.849 1048.83 836.459 1047.5 834.75L1051.88 828.734C1054.34 831.492 1057.33 832.87 1060.83 832.87C1063.46 832.87 1065.49 832.164 1066.95 830.751C1068.41 829.361 1069.14 827.379 1069.14 824.804V822.821C1066.86 825.396 1063.87 826.684 1060.15 826.684C1055.71 826.684 1052.11 824.952 1049.35 821.488C1046.62 818.002 1045.25 813.388 1045.25 807.646V807.235ZM1055.13 807.953C1055.13 811.303 1055.8 813.935 1057.14 815.849C1058.49 817.74 1060.33 818.686 1062.68 818.686C1065.69 818.686 1067.84 817.558 1069.14 815.302V799.75C1067.82 797.494 1065.69 796.366 1062.75 796.366C1060.38 796.366 1058.51 797.335 1057.14 799.271C1055.8 801.208 1055.13 804.102 1055.13 807.953ZM1103.7 826.684C1098.27 826.684 1093.85 825.02 1090.43 821.693C1087.04 818.367 1085.34 813.935 1085.34 808.397V807.44C1085.34 803.726 1086.06 800.411 1087.5 797.494C1088.93 794.555 1090.96 792.299 1093.58 790.727C1096.22 789.132 1099.23 788.334 1102.6 788.334C1107.66 788.334 1111.64 789.929 1114.53 793.119C1117.45 796.309 1118.91 800.832 1118.91 806.688V810.722H1095.36C1095.68 813.137 1096.63 815.074 1098.23 816.532C1099.85 817.991 1101.88 818.72 1104.35 818.72C1108.15 818.72 1111.12 817.341 1113.27 814.584L1118.12 820.019C1116.64 822.115 1114.63 823.756 1112.1 824.94C1109.58 826.103 1106.77 826.684 1103.7 826.684ZM1102.57 796.332C1100.61 796.332 1099.01 796.993 1097.78 798.314C1096.58 799.636 1095.8 801.527 1095.46 803.988H1109.2V803.202C1109.15 801.015 1108.56 799.328 1107.42 798.144C1106.28 796.936 1104.66 796.332 1102.57 796.332ZM1136.37 779.926V789.018H1142.7V796.264H1136.37V814.721C1136.37 816.088 1136.63 817.068 1137.16 817.66C1137.68 818.253 1138.68 818.549 1140.17 818.549C1141.26 818.549 1142.23 818.469 1143.07 818.31V825.795C1141.13 826.387 1139.14 826.684 1137.09 826.684C1130.16 826.684 1126.63 823.186 1126.49 816.19V796.264H1121.09V789.018H1126.49V779.926H1136.37ZM1157.84 793.051C1160.46 789.906 1163.75 788.334 1167.71 788.334C1175.74 788.334 1179.8 792.994 1179.92 802.313V826H1170.04V802.587C1170.04 800.468 1169.58 798.907 1168.67 797.904C1167.76 796.879 1166.25 796.366 1164.13 796.366C1161.23 796.366 1159.14 797.483 1157.84 799.716V826H1147.96V773.5H1157.84V793.051ZM1204.39 826.684C1198.97 826.684 1194.55 825.02 1191.13 821.693C1187.73 818.367 1186.04 813.935 1186.04 808.397V807.44C1186.04 803.726 1186.75 800.411 1188.19 797.494C1189.62 794.555 1191.65 792.299 1194.27 790.727C1196.92 789.132 1199.92 788.334 1203.3 788.334C1208.35 788.334 1212.33 789.929 1215.22 793.119C1218.14 796.309 1219.6 800.832 1219.6 806.688V810.722H1196.05C1196.37 813.137 1197.33 815.074 1198.92 816.532C1200.54 817.991 1202.58 818.72 1205.04 818.72C1208.84 818.72 1211.82 817.341 1213.96 814.584L1218.81 820.019C1217.33 822.115 1215.33 823.756 1212.8 824.94C1210.27 826.103 1207.47 826.684 1204.39 826.684ZM1203.26 796.332C1201.3 796.332 1199.71 796.993 1198.48 798.314C1197.27 799.636 1196.49 801.527 1196.15 803.988H1209.89V803.202C1209.85 801.015 1209.25 799.328 1208.12 798.144C1206.98 796.936 1205.36 796.332 1203.26 796.332ZM1246.02 798.28C1244.68 798.098 1243.49 798.007 1242.47 798.007C1238.73 798.007 1236.28 799.271 1235.12 801.801V826H1225.24V789.018H1234.57L1234.84 793.427C1236.83 790.032 1239.57 788.334 1243.08 788.334C1244.17 788.334 1245.2 788.482 1246.16 788.778L1246.02 798.28ZM1260.85 810.722H1252.65L1251.49 776.234H1262.02L1260.85 810.722ZM1256.75 816.122C1258.42 816.122 1259.75 816.612 1260.75 817.592C1261.78 818.572 1262.29 819.825 1262.29 821.352C1262.29 822.855 1261.78 824.097 1260.75 825.077C1259.75 826.057 1258.42 826.547 1256.75 826.547C1255.11 826.547 1253.78 826.057 1252.75 825.077C1251.75 824.097 1251.25 822.855 1251.25 821.352C1251.25 819.848 1251.75 818.606 1252.75 817.626C1253.78 816.623 1255.11 816.122 1256.75 816.122Z" fill="white"/>
    <defs>
        <linearGradient id="paint0_linear" x1="221.15" y1="536.462" x2="221.15" y2="514.842" gradientUnits="userSpaceOnUse">
            <stop stop-color="#808080" stop-opacity="0.25" />
            <stop offset="0.54" stop-color="#808080" stop-opacity="0.12" />
            <stop offset="1" stop-color="#808080" stop-opacity="0.1" />
        </linearGradient>
        <linearGradient id="paint1_linear" x1="783.95" y1="53.3578" x2="783.95" y2="31.7373" gradientUnits="userSpaceOnUse">
            <stop stop-color="#808080" stop-opacity="0.25" />
            <stop offset="0.54" stop-color="#808080" stop-opacity="0.12" />
            <stop offset="1" stop-color="#808080" stop-opacity="0.1" />
        </linearGradient>
        <linearGradient id="paint2_linear" x1="1185.51" y1="494.925" x2="1185.51" y2="473.305" gradientUnits="userSpaceOnUse">
            <stop stop-color="#808080" stop-opacity="0.25" />
            <stop offset="0.54" stop-color="#808080" stop-opacity="0.12" />
            <stop offset="1" stop-color="#808080" stop-opacity="0.1" />
        </linearGradient>
        <linearGradient id="paint3_linear" x1="1047.52" y1="191.476" x2="1047.52" y2="169.855" gradientUnits="userSpaceOnUse">
            <stop stop-color="#808080" stop-opacity="0.25" />
            <stop offset="0.54" stop-color="#808080" stop-opacity="0.12" />
            <stop offset="1" stop-color="#808080" stop-opacity="0.1" />
        </linearGradient>
        <linearGradient id="paint4_linear" x1="846.742" y1="196.667" x2="846.742" y2="175.047" gradientUnits="userSpaceOnUse">
            <stop stop-color="#808080" stop-opacity="0.25" />
            <stop offset="0.54" stop-color="#808080" stop-opacity="0.12" />
            <stop offset="1" stop-color="#808080" stop-opacity="0.1" />
        </linearGradient>
        <linearGradient id="paint5_linear" x1="448.43" y1="245.127" x2="448.43" y2="223.507" gradientUnits="userSpaceOnUse">
            <stop stop-color="#808080" stop-opacity="0.25" />
            <stop offset="0.54" stop-color="#808080" stop-opacity="0.12" />
            <stop offset="1" stop-color="#808080" stop-opacity="0.1" />
        </linearGradient>
        <linearGradient id="paint6_linear" x1="1412.79" y1="203.59" x2="1412.79" y2="181.97" gradientUnits="userSpaceOnUse">
            <stop stop-color="#808080" stop-opacity="0.25" />
            <stop offset="0.54" stop-color="#808080" stop-opacity="0.12" />
            <stop offset="1" stop-color="#808080" stop-opacity="0.1" />
        </linearGradient>
        <linearGradient id="paint7_linear" x1="23754.8" y1="10847.6" x2="23754.8" y2="10431.8" gradientUnits="userSpaceOnUse">
            <stop stop-color="#808080" stop-opacity="0.25" />
            <stop offset="0.54" stop-color="#808080" stop-opacity="0.12" />
            <stop offset="1" stop-color="#808080" stop-opacity="0.1" />
        </linearGradient>
        <linearGradient id="paint8_linear" x1="69163.5" y1="22512.4" x2="69163.5" y2="18804.8" gradientUnits="userSpaceOnUse">
            <stop stop-color="#808080" stop-opacity="0.25" />
            <stop offset="0.54" stop-color="#808080" stop-opacity="0.12" />
            <stop offset="1" stop-color="#808080" stop-opacity="0.1" />
        </linearGradient>
        <linearGradient id="paint9_linear" x1="68987.5" y1="22636.4" x2="68987.5" y2="18928.8" gradientUnits="userSpaceOnUse">
            <stop stop-color="#808080" stop-opacity="0.25" />
            <stop offset="0.54" stop-color="#808080" stop-opacity="0.12" />
            <stop offset="1" stop-color="#808080" stop-opacity="0.1" />
        </linearGradient>
        <linearGradient id="paint10_linear" x1="69549.5" y1="22153.4" x2="69549.5" y2="18445.8" gradientUnits="userSpaceOnUse">
            <stop stop-color="#808080" stop-opacity="0.25" />
            <stop offset="0.54" stop-color="#808080" stop-opacity="0.12" />
            <stop offset="1" stop-color="#808080" stop-opacity="0.1" />
        </linearGradient>
        <linearGradient id="paint11_linear" x1="21611.2" y1="23098.1" x2="21611.2" y2="21229.7" gradientUnits="userSpaceOnUse">
            <stop stop-color="#808080" stop-opacity="0.25" />
            <stop offset="0.54" stop-color="#808080" stop-opacity="0.12" />
            <stop offset="1" stop-color="#808080" stop-opacity="0.1" />
        </linearGradient>
        <linearGradient id="paint12_linear" x1="21404.2" y1="22330.3" x2="21404.2" y2="20509.7" gradientUnits="userSpaceOnUse">
            <stop stop-color="#808080" stop-opacity="0.25" />
            <stop offset="0.54" stop-color="#808080" stop-opacity="0.12" />
            <stop offset="1" stop-color="#808080" stop-opacity="0.1" />
        </linearGradient>
        <linearGradient id="paint13_linear" x1="22368.2" y1="22288.3" x2="22368.2" y2="20467.7" gradientUnits="userSpaceOnUse">
            <stop stop-color="#808080" stop-opacity="0.25" />
            <stop offset="0.54" stop-color="#808080" stop-opacity="0.12" />
            <stop offset="1" stop-color="#808080" stop-opacity="0.1" />
        </linearGradient>
        <linearGradient id="paint14_linear" x1="22230.2" y1="21985.3" x2="22230.2" y2="20164.7" gradientUnits="userSpaceOnUse">
            <stop stop-color="#808080" stop-opacity="0.25" />
            <stop offset="0.54" stop-color="#808080" stop-opacity="0.12" />
            <stop offset="1" stop-color="#808080" stop-opacity="0.1" />
        </linearGradient>
        <linearGradient id="paint15_linear" x1="21699.1" y1="21990.3" x2="21699.1" y2="20169.7" gradientUnits="userSpaceOnUse">
            <stop stop-color="#808080" stop-opacity="0.25" />
            <stop offset="0.54" stop-color="#808080" stop-opacity="0.12" />
            <stop offset="1" stop-color="#808080" stop-opacity="0.1" />
        </linearGradient>
        <linearGradient id="paint16_linear" x1="21631.2" y1="22038.3" x2="21631.2" y2="20217.7" gradientUnits="userSpaceOnUse">
            <stop stop-color="#808080" stop-opacity="0.25" />
            <stop offset="0.54" stop-color="#808080" stop-opacity="0.12" />
            <stop offset="1" stop-color="#808080" stop-opacity="0.1" />
        </linearGradient>
        <linearGradient id="paint17_linear" x1="22265.1" y1="21997.3" x2="22265.1" y2="20176.7" gradientUnits="userSpaceOnUse">
            <stop stop-color="#808080" stop-opacity="0.25" />
            <stop offset="0.54" stop-color="#808080" stop-opacity="0.12" />
            <stop offset="1" stop-color="#808080" stop-opacity="0.1" />
        </linearGradient>
        <style type="text/css" class="ld ld-tremble-px" style="transform-origin: 50px 50px 0px; animation-duration: 0.6s; animation-delay: -0.141176s;">path,ellipse,circle,rect,polygon,polyline,line { stroke-width: 0; }@keyframes ld-tremble-px {
        0% {
          -webkit-transform: translate(1px, 1px);
          transform: translate(1px, 1px);
        }
        5% {
          -webkit-transform: translate(0, 1px);
          transform: translate(0, 1px);
        }
        10% {
          -webkit-transform: translate(1px, 2px);
          transform: translate(1px, 2px);
        }
        15% {
          -webkit-transform: translate(2px, 1px);
          transform: translate(2px, 1px);
        }
        20% {
          -webkit-transform: translate(3px, 0);
          transform: translate(3px, 0);
        }
        25% {
          -webkit-transform: translate(1px, 2px);
          transform: translate(1px, 2px);
        }
        30% {
          -webkit-transform: translate(1px, 3px);
          transform: translate(1px, 3px);
        }
        35% {
          -webkit-transform: translate(0, 1px);
          transform: translate(0, 1px);
        }
        40% {
          -webkit-transform: translate(1px, 1px);
          transform: translate(1px, 1px);
        }
        45% {
          -webkit-transform: translate(1px, 0);
          transform: translate(1px, 0);
        }
        50% {
          -webkit-transform: translate(2px, 1px);
          transform: translate(2px, 1px);
        }
        55% {
          -webkit-transform: translate(1px, 2px);
          transform: translate(1px, 2px);
        }
        60% {
          -webkit-transform: translate(3px, 1px);
          transform: translate(3px, 1px);
        }
        65% {
          -webkit-transform: translate(0, 2px);
          transform: translate(0, 2px);
        }
        70% {
          -webkit-transform: translate(3px, 0);
          transform: translate(3px, 0);
        }
        75% {
          -webkit-transform: translate(0, 0);
          transform: translate(0, 0);
        }
        80% {
          -webkit-transform: translate(2px, 3px);
          transform: translate(2px, 3px);
        }
        85% {
          -webkit-transform: translate(1px, 0);
          transform: translate(1px, 0);
        }
        90% {
          -webkit-transform: translate(0, 2px);
          transform: translate(0, 2px);
        }
        95% {
          -webkit-transform: translate(3px, 2px);
          transform: translate(3px, 2px);
        }
      }
      @-webkit-keyframes ld-tremble-px {
        0% {
          -webkit-transform: translate(1px, 1px);
          transform: translate(1px, 1px);
        }
        5% {
          -webkit-transform: translate(0, 1px);
          transform: translate(0, 1px);
        }
        10% {
          -webkit-transform: translate(1px, 2px);
          transform: translate(1px, 2px);
        }
        15% {
          -webkit-transform: translate(2px, 1px);
          transform: translate(2px, 1px);
        }
        20% {
          -webkit-transform: translate(3px, 0);
          transform: translate(3px, 0);
        }
        25% {
          -webkit-transform: translate(1px, 2px);
          transform: translate(1px, 2px);
        }
        30% {
          -webkit-transform: translate(1px, 3px);
          transform: translate(1px, 3px);
        }
        35% {
          -webkit-transform: translate(0, 1px);
          transform: translate(0, 1px);
        }
        40% {
          -webkit-transform: translate(1px, 1px);
          transform: translate(1px, 1px);
        }
        45% {
          -webkit-transform: translate(1px, 0);
          transform: translate(1px, 0);
        }
        50% {
          -webkit-transform: translate(2px, 1px);
          transform: translate(2px, 1px);
        }
        55% {
          -webkit-transform: translate(1px, 2px);
          transform: translate(1px, 2px);
        }
        60% {
          -webkit-transform: translate(3px, 1px);
          transform: translate(3px, 1px);
        }
        65% {
          -webkit-transform: translate(0, 2px);
          transform: translate(0, 2px);
        }
        70% {
          -webkit-transform: translate(3px, 0);
          transform: translate(3px, 0);
        }
        75% {
          -webkit-transform: translate(0, 0);
          transform: translate(0, 0);
        }
        80% {
          -webkit-transform: translate(2px, 3px);
          transform: translate(2px, 3px);
        }
        85% {
          -webkit-transform: translate(1px, 0);
          transform: translate(1px, 0);
        }
        90% {
          -webkit-transform: translate(0, 2px);
          transform: translate(0, 2px);
        }
        95% {
          -webkit-transform: translate(3px, 2px);
          transform: translate(3px, 2px);
        }
      }
      .ld.ld-tremble-px {
        -webkit-animation: ld-tremble-px 1s infinite;
        animation: ld-tremble-px 1s infinite;
      }
      </style>
    </defs>
</svg>
    