<svg width="1507" height="927" viewBox="0 0 1507 927" fill="none" xmlns="http://www.w3.org/2000/svg">
    <path d="M1507 8H0V927H1507V8Z" fill="#1E3266"/>
    <g opacity="0.7">
    <path opacity="0.7" d="M221.151 536.462C231.197 536.462 239.341 531.62 239.341 525.648C239.341 519.675 231.197 514.834 221.151 514.834C211.104 514.834 202.96 519.675 202.96 525.648C202.96 531.62 211.104 536.462 221.151 536.462Z" fill="url(#paint0_linear)"/>
    </g>
    <g opacity="0.7">
    <path opacity="0.7" d="M783.95 53.3578C793.996 53.3578 802.141 48.5162 802.141 42.5437C802.141 36.5712 793.996 31.7295 783.95 31.7295C773.904 31.7295 765.76 36.5712 765.76 42.5437C765.76 48.5162 773.904 53.3578 783.95 53.3578Z" fill="url(#paint1_linear)"/>
    </g>
    <g opacity="0.7">
    <path opacity="0.7" d="M1185.51 494.925C1195.55 494.925 1203.7 490.084 1203.7 484.111C1203.7 478.139 1195.55 473.297 1185.51 473.297C1175.46 473.297 1167.32 478.139 1167.32 484.111C1167.32 490.084 1175.46 494.925 1185.51 494.925Z" fill="url(#paint2_linear)"/>
    </g>
    <g opacity="0.7">
    <path opacity="0.7" d="M1047.52 191.476C1057.57 191.476 1065.71 186.634 1065.71 180.662C1065.71 174.689 1057.57 169.847 1047.52 169.847C1037.47 169.847 1029.33 174.689 1029.33 180.662C1029.33 186.634 1037.47 191.476 1047.52 191.476Z" fill="url(#paint3_linear)"/>
    </g>
    <g opacity="0.7">
    <path opacity="0.7" d="M846.742 196.668C856.788 196.668 864.932 191.826 864.932 185.853C864.932 179.881 856.788 175.039 846.742 175.039C836.695 175.039 828.551 179.881 828.551 185.853C828.551 191.826 836.695 196.668 846.742 196.668Z" fill="url(#paint4_linear)"/>
    </g>
    <g opacity="0.7">
    <path opacity="0.7" d="M448.43 245.127C458.476 245.127 466.62 240.286 466.62 234.313C466.62 228.341 458.476 223.499 448.43 223.499C438.383 223.499 430.239 228.341 430.239 234.313C430.239 240.286 438.383 245.127 448.43 245.127Z" fill="url(#paint5_linear)"/>
    </g>
    <g opacity="0.7">
    <path opacity="0.7" d="M1412.79 203.591C1422.83 203.591 1430.98 198.749 1430.98 192.776C1430.98 186.804 1422.83 181.962 1412.79 181.962C1402.74 181.962 1394.6 186.804 1394.6 192.776C1394.6 198.749 1402.74 203.591 1412.79 203.591Z" fill="url(#paint6_linear)"/>
    </g>
    <path opacity="0.2" d="M221.5 536C231.165 536 239 531.299 239 525.5C239 519.701 231.165 515 221.5 515C211.835 515 204 519.701 204 525.5C204 531.299 211.835 536 221.5 536Z" fill="black"/>
    <path opacity="0.2" d="M784.5 53C794.165 53 802 48.299 802 42.5C802 36.701 794.165 32 784.5 32C774.835 32 767 36.701 767 42.5C767 48.299 774.835 53 784.5 53Z" fill="black"/>
    <path opacity="0.2" d="M1185.5 494C1195.16 494 1203 489.523 1203 484C1203 478.477 1195.16 474 1185.5 474C1175.84 474 1168 478.477 1168 484C1168 489.523 1175.84 494 1185.5 494Z" fill="black"/>
    <path opacity="0.2" d="M1047.5 191C1057.16 191 1065 186.299 1065 180.5C1065 174.701 1057.16 170 1047.5 170C1037.84 170 1030 174.701 1030 180.5C1030 186.299 1037.84 191 1047.5 191Z" fill="black"/>
    <path opacity="0.2" d="M846.5 196C856.165 196 864 191.299 864 185.5C864 179.701 856.165 175 846.5 175C836.835 175 829 179.701 829 185.5C829 191.299 836.835 196 846.5 196Z" fill="black"/>
    <path opacity="0.2" d="M448.5 245C458.165 245 466 240.299 466 234.5C466 228.701 458.165 224 448.5 224C438.835 224 431 228.701 431 234.5C431 240.299 438.835 245 448.5 245Z" fill="black"/>
    <path opacity="0.2" d="M1413 203C1422.39 203 1430 198.299 1430 192.5C1430 186.701 1422.39 182 1413 182C1403.61 182 1396 186.701 1396 192.5C1396 198.299 1403.61 203 1413 203Z" fill="black"/>
    <path d="M330 509C333.866 509 337 507.433 337 505.5C337 503.567 333.866 502 330 502C326.134 502 323 503.567 323 505.5C323 507.433 326.134 509 330 509Z" fill="white"/>
    <path d="M1295 468C1298.87 468 1302 466.209 1302 464C1302 461.791 1298.87 460 1295 460C1291.13 460 1288 461.791 1288 464C1288 466.209 1291.13 468 1295 468Z" fill="white"/>
    <path d="M1157 164C1160.87 164 1164 162.433 1164 160.5C1164 158.567 1160.87 157 1157 157C1153.13 157 1150 158.567 1150 160.5C1150 162.433 1153.13 164 1157 164Z" fill="white"/>
    <path d="M956 170C959.866 170 963 168.209 963 166C963 163.791 959.866 162 956 162C952.134 162 949 163.791 949 166C949 168.209 952.134 170 956 170Z" fill="white"/>
    <path d="M557.5 218C561.09 218 564 216.433 564 214.5C564 212.567 561.09 211 557.5 211C553.91 211 551 212.567 551 214.5C551 216.433 553.91 218 557.5 218Z" fill="white"/>
    <path d="M123 318C126.866 318 130 316.433 130 314.5C130 312.567 126.866 311 123 311C119.134 311 116 312.567 116 314.5C116 316.433 119.134 318 123 318Z" fill="white"/>
    <path d="M319.5 569C321.433 569 323 568.105 323 567C323 565.895 321.433 565 319.5 565C317.567 565 316 565.895 316 567C316 568.105 317.567 569 319.5 569Z" fill="white"/>
    <path d="M547 278C549.209 278 551 276.881 551 275.5C551 274.119 549.209 273 547 273C544.791 273 543 274.119 543 275.5C543 276.881 544.791 278 547 278Z" fill="white"/>
    <path d="M1358 652C1360.21 652 1362 651.105 1362 650C1362 648.895 1360.21 648 1358 648C1355.79 648 1354 648.895 1354 650C1354 651.105 1355.79 652 1358 652Z" fill="white"/>
    <path d="M1358 652C1360.21 652 1362 651.105 1362 650C1362 648.895 1360.21 648 1358 648C1355.79 648 1354 648.895 1354 650C1354 651.105 1355.79 652 1358 652Z" fill="white"/>
    <path d="M533 666C535.209 666 537 665.105 537 664C537 662.895 535.209 662 533 662C530.791 662 529 662.895 529 664C529 665.105 530.791 666 533 666Z" fill="white"/>
    <path d="M1220 348C1222.21 348 1224 347.105 1224 346C1224 344.895 1222.21 344 1220 344C1217.79 344 1216 344.895 1216 346C1216 347.105 1217.79 348 1220 348Z" fill="white"/>
    <path d="M345 261C347.209 261 349 260.105 349 259C349 257.895 347.209 257 345 257C342.791 257 341 257.895 341 259C341 260.105 342.791 261 345 261Z" fill="white"/>
    <path d="M1309 219C1311.21 219 1313 218.105 1313 217C1313 215.895 1311.21 215 1309 215C1306.79 215 1305 215.895 1305 217C1305 218.105 1306.79 219 1309 219Z" fill="white"/>
    <path d="M1143.5 452C1145.43 452 1147 450.881 1147 449.5C1147 448.119 1145.43 447 1143.5 447C1141.57 447 1140 448.119 1140 449.5C1140 450.881 1141.57 452 1143.5 452Z" fill="white"/>
    <path d="M130 61C132.209 61 134 59.8807 134 58.5C134 57.1193 132.209 56 130 56C127.791 56 126 57.1193 126 58.5C126 59.8807 127.791 61 130 61Z" fill="white"/>
    <path d="M449 379C452.866 379 456 377.209 456 375C456 372.791 452.866 371 449 371C445.134 371 442 372.791 442 375C442 377.209 445.134 379 449 379Z" fill="white"/>
    <path d="M1413 337C1416.87 337 1420 335.209 1420 333C1420 330.791 1416.87 329 1413 329C1409.13 329 1406 330.791 1406 333C1406 335.209 1409.13 337 1413 337Z" fill="white"/>
    <path d="M1275 34C1278.87 34 1282 32.2091 1282 30C1282 27.7909 1278.87 26 1275 26C1271.13 26 1268 27.7909 1268 30C1268 32.2091 1271.13 34 1275 34Z" fill="white"/>
    <path d="M264 645.326H258.185V642H255.815V645.326H250V646.681H255.815V650H258.185V646.681H264V645.326Z" fill="white"/>
    <path d="M827 161.742H820.769V158H818.231V161.742H812V163.266H818.231V167H820.769V163.266H827V161.742Z" fill="white"/>
    <path d="M492 353.742H485.769V350H483.231V353.742H477V355.266H483.231V359H485.769V355.266H492V353.742Z" fill="white"/>
    <path d="M1456 312.326H1449.77V309H1447.23V312.326H1441V313.681H1447.23V317H1449.77V313.681H1456V312.326Z" fill="white"/>
    <path d="M57 454.326H51.1848V451H48.8152V454.326H43V455.681H48.8152V459H51.1848V455.681H57V454.326Z" fill="white"/>
    <path d="M414 643.326H408.185V640H405.815V643.326H400V644.681H405.815V648H408.185V644.681H414V643.326Z" fill="white"/>
    <path d="M207 452.326H201.185V449H198.815V452.326H193V453.681H198.815V457H201.185V453.681H207V452.326Z" fill="white"/>
    <path d="M1171 411.326H1165.18V408H1162.82V411.326H1157V412.681H1162.82V416H1165.18V412.681H1171V411.326Z" fill="white"/>
    <path d="M1033 107.326H1027.18V104H1024.82V107.326H1019V108.681H1024.82V112H1027.18V108.681H1033V107.326Z" fill="white"/>
    <path d="M833 113.326H827.185V110H824.815V113.326H819V114.681H824.815V118H827.185V114.681H833V113.326Z" fill="white"/>
    <path d="M929 283.663H926.09V282H924.91V283.663H922V284.337H924.91V286H926.09V284.337H929V283.663Z" fill="white"/>
    <path d="M1317 432.663H1314.51V431H1313.49V432.663H1311V433.337H1313.49V435H1314.51V433.337H1317V432.663Z" fill="white"/>
    <path d="M1179 129.078H1176.51V127H1175.49V129.078H1173V129.922H1175.49V132H1176.51V129.922H1179V129.078Z" fill="white"/>
    <path d="M978 134.663H975.506V133H974.494V134.663H972V135.337H974.494V137H975.506V135.337H978V134.663Z" fill="white"/>
    <path d="M304 41.6626H301.506V40H300.494V41.6626H298V42.3373H300.494V44H301.506V42.3373H304V41.6626Z" fill="white"/>
    <path d="M1088 529.663H1085.09V528H1083.91V529.663H1081V530.337H1083.91V532H1085.09V530.337H1088V529.663Z" fill="white"/>
    <path d="M74 138.663H71.5061V137H70.494V138.663H68V139.337H70.494V141H71.5061V139.337H74V138.663Z" fill="white"/>
    <path d="M146 653.663H143.506V652H142.494V653.663H140V654.337H142.494V656H143.506V654.337H146V653.663Z" fill="white"/>
    <path d="M709 170.663H706.09V169H704.91V170.663H702V171.337H704.91V173H706.09V171.337H709V170.663Z" fill="white"/>
    <path d="M154 590.663H151.506V589H150.494V590.663H148V591.337H150.494V593H151.506V591.337H154V590.663Z" fill="white"/>
    <path d="M717 107.663H714.506V106H713.494V107.663H711V108.337H713.494V110H714.506V108.337H717V107.663Z" fill="white"/>
    <path d="M829 240.663H826.506V239H825.494V240.663H823V241.337H825.494V243H826.506V241.337H829V240.663Z" fill="white"/>
    <path d="M60 532.663H57.0903V531H55.9096V532.663H53V533.337H55.9096V535H57.0903V533.337H60V532.663Z" fill="white"/>
    <path d="M619 303.247H616.09V302H614.91V303.247H612V303.753H614.91V305H616.09V303.753H619V303.247Z" fill="white"/>
    <path d="M453 537.663H450.09V536H448.91V537.663H446V538.337H448.91V540H450.09V538.337H453V537.663Z" fill="white"/>
    <path d="M246 346.663H243.09V345H241.91V346.663H239V347.337H241.91V349H243.09V347.337H246V346.663Z" fill="white"/>
    <path d="M1210 304.663H1207.09V303H1205.91V304.663H1203V305.337H1205.91V307H1207.09V305.337H1210V304.663Z" fill="white"/>
    <path d="M1072 1.66264H1069.09V0H1067.91V1.66264H1065V2.33734H1067.91V4H1069.09V2.33734H1072V1.66264Z" fill="white"/>
    <path d="M871 6.66264H868.09V5H866.91V6.66264H864V7.33734H866.91V9H868.09V7.33734H871V6.66264Z" fill="white"/>
    <path d="M473 55.6626H470.09V54H468.91V55.6626H466V56.3373H468.91V58H470.09V56.3373H473V55.6626Z" fill="white"/>
    <path d="M488 469.663H485.09V468H483.91V469.663H481V470.337H483.91V472H485.09V470.337H488V469.663Z" fill="white"/>
    <path d="M1453 428.663H1450.09V427H1448.91V428.663H1446V429.337H1448.91V431H1450.09V429.337H1453V428.663Z" fill="white"/>
    <path d="M281 279.078H278.09V277H276.91V279.078H274V279.922H276.91V282H278.09V279.922H281V279.078Z" fill="white"/>
    <path d="M1246 237.663H1243.09V236H1241.91V237.663H1239V238.337H1241.91V240H1243.09V238.337H1246V237.663Z" fill="white"/>
    <g opacity="0.7">
    <path opacity="0.7" d="M1048.57 625.591C1056.95 625.591 1063.75 621.549 1063.75 616.563C1063.75 611.577 1056.95 607.536 1048.57 607.536C1040.18 607.536 1033.38 611.577 1033.38 616.563C1033.38 621.549 1040.18 625.591 1048.57 625.591Z" fill="url(#paint7_linear)"/>
    </g>
    <path opacity="0.2" d="M1048.5 625C1056.51 625 1063 621.194 1063 616.5C1063 611.806 1056.51 608 1048.5 608C1040.49 608 1034 611.806 1034 616.5C1034 621.194 1040.49 625 1048.5 625Z" fill="black"/>
    <path opacity="0.2" d="M1086.5 685C1095.06 685 1102 680.747 1102 675.5C1102 670.253 1095.06 666 1086.5 666C1077.94 666 1071 670.253 1071 675.5C1071 680.747 1077.94 685 1086.5 685Z" fill="black"/>
    <path opacity="0.2" d="M1086.5 685C1095.06 685 1102 680.747 1102 675.5C1102 670.253 1095.06 666 1086.5 666C1077.94 666 1071 670.253 1071 675.5C1071 680.747 1077.94 685 1086.5 685Z" fill="black"/>
    <path opacity="0.2" d="M262 699C270.837 699 278 694.971 278 690C278 685.029 270.837 681 262 681C253.163 681 246 685.029 246 690C246 694.971 253.163 699 262 699Z" fill="black"/>
    <path opacity="0.2" d="M73 294C81.8366 294 89 289.747 89 284.5C89 279.253 81.8366 275 73 275C64.1634 275 57 279.253 57 284.5C57 289.747 64.1634 294 73 294Z" fill="black"/>
    <path opacity="0.2" d="M707 326C715.837 326 723 321.747 723 316.5C723 311.253 715.837 307 707 307C698.163 307 691 311.253 691 316.5C691 321.747 698.163 326 707 326Z" fill="black"/>
    <g opacity="0.7">
    <path opacity="0.7" d="M945.516 421.735C945.624 402.095 937.708 382.733 922.448 365.314C915.212 357.133 908.608 352.055 903.52 348.928C901.576 347.707 899.038 346.88 896.261 346.562C893.485 346.244 890.611 346.452 888.045 347.157C885.992 347.59 884.137 348.301 882.627 349.233C875.759 353.465 869.551 359.06 864.173 365.008C848.128 382.843 839.806 402.772 839.959 422.997V435.128H826.869V294.066C826.869 264.507 815.744 235.348 793.916 209.488C783.582 197.232 774.144 189.615 766.907 184.936C765.15 183.746 762.986 182.792 760.56 182.138C758.133 181.485 755.5 181.147 752.836 181.147C750.172 181.147 747.539 181.485 745.112 182.138C742.685 182.792 740.521 183.746 738.765 184.936C728.958 191.276 720.1 199.661 712.402 208.571C689.479 234.995 677.84 264.993 677.84 295.413V435.073H666.53V422.355C666.674 402.143 658.352 382.227 642.316 364.405C636.898 358.457 630.69 352.862 623.862 348.63C621.879 347.378 619.272 346.536 616.426 346.229C613.579 345.921 610.642 346.164 608.044 346.922L608.519 347.071C606.863 347.509 605.364 348.131 604.103 348.904C599.028 352.039 592.424 357.109 585.188 365.29C569.927 382.71 562.011 402.072 562.12 421.712V632.51H602.508L598.053 649.836V701.658H631.085V649.836L626.67 632.502H666.478V440.511H677.787V631.671H710.042L705.416 649.836V701.658H738.448V649.836L733.822 631.648H777.32L772.667 649.836V701.658H805.7V649.836L801.073 631.648H826.83V440.535H839.919V632.816H850.53V632.526H885.619L881.217 649.836V701.658H914.249V649.836L909.833 632.502H945.516V421.735Z" fill="url(#paint8_linear)"/>
    </g>
    <path d="M638 640H606L611.718 617H632.282L638 640Z" fill="#535461"/>
    <g opacity="0.1">
    <path opacity="0.1" d="M610.39 626.147H633.603L632.048 619.839H611.946L610.39 626.147Z" fill="black"/>
    </g>
    <path d="M905 640H874L879.528 617H899.472L905 640Z" fill="#535461"/>
    <g opacity="0.1">
    <path opacity="0.1" d="M878.435 626.147H901.661L900.106 619.839H879.991L878.435 626.147Z" fill="black"/>
    </g>
    <path d="M740 640H708L713.707 617H734.293L740 640Z" fill="#535461"/>
    <g opacity="0.1">
    <path opacity="0.1" d="M712.02 626.147H735.245L733.69 619.839H713.575L712.02 626.147Z" fill="black"/>
    </g>
    <path d="M803 640H771L776.707 617H797.28L803 640Z" fill="#535461"/>
    <g opacity="0.1">
    <path opacity="0.1" d="M775.686 626.147H798.911L797.343 619.839H777.241L775.686 626.147Z" fill="black"/>
    </g>
    <path d="M861 430H638V436H861V430Z" fill="#535461"/>
    <path d="M895.773 346.464C894.58 345.688 893.123 345.068 891.497 344.644C889.871 344.219 888.112 344 886.334 344C884.555 344 882.796 344.219 881.17 344.644C879.544 345.068 878.088 345.688 876.894 346.464C870.321 350.592 864.375 356.045 859.188 361.843C843.803 379.292 835.847 398.679 836.002 418.337V623H935.998V417.474C936.124 398.36 928.553 379.5 913.906 362.44C906.96 354.468 900.64 349.477 895.773 346.464Z" fill="#E0E0E0"/>
    <path d="M611.811 346.464C612.993 345.688 614.435 345.068 616.045 344.644C617.654 344.219 619.396 344 621.157 344C622.917 344 624.659 344.219 626.268 344.644C627.878 345.068 629.32 345.688 630.502 346.464C637.022 350.592 642.896 356.045 648.044 361.843C663.269 379.294 671.145 398.679 670.998 418.337V623H572.002V417.474C571.878 398.36 579.373 379.5 593.873 362.44C600.737 354.468 606.993 349.477 611.811 346.464Z" fill="#E0E0E0"/>
    <path d="M573 422L596 422.069V439H573V422Z" fill="#535461"/>
    <path d="M647 422L671 422.069V439H647V422Z" fill="#535461"/>
    <path d="M836 422L860 422.069V439H836V422Z" fill="#535461"/>
    <path d="M912 422L935 422.069V439H912V422Z" fill="#535461"/>
    <g opacity="0.1">
    <path opacity="0.1" d="M648.221 361.787C643.081 355.996 637.215 350.55 630.703 346.428C628.865 345.216 626.408 344.396 623.71 344.095C621.012 343.793 618.222 344.027 615.769 344.759C617.182 345.178 618.458 345.743 619.538 346.428C626.037 350.55 631.916 355.996 637.043 361.787C652.254 379.214 660.12 398.576 659.966 418.209V622.597H671.144V418.217C671.294 398.582 663.428 379.218 648.221 361.787Z" fill="black"/>
    </g>
    <g opacity="0.1">
    <path opacity="0.1" d="M868.299 362.352C873.427 356.561 879.306 351.114 885.804 346.992C887.019 346.212 888.491 345.588 890.128 345.159C887.712 344.53 885.025 344.369 882.446 344.698C879.868 345.027 877.529 345.83 875.76 346.992C869.248 351.114 863.369 356.561 858.242 362.352C843.038 379.78 835.172 399.141 835.319 418.773V623.193H845.377V418.789C845.219 399.151 853.085 379.783 868.299 362.352Z" fill="black"/>
    </g>
    <path d="M622.438 690H621.562C617.435 690 613.476 689.056 610.558 687.376C607.64 685.696 606 683.417 606 681.04V640H638V681.04C638 683.417 636.36 685.696 633.442 687.376C630.524 689.056 626.565 690 622.438 690Z" fill="url(#paint9_linear)"/>
    <path d="M724.445 690H723.555C719.428 689.998 715.472 689.053 712.555 687.373C709.638 685.693 708 683.415 708 681.04V640H740V681.04C740 683.415 738.362 685.693 735.445 687.373C732.528 689.053 728.572 689.998 724.445 690Z" fill="url(#paint10_linear)"/>
    <path d="M787.432 690H786.528C782.406 689.994 778.456 689.047 775.546 687.368C772.635 685.688 771 683.413 771 681.04V640H803V681.04C803 683.417 801.36 685.696 798.44 687.376C795.521 689.056 791.561 690 787.432 690Z" fill="url(#paint11_linear)"/>
    <path d="M889.931 690H889.108C887.125 690.002 885.161 689.772 883.328 689.322C881.496 688.873 879.83 688.213 878.427 687.381C877.023 686.549 875.91 685.561 875.15 684.473C874.391 683.385 874 682.218 874 681.04V640H905V681.04C905 683.415 903.413 685.693 900.587 687.373C897.762 689.053 893.929 689.998 889.931 690Z" fill="url(#paint12_linear)"/>
    <path d="M765.778 186.686C764.156 185.532 762.133 184.603 759.849 183.967C757.565 183.33 755.076 183 752.556 183C750.036 183 747.547 183.33 745.263 183.967C742.979 184.603 740.956 185.532 739.335 186.686C730.176 192.857 721.802 201.009 714.475 209.685C692.938 235.401 682 264.595 682 294.195V622H822V292.879C822 264.117 811.533 235.715 791.069 210.578C781.452 198.652 772.594 191.236 765.778 186.686Z" fill="#EEEEEE"/>
    <path d="M773.62 223H729.38C721.438 223 715 226.849 715 231.597V234.403C715 239.151 721.438 243 729.38 243H773.62C781.562 243 788 239.151 788 234.403V231.597C788 226.849 781.562 223 773.62 223Z" fill="#535461"/>
    <g opacity="0.1">
    <path opacity="0.1" d="M822.164 305.225H682.559V308.445H822.164V305.225Z" fill="black"/>
    </g>
    <path d="M1065 424.688C1061.4 421.82 1056.9 419.414 1051.75 417.61C1045.84 415.542 1039.22 414.326 1032.41 414.057C1025.6 413.788 1018.77 414.473 1012.47 416.058C1006.16 417.643 1000.54 420.087 996.044 423.2C991.544 426.313 988.284 430.012 986.517 434.011C984.75 438.01 984.523 442.202 985.854 446.263C987.184 450.323 990.036 454.144 994.19 457.43C998.343 460.715 1003.69 463.377 1009.81 465.21C1015.93 467.043 1022.66 467.997 1029.49 468C1030.43 468 1031.38 468 1032.3 467.937C1040.32 467.63 1048.06 466.011 1054.69 463.251C1061.31 460.492 1066.58 456.695 1069.94 452.265C1073.29 447.834 1074.61 442.935 1073.74 438.088C1072.87 433.241 1069.86 428.627 1065.02 424.736L1065 424.688Z" fill="url(#paint13_linear)"/>
    <path d="M123.902 548.688C120.26 545.82 115.705 543.414 110.501 541.61C104.521 539.542 97.8287 538.326 90.9408 538.057C84.0529 537.788 77.1541 538.473 70.7777 540.058C64.4013 541.643 58.7182 544.087 54.1676 547.2C49.617 550.313 46.321 554.012 44.5343 558.011C42.7476 562.01 42.5179 566.202 43.8633 570.263C45.2087 574.323 48.093 578.144 52.2932 581.43C56.4934 584.715 61.8969 587.377 68.0861 589.21C74.2753 591.043 81.0844 591.997 87.9869 592C88.9441 592 89.9012 592 90.8322 591.937C98.9446 591.63 106.767 590.011 113.468 587.251C120.17 584.492 125.5 580.695 128.893 576.265C132.285 571.834 133.614 566.935 132.738 562.088C131.861 557.241 128.812 552.627 123.915 548.736L123.902 548.688Z" fill="url(#paint14_linear)"/>
    <path d="M685.902 65.6883C682.26 62.82 677.705 60.414 672.501 58.61C666.521 56.5419 659.829 55.3262 652.941 55.0571C646.053 54.788 639.154 55.4725 632.778 57.0579C626.401 58.6432 620.718 61.0869 616.168 64.1999C611.617 67.3129 608.321 71.0119 606.534 75.0109C604.748 79.01 604.518 83.2019 605.863 87.2626C607.209 91.3234 610.093 95.1441 614.293 98.4296C618.493 101.715 623.897 104.377 630.086 106.21C636.275 108.043 643.084 108.997 649.987 109C650.944 109 651.901 109 652.832 108.937C660.945 108.63 668.767 107.011 675.468 104.251C682.17 101.492 687.5 97.6953 690.893 93.2647C694.285 88.8342 695.614 83.9352 694.738 79.0881C693.861 74.241 690.812 69.6267 685.915 65.7355L685.902 65.6883Z" fill="url(#paint15_linear)"/>
    <path opacity="0.2" d="M1072 441.508C1072 447.989 1067.88 454.227 1060.49 458.952C1053.1 463.678 1042.98 466.536 1032.2 466.945C1031.33 466.945 1030.42 467 1029.52 467C1023 467.002 1016.57 466.104 1010.72 464.375C1004.87 462.646 999.759 460.133 995.788 457.029C991.818 453.925 989.09 450.315 987.817 446.478C986.545 442.64 986.761 438.678 988.448 434.899C990.136 431.12 993.251 427.624 997.551 424.683C1001.85 421.741 1007.22 419.433 1013.25 417.937C1019.27 416.441 1025.79 415.798 1032.3 416.055C1038.8 416.313 1045.12 417.466 1050.77 419.425C1055.69 421.138 1059.99 423.425 1063.41 426.15C1068.99 430.569 1072.01 435.963 1072 441.508Z" fill="black"/>
    <path opacity="0.2" d="M130 565.508C129.998 571.989 125.882 578.227 118.49 582.952C111.097 587.678 100.982 590.536 90.2029 590.945C89.3258 590.945 88.4225 591 87.5192 591C80.9989 591.002 74.5651 590.104 68.7159 588.375C62.8668 586.646 57.7591 584.133 53.7883 581.029C49.8176 577.925 47.0902 574.315 45.8175 570.478C44.5447 566.64 44.7606 562.678 46.4484 558.899C48.1363 555.12 51.251 551.624 55.5511 548.683C59.8513 545.741 65.2217 543.433 71.2466 541.937C77.2715 540.441 83.7893 539.798 90.2955 540.055C96.8016 540.313 103.122 541.466 108.766 543.425C113.686 545.138 117.986 547.425 121.412 550.15C126.994 554.569 130.011 559.963 130 565.508Z" fill="black"/>
    <path opacity="0.2" d="M693 82.5078C692.998 88.9893 688.882 95.227 681.49 99.9523C674.097 104.678 663.982 107.536 653.203 107.945C652.326 107.945 651.422 108 650.519 108C643.999 108.002 637.565 107.104 631.716 105.375C625.867 103.646 620.759 101.133 616.788 98.029C612.818 94.9254 610.09 91.3152 608.817 87.4777C607.545 83.6402 607.761 79.6784 609.448 75.899C611.136 72.1196 614.251 68.624 618.551 65.6827C622.851 62.7415 628.222 60.4335 634.247 58.9375C640.272 57.4415 646.789 56.7975 653.295 57.0555C659.802 57.3135 666.122 58.4664 671.766 60.4251C676.686 62.1383 680.986 64.4247 684.412 67.1497C689.994 71.5685 693.011 76.9629 693 82.5078Z" fill="black"/>
    <path opacity="0.1" d="M1019.45 425.269C1017.25 425.852 1015.12 426.54 1013.1 427.328C1011.74 427.783 1010.58 428.424 1009.69 429.201C1009.26 429.593 1009.01 430.055 1009 430.53C1008.99 431.005 1009.2 431.473 1009.62 431.874C1010.65 432.746 1012.65 432.875 1014.41 432.94C1016.26 433.084 1018.14 432.968 1019.9 432.6C1021.09 432.238 1022.18 431.755 1023.11 431.171L1026.77 429.128C1028.09 428.418 1029.4 427.441 1028.89 426.44C1028.58 426.082 1028.14 425.777 1027.6 425.551C1027.05 425.326 1026.43 425.187 1025.77 425.148C1022.61 424.769 1019.34 425.123 1016.58 426.141" fill="black"/>
    <path opacity="0.1" d="M77.4545 549.269C75.2507 549.852 73.1248 550.54 71.0964 551.328C69.7423 551.783 68.5778 552.424 67.6941 553.201C67.2558 553.593 67.0147 554.055 67.0006 554.53C66.9866 555.005 67.2004 555.473 67.6153 555.874C68.6531 556.746 70.6498 556.875 72.4101 556.94C74.2586 557.084 76.1365 556.968 77.9012 556.6C79.0928 556.238 80.1764 555.755 81.1065 555.171L84.7716 553.128C86.0852 552.418 87.3989 551.441 86.8865 550.44C86.5835 550.082 86.14 549.777 85.5964 549.551C85.0527 549.326 84.4261 549.187 83.7732 549.148C80.6136 548.769 77.338 549.123 74.5776 550.141" fill="black"/>
    <g opacity="0.1">
    <path opacity="0.1" d="M1003.55 452.689C1004.8 452.689 1005.81 452.089 1005.81 451.349C1005.81 450.609 1004.8 450.009 1003.55 450.009C1002.31 450.009 1001.3 450.609 1001.3 451.349C1001.3 452.089 1002.31 452.689 1003.55 452.689Z" fill="black"/>
    </g>
    <g opacity="0.1">
    <path opacity="0.1" d="M1049.32 447.776C1053.88 447.776 1057.57 445.579 1057.57 442.87C1057.57 440.161 1053.88 437.965 1049.32 437.965C1044.76 437.965 1041.07 440.161 1041.07 442.87C1041.07 445.579 1044.76 447.776 1049.32 447.776Z" fill="black"/>
    </g>
    <g opacity="0.1">
    <path opacity="0.1" d="M107.445 571.809C112.002 571.809 115.696 569.613 115.696 566.904C115.696 564.195 112.002 561.998 107.445 561.998C102.887 561.998 99.1931 564.195 99.1931 566.904C99.1931 569.613 102.887 571.809 107.445 571.809Z" fill="black"/>
    </g>
    <g opacity="0.1">
    <path opacity="0.1" d="M1063.65 425.991C1063.62 427.273 1062.98 428.525 1061.79 429.596C1060.61 430.667 1058.93 431.513 1056.96 432.033C1054.98 432.554 1052.8 432.726 1050.67 432.53C1048.54 432.333 1046.55 431.777 1044.93 430.927C1043.31 430.077 1042.14 428.969 1041.56 427.734C1040.97 426.5 1040.99 425.191 1041.62 423.965C1042.25 422.738 1043.46 421.644 1045.11 420.814C1046.75 419.984 1048.76 419.453 1050.9 419.283C1055.86 420.991 1060.19 423.272 1063.65 425.991Z" fill="black"/>
    </g>
    <g opacity="0.1">
    <path opacity="0.1" d="M121.773 550.024C121.749 551.307 121.105 552.558 119.919 553.629C118.733 554.701 117.054 555.547 115.082 556.067C113.109 556.587 110.927 556.759 108.795 556.563C106.663 556.367 104.671 555.811 103.055 554.961C101.44 554.11 100.269 553.002 99.6832 551.768C99.097 550.533 99.1199 549.225 99.749 547.998C100.378 546.771 101.587 545.678 103.232 544.848C104.877 544.018 106.888 543.486 109.027 543.316C113.986 545.024 118.319 547.305 121.773 550.024Z" fill="black"/>
    </g>
    <g opacity="0.1">
    <path opacity="0.1" d="M1064.41 455.949C1060.73 459.063 1055.92 461.644 1050.34 463.503C1044.75 465.361 1038.53 466.449 1032.14 466.685C1032.14 466.332 1032.07 465.979 1032.07 465.619C1032.07 463.387 1033.11 461.2 1035.09 459.301C1037.06 457.402 1039.88 455.865 1043.23 454.863C1046.58 453.86 1050.34 453.431 1054.08 453.623C1057.82 453.814 1061.4 454.62 1064.41 455.949Z" fill="black"/>
    </g>
    <g opacity="0.1">
    <path opacity="0.1" d="M122.537 579.982C118.858 583.096 114.047 585.678 108.461 587.536C102.875 589.395 96.6579 590.482 90.2693 590.718C90.2693 590.365 90.1902 590.013 90.1902 589.652C90.1938 587.421 91.2396 585.234 93.211 583.334C95.1823 581.435 98.0019 579.899 101.356 578.896C104.709 577.894 108.465 577.464 112.205 577.656C115.945 577.848 119.522 578.653 122.537 579.982Z" fill="black"/>
    </g>
    <path d="M481.649 569.816C479.071 567.736 475.838 565.99 472.14 564.681C467.896 563.162 463.134 562.261 458.226 562.049C453.318 561.837 448.395 562.318 443.842 563.457C439.289 564.595 435.229 566.359 431.977 568.612C428.725 570.865 426.369 573.545 425.093 576.444C423.817 579.343 423.656 582.383 424.621 585.326C425.587 588.27 427.653 591.037 430.66 593.414C433.666 595.79 437.531 597.711 441.953 599.027C446.376 600.343 451.237 601.018 456.157 601C456.837 601 457.489 601 458.182 600.959C463.921 600.723 469.449 599.548 474.183 597.555C478.918 595.563 482.684 592.829 485.084 589.64C487.484 586.451 488.429 582.927 487.82 579.438C487.211 575.949 485.07 572.625 481.623 569.816H481.649Z" fill="url(#paint16_linear)"/>
    <path d="M274.649 379.615C272.071 377.589 268.838 375.888 265.14 374.612C260.896 373.132 256.134 372.254 251.226 372.048C246.318 371.841 241.395 372.31 236.842 373.419C232.289 374.529 228.229 376.248 224.977 378.442C221.725 380.637 219.369 383.249 218.093 386.074C216.817 388.899 216.656 391.86 217.621 394.728C218.587 397.596 220.653 400.293 223.66 402.608C226.666 404.924 230.531 406.795 234.953 408.077C239.376 409.359 244.237 410.017 249.157 410C249.837 410 250.489 410 251.182 409.96C256.921 409.73 262.449 408.585 267.183 406.644C271.918 404.703 275.684 402.038 278.084 398.931C280.484 395.824 281.429 392.39 280.82 388.991C280.211 385.591 278.07 382.352 274.623 379.615H274.649Z" fill="url(#paint17_linear)"/>
    <path d="M1238.65 337.615C1236.07 335.589 1232.84 333.888 1229.14 332.612C1224.9 331.132 1220.13 330.254 1215.23 330.048C1210.32 329.841 1205.4 330.31 1200.84 331.419C1196.29 332.529 1192.23 334.248 1188.98 336.442C1185.72 338.637 1183.37 341.249 1182.09 344.074C1180.82 346.899 1180.66 349.86 1181.62 352.728C1182.59 355.596 1184.65 358.293 1187.66 360.608C1190.67 362.924 1194.53 364.795 1198.95 366.077C1203.38 367.359 1208.24 368.017 1213.16 368C1213.84 368 1214.49 368 1215.18 367.96C1220.92 367.73 1226.45 366.585 1231.18 364.644C1235.92 362.703 1239.68 360.038 1242.08 356.931C1244.48 353.824 1245.43 350.39 1244.82 346.991C1244.21 343.591 1242.07 340.352 1238.62 337.615H1238.65Z" fill="url(#paint18_linear)"/>
    <path d="M1100.65 34.6155C1098.07 32.5886 1094.84 30.8877 1091.14 29.6122C1086.9 28.1321 1082.13 27.2545 1077.23 27.0476C1072.32 26.8407 1067.4 27.3101 1062.84 28.4193C1058.29 29.5285 1054.23 31.2476 1050.98 33.4425C1047.72 35.6374 1045.37 38.249 1044.09 41.0737C1042.82 43.8985 1042.66 46.8602 1043.62 49.7282C1044.59 52.5961 1046.65 55.2929 1049.66 57.6083C1052.67 59.9238 1056.53 61.7954 1060.95 63.0774C1065.38 64.3595 1070.24 65.0173 1075.16 64.9997C1075.84 64.9997 1076.49 64.9997 1077.18 64.9601C1082.92 64.7305 1088.45 63.5848 1093.18 61.6437C1097.92 59.7027 1101.68 57.0382 1104.08 53.9313C1106.48 50.8244 1107.43 47.3902 1106.82 43.9906C1106.21 40.5911 1104.07 37.3522 1100.62 34.6155H1100.65Z" fill="url(#paint19_linear)"/>
    <path d="M899.749 39.6155C897.21 37.5886 894.028 35.8877 890.388 34.6122C886.21 33.1321 881.523 32.2545 876.691 32.0476C871.86 31.8407 867.014 32.3101 862.532 33.4193C858.051 34.5285 854.053 36.2476 850.852 38.4425C847.651 40.6374 845.332 43.249 844.076 46.0737C842.82 48.8985 842.661 51.8602 843.612 54.7282C844.562 57.5961 846.596 60.2929 849.556 62.6083C852.515 64.9238 856.319 66.7954 860.673 68.0774C865.027 69.3595 869.811 70.0173 874.655 69.9997C875.324 69.9997 875.966 69.9997 876.648 69.9601C882.297 69.7305 887.738 68.5848 892.399 66.6437C897.06 64.7027 900.767 62.0382 903.13 58.9313C905.492 55.8244 906.423 52.3902 905.823 48.9906C905.223 45.5911 903.116 42.3522 899.722 39.6155H899.749Z" fill="url(#paint20_linear)"/>
    <path d="M501.649 87.6155C499.071 85.5886 495.838 83.8877 492.14 82.6122C487.896 81.1321 483.134 80.2545 478.226 80.0476C473.318 79.8407 468.395 80.3101 463.842 81.4193C459.289 82.5285 455.229 84.2476 451.977 86.4425C448.725 88.6374 446.369 91.249 445.093 94.0737C443.817 96.8985 443.656 99.8602 444.621 102.728C445.587 105.596 447.653 108.293 450.66 110.608C453.666 112.924 457.531 114.795 461.953 116.077C466.376 117.359 471.237 118.017 476.157 118C476.837 118 477.489 118 478.182 117.96C483.921 117.73 489.449 116.585 494.183 114.644C498.918 112.703 502.684 110.038 505.084 106.931C507.484 103.824 508.429 100.39 507.82 96.9906C507.211 93.5911 505.07 90.3522 501.623 87.6155H501.649Z" fill="url(#paint21_linear)"/>
    <path d="M1465.75 46.6155C1463.21 44.5886 1460.03 42.8877 1456.39 41.6122C1452.21 40.1321 1447.52 39.2545 1442.69 39.0476C1437.86 38.8407 1433.01 39.3101 1428.53 40.4193C1424.05 41.5285 1420.05 43.2476 1416.85 45.4425C1413.65 47.6374 1411.33 50.249 1410.08 53.0737C1408.82 55.8985 1408.66 58.8602 1409.61 61.7282C1410.56 64.5961 1412.6 67.2929 1415.56 69.6083C1418.51 71.9238 1422.32 73.7954 1426.67 75.0774C1431.03 76.3595 1435.81 77.0173 1440.66 76.9997C1441.32 76.9997 1441.97 76.9997 1442.65 76.9601C1448.3 76.7305 1453.74 75.5848 1458.4 73.6437C1463.06 71.7027 1466.77 69.0382 1469.13 65.9313C1471.49 62.8244 1472.42 59.3902 1471.82 55.9906C1471.22 52.5911 1469.12 49.3522 1465.72 46.6155H1465.75Z" fill="url(#paint22_linear)"/>
    <path opacity="0.2" d="M486 581.539C485.998 585.988 483.091 590.27 477.87 593.513C472.648 596.757 465.504 598.719 457.891 599C457.269 599 456.566 599 455.996 599C451.395 598.999 446.855 598.381 442.729 597.194C438.602 596.006 434.999 594.281 432.198 592.152C429.397 590.022 427.474 587.546 426.576 584.913C425.679 582.281 425.831 579.563 427.022 576.971C428.213 574.378 430.41 571.981 433.444 569.963C436.478 567.945 440.267 566.361 444.518 565.333C448.769 564.306 453.368 563.862 457.959 564.037C462.551 564.212 467.012 565.001 470.998 566.342C474.478 567.523 477.516 569.1 479.93 570.98C483.881 574.017 486.014 577.726 486 581.539Z" fill="black"/>
    <path opacity="0.2" d="M279 390.539C278.998 394.988 276.091 399.27 270.87 402.513C265.648 405.757 258.504 407.719 250.891 408C250.269 408 249.566 408 248.996 408C244.395 407.999 239.855 407.381 235.729 406.194C231.602 405.006 227.999 403.281 225.198 401.152C222.397 399.022 220.474 396.546 219.576 393.913C218.679 391.281 218.831 388.563 220.022 385.971C221.213 383.378 223.41 380.981 226.444 378.963C229.478 376.945 233.267 375.361 237.518 374.333C241.769 373.306 246.368 372.862 250.959 373.037C255.551 373.212 260.012 374.001 263.998 375.342C267.478 376.523 270.516 378.1 272.93 379.98C276.881 383.017 279.014 386.726 279 390.539Z" fill="black"/>
    <path opacity="0.2" d="M1243 349.04C1243 353.616 1240.14 358.02 1235.01 361.357C1229.87 364.693 1222.85 366.711 1215.36 367C1214.75 367 1214.06 367 1213.5 367C1208.97 366.999 1204.51 366.364 1200.45 365.142C1196.39 363.921 1192.85 362.146 1190.09 359.956C1187.34 357.766 1185.45 355.218 1184.57 352.511C1183.68 349.803 1183.83 347.008 1185.01 344.342C1186.18 341.675 1188.34 339.209 1191.32 337.133C1194.3 335.057 1198.03 333.428 1202.21 332.371C1206.39 331.314 1210.91 330.858 1215.43 331.038C1219.94 331.218 1224.33 332.029 1228.25 333.409C1231.67 334.624 1234.66 336.246 1237.03 338.179C1240.92 341.303 1243.01 345.119 1243 349.04Z" fill="black"/>
    <path opacity="0.2" d="M1105 45.5387C1105 49.988 1102.14 54.2698 1097.01 57.5135C1091.87 60.7571 1084.85 62.719 1077.36 63C1076.75 63 1076.06 63 1075.5 63C1070.97 62.9993 1066.51 62.3814 1062.45 61.1939C1058.39 60.0064 1054.85 58.2812 1052.09 56.1517C1049.34 54.0223 1047.45 51.5456 1046.57 48.9133C1045.68 46.2809 1045.83 43.5634 1047.01 40.971C1048.18 38.3785 1050.34 35.9805 1053.32 33.9625C1056.3 31.9445 1060.03 30.3606 1064.21 29.3331C1068.39 28.3057 1072.91 27.8623 1077.43 28.0372C1081.94 28.2122 1086.33 29.0008 1090.25 30.3421C1093.67 31.5233 1096.66 33.1004 1099.03 34.9799C1102.92 38.0168 1105.01 41.7264 1105 45.5387Z" fill="black"/>
    <path opacity="0.2" d="M905 51.0398C904.998 55.6162 902.091 60.0204 896.87 63.3567C891.648 66.6931 884.504 68.7109 876.891 69C876.269 69 875.566 69 874.996 69C870.395 68.9993 865.855 68.3637 861.729 67.1423C857.602 65.9209 853.999 64.1464 851.198 61.9561C848.397 59.7658 846.474 57.2184 845.576 54.5108C844.679 51.8032 844.831 49.0081 846.022 46.3416C847.213 43.675 849.41 41.2086 852.444 39.1329C855.478 37.0572 859.267 35.428 863.518 34.3712C867.769 33.3144 872.368 32.8583 876.959 33.0383C881.551 33.2182 886.012 34.0294 889.998 35.409C893.478 36.6239 896.516 38.2462 898.93 40.1793C902.881 43.303 905.014 47.1186 905 51.0398Z" fill="black"/>
    <path opacity="0.2" d="M506 99.0398C505.998 103.616 503.14 108.02 498.005 111.357C492.871 114.693 485.846 116.711 478.36 117C477.747 117 477.057 117 476.496 117C471.972 116.999 467.508 116.364 463.45 115.142C459.392 113.921 455.849 112.146 453.095 109.956C450.341 107.766 448.449 105.218 447.567 102.511C446.684 99.8032 446.834 97.0081 448.005 94.3416C449.176 91.675 451.337 89.2086 454.32 87.1329C457.303 85.0572 461.029 83.428 465.209 82.3712C469.389 81.3144 473.912 80.8583 478.427 81.0383C482.942 81.2182 487.329 82.0294 491.248 83.409C494.67 84.6239 497.657 86.2462 500.031 88.1793C503.917 91.303 506.013 95.1186 506 99.0398Z" fill="black"/>
    <path opacity="0.2" d="M1471 58.0398C1471 62.6162 1468.09 67.0204 1462.87 70.3567C1457.65 73.6931 1450.5 75.7109 1442.89 76C1442.27 76 1441.57 76 1441 76C1436.39 75.9993 1431.86 75.3637 1427.73 74.1423C1423.6 72.9209 1420 71.1464 1417.2 68.9561C1414.4 66.7658 1412.47 64.2184 1411.58 61.5108C1410.68 58.8032 1410.83 56.0081 1412.02 53.3416C1413.21 50.675 1415.41 48.2086 1418.44 46.1329C1421.48 44.0572 1425.27 42.428 1429.52 41.3712C1433.77 40.3144 1438.37 39.8583 1442.96 40.0383C1447.55 40.2182 1452.01 41.0294 1456 42.409C1459.48 43.6239 1462.52 45.2462 1464.93 47.1793C1468.88 50.303 1471.01 54.1186 1471 58.0398Z" fill="black"/>
    <path opacity="0.1" d="M448.783 570.207C447.135 570.639 445.546 571.153 444.032 571.743C443.023 572.09 442.151 572.57 441.48 573.15C441.167 573.448 441 573.797 441 574.152C441 574.508 441.167 574.856 441.48 575.155C441.948 575.439 442.51 575.658 443.128 575.796C443.747 575.934 444.406 575.987 445.061 575.954C446.447 576.064 447.855 575.978 449.178 575.702C450.074 575.429 450.89 575.065 451.589 574.625L454.324 573.097C455.283 572.559 456.326 571.83 455.903 571.083C455.687 570.81 455.359 570.577 454.951 570.406C454.543 570.235 454.069 570.134 453.577 570.111C451.217 569.827 448.77 570.093 446.711 570.858" fill="black"/>
    <path opacity="0.1" d="M241.783 379.207C240.135 379.639 238.546 380.153 237.032 380.743C236.023 381.09 235.151 381.57 234.48 382.15C234.167 382.448 234 382.797 234 383.152C234 383.508 234.167 383.856 234.48 384.155C234.948 384.439 235.51 384.658 236.128 384.796C236.747 384.934 237.406 384.987 238.061 384.954C239.447 385.064 240.855 384.978 242.178 384.702C243.074 384.429 243.89 384.065 244.589 383.625L247.324 382.097C248.283 381.559 249.326 380.83 248.903 380.083C248.687 379.81 248.359 379.577 247.951 379.406C247.543 379.235 247.069 379.134 246.577 379.111C244.217 378.827 241.77 379.093 239.711 379.858" fill="black"/>
    <path opacity="0.1" d="M1205.78 337.207C1204.13 337.639 1202.55 338.153 1201.03 338.743C1200.02 339.09 1199.15 339.57 1198.48 340.15C1198.17 340.448 1198 340.797 1198 341.152C1198 341.508 1198.17 341.856 1198.48 342.155C1198.95 342.439 1199.51 342.658 1200.13 342.796C1200.75 342.934 1201.41 342.987 1202.06 342.954C1203.45 343.064 1204.85 342.978 1206.18 342.702C1207.07 342.429 1207.89 342.065 1208.59 341.625L1211.32 340.097C1212.28 339.559 1213.33 338.83 1212.9 338.083C1212.69 337.81 1212.36 337.577 1211.95 337.406C1211.54 337.235 1211.07 337.134 1210.58 337.111C1208.22 336.827 1205.77 337.093 1203.71 337.858" fill="black"/>
    <path opacity="0.1" d="M1067.78 34.2067C1066.13 34.6389 1064.55 35.1528 1063.03 35.7432C1062.02 36.09 1061.15 36.5703 1060.48 37.1496C1060.17 37.4484 1060 37.7966 1060 38.1522C1060 38.5079 1060.17 38.856 1060.48 39.1549C1060.95 39.4393 1061.51 39.6579 1062.13 39.7958C1062.75 39.9336 1063.41 39.9875 1064.06 39.9535C1065.45 40.0636 1066.85 39.9775 1068.18 39.7018C1069.07 39.4292 1069.89 39.0653 1070.59 38.6253L1073.32 37.0975C1074.28 36.5593 1075.33 35.83 1074.9 35.0835C1074.69 34.8103 1074.36 34.5767 1073.95 34.4061C1073.54 34.2354 1073.07 34.1338 1072.58 34.1112C1070.22 33.8266 1067.77 34.0927 1065.71 34.8578" fill="black"/>
    <path opacity="0.1" d="M867.264 39.2067C865.726 39.6389 864.242 40.1528 862.83 40.7432C861.888 41.09 861.074 41.5703 860.448 42.1496C860.156 42.4484 860 42.7966 860 43.1522C860 43.5079 860.156 43.856 860.448 44.1549C860.885 44.4393 861.409 44.6579 861.986 44.7958C862.563 44.9336 863.179 44.9875 863.79 44.9535C865.083 45.0636 866.398 44.9775 867.633 44.7018C868.469 44.4292 869.23 44.0653 869.883 43.6253L872.436 42.0975C873.331 41.5593 874.304 40.83 873.91 40.0835C873.708 39.8103 873.402 39.5767 873.021 39.4061C872.64 39.2354 872.198 39.1338 871.738 39.1112C869.536 38.8266 867.252 39.0927 865.33 39.8578" fill="black"/>
    <path opacity="0.1" d="M468.783 88.1722C467.135 88.5324 465.546 88.9607 464.032 89.4527C463.023 89.7417 462.151 90.1419 461.48 90.6246C461.167 90.8737 461 91.1638 461 91.4602C461 91.7566 461.167 92.0467 461.48 92.2957C461.948 92.5327 462.51 92.7149 463.128 92.8298C463.747 92.9447 464.406 92.9896 465.061 92.9613C466.447 93.053 467.855 92.9813 469.178 92.7515C470.074 92.5243 470.89 92.2211 471.589 91.8545L474.324 90.5812C475.283 90.1327 476.326 89.525 475.903 88.9029C475.687 88.6752 475.359 88.4806 474.951 88.3384C474.543 88.1962 474.069 88.1115 473.577 88.0927C471.217 87.8555 468.77 88.0773 466.711 88.7148" fill="black"/>
    <path opacity="0.1" d="M1433.26 46.2067C1431.73 46.6389 1430.24 47.1528 1428.83 47.7432C1427.89 48.09 1427.07 48.5703 1426.45 49.1496C1426.16 49.4484 1426 49.7966 1426 50.1522C1426 50.5079 1426.16 50.856 1426.45 51.1549C1426.88 51.4393 1427.41 51.6579 1427.99 51.7958C1428.56 51.9336 1429.18 51.9875 1429.79 51.9535C1431.08 52.0636 1432.4 51.9775 1433.63 51.7018C1434.47 51.4292 1435.23 51.0653 1435.88 50.6253L1438.44 49.0975C1439.33 48.5593 1440.3 47.83 1439.91 47.0835C1439.71 46.8103 1439.4 46.5767 1439.02 46.4061C1438.64 46.2354 1438.2 46.1338 1437.74 46.1112C1435.54 45.8266 1433.25 46.0927 1431.33 46.8578" fill="black"/>
    <g opacity="0.1">
    <path opacity="0.1" d="M437.977 589.512C438.843 589.512 439.546 589.095 439.546 588.58C439.546 588.064 438.843 587.647 437.977 587.647C437.111 587.647 436.408 588.064 436.408 588.58C436.408 589.095 437.111 589.512 437.977 589.512Z" fill="black"/>
    </g>
    <g opacity="0.1">
    <path opacity="0.1" d="M230.997 398.558C231.863 398.558 232.566 398.14 232.566 397.625C232.566 397.11 231.863 396.693 230.997 396.693C230.131 396.693 229.428 397.11 229.428 397.625C229.428 398.14 230.131 398.558 230.997 398.558Z" fill="black"/>
    </g>
    <g opacity="0.1">
    <path opacity="0.1" d="M1195.35 357.021C1196.22 357.021 1196.92 356.604 1196.92 356.089C1196.92 355.574 1196.22 355.156 1195.35 355.156C1194.49 355.156 1193.78 355.574 1193.78 356.089C1193.78 356.604 1194.49 357.021 1195.35 357.021Z" fill="black"/>
    </g>
    <g opacity="0.1">
    <path opacity="0.1" d="M1057.37 53.5714C1058.23 53.5714 1058.94 53.1539 1058.94 52.6388C1058.94 52.1238 1058.23 51.7063 1057.37 51.7063C1056.5 51.7063 1055.8 52.1238 1055.8 52.6388C1055.8 53.1539 1056.5 53.5714 1057.37 53.5714Z" fill="black"/>
    </g>
    <g opacity="0.1">
    <path opacity="0.1" d="M856.588 58.7635C857.454 58.7635 858.157 58.346 858.157 57.831C858.157 57.3159 857.454 56.8984 856.588 56.8984C855.722 56.8984 855.02 57.3159 855.02 57.831C855.02 58.346 855.722 58.7635 856.588 58.7635Z" fill="black"/>
    </g>
    <g opacity="0.1">
    <path opacity="0.1" d="M458.276 107.223C459.142 107.223 459.845 106.806 459.845 106.291C459.845 105.776 459.142 105.358 458.276 105.358C457.41 105.358 456.708 105.776 456.708 106.291C456.708 106.806 457.41 107.223 458.276 107.223Z" fill="black"/>
    </g>
    <g opacity="0.1">
    <path opacity="0.1" d="M1422.63 65.6864C1423.5 65.6864 1424.2 65.2688 1424.2 64.7538C1424.2 64.2388 1423.5 63.8213 1422.63 63.8213C1421.77 63.8213 1421.06 64.2388 1421.06 64.7538C1421.06 65.2688 1421.77 65.6864 1422.63 65.6864Z" fill="black"/>
    </g>
    <g opacity="0.1">
    <path opacity="0.1" d="M469.916 586.095C473.097 586.095 475.676 584.562 475.676 582.671C475.676 580.779 473.097 579.246 469.916 579.246C466.734 579.246 464.156 580.779 464.156 582.671C464.156 584.562 466.734 586.095 469.916 586.095Z" fill="black"/>
    </g>
    <g opacity="0.1">
    <path opacity="0.1" d="M262.936 395.141C266.117 395.141 268.696 393.608 268.696 391.716C268.696 389.825 266.117 388.292 262.936 388.292C259.755 388.292 257.176 389.825 257.176 391.716C257.176 393.608 259.755 395.141 262.936 395.141Z" fill="black"/>
    </g>
    <g opacity="0.1">
    <path opacity="0.1" d="M1227.29 353.604C1230.47 353.604 1233.05 352.071 1233.05 350.18C1233.05 348.288 1230.47 346.755 1227.29 346.755C1224.11 346.755 1221.53 348.288 1221.53 350.18C1221.53 352.071 1224.11 353.604 1227.29 353.604Z" fill="black"/>
    </g>
    <g opacity="0.1">
    <path opacity="0.1" d="M1089.31 50.1546C1092.49 50.1546 1095.07 48.6214 1095.07 46.7302C1095.07 44.8389 1092.49 43.3057 1089.31 43.3057C1086.12 43.3057 1083.54 44.8389 1083.54 46.7302C1083.54 48.6214 1086.12 50.1546 1089.31 50.1546Z" fill="black"/>
    </g>
    <g opacity="0.1">
    <path opacity="0.1" d="M888.527 55.3465C891.708 55.3465 894.287 53.8133 894.287 51.9221C894.287 50.0308 891.708 48.4976 888.527 48.4976C885.346 48.4976 882.767 50.0308 882.767 51.9221C882.767 53.8133 885.346 55.3465 888.527 55.3465Z" fill="black"/>
    </g>
    <g opacity="0.1">
    <path opacity="0.1" d="M490.215 103.806C493.396 103.806 495.975 102.273 495.975 100.382C495.975 98.4905 493.396 96.9573 490.215 96.9573C487.034 96.9573 484.455 98.4905 484.455 100.382C484.455 102.273 487.034 103.806 490.215 103.806Z" fill="black"/>
    </g>
    <g opacity="0.1">
    <path opacity="0.1" d="M1454.57 62.2694C1457.75 62.2694 1460.33 60.7362 1460.33 58.8449C1460.33 56.9536 1457.75 55.4204 1454.57 55.4204C1451.39 55.4204 1448.81 56.9536 1448.81 58.8449C1448.81 60.7362 1451.39 62.2694 1454.57 62.2694Z" fill="black"/>
    </g>
    <g opacity="0.1">
    <path opacity="0.1" d="M479.867 570.893C479.856 571.796 479.406 572.678 478.573 573.434C477.74 574.189 476.559 574.786 475.17 575.153C473.782 575.519 472.245 575.641 470.744 575.502C469.242 575.363 467.84 574.97 466.705 574.37C465.569 573.77 464.748 572.988 464.34 572.118C463.932 571.248 463.955 570.326 464.405 569.463C464.855 568.601 465.713 567.833 466.877 567.253C468.042 566.673 469.463 566.304 470.97 566.191C474.436 567.388 477.462 568.987 479.867 570.893Z" fill="black"/>
    </g>
    <g opacity="0.1">
    <path opacity="0.1" d="M272.888 379.939C272.876 380.842 272.427 381.724 271.594 382.479C270.761 383.235 269.579 383.832 268.191 384.198C266.802 384.565 265.265 384.686 263.764 384.548C262.263 384.409 260.86 384.016 259.725 383.416C258.589 382.816 257.768 382.034 257.361 381.164C256.953 380.294 256.975 379.372 257.425 378.509C257.875 377.647 258.733 376.879 259.898 376.299C261.062 375.718 262.483 375.35 263.99 375.237C267.457 376.433 270.482 378.032 272.888 379.939Z" fill="black"/>
    </g>
    <g opacity="0.1">
    <path opacity="0.1" d="M1237.24 338.402C1237.23 339.305 1236.78 340.187 1235.95 340.943C1235.12 341.698 1233.94 342.295 1232.55 342.662C1231.16 343.028 1229.62 343.15 1228.12 343.011C1226.62 342.872 1225.22 342.479 1224.08 341.879C1222.95 341.279 1222.12 340.497 1221.72 339.627C1221.31 338.757 1221.33 337.835 1221.78 336.972C1222.23 336.11 1223.09 335.342 1224.25 334.762C1225.42 334.182 1226.84 333.813 1228.35 333.7C1231.81 334.897 1234.84 336.496 1237.24 338.402Z" fill="black"/>
    </g>
    <g opacity="0.1">
    <path opacity="0.1" d="M1099.26 34.9523C1099.24 35.8555 1098.8 36.7377 1097.96 37.4931C1097.13 38.2485 1095.95 38.8453 1094.56 39.2121C1093.17 39.5789 1091.63 39.7001 1090.13 39.5614C1088.63 39.4226 1087.23 39.0297 1086.09 38.4296C1084.96 37.8295 1084.14 37.0476 1083.73 36.1775C1083.32 35.3074 1083.34 34.3858 1083.79 33.523C1084.24 32.6603 1085.1 31.8928 1086.27 31.3125C1087.43 30.7321 1088.85 30.3634 1090.36 30.2505C1093.83 31.4471 1096.85 33.0461 1099.26 34.9523Z" fill="black"/>
    </g>
    <g opacity="0.1">
    <path opacity="0.1" d="M898.479 40.1442C898.467 41.0474 898.018 41.9295 897.185 42.685C896.352 43.4404 895.17 44.0372 893.782 44.404C892.393 44.7708 890.857 44.892 889.355 44.7533C887.854 44.6145 886.451 44.2216 885.316 43.6215C884.18 43.0214 883.359 42.2395 882.952 41.3694C882.544 40.4993 882.566 39.5777 883.016 38.7149C883.466 37.8521 884.325 37.0847 885.489 36.5044C886.653 35.924 888.074 35.5553 889.581 35.4424C893.048 36.639 896.073 38.238 898.479 40.1442Z" fill="black"/>
    </g>
    <g opacity="0.1">
    <path opacity="0.1" d="M500.167 88.6039C500.155 89.5072 499.705 90.3893 498.872 91.1447C498.039 91.9001 496.858 92.4969 495.47 92.8637C494.081 93.2305 492.544 93.3518 491.043 93.213C489.542 93.0742 488.139 92.6813 487.004 92.0812C485.868 91.4811 485.047 90.6992 484.639 89.8291C484.232 88.959 484.254 88.0374 484.704 87.1746C485.154 86.3119 486.012 85.5445 487.177 84.9641C488.341 84.3837 489.762 84.015 491.269 83.9021C494.735 85.0987 497.761 86.6977 500.167 88.6039Z" fill="black"/>
    </g>
    <g opacity="0.1">
    <path opacity="0.1" d="M1464.52 47.067C1464.51 47.9703 1464.06 48.8524 1463.23 49.6078C1462.4 50.3633 1461.21 50.9601 1459.83 51.3269C1458.44 51.6937 1456.9 51.8149 1455.4 51.6761C1453.9 51.5373 1452.5 51.1444 1451.36 50.5443C1450.22 49.9442 1449.4 49.1624 1449 48.2922C1448.59 47.4221 1448.61 46.5005 1449.06 45.6378C1449.51 44.775 1450.37 44.0076 1451.53 43.4272C1452.7 42.8469 1454.12 42.4782 1455.63 42.3652C1459.09 43.5619 1462.12 45.1609 1464.52 47.067Z" fill="black"/>
    </g>
    <g opacity="0.1">
    <path opacity="0.1" d="M480.448 591.792C477.88 593.965 474.524 595.766 470.627 597.063C466.729 598.36 462.391 599.119 457.934 599.284C457.934 599.041 457.934 598.79 457.934 598.5C457.936 596.943 458.666 595.418 460.041 594.093C461.416 592.768 463.383 591.696 465.723 590.996C468.062 590.297 470.683 589.997 473.292 590.131C475.901 590.264 478.397 590.826 480.5 591.753L480.448 591.792Z" fill="black"/>
    </g>
    <g opacity="0.1">
    <path opacity="0.1" d="M273.468 400.838C270.9 403.011 267.544 404.812 263.647 406.109C259.749 407.406 255.411 408.165 250.954 408.33C250.954 408.087 250.954 407.836 250.954 407.546C250.956 405.989 251.686 404.463 253.061 403.138C254.436 401.813 256.403 400.742 258.743 400.042C261.082 399.343 263.703 399.043 266.312 399.177C268.921 399.31 271.417 399.872 273.521 400.799L273.468 400.838Z" fill="black"/>
    </g>
    <g opacity="0.1">
    <path opacity="0.1" d="M1237.82 359.301C1235.26 361.474 1231.9 363.275 1228 364.572C1224.11 365.869 1219.77 366.628 1215.31 366.793C1215.31 366.55 1215.31 366.299 1215.31 366.009C1215.31 364.452 1216.04 362.927 1217.42 361.602C1218.79 360.277 1220.76 359.205 1223.1 358.505C1225.44 357.806 1228.06 357.506 1230.67 357.64C1233.28 357.773 1235.77 358.335 1237.88 359.262L1237.82 359.301Z" fill="black"/>
    </g>
    <g opacity="0.1">
    <path opacity="0.1" d="M1099.84 55.852C1097.27 58.0245 1093.91 59.8259 1090.02 61.1227C1086.12 62.4195 1081.78 63.1785 1077.32 63.3436C1077.32 63.1006 1077.32 62.8499 1077.32 62.5599C1077.33 61.003 1078.06 59.4771 1079.43 58.1521C1080.81 56.8272 1082.77 55.7552 1085.11 55.0557C1087.45 54.3562 1090.07 54.0566 1092.68 54.1902C1095.29 54.3239 1097.79 54.8857 1099.89 55.8128L1099.84 55.852Z" fill="black"/>
    </g>
    <g opacity="0.1">
    <path opacity="0.1" d="M899.059 61.0439C896.491 63.2164 893.135 65.0178 889.238 66.3146C885.34 67.6114 881.002 68.3704 876.545 68.5355C876.545 68.2925 876.545 68.0418 876.545 67.7518C876.547 66.1949 877.277 64.669 878.652 63.344C880.027 62.0191 881.994 60.9471 884.334 60.2476C886.673 59.5481 889.294 59.2484 891.903 59.3821C894.512 59.5158 897.008 60.0776 899.112 61.0047L899.059 61.0439Z" fill="black"/>
    </g>
    <g opacity="0.1">
    <path opacity="0.1" d="M500.747 109.504C498.179 111.676 494.823 113.478 490.926 114.774C487.028 116.071 482.69 116.83 478.233 116.995C478.233 116.752 478.233 116.501 478.233 116.212C478.235 114.655 478.965 113.129 480.34 111.804C481.715 110.479 483.682 109.407 486.022 108.707C488.361 108.008 490.982 107.708 493.591 107.842C496.2 107.976 498.696 108.537 500.8 109.464L500.747 109.504Z" fill="black"/>
    </g>
    <g opacity="0.1">
    <path opacity="0.1" d="M1465.1 67.9668C1462.54 70.1393 1459.18 71.9407 1455.28 73.2375C1451.38 74.5343 1447.05 75.2933 1442.59 75.4583C1442.59 75.2154 1442.59 74.9646 1442.59 74.6747C1442.59 73.1178 1443.32 71.5918 1444.7 70.2669C1446.07 68.9419 1448.04 67.87 1450.38 67.1705C1452.72 66.4709 1455.34 66.1713 1457.95 66.305C1460.56 66.4387 1463.05 67.0004 1465.16 67.9276L1465.1 67.9668Z" fill="black"/>
    </g>
    <path d="M1321 518C1322.1 518 1323 517.328 1323 516.5C1323 515.672 1322.1 515 1321 515C1319.9 515 1319 515.672 1319 516.5C1319 517.328 1319.9 518 1321 518Z" fill="white"/>
    <path d="M1183 215C1184.1 215 1185 214.328 1185 213.5C1185 212.672 1184.1 212 1183 212C1181.9 212 1181 212.672 1181 213.5C1181 214.328 1181.9 215 1183 215Z" fill="white"/>
    <path d="M982.5 220C983.881 220 985 219.328 985 218.5C985 217.672 983.881 217 982.5 217C981.119 217 980 217.672 980 218.5C980 219.328 981.119 220 982.5 220Z" fill="white"/>
    <path d="M307.5 127C308.881 127 310 126.328 310 125.5C310 124.672 308.881 124 307.5 124C306.119 124 305 124.672 305 125.5C305 126.328 306.119 127 307.5 127Z" fill="white"/>
    <path d="M1272 85C1273.1 85 1274 84.3284 1274 83.5C1274 82.6716 1273.1 82 1272 82C1270.9 82 1270 82.6716 1270 83.5C1270 84.3284 1270.9 85 1272 85Z" fill="white"/>
    <path d="M201.697 824.763H223.47V833H191.443V783.234H201.697V824.763ZM245.755 833.684C240.332 833.684 235.911 832.02 232.493 828.693C229.098 825.367 227.4 820.935 227.4 815.397V814.44C227.4 810.726 228.118 807.411 229.554 804.494C230.989 801.555 233.017 799.299 235.638 797.727C238.281 796.132 241.289 795.334 244.661 795.334C249.72 795.334 253.696 796.929 256.59 800.119C259.507 803.309 260.965 807.832 260.965 813.688V817.722H237.415C237.734 820.137 238.691 822.074 240.286 823.532C241.904 824.991 243.943 825.72 246.404 825.72C250.21 825.72 253.183 824.341 255.325 821.584L260.179 827.019C258.698 829.115 256.692 830.756 254.163 831.94C251.634 833.103 248.831 833.684 245.755 833.684ZM244.627 803.332C242.667 803.332 241.072 803.993 239.842 805.314C238.634 806.636 237.859 808.527 237.518 810.988H251.258V810.202C251.212 808.015 250.62 806.328 249.48 805.144C248.341 803.936 246.723 803.332 244.627 803.332ZM278.431 786.926V796.018H284.754V803.264H278.431V821.721C278.431 823.088 278.693 824.068 279.217 824.66C279.741 825.253 280.743 825.549 282.225 825.549C283.318 825.549 284.287 825.469 285.13 825.31V832.795C283.193 833.387 281.199 833.684 279.148 833.684C272.221 833.684 268.689 830.186 268.553 823.19V803.264H263.152V796.018H268.553V786.926H278.431ZM310.286 822.78C310.286 821.573 309.682 820.627 308.475 819.943C307.29 819.237 305.376 818.61 302.732 818.063C293.937 816.218 289.539 812.481 289.539 806.853C289.539 803.571 290.895 800.837 293.606 798.649C296.341 796.439 299.907 795.334 304.305 795.334C308.999 795.334 312.747 796.439 315.55 798.649C318.375 800.86 319.788 803.731 319.788 807.263H309.91C309.91 805.85 309.454 804.688 308.543 803.776C307.632 802.842 306.207 802.375 304.271 802.375C302.607 802.375 301.32 802.751 300.408 803.503C299.497 804.255 299.041 805.212 299.041 806.374C299.041 807.468 299.554 808.356 300.579 809.04C301.627 809.701 303.382 810.282 305.843 810.783C308.304 811.262 310.377 811.809 312.063 812.424C317.282 814.338 319.891 817.653 319.891 822.37C319.891 825.743 318.444 828.477 315.55 830.573C312.656 832.647 308.919 833.684 304.339 833.684C301.24 833.684 298.483 833.137 296.067 832.043C293.675 830.926 291.795 829.411 290.428 827.497C289.061 825.56 288.377 823.475 288.377 821.242H297.742C297.833 822.997 298.483 824.341 299.69 825.275C300.898 826.21 302.516 826.677 304.544 826.677C306.435 826.677 307.859 826.324 308.816 825.617C309.796 824.888 310.286 823.942 310.286 822.78ZM354.617 824.763H376.39V833H344.363V783.234H354.617V824.763ZM403.084 833C402.628 832.111 402.298 831.006 402.093 829.685C399.7 832.351 396.59 833.684 392.762 833.684C389.139 833.684 386.131 832.635 383.738 830.539C381.368 828.443 380.184 825.799 380.184 822.609C380.184 818.69 381.631 815.682 384.524 813.586C387.441 811.49 391.645 810.43 397.137 810.407H401.683V808.288C401.683 806.579 401.238 805.212 400.35 804.187C399.484 803.161 398.105 802.648 396.214 802.648C394.55 802.648 393.24 803.047 392.283 803.845C391.349 804.642 390.882 805.736 390.882 807.126H381.004C381.004 804.984 381.665 803.002 382.986 801.179C384.308 799.356 386.176 797.932 388.592 796.906C391.007 795.858 393.719 795.334 396.727 795.334C401.284 795.334 404.896 796.485 407.562 798.786C410.25 801.065 411.595 804.278 411.595 808.425V824.455C411.618 827.964 412.107 830.619 413.064 832.419V833H403.084ZM394.915 826.13C396.373 826.13 397.718 825.811 398.948 825.173C400.179 824.512 401.09 823.635 401.683 822.541V816.184H397.991C393.047 816.184 390.415 817.893 390.096 821.311L390.062 821.892C390.062 823.122 390.494 824.136 391.36 824.934C392.226 825.731 393.411 826.13 394.915 826.13ZM441.331 829.24C438.893 832.202 435.521 833.684 431.214 833.684C427.249 833.684 424.218 832.544 422.122 830.266C420.049 827.987 418.989 824.649 418.943 820.251V796.018H428.821V819.909C428.821 823.76 430.576 825.686 434.085 825.686C437.435 825.686 439.736 824.523 440.989 822.199V796.018H450.901V833H441.604L441.331 829.24ZM467.444 796.018L467.752 800.29C470.395 796.986 473.938 795.334 478.382 795.334C482.301 795.334 485.218 796.485 487.132 798.786C489.046 801.088 490.026 804.528 490.071 809.108V833H480.193V809.348C480.193 807.251 479.738 805.736 478.826 804.802C477.915 803.845 476.399 803.366 474.28 803.366C471.5 803.366 469.415 804.551 468.025 806.921V833H458.147V796.018H467.444ZM512.972 825.72C514.795 825.72 516.276 825.218 517.415 824.216C518.554 823.213 519.147 821.88 519.192 820.217H528.455C528.432 822.723 527.749 825.025 526.404 827.121C525.06 829.195 523.214 830.812 520.867 831.975C518.543 833.114 515.968 833.684 513.143 833.684C507.856 833.684 503.686 832.009 500.633 828.659C497.579 825.287 496.053 820.638 496.053 814.714V814.064C496.053 808.368 497.568 803.822 500.599 800.427C503.629 797.032 507.788 795.334 513.074 795.334C517.7 795.334 521.403 796.656 524.183 799.299C526.985 801.919 528.41 805.417 528.455 809.792H519.192C519.147 807.878 518.554 806.328 517.415 805.144C516.276 803.936 514.772 803.332 512.903 803.332C510.602 803.332 508.859 804.175 507.674 805.861C506.512 807.525 505.931 810.236 505.931 813.996V815.021C505.931 818.827 506.512 821.561 507.674 823.225C508.836 824.888 510.602 825.72 512.972 825.72ZM543.733 800.051C546.354 796.906 549.646 795.334 553.611 795.334C561.632 795.334 565.7 799.994 565.813 809.313V833H555.936V809.587C555.936 807.468 555.48 805.907 554.568 804.904C553.657 803.879 552.142 803.366 550.022 803.366C547.129 803.366 545.032 804.483 543.733 806.716V833H533.855V780.5H543.733V800.051ZM617.151 819.943C617.151 818.007 616.468 816.525 615.101 815.5C613.733 814.452 611.272 813.358 607.718 812.219C604.163 811.057 601.349 809.917 599.275 808.801C593.624 805.747 590.799 801.634 590.799 796.462C590.799 793.773 591.551 791.381 593.055 789.284C594.581 787.165 596.757 785.513 599.583 784.328C602.431 783.143 605.621 782.551 609.153 782.551C612.708 782.551 615.875 783.2 618.655 784.499C621.435 785.775 623.589 787.587 625.115 789.934C626.665 792.281 627.439 794.947 627.439 797.932H617.186C617.186 795.653 616.468 793.887 615.032 792.634C613.597 791.358 611.58 790.72 608.982 790.72C606.476 790.72 604.528 791.255 603.138 792.326C601.748 793.374 601.053 794.764 601.053 796.496C601.053 798.114 601.862 799.47 603.479 800.563C605.12 801.657 607.524 802.683 610.691 803.64C616.525 805.394 620.774 807.57 623.44 810.168C626.106 812.766 627.439 816.001 627.439 819.875C627.439 824.182 625.81 827.565 622.552 830.026C619.293 832.465 614.907 833.684 609.393 833.684C605.564 833.684 602.078 832.989 598.934 831.599C595.789 830.186 593.385 828.26 591.722 825.822C590.081 823.384 589.261 820.559 589.261 817.346H599.549C599.549 822.837 602.83 825.583 609.393 825.583C611.831 825.583 613.733 825.093 615.101 824.113C616.468 823.111 617.151 821.721 617.151 819.943ZM632.225 814.167C632.225 810.498 632.931 807.229 634.344 804.357C635.757 801.486 637.785 799.265 640.428 797.692C643.094 796.12 646.181 795.334 649.69 795.334C654.681 795.334 658.748 796.861 661.893 799.914C665.06 802.967 666.826 807.115 667.19 812.355L667.259 814.885C667.259 820.559 665.675 825.116 662.508 828.557C659.34 831.975 655.091 833.684 649.759 833.684C644.427 833.684 640.166 831.975 636.976 828.557C633.808 825.139 632.225 820.49 632.225 814.611V814.167ZM642.103 814.885C642.103 818.394 642.763 821.083 644.085 822.951C645.407 824.797 647.298 825.72 649.759 825.72C652.151 825.72 654.02 824.808 655.364 822.985C656.709 821.14 657.381 818.2 657.381 814.167C657.381 810.726 656.709 808.06 655.364 806.169C654.02 804.278 652.129 803.332 649.69 803.332C647.275 803.332 645.407 804.278 644.085 806.169C642.763 808.037 642.103 810.943 642.103 814.885ZM682.605 796.018L682.913 800.153C685.534 796.94 689.077 795.334 693.543 795.334C698.305 795.334 701.575 797.214 703.353 800.974C705.95 797.214 709.653 795.334 714.461 795.334C718.471 795.334 721.456 796.507 723.416 798.854C725.376 801.179 726.355 804.688 726.355 809.382V833H716.443V809.416C716.443 807.32 716.033 805.793 715.213 804.836C714.393 803.856 712.946 803.366 710.872 803.366C707.91 803.366 705.859 804.779 704.72 807.604L704.754 833H694.876V809.45C694.876 807.308 694.454 805.759 693.611 804.802C692.768 803.845 691.333 803.366 689.305 803.366C686.502 803.366 684.474 804.528 683.221 806.853V833H673.343V796.018H682.605ZM750.999 833.684C745.576 833.684 741.155 832.02 737.737 828.693C734.342 825.367 732.645 820.935 732.645 815.397V814.44C732.645 810.726 733.362 807.411 734.798 804.494C736.233 801.555 738.261 799.299 740.882 797.727C743.525 796.132 746.533 795.334 749.905 795.334C754.964 795.334 758.94 796.929 761.834 800.119C764.751 803.309 766.209 807.832 766.209 813.688V817.722H742.659C742.978 820.137 743.935 822.074 745.53 823.532C747.148 824.991 749.188 825.72 751.648 825.72C755.454 825.72 758.427 824.341 760.569 821.584L765.423 827.019C763.942 829.115 761.937 830.756 759.407 831.94C756.878 833.103 754.075 833.684 750.999 833.684ZM749.871 803.332C747.911 803.332 746.316 803.993 745.086 805.314C743.878 806.636 743.104 808.527 742.762 810.988H756.502V810.202C756.456 808.015 755.864 806.328 754.725 805.144C753.585 803.936 751.967 803.332 749.871 803.332ZM783.675 786.926V796.018H789.998V803.264H783.675V821.721C783.675 823.088 783.937 824.068 784.461 824.66C784.985 825.253 785.988 825.549 787.469 825.549C788.562 825.549 789.531 825.469 790.374 825.31V832.795C788.437 833.387 786.443 833.684 784.393 833.684C777.465 833.684 773.934 830.186 773.797 823.19V803.264H768.396V796.018H773.797V786.926H783.675ZM805.14 800.051C807.76 796.906 811.053 795.334 815.018 795.334C823.038 795.334 827.106 799.994 827.22 809.313V833H817.342V809.587C817.342 807.468 816.886 805.907 815.975 804.904C815.063 803.879 813.548 803.366 811.429 803.366C808.535 803.366 806.438 804.483 805.14 806.716V833H795.262V780.5H805.14V800.051ZM845.096 833H835.184V796.018H845.096V833ZM834.603 786.447C834.603 784.966 835.092 783.747 836.072 782.79C837.075 781.833 838.431 781.354 840.14 781.354C841.826 781.354 843.17 781.833 844.173 782.79C845.175 783.747 845.677 784.966 845.677 786.447C845.677 787.951 845.164 789.182 844.139 790.139C843.136 791.096 841.803 791.574 840.14 791.574C838.476 791.574 837.132 791.096 836.106 790.139C835.104 789.182 834.603 787.951 834.603 786.447ZM862.356 796.018L862.664 800.29C865.307 796.986 868.851 795.334 873.294 795.334C877.213 795.334 880.13 796.485 882.044 798.786C883.958 801.088 884.938 804.528 884.983 809.108V833H875.105V809.348C875.105 807.251 874.65 805.736 873.738 804.802C872.827 803.845 871.312 803.366 869.192 803.366C866.412 803.366 864.327 804.551 862.938 806.921V833H853.06V796.018H862.356ZM891.067 814.235C891.067 808.562 892.412 803.993 895.101 800.529C897.812 797.066 901.458 795.334 906.038 795.334C910.094 795.334 913.25 796.724 915.506 799.504L915.916 796.018H924.871V831.77C924.871 835.005 924.131 837.819 922.649 840.212C921.191 842.604 919.129 844.427 916.463 845.681C913.797 846.934 910.675 847.561 907.098 847.561C904.386 847.561 901.743 847.014 899.168 845.92C896.593 844.849 894.645 843.459 893.323 841.75L897.698 835.734C900.159 838.492 903.144 839.87 906.653 839.87C909.274 839.87 911.313 839.164 912.771 837.751C914.23 836.361 914.959 834.379 914.959 831.804V829.821C912.68 832.396 909.684 833.684 905.97 833.684C901.526 833.684 897.926 831.952 895.169 828.488C892.435 825.002 891.067 820.388 891.067 814.646V814.235ZM900.945 814.953C900.945 818.303 901.618 820.935 902.962 822.849C904.306 824.74 906.152 825.686 908.499 825.686C911.507 825.686 913.66 824.558 914.959 822.302V806.75C913.637 804.494 911.507 803.366 908.567 803.366C906.198 803.366 904.329 804.335 902.962 806.271C901.618 808.208 900.945 811.102 900.945 814.953ZM985.984 791.54H970.74V833H960.486V791.54H945.447V783.234H985.984V791.54ZM982.566 814.167C982.566 810.498 983.273 807.229 984.686 804.357C986.098 801.486 988.126 799.265 990.77 797.692C993.436 796.12 996.523 795.334 1000.03 795.334C1005.02 795.334 1009.09 796.861 1012.23 799.914C1015.4 802.967 1017.17 807.115 1017.53 812.355L1017.6 814.885C1017.6 820.559 1016.02 825.116 1012.85 828.557C1009.68 831.975 1005.43 833.684 1000.1 833.684C994.769 833.684 990.507 831.975 987.317 828.557C984.15 825.139 982.566 820.49 982.566 814.611V814.167ZM992.444 814.885C992.444 818.394 993.105 821.083 994.427 822.951C995.748 824.797 997.64 825.72 1000.1 825.72C1002.49 825.72 1004.36 824.808 1005.71 822.985C1007.05 821.14 1007.72 818.2 1007.72 814.167C1007.72 810.726 1007.05 808.06 1005.71 806.169C1004.36 804.278 1002.47 803.332 1000.03 803.332C997.617 803.332 995.748 804.278 994.427 806.169C993.105 808.037 992.444 810.943 992.444 814.885ZM1022.25 814.235C1022.25 808.562 1023.59 803.993 1026.28 800.529C1028.99 797.066 1032.64 795.334 1037.22 795.334C1041.28 795.334 1044.43 796.724 1046.69 799.504L1047.1 796.018H1056.05V831.77C1056.05 835.005 1055.31 837.819 1053.83 840.212C1052.37 842.604 1050.31 844.427 1047.64 845.681C1044.98 846.934 1041.86 847.561 1038.28 847.561C1035.57 847.561 1032.92 847.014 1030.35 845.92C1027.77 844.849 1025.83 843.459 1024.5 841.75L1028.88 835.734C1031.34 838.492 1034.33 839.87 1037.83 839.87C1040.46 839.87 1042.49 839.164 1043.95 837.751C1045.41 836.361 1046.14 834.379 1046.14 831.804V829.821C1043.86 832.396 1040.87 833.684 1037.15 833.684C1032.71 833.684 1029.11 831.952 1026.35 828.488C1023.62 825.002 1022.25 820.388 1022.25 814.646V814.235ZM1032.13 814.953C1032.13 818.303 1032.8 820.935 1034.14 822.849C1035.49 824.74 1037.33 825.686 1039.68 825.686C1042.69 825.686 1044.84 824.558 1046.14 822.302V806.75C1044.82 804.494 1042.69 803.366 1039.75 803.366C1037.38 803.366 1035.51 804.335 1034.14 806.271C1032.8 808.208 1032.13 811.102 1032.13 814.953ZM1080.7 833.684C1075.27 833.684 1070.85 832.02 1067.43 828.693C1064.04 825.367 1062.34 820.935 1062.34 815.397V814.44C1062.34 810.726 1063.06 807.411 1064.5 804.494C1065.93 801.555 1067.96 799.299 1070.58 797.727C1073.22 796.132 1076.23 795.334 1079.6 795.334C1084.66 795.334 1088.64 796.929 1091.53 800.119C1094.45 803.309 1095.91 807.832 1095.91 813.688V817.722H1072.36C1072.68 820.137 1073.63 822.074 1075.23 823.532C1076.85 824.991 1078.88 825.72 1081.35 825.72C1085.15 825.72 1088.12 824.341 1090.27 821.584L1095.12 827.019C1093.64 829.115 1091.63 830.756 1089.1 831.94C1086.58 833.103 1083.77 833.684 1080.7 833.684ZM1079.57 803.332C1077.61 803.332 1076.01 803.993 1074.78 805.314C1073.58 806.636 1072.8 808.527 1072.46 810.988H1086.2V810.202C1086.15 808.015 1085.56 806.328 1084.42 805.144C1083.28 803.936 1081.66 803.332 1079.57 803.332ZM1113.37 786.926V796.018H1119.7V803.264H1113.37V821.721C1113.37 823.088 1113.63 824.068 1114.16 824.66C1114.68 825.253 1115.68 825.549 1117.17 825.549C1118.26 825.549 1119.23 825.469 1120.07 825.31V832.795C1118.13 833.387 1116.14 833.684 1114.09 833.684C1107.16 833.684 1103.63 830.186 1103.49 823.19V803.264H1098.09V796.018H1103.49V786.926H1113.37ZM1134.84 800.051C1137.46 796.906 1140.75 795.334 1144.71 795.334C1152.74 795.334 1156.8 799.994 1156.92 809.313V833H1147.04V809.587C1147.04 807.468 1146.58 805.907 1145.67 804.904C1144.76 803.879 1143.25 803.366 1141.13 803.366C1138.23 803.366 1136.14 804.483 1134.84 806.716V833H1124.96V780.5H1134.84V800.051ZM1181.39 833.684C1175.97 833.684 1171.55 832.02 1168.13 828.693C1164.73 825.367 1163.04 820.935 1163.04 815.397V814.44C1163.04 810.726 1163.75 807.411 1165.19 804.494C1166.62 801.555 1168.65 799.299 1171.27 797.727C1173.92 796.132 1176.92 795.334 1180.3 795.334C1185.35 795.334 1189.33 796.929 1192.22 800.119C1195.14 803.309 1196.6 807.832 1196.6 813.688V817.722H1173.05C1173.37 820.137 1174.33 822.074 1175.92 823.532C1177.54 824.991 1179.58 825.72 1182.04 825.72C1185.84 825.72 1188.82 824.341 1190.96 821.584L1195.81 827.019C1194.33 829.115 1192.33 830.756 1189.8 831.94C1187.27 833.103 1184.47 833.684 1181.39 833.684ZM1180.26 803.332C1178.3 803.332 1176.71 803.993 1175.48 805.314C1174.27 806.636 1173.49 808.527 1173.15 810.988H1186.89V810.202C1186.85 808.015 1186.25 806.328 1185.12 805.144C1183.98 803.936 1182.36 803.332 1180.26 803.332ZM1223.02 805.28C1221.68 805.098 1220.49 805.007 1219.47 805.007C1215.73 805.007 1213.28 806.271 1212.12 808.801V833H1202.24V796.018H1211.57L1211.84 800.427C1213.83 797.032 1216.57 795.334 1220.08 795.334C1221.17 795.334 1222.2 795.482 1223.16 795.778L1223.02 805.28ZM1237.85 817.722H1229.65L1228.49 783.234H1239.02L1237.85 817.722ZM1233.75 823.122C1235.42 823.122 1236.75 823.612 1237.75 824.592C1238.78 825.572 1239.29 826.825 1239.29 828.352C1239.29 829.855 1238.78 831.097 1237.75 832.077C1236.75 833.057 1235.42 833.547 1233.75 833.547C1232.11 833.547 1230.78 833.057 1229.75 832.077C1228.75 831.097 1228.25 829.855 1228.25 828.352C1228.25 826.848 1228.75 825.606 1229.75 824.626C1230.78 823.623 1232.11 823.122 1233.75 823.122Z" fill="white"/>
    <defs>
    <linearGradient id="paint0_linear" x1="221.151" y1="536.462" x2="221.151" y2="514.842" gradientUnits="userSpaceOnUse">
    <stop stop-color="#808080" stop-opacity="0.25"/>
    <stop offset="0.54" stop-color="#808080" stop-opacity="0.12"/>
    <stop offset="1" stop-color="#808080" stop-opacity="0.1"/>
    </linearGradient>
    <linearGradient id="paint1_linear" x1="783.95" y1="53.3578" x2="783.95" y2="31.7373" gradientUnits="userSpaceOnUse">
    <stop stop-color="#808080" stop-opacity="0.25"/>
    <stop offset="0.54" stop-color="#808080" stop-opacity="0.12"/>
    <stop offset="1" stop-color="#808080" stop-opacity="0.1"/>
    </linearGradient>
    <linearGradient id="paint2_linear" x1="1185.51" y1="494.925" x2="1185.51" y2="473.305" gradientUnits="userSpaceOnUse">
    <stop stop-color="#808080" stop-opacity="0.25"/>
    <stop offset="0.54" stop-color="#808080" stop-opacity="0.12"/>
    <stop offset="1" stop-color="#808080" stop-opacity="0.1"/>
    </linearGradient>
    <linearGradient id="paint3_linear" x1="1047.52" y1="191.476" x2="1047.52" y2="169.855" gradientUnits="userSpaceOnUse">
    <stop stop-color="#808080" stop-opacity="0.25"/>
    <stop offset="0.54" stop-color="#808080" stop-opacity="0.12"/>
    <stop offset="1" stop-color="#808080" stop-opacity="0.1"/>
    </linearGradient>
    <linearGradient id="paint4_linear" x1="846.742" y1="196.668" x2="846.742" y2="175.047" gradientUnits="userSpaceOnUse">
    <stop stop-color="#808080" stop-opacity="0.25"/>
    <stop offset="0.54" stop-color="#808080" stop-opacity="0.12"/>
    <stop offset="1" stop-color="#808080" stop-opacity="0.1"/>
    </linearGradient>
    <linearGradient id="paint5_linear" x1="448.43" y1="245.127" x2="448.43" y2="223.507" gradientUnits="userSpaceOnUse">
    <stop stop-color="#808080" stop-opacity="0.25"/>
    <stop offset="0.54" stop-color="#808080" stop-opacity="0.12"/>
    <stop offset="1" stop-color="#808080" stop-opacity="0.1"/>
    </linearGradient>
    <linearGradient id="paint6_linear" x1="1412.79" y1="203.591" x2="1412.79" y2="181.97" gradientUnits="userSpaceOnUse">
    <stop stop-color="#808080" stop-opacity="0.25"/>
    <stop offset="0.54" stop-color="#808080" stop-opacity="0.12"/>
    <stop offset="1" stop-color="#808080" stop-opacity="0.1"/>
    </linearGradient>
    <linearGradient id="paint7_linear" x1="23754.8" y1="10847.6" x2="23754.8" y2="10431.8" gradientUnits="userSpaceOnUse">
    <stop stop-color="#808080" stop-opacity="0.25"/>
    <stop offset="0.54" stop-color="#808080" stop-opacity="0.12"/>
    <stop offset="1" stop-color="#808080" stop-opacity="0.1"/>
    </linearGradient>
    <linearGradient id="paint8_linear" x1="214088" y1="368266" x2="214088" y2="22505.9" gradientUnits="userSpaceOnUse">
    <stop stop-color="#808080" stop-opacity="0.25"/>
    <stop offset="0.54" stop-color="#808080" stop-opacity="0.12"/>
    <stop offset="1" stop-color="#808080" stop-opacity="0.1"/>
    </linearGradient>
    <linearGradient id="paint9_linear" x1="622.007" y1="640" x2="622.007" y2="690" gradientUnits="userSpaceOnUse">
    <stop stop-color="#E0E0E0"/>
    <stop offset="0.31" stop-color="#FCCC63"/>
    <stop offset="0.77" stop-color="#F55F44"/>
    </linearGradient>
    <linearGradient id="paint10_linear" x1="17797.6" y1="32047" x2="17797.6" y2="35267" gradientUnits="userSpaceOnUse">
    <stop stop-color="#E0E0E0"/>
    <stop offset="0.31" stop-color="#FCCC63"/>
    <stop offset="0.77" stop-color="#F55F44"/>
    </linearGradient>
    <linearGradient id="paint11_linear" x1="19406.2" y1="32047" x2="19406.2" y2="35267" gradientUnits="userSpaceOnUse">
    <stop stop-color="#E0E0E0"/>
    <stop offset="0.31" stop-color="#FCCC63"/>
    <stop offset="0.77" stop-color="#F55F44"/>
    </linearGradient>
    <linearGradient id="paint12_linear" x1="21343.3" y1="32047" x2="21343.3" y2="35267" gradientUnits="userSpaceOnUse">
    <stop stop-color="#E0E0E0"/>
    <stop offset="0.31" stop-color="#FCCC63"/>
    <stop offset="0.77" stop-color="#F55F44"/>
    </linearGradient>
    <linearGradient id="paint13_linear" x1="69163.5" y1="22512.4" x2="69163.5" y2="18804.8" gradientUnits="userSpaceOnUse">
    <stop stop-color="#808080" stop-opacity="0.25"/>
    <stop offset="0.54" stop-color="#808080" stop-opacity="0.12"/>
    <stop offset="1" stop-color="#808080" stop-opacity="0.1"/>
    </linearGradient>
    <linearGradient id="paint14_linear" x1="68987.5" y1="22636.4" x2="68987.5" y2="18928.8" gradientUnits="userSpaceOnUse">
    <stop stop-color="#808080" stop-opacity="0.25"/>
    <stop offset="0.54" stop-color="#808080" stop-opacity="0.12"/>
    <stop offset="1" stop-color="#808080" stop-opacity="0.1"/>
    </linearGradient>
    <linearGradient id="paint15_linear" x1="69549.5" y1="22153.4" x2="69549.5" y2="18445.8" gradientUnits="userSpaceOnUse">
    <stop stop-color="#808080" stop-opacity="0.25"/>
    <stop offset="0.54" stop-color="#808080" stop-opacity="0.12"/>
    <stop offset="1" stop-color="#808080" stop-opacity="0.1"/>
    </linearGradient>
    <linearGradient id="paint16_linear" x1="21611.2" y1="23098.1" x2="21611.2" y2="21229.7" gradientUnits="userSpaceOnUse">
    <stop stop-color="#808080" stop-opacity="0.25"/>
    <stop offset="0.54" stop-color="#808080" stop-opacity="0.12"/>
    <stop offset="1" stop-color="#808080" stop-opacity="0.1"/>
    </linearGradient>
    <linearGradient id="paint17_linear" x1="21404.2" y1="22330.3" x2="21404.2" y2="20509.7" gradientUnits="userSpaceOnUse">
    <stop stop-color="#808080" stop-opacity="0.25"/>
    <stop offset="0.54" stop-color="#808080" stop-opacity="0.12"/>
    <stop offset="1" stop-color="#808080" stop-opacity="0.1"/>
    </linearGradient>
    <linearGradient id="paint18_linear" x1="22368.2" y1="22288.3" x2="22368.2" y2="20467.7" gradientUnits="userSpaceOnUse">
    <stop stop-color="#808080" stop-opacity="0.25"/>
    <stop offset="0.54" stop-color="#808080" stop-opacity="0.12"/>
    <stop offset="1" stop-color="#808080" stop-opacity="0.1"/>
    </linearGradient>
    <linearGradient id="paint19_linear" x1="22230.2" y1="21985.3" x2="22230.2" y2="20164.7" gradientUnits="userSpaceOnUse">
    <stop stop-color="#808080" stop-opacity="0.25"/>
    <stop offset="0.54" stop-color="#808080" stop-opacity="0.12"/>
    <stop offset="1" stop-color="#808080" stop-opacity="0.1"/>
    </linearGradient>
    <linearGradient id="paint20_linear" x1="21699.1" y1="21990.3" x2="21699.1" y2="20169.7" gradientUnits="userSpaceOnUse">
    <stop stop-color="#808080" stop-opacity="0.25"/>
    <stop offset="0.54" stop-color="#808080" stop-opacity="0.12"/>
    <stop offset="1" stop-color="#808080" stop-opacity="0.1"/>
    </linearGradient>
    <linearGradient id="paint21_linear" x1="21631.2" y1="22038.3" x2="21631.2" y2="20217.7" gradientUnits="userSpaceOnUse">
    <stop stop-color="#808080" stop-opacity="0.25"/>
    <stop offset="0.54" stop-color="#808080" stop-opacity="0.12"/>
    <stop offset="1" stop-color="#808080" stop-opacity="0.1"/>
    </linearGradient>
    <linearGradient id="paint22_linear" x1="22265.1" y1="21997.3" x2="22265.1" y2="20176.7" gradientUnits="userSpaceOnUse">
    <stop stop-color="#808080" stop-opacity="0.25"/>
    <stop offset="0.54" stop-color="#808080" stop-opacity="0.12"/>
    <stop offset="1" stop-color="#808080" stop-opacity="0.1"/>
    </linearGradient>
    </defs>
    </svg>
    