<svg width="91" height="49" viewBox="0 0 91 49" fill="none" xmlns="http://www.w3.org/2000/svg">
<g filter="url(#filter0_d)">
<path d="M11.1928 32.6029L4 23.3865L13.0679 15.0278C14.0461 14.1574 15.1459 13.7221 16.3673 13.7221C16.8254 13.7221 17.2763 13.8437 17.72 14.087C18.1637 14.3344 18.4763 14.6907 18.6576 15.1558L16.9614 16.6278L10.2266 22.8553L14.4922 27.9755C14.8548 28.3851 15.0361 28.8139 15.0361 29.2619C15.0361 29.7142 14.9598 30.1238 14.8071 30.4908C14.6544 30.862 14.4111 31.197 14.0771 31.4956C13.4043 32.1783 12.4429 32.5474 11.1928 32.6029ZM40.143 33.6269C36.2305 33.6269 34.0929 31.1415 33.7303 26.1706H25.8504C25.2397 27.4293 24.7196 28.6049 24.2902 29.6972L23.1021 32.8077H16.6894L31.118 5.77302H40.966L42.8913 25.6778C43.1966 28.5451 43.96 30.4033 45.1815 31.2524C44.294 32.8354 42.6145 33.6269 40.143 33.6269ZM29.7868 17.9783L27.2675 23.1817H33.5871L33.0432 12.6533V11.546L29.7868 17.9783ZM53.9274 38.9135C53.9274 38.4186 54.0658 37.8169 54.3425 37.1086L69.315 0.121604C69.8685 0.040534 70.6868 0 71.7699 0C72.853 0 73.7237 0.128004 74.3822 0.384014C75.0358 0.644291 75.3627 1.17125 75.3627 1.96488C75.3627 2.64757 75.1193 3.61614 74.6327 4.87059L60.0681 40.8336C59.82 40.9445 58.9803 41 57.5488 41C55.1345 41 53.9274 40.3045 53.9274 38.9135ZM72.3424 31.1308L75.3627 28.4683L80.7662 23.4249L77.746 19.7832C77.2879 19.2626 76.8752 18.7847 76.5078 18.3495C76.1404 17.91 75.9567 17.4727 75.9567 17.0375C75.9567 16.6022 76.0331 16.1926 76.1857 15.8086C76.3384 15.4246 76.5841 15.0833 76.9229 14.7846C77.6243 14.1019 78.5857 13.7328 79.8072 13.6773L87 22.8937L77.932 31.2524C76.9539 32.1271 75.8541 32.5645 74.6327 32.5645C74.1746 32.5645 73.7237 32.4407 73.28 32.1933C72.8362 31.9458 72.5237 31.5916 72.3424 31.1308Z" fill="black"/>
</g>
<defs>
<filter id="filter0_d" x="0" y="0" width="91" height="49" filterUnits="userSpaceOnUse" color-interpolation-filters="sRGB">
<feFlood flood-opacity="0" result="BackgroundImageFix"/>
<feColorMatrix in="SourceAlpha" type="matrix" values="0 0 0 0 0 0 0 0 0 0 0 0 0 0 0 0 0 0 127 0" result="hardAlpha"/>
<feOffset dy="4"/>
<feGaussianBlur stdDeviation="2"/>
<feComposite in2="hardAlpha" operator="out"/>
<feColorMatrix type="matrix" values="0 0 0 0 0 0 0 0 0 0 0 0 0 0 0 0 0 0 0.25 0"/>
<feBlend mode="normal" in2="BackgroundImageFix" result="effect1_dropShadow"/>
<feBlend mode="normal" in="SourceGraphic" in2="effect1_dropShadow" result="shape"/>
</filter>
</defs>
</svg>
