<svg width="150" height="239" viewBox="0 0 150 239" fill="none" xmlns="http://www.w3.org/2000/svg">
    <path d="M101.004 37.4451L98.9599 36.1441L100.261 34.1001L99.7029 33.7461L98.4029 35.7901L96.3589 34.4891L96.0039 35.0461L98.0479 36.3471L96.7469 38.3911L97.3049 38.7461L98.6049 36.7021L100.649 38.0021L101.004 37.4451Z" fill="#6C63FF"/>
    <path d="M7.00391 167.445L4.9599 166.144L6.26089 164.1L5.70291 163.746L4.40292 165.79L2.35892 164.489L2.00391 165.046L4.04791 166.347L2.74692 168.391L3.3049 168.746L4.60492 166.702L6.6489 168.002L7.00391 167.445Z" fill="#6C63FF"/>
    <path d="M20.0039 226.445L17.9599 225.144L19.2609 223.1L18.7029 222.746L17.4029 224.79L15.3589 223.489L15.0039 224.046L17.0479 225.347L15.7469 227.391L16.3049 227.746L17.6049 225.702L19.6489 227.002L20.0039 226.445Z" fill="#6C63FF"/>
    <path d="M149.004 78.9241L146.142 77.1041L147.963 74.2421L147.183 73.7461L145.362 76.6071L142.501 74.7861L142.004 75.5671L144.866 77.3871L143.045 80.2491L143.825 80.7461L145.646 77.8841L148.507 79.7051L149.004 78.9241Z" fill="white"/>
    <path d="M46.0039 116.745C47.6608 116.745 49.0039 115.402 49.0039 113.745C49.0039 112.088 47.6608 110.745 46.0039 110.745C44.3471 110.745 43.0039 112.088 43.0039 113.745C43.0039 115.402 44.3471 116.745 46.0039 116.745Z" fill="#6C63FF"/>
    <path d="M133.004 6.74512C134.661 6.74512 136.004 5.40197 136.004 3.74512C136.004 2.08826 134.661 0.745117 133.004 0.745117C131.347 0.745117 130.004 2.08826 130.004 3.74512C130.004 5.40197 131.347 6.74512 133.004 6.74512Z" fill="#6C63FF"/>
    <path d="M105.004 189.745C106.661 189.745 108.004 188.402 108.004 186.745C108.004 185.088 106.661 183.745 105.004 183.745C103.347 183.745 102.004 185.088 102.004 186.745C102.004 188.402 103.347 189.745 105.004 189.745Z" fill="#6C63FF"/>
    <path d="M103.004 125.745C104.108 125.745 105.004 124.85 105.004 123.745C105.004 122.641 104.108 121.745 103.004 121.745C101.899 121.745 101.004 122.641 101.004 123.745C101.004 124.85 101.899 125.745 103.004 125.745Z" fill="#6C63FF"/>
    <path d="M2.00391 104.745C3.10848 104.745 4.00391 103.85 4.00391 102.745C4.00391 101.641 3.10848 100.745 2.00391 100.745C0.899337 100.745 0.00390625 101.641 0.00390625 102.745C0.00390625 103.85 0.899337 104.745 2.00391 104.745Z" fill="#FF6584"/>
    <path d="M45.0039 35.7451C46.1085 35.7451 47.0039 34.8497 47.0039 33.7451C47.0039 32.6405 46.1085 31.7451 45.0039 31.7451C43.8993 31.7451 43.0039 32.6405 43.0039 33.7451C43.0039 34.8497 43.8993 35.7451 45.0039 35.7451Z" fill="#6C63FF"/>
    <path d="M119.004 238.745C124.527 238.745 129.004 234.268 129.004 228.745C129.004 223.222 124.527 218.745 119.004 218.745C113.481 218.745 109.004 223.222 109.004 228.745C109.004 234.268 113.481 238.745 119.004 238.745Z" fill="#6C63FF"/>
    </svg>
    