<svg width="741" height="485" viewBox="0 0 741 485" fill="none" xmlns="http://www.w3.org/2000/svg">
    <path d="M0 2H740V485H0V2Z" fill="#0F0E17"/>
    <path d="M380.386 402.459C385.462 410.286 396.237 413.646 396.237 413.646C396.237 413.646 398.781 404.316 393.704 396.489C388.627 388.662 377.852 385.302 377.852 385.302C377.852 385.302 375.309 394.632 380.386 402.459Z" fill="#2F2E41"/>
    <path d="M381.496 403.46C390.662 408.044 394.192 417.15 394.192 417.15C394.192 417.15 382.861 418.823 373.696 414.239C364.53 409.655 361 400.549 361 400.549C361 400.549 372.331 398.876 381.496 403.46Z" fill="#6C63FF"/>
    <path d="M579.992 198.194H522.805V198.873H579.992V198.194Z" fill="#F2F2F2"/>
    <path d="M564.47 198.703H563.653V204.985H564.47V198.703Z" fill="#F2F2F2"/>
    <path d="M539.552 198.703H538.735V204.985H539.552V198.703Z" fill="#F2F2F2"/>
    <path d="M615.994 208.794H558.807V209.473H615.994V208.794Z" fill="#F2F2F2"/>
    <path d="M575.146 202.681H574.329V208.964H575.146V202.681Z" fill="#F2F2F2"/>
    <path d="M600.064 202.681H599.247V208.964H600.064V202.681Z" fill="#F2F2F2"/>
    <path d="M691.972 224.075H634.785V224.754H691.972V224.075Z" fill="#F2F2F2"/>
    <path d="M651.124 217.963H650.307V224.245H651.124V217.963Z" fill="#F2F2F2"/>
    <path d="M676.041 217.963H675.224V224.245H676.041V217.963Z" fill="#F2F2F2"/>
    <path d="M686.253 381.643H629.066V382.322H686.253V381.643Z" fill="#F2F2F2"/>
    <path d="M645.405 375.53H644.588V381.813H645.405V375.53Z" fill="#F2F2F2"/>
    <path d="M670.322 375.53H669.506V381.813H670.322V375.53Z" fill="#F2F2F2"/>
    <path d="M588.626 272.636H531.439V273.315H588.626V272.636Z" fill="#F2F2F2"/>
    <path d="M547.778 266.523H546.961V272.806H547.778V266.523Z" fill="#F2F2F2"/>
    <path d="M572.695 266.523H571.878V272.806H572.695V266.523Z" fill="#F2F2F2"/>
    <path d="M606.599 354.476H549.412V355.155H606.599V354.476Z" fill="#F2F2F2"/>
    <path d="M565.751 348.364H564.934V354.646H565.751V348.364Z" fill="#F2F2F2"/>
    <path d="M590.668 348.364H589.852V354.646H590.668V348.364Z" fill="#F2F2F2"/>
    <path d="M698.099 329.686H640.912V330.365H698.099V329.686Z" fill="#F2F2F2"/>
    <path d="M657.251 323.574H656.434V329.856H657.251V323.574Z" fill="#F2F2F2"/>
    <path d="M682.168 323.574H681.351V329.856H682.168V323.574Z" fill="#F2F2F2"/>
    <path d="M511.274 398.875H414.551V398.297H510.578V370.24H422.682L418.412 362.845L419.04 362.595L423.12 369.661H511.274V398.875Z" fill="#2F2E41"/>
    <path d="M425.045 416.624C429.081 416.624 432.352 413.905 432.352 410.55C432.352 407.195 429.081 404.476 425.045 404.476C421.01 404.476 417.739 407.195 417.739 410.55C417.739 413.905 421.01 416.624 425.045 416.624Z" fill="#3F3D56"/>
    <path d="M497.066 416.624C501.101 416.624 504.372 413.905 504.372 410.55C504.372 407.195 501.101 404.476 497.066 404.476C493.03 404.476 489.759 407.195 489.759 410.55C489.759 413.905 493.03 416.624 497.066 416.624Z" fill="#3F3D56"/>
    <path d="M581.959 285.309C584.457 285.309 586.482 283.625 586.482 281.548C586.482 279.472 584.457 277.788 581.959 277.788C579.461 277.788 577.436 279.472 577.436 281.548C577.436 283.625 579.461 285.309 581.959 285.309Z" fill="#3F3D56"/>
    <path d="M521.619 360.695H412.902L389.378 296.773H545.845L545.702 297.149L521.619 360.695ZM413.417 360.117H521.108L544.896 297.351H390.319L413.417 360.117Z" fill="#2F2E41"/>
    <path d="M513.132 357.369H417.642L396.981 300.677H534.411L534.286 301.011L513.132 357.369Z" fill="#F2F2F2"/>
    <path d="M545.415 294.638L544.743 294.49L549.334 280.102H576.045V280.681H549.87L545.415 294.638Z" fill="#2F2E41"/>
    <path d="M538.026 316.152H396.98V316.73H538.026V316.152Z" fill="#2F2E41"/>
    <path d="M529.949 337.464H404.823V338.043H529.949V337.464Z" fill="#2F2E41"/>
    <path d="M467.957 297.062H467.261V360.406H467.957V297.062Z" fill="#2F2E41"/>
    <path d="M499.112 297.044L494.117 360.386L494.811 360.424L499.806 297.082L499.112 297.044Z" fill="#2F2E41"/>
    <path d="M436.122 297.043L435.427 297.081L440.393 360.425L441.088 360.387L436.122 297.043Z" fill="#2F2E41"/>
    <path d="M720 438.991H354V439.67H720V438.991Z" fill="#2F2E41"/>
    <path d="M604.215 185.012C604.215 185.012 610.186 199.141 606.511 201.315C602.837 203.488 618.913 221.24 618.913 221.24L638.205 216.893L627.641 202.039C627.641 202.039 626.263 187.186 626.263 185.012C626.263 182.839 604.215 185.012 604.215 185.012Z" fill="#A0616A"/>
    <g opacity="0.1">
    <path d="M604.215 185.012C604.215 185.012 610.186 199.141 606.511 201.315C602.837 203.488 618.913 221.24 618.913 221.24L638.205 216.893L627.641 202.039C627.641 202.039 626.263 187.186 626.263 185.012C626.263 182.839 604.215 185.012 604.215 185.012Z" fill="#FFF4F6" style="mix-blend-mode:lighten"/>
    </g>
    <path d="M594.192 285.726C594.192 285.726 592.449 303.84 594.192 313.259C595.935 322.678 598.549 348.762 598.549 348.762C598.549 348.762 598.549 398.032 608.137 398.757C617.724 399.481 624.696 400.206 625.568 397.308C626.439 394.409 621.21 392.96 623.825 391.511C626.439 390.062 627.311 384.99 623.825 379.194C620.338 373.397 623.825 314.708 623.825 314.708L640.384 351.66C640.384 351.66 642.127 382.092 643.871 386.439C645.614 390.787 642.127 398.757 648.228 399.481C654.329 400.206 661.302 395.858 664.788 394.409C668.274 392.96 659.559 392.96 661.302 392.236C663.045 391.511 668.274 389.337 666.531 388.613C664.788 387.888 663.045 353.11 663.045 353.11C663.045 353.11 658.251 278.842 652.15 275.944C646.049 273.046 642.127 278.038 642.127 278.038L594.192 285.726Z" fill="#FF8906"/>
    <g clip-path="url(#clip0)">
    <path d="M739.931 194.535L728.4 173.203C712.541 126.497 650.731 57.0251 601.405 49.8182C552.078 42.8814 493.284 122.363 443.962 126.234C394.641 129.834 345.308 108.24 295.974 83.0654C246.64 57.6208 197.305 29.2718 147.988 43.4772C98.6706 57.6826 49.3715 115.794 24.7218 144.376L0.0722075 173.229L-8.22795e-06 0.308993L24.6616 0.298694C49.3233 0.288395 98.6466 0.267796 147.97 0.247197C197.293 0.226599 246.616 0.206 295.94 0.185401C345.263 0.164803 394.586 0.144204 443.91 0.123606C493.233 0.103007 542.556 0.0824083 591.88 0.0618096C641.203 0.041211 690.526 0.0206123 715.188 0.010313L739.85 1.3709e-05L739.931 194.535Z" fill="#FF8906"/>
    </g>
    <path d="M609.88 395.858V401.655C609.88 401.655 602.036 417.411 609.88 417.411C617.724 417.411 623.825 419.044 623.825 416.871V397.308L609.88 395.858Z" fill="#2F2E41"/>
    <path d="M661.302 395.848V401.645C661.302 401.645 669.146 417.401 661.302 417.401C653.458 417.401 647.357 419.034 647.357 416.86V397.297L661.302 395.848Z" fill="#2F2E41"/>
    <path d="M616.416 195.518C625.081 195.518 632.105 189.679 632.105 182.476C632.105 175.273 625.081 169.434 616.416 169.434C607.752 169.434 600.728 175.273 600.728 182.476C600.728 189.679 607.752 195.518 616.416 195.518Z" fill="#B6818A"/>
    <path d="M611.623 206.749C611.623 206.749 615.981 217.617 622.953 215.444L629.926 213.27L642.127 282.827C642.127 282.827 632.54 294.42 618.595 287.175C604.65 279.929 611.623 206.749 611.623 206.749Z" fill="#6C63FF"/>
    <path d="M623.825 204.575L627.747 197.692C627.747 197.692 650.843 206.749 654.329 209.647C657.816 212.545 657.816 216.893 657.816 216.893L651.715 235.007C651.715 235.007 653.458 274.857 653.458 276.306C653.458 277.755 659.559 285.726 655.201 282.827C650.843 279.929 649.972 277.031 646.485 281.378C642.999 285.726 635.155 290.798 635.155 290.798L623.825 204.575Z" fill="#FF8906"/>
    <path d="M654.329 256.743L651.715 277.031C651.715 277.031 636.027 288.624 639.513 289.349C642.999 290.073 644.742 287.175 644.742 287.175C644.742 287.175 650.843 292.247 654.329 289.349C657.816 286.45 666.531 258.917 666.531 258.917L654.329 256.743Z" fill="#B6818A"/>
    <path d="M616.751 164.044C613.273 163.941 609.551 163.89 606.619 165.448C605.269 166.23 604.086 167.193 603.117 168.297C600.261 171.299 597.793 175.075 598.854 178.799L600.086 178.4C600.086 179.394 599.821 180.375 599.308 181.273C599.482 180.854 600.063 181.532 599.907 181.956L598.55 185.658C600.781 184.978 603.557 186.355 603.896 188.31C604.051 184.01 604.588 179.08 608.783 176.563C610.899 175.293 613.577 174.905 616.153 174.561C618.53 174.244 621.021 173.941 623.298 174.591C625.574 175.242 627.513 177.177 626.997 179.132C628.046 178.831 629.22 179.44 629.739 180.256C630.258 181.072 630.285 182.034 630.301 182.957C631.419 183.614 632.693 182.309 633.149 181.235C634.219 178.714 635.171 176.03 634.594 173.4C634.017 170.769 631.439 168.256 628.223 168.247C628.613 167.89 628.822 167.422 628.804 166.94L626.153 166.754C626.826 166.674 627.445 166.403 627.904 165.986C626.839 166.96 618.472 164.095 616.751 164.044Z" fill="#2F2E41"/>
    <path d="M615.981 202.402C615.981 202.402 608.886 196.622 606.332 196.976C603.779 197.33 600.293 202.402 600.293 202.402C600.293 202.402 579.375 208.198 580.247 213.994C581.118 219.791 590.705 248.049 590.705 248.049C590.705 248.049 598.549 282.103 591.577 285.726C584.605 289.348 624.696 298.768 625.568 294.42C626.439 290.073 628.183 246.6 625.568 240.079C622.953 233.558 615.981 202.402 615.981 202.402Z" fill="#FF8906"/>
    <path d="M646.485 213.994H657.262C657.262 213.994 664.788 241.528 665.66 244.426C666.531 247.324 668.274 261.091 667.403 261.091C666.531 261.091 649.1 258.192 649.1 260.366L646.485 213.994Z" fill="#FF8906"/>
    <path d="M646.121 282.176H604.864C600.838 266.779 600.501 251.903 604.864 237.69H646.121C639.463 251.647 639.047 266.421 646.121 282.176Z" fill="#F2F2F2"/>
    <path d="M588.091 263.264L600.293 267.612C600.293 267.612 623.825 270.51 623.825 262.54C623.825 254.57 600.293 258.917 600.293 258.917L592.448 256.832L588.091 263.264Z" fill="#C09BA1"/>
    <path d="M590.705 209.647L580.247 211.821L572.403 250.222C572.403 250.222 569.788 260.366 574.146 261.091C578.504 261.815 590.705 267.612 590.705 267.612C590.705 267.612 592.449 256.743 595.935 256.743L587.219 250.947L592.449 225.587L590.705 209.647Z" fill="#FF8906"/>
    <path d="M442.798 283.842H385.61V284.521H442.798V283.842Z" fill="#F2F2F2"/>
    <path d="M401.95 277.73H401.133V284.012H401.95V277.73Z" fill="#F2F2F2"/>
    <path d="M426.867 277.73H426.05V284.012H426.867V277.73Z" fill="#F2F2F2"/>
    <path d="M455.814 205.325H398.626V206.004H455.814V205.325Z" fill="#F2F2F2"/>
    <path d="M447.291 183.834H446.474V190.117H447.291V183.834Z" fill="#F2F2F2"/>
    <path d="M422.374 183.834H421.557V190.117H422.374V183.834Z" fill="#F2F2F2"/>
    <path d="M520.41 250.223H463.222V250.903H520.41V250.223Z" fill="#F2F2F2"/>
    <path d="M504.887 250.733H504.07V257.015H504.887V250.733Z" fill="#F2F2F2"/>
    <path d="M479.97 250.733H479.153V257.015H479.97V250.733Z" fill="#F2F2F2"/>
    <path d="M423.191 249.884H366.003V250.563H423.191V249.884Z" fill="#F2F2F2"/>
    <path d="M407.668 250.393H406.852V256.675H407.668V250.393Z" fill="#F2F2F2"/>
    <path d="M382.751 250.393H381.934V256.675H382.751V250.393Z" fill="#F2F2F2"/>
    <path d="M491.816 215.925H434.628V216.604H491.816V215.925Z" fill="#F2F2F2"/>
    <path d="M450.968 209.813H450.151V216.095H450.968V209.813Z" fill="#F2F2F2"/>
    <path d="M475.885 209.813H475.068V216.095H475.885V209.813Z" fill="#F2F2F2"/>
    <path d="M34.1 244V209H38.75V222.3H48.05V209H52.65V244H48.05V226.95H38.75V244H34.1ZM61.8059 244C60.7725 244 59.9059 243.65 59.2059 242.95C58.5059 242.217 58.1559 241.35 58.1559 240.35V222.65C58.1559 221.65 58.5059 220.8 59.2059 220.1C59.9059 219.367 60.7725 219 61.8059 219H68.6059C69.6059 219 70.4559 219.367 71.1559 220.1C71.8559 220.8 72.2059 221.65 72.2059 222.65V240.35C72.2059 241.35 71.8559 242.217 71.1559 242.95C70.4559 243.65 69.6059 244 68.6059 244H61.8059ZM64.6559 239.3H65.7059C66.2059 239.3 66.6392 239.133 67.0059 238.8C67.3725 238.433 67.5559 238 67.5559 237.5V225.5C67.5559 225 67.3725 224.583 67.0059 224.25C66.6392 223.883 66.2059 223.7 65.7059 223.7H64.6559C64.1559 223.7 63.7225 223.883 63.3559 224.25C63.0225 224.583 62.8559 225 62.8559 225.5V237.5C62.8559 238 63.0225 238.433 63.3559 238.8C63.7225 239.133 64.1559 239.3 64.6559 239.3ZM79.4234 244C78.4234 244 77.5568 243.65 76.8234 242.95C76.1234 242.217 75.7734 241.35 75.7734 240.35V219H80.4734V237.5C80.4734 238 80.6401 238.433 80.9734 238.8C81.3401 239.133 81.7734 239.3 82.2734 239.3H85.1734V219H89.8734V237.5C89.8734 238 90.0401 238.433 90.3734 238.8C90.7401 239.133 91.1734 239.3 91.6734 239.3H94.5234V219H99.2234V244H79.4234ZM114.897 244C113.964 244 113.131 243.65 112.397 242.95C111.664 242.25 111.297 241.4 111.297 240.4V212.6C111.297 211.633 111.664 210.8 112.397 210.1C113.131 209.367 113.964 209 114.897 209H126.247C127.281 209 128.131 209.367 128.797 210.1C129.497 210.8 129.847 211.633 129.847 212.6V219.1L125.197 220.15V215.45C125.197 214.983 125.031 214.567 124.697 214.2C124.397 213.833 123.981 213.65 123.447 213.65H117.747C117.281 213.65 116.864 213.833 116.497 214.2C116.131 214.567 115.947 214.983 115.947 215.45V237.55C115.947 238.083 116.131 238.517 116.497 238.85C116.864 239.183 117.281 239.35 117.747 239.35H123.447C123.981 239.35 124.397 239.183 124.697 238.85C125.031 238.517 125.197 238.083 125.197 237.55V233.9L129.847 232.8V240.4C129.847 241.4 129.497 242.25 128.797 242.95C128.131 243.65 127.281 244 126.247 244H114.897ZM136.601 244C135.601 244 134.735 243.65 134.001 242.95C133.301 242.25 132.951 241.383 132.951 240.35V232.8C132.951 231.8 133.301 230.95 134.001 230.25C134.735 229.517 135.601 229.15 136.601 229.15H140.501C141.035 229.15 141.468 228.983 141.801 228.65C142.168 228.283 142.351 227.85 142.351 227.35V225.5C142.351 225 142.168 224.583 141.801 224.25C141.468 223.883 141.035 223.7 140.501 223.7H135.101L136.151 219H143.401C144.401 219 145.251 219.367 145.951 220.1C146.685 220.8 147.051 221.65 147.051 222.65V244H136.601ZM139.451 239.3H142.351V233.85H139.451C138.951 233.85 138.518 234.033 138.151 234.4C137.818 234.733 137.651 235.15 137.651 235.65V237.5C137.651 238 137.818 238.433 138.151 238.8C138.518 239.133 138.951 239.3 139.451 239.3ZM149.764 244V219H160.214C161.181 219 162.031 219.35 162.764 220.05C163.498 220.75 163.864 221.6 163.864 222.6V244H159.164V225.5C159.164 224.967 158.981 224.533 158.614 224.2C158.248 223.867 157.831 223.7 157.364 223.7H154.464V244H149.764ZM180.489 244L173.639 209H178.289L182.939 232.65L187.589 209H192.239L196.839 232.65L201.489 209H206.139L199.289 244H194.439L189.889 220.8L185.339 244H180.489ZM210.869 244C209.869 244 209.002 243.65 208.269 242.95C207.569 242.217 207.219 241.35 207.219 240.35V222.6C207.219 221.6 207.569 220.75 208.269 220.05C209.002 219.35 209.869 219 210.869 219H217.669C218.702 219 219.569 219.35 220.269 220.05C220.969 220.75 221.319 221.6 221.319 222.6V230.2C221.319 231.2 220.969 232.067 220.269 232.8C219.569 233.5 218.702 233.85 217.669 233.85H211.919V237.5C211.919 238 212.085 238.433 212.419 238.8C212.785 239.133 213.235 239.3 213.769 239.3H220.269L221.319 244H210.869ZM211.919 229.15H214.819C215.319 229.15 215.735 228.983 216.069 228.65C216.435 228.283 216.619 227.85 216.619 227.35V225.5C216.619 225 216.435 224.583 216.069 224.25C215.735 223.883 215.319 223.7 214.819 223.7H213.769C213.235 223.7 212.785 223.883 212.419 224.25C212.085 224.583 211.919 225 211.919 225.5V229.15ZM232.44 244V209H237.09V222.3H246.39V209H250.99V244H246.39V226.95H237.09V244H232.44ZM259.746 244C258.746 244 257.879 243.65 257.146 242.95C256.446 242.217 256.096 241.35 256.096 240.35V222.6C256.096 221.6 256.446 220.75 257.146 220.05C257.879 219.35 258.746 219 259.746 219H266.546C267.579 219 268.446 219.35 269.146 220.05C269.846 220.75 270.196 221.6 270.196 222.6V230.2C270.196 231.2 269.846 232.067 269.146 232.8C268.446 233.5 267.579 233.85 266.546 233.85H260.796V237.5C260.796 238 260.962 238.433 261.296 238.8C261.662 239.133 262.112 239.3 262.646 239.3H269.146L270.196 244H259.746ZM260.796 229.15H263.696C264.196 229.15 264.612 228.983 264.946 228.65C265.312 228.283 265.496 227.85 265.496 227.35V225.5C265.496 225 265.312 224.583 264.946 224.25C264.612 223.883 264.196 223.7 263.696 223.7H262.646C262.112 223.7 261.662 223.883 261.296 224.25C260.962 224.583 260.796 225 260.796 225.5V229.15ZM273.234 244V207.65L277.934 206.6V244H273.234ZM280.949 256.5V219H291.399C292.433 219 293.299 219.35 293.999 220.05C294.699 220.75 295.049 221.617 295.049 222.65V240.35C295.049 241.383 294.699 242.25 293.999 242.95C293.299 243.65 292.433 244 291.399 244H285.649V256.5H280.949ZM285.649 239.3H288.549C289.016 239.3 289.433 239.117 289.799 238.75C290.166 238.383 290.349 237.967 290.349 237.5V225.55C290.349 224.983 290.166 224.533 289.799 224.2C289.433 223.867 289.016 223.7 288.549 223.7H285.649V239.3ZM40.95 299V282L34.1 264H38.75L43.3 275.95L47.8 264H52.45L45.6 282V299H40.95ZM55.1164 299C54.0831 299 53.2164 298.65 52.5164 297.95C51.8164 297.217 51.4664 296.35 51.4664 295.35V277.65C51.4664 276.65 51.8164 275.8 52.5164 275.1C53.2164 274.367 54.0831 274 55.1164 274H61.9164C62.9164 274 63.7664 274.367 64.4664 275.1C65.1664 275.8 65.5164 276.65 65.5164 277.65V295.35C65.5164 296.35 65.1664 297.217 64.4664 297.95C63.7664 298.65 62.9164 299 61.9164 299H55.1164ZM57.9664 294.3H59.0164C59.5164 294.3 59.9497 294.133 60.3164 293.8C60.6831 293.433 60.8664 293 60.8664 292.5V280.5C60.8664 280 60.6831 279.583 60.3164 279.25C59.9497 278.883 59.5164 278.7 59.0164 278.7H57.9664C57.4664 278.7 57.0331 278.883 56.6664 279.25C56.3331 279.583 56.1664 280 56.1664 280.5V292.5C56.1664 293 56.3331 293.433 56.6664 293.8C57.0331 294.133 57.4664 294.3 57.9664 294.3ZM72.734 299C71.7007 299 70.834 298.65 70.134 297.95C69.434 297.25 69.084 296.383 69.084 295.35V274H73.784V292.5C73.784 292.967 73.9673 293.383 74.334 293.75C74.7007 294.117 75.1173 294.3 75.584 294.3H78.484V274H83.184V299H72.734ZM98.7816 299C97.7816 299 96.9316 298.65 96.2316 297.95C95.5316 297.25 95.1816 296.4 95.1816 295.4V287.65L99.8316 288.7V292.55C99.8316 293.05 99.9983 293.483 100.332 293.85C100.698 294.183 101.115 294.35 101.582 294.35H107.282C107.782 294.35 108.198 294.183 108.532 293.85C108.898 293.483 109.082 293.05 109.082 292.55V283.75C109.082 283.25 108.898 282.833 108.532 282.5C108.198 282.133 107.782 281.95 107.282 281.95H98.7816C97.7816 281.95 96.9316 281.6 96.2316 280.9C95.5316 280.2 95.1816 279.35 95.1816 278.35V267.6C95.1816 266.6 95.5316 265.75 96.2316 265.05C96.9316 264.35 97.7816 264 98.7816 264H110.132C111.132 264 111.982 264.35 112.682 265.05C113.382 265.75 113.732 266.6 113.732 267.6V273L109.082 271.9V270.45C109.082 269.95 108.898 269.533 108.532 269.2C108.198 268.833 107.782 268.65 107.282 268.65H101.582C101.115 268.65 100.698 268.833 100.332 269.2C99.9983 269.533 99.8316 269.95 99.8316 270.45V275.5C99.8316 276 99.9983 276.433 100.332 276.8C100.698 277.133 101.115 277.3 101.582 277.3H110.132C111.132 277.3 111.982 277.65 112.682 278.35C113.382 279.05 113.732 279.9 113.732 280.9V295.4C113.732 296.4 113.382 297.25 112.682 297.95C111.982 298.65 111.132 299 110.132 299H98.7816ZM119.902 299C118.902 299 118.035 298.65 117.302 297.95C116.602 297.25 116.252 296.383 116.252 295.35V287.8C116.252 286.8 116.602 285.95 117.302 285.25C118.035 284.517 118.902 284.15 119.902 284.15H123.802C124.335 284.15 124.769 283.983 125.102 283.65C125.469 283.283 125.652 282.85 125.652 282.35V280.5C125.652 280 125.469 279.583 125.102 279.25C124.769 278.883 124.335 278.7 123.802 278.7H118.402L119.452 274H126.702C127.702 274 128.552 274.367 129.252 275.1C129.985 275.8 130.352 276.65 130.352 277.65V299H119.902ZM122.752 294.3H125.652V288.85H122.752C122.252 288.85 121.819 289.033 121.452 289.4C121.119 289.733 120.952 290.15 120.952 290.65V292.5C120.952 293 121.119 293.433 121.452 293.8C121.819 294.133 122.252 294.3 122.752 294.3ZM137.079 299L132.379 274H137.079L139.429 286.5L141.779 274H146.479L141.779 299H137.079ZM151.64 299C150.64 299 149.774 298.65 149.04 297.95C148.34 297.217 147.99 296.35 147.99 295.35V277.6C147.99 276.6 148.34 275.75 149.04 275.05C149.774 274.35 150.64 274 151.64 274H158.44C159.474 274 160.34 274.35 161.04 275.05C161.74 275.75 162.09 276.6 162.09 277.6V285.2C162.09 286.2 161.74 287.067 161.04 287.8C160.34 288.5 159.474 288.85 158.44 288.85H152.69V292.5C152.69 293 152.857 293.433 153.19 293.8C153.557 294.133 154.007 294.3 154.54 294.3H161.04L162.09 299H151.64ZM152.69 284.15H155.59C156.09 284.15 156.507 283.983 156.84 283.65C157.207 283.283 157.39 282.85 157.39 282.35V280.5C157.39 280 157.207 279.583 156.84 279.25C156.507 278.883 156.09 278.7 155.59 278.7H154.54C154.007 278.7 153.557 278.883 153.19 279.25C152.857 279.583 152.69 280 152.69 280.5V284.15ZM180.938 299V268.65H173.988V264H192.538V268.65H185.588V299H180.938ZM195.497 299C194.464 299 193.597 298.65 192.897 297.95C192.197 297.217 191.847 296.35 191.847 295.35V277.65C191.847 276.65 192.197 275.8 192.897 275.1C193.597 274.367 194.464 274 195.497 274H202.297C203.297 274 204.147 274.367 204.847 275.1C205.547 275.8 205.897 276.65 205.897 277.65V295.35C205.897 296.35 205.547 297.217 204.847 297.95C204.147 298.65 203.297 299 202.297 299H195.497ZM198.347 294.3H199.397C199.897 294.3 200.331 294.133 200.697 293.8C201.064 293.433 201.247 293 201.247 292.5V280.5C201.247 280 201.064 279.583 200.697 279.25C200.331 278.883 199.897 278.7 199.397 278.7H198.347C197.847 278.7 197.414 278.883 197.047 279.25C196.714 279.583 196.547 280 196.547 280.5V292.5C196.547 293 196.714 293.433 197.047 293.8C197.414 294.133 197.847 294.3 198.347 294.3ZM213.115 299C212.082 299 211.215 298.65 210.515 297.95C209.815 297.25 209.465 296.383 209.465 295.35V277.65C209.465 276.617 209.815 275.75 210.515 275.05C211.215 274.35 212.082 274 213.115 274H218.865V262.6L223.565 261.5V299H213.115ZM215.965 294.3H218.865V278.7H215.965C215.498 278.7 215.082 278.867 214.715 279.2C214.348 279.533 214.165 279.967 214.165 280.5V292.5C214.165 292.967 214.348 293.383 214.715 293.75C215.082 294.117 215.498 294.3 215.965 294.3ZM229.716 299C228.716 299 227.85 298.65 227.116 297.95C226.416 297.25 226.066 296.383 226.066 295.35V287.8C226.066 286.8 226.416 285.95 227.116 285.25C227.85 284.517 228.716 284.15 229.716 284.15H233.616C234.15 284.15 234.583 283.983 234.916 283.65C235.283 283.283 235.466 282.85 235.466 282.35V280.5C235.466 280 235.283 279.583 234.916 279.25C234.583 278.883 234.15 278.7 233.616 278.7H228.216L229.266 274H236.516C237.516 274 238.366 274.367 239.066 275.1C239.8 275.8 240.166 276.65 240.166 277.65V299H229.716ZM232.566 294.3H235.466V288.85H232.566C232.066 288.85 231.633 289.033 231.266 289.4C230.933 289.733 230.766 290.15 230.766 290.65V292.5C230.766 293 230.933 293.433 231.266 293.8C231.633 294.133 232.066 294.3 232.566 294.3ZM247.343 311.5C246.31 311.5 245.443 311.15 244.743 310.45C244.043 309.75 243.693 308.883 243.693 307.85V302.4L248.393 303.5V305C248.393 305.467 248.577 305.883 248.943 306.25C249.31 306.617 249.727 306.8 250.193 306.8H251.293C251.76 306.8 252.177 306.617 252.543 306.25C252.91 305.883 253.093 305.467 253.093 305V299H247.343C246.31 299 245.443 298.65 244.743 297.95C244.043 297.25 243.693 296.383 243.693 295.35V274H248.393V292.5C248.393 292.967 248.577 293.383 248.943 293.75C249.31 294.117 249.727 294.3 250.193 294.3H253.093V274H257.793V307.85C257.793 308.883 257.443 309.75 256.743 310.45C256.043 311.15 255.193 311.5 254.193 311.5H247.343ZM268.759 289.75V283.7L275.709 273.1V270.45C275.709 269.983 275.525 269.567 275.159 269.2C274.792 268.833 274.375 268.65 273.909 268.65H268.209C267.675 268.65 267.242 268.833 266.909 269.2C266.609 269.567 266.459 269.983 266.459 270.45V274.15L261.809 273.1V267.6C261.809 266.633 262.159 265.8 262.859 265.1C263.559 264.367 264.409 264 265.409 264H276.759C277.759 264 278.609 264.367 279.309 265.1C280.009 265.8 280.359 266.633 280.359 267.6V274.15L273.409 285.1V289.75H268.759ZM268.759 299V294.35H273.409V299H268.759Z" fill="#FFFFFE"/>
    <path d="M34.725 380.25C32.775 380.25 31.425 379.758 30.675 378.775C29.925 377.775 29.55 376.342 29.55 374.475V359.75H31.4V374.525C31.4 375.858 31.6333 376.892 32.1 377.625C32.5833 378.358 33.4583 378.725 34.725 378.725C35.9417 378.725 36.8 378.358 37.3 377.625C37.8 376.875 38.05 375.842 38.05 374.525V359.75H39.875V374.475C39.875 376.308 39.4833 377.733 38.7 378.75C37.9333 379.75 36.6083 380.25 34.725 380.25ZM42.8277 365.55H44.6527V367.05C45.1361 366.517 45.6694 366.1 46.2527 365.8C46.8527 365.483 47.4777 365.325 48.1277 365.325C48.8444 365.325 49.3944 365.592 49.7777 366.125C50.1611 366.658 50.3527 367.417 50.3527 368.4V380H48.5277V368.8C48.5277 368.067 48.4111 367.542 48.1777 367.225C47.9611 366.908 47.6194 366.75 47.1527 366.75C46.7527 366.75 46.3361 366.875 45.9027 367.125C45.4694 367.358 45.0527 367.683 44.6527 368.1V380H42.8277V365.55ZM53.2572 361.075H55.0822V363.55H53.2572V361.075ZM53.2572 365.55H55.0822V380H53.2572V365.55ZM57.2098 365.55H59.0598L61.4098 377.9L63.7348 365.55H65.5098L62.4848 380H60.3348L57.2098 365.55ZM70.9889 380.225C70.0555 380.225 69.3055 380.042 68.7389 379.675C68.1722 379.308 67.7555 378.717 67.4889 377.9C67.2222 377.083 67.0889 375.975 67.0889 374.575V370.925C67.0889 369.508 67.2222 368.4 67.4889 367.6C67.7722 366.783 68.1972 366.2 68.7639 365.85C69.3472 365.5 70.0972 365.325 71.0139 365.325C72.0139 365.325 72.7805 365.542 73.3139 365.975C73.8639 366.392 74.2389 367.025 74.4389 367.875C74.6555 368.725 74.7639 369.867 74.7639 371.3V372.6H68.9139V375.125C68.9139 376.508 69.0722 377.475 69.3889 378.025C69.7055 378.575 70.2389 378.85 70.9889 378.85C71.6222 378.85 72.1055 378.65 72.4389 378.25C72.7889 377.85 72.9639 377.125 72.9639 376.075V375.075H74.7389V375.875C74.7389 377.275 74.4472 378.35 73.8639 379.1C73.2805 379.85 72.3222 380.225 70.9889 380.225ZM72.9639 371.55V370.35C72.9639 369.483 72.9139 368.8 72.8139 368.3C72.7305 367.8 72.5472 367.408 72.2639 367.125C71.9805 366.842 71.5555 366.7 70.9889 366.7C70.4722 366.7 70.0639 366.817 69.7639 367.05C69.4639 367.267 69.2472 367.658 69.1139 368.225C68.9805 368.775 68.9139 369.558 68.9139 370.575V371.55H72.9639ZM77.3521 365.55H79.2021V367.525C79.6355 366.808 80.1438 366.275 80.7271 365.925C81.3271 365.575 81.9271 365.4 82.5271 365.4C82.6438 365.4 82.7521 365.408 82.8521 365.425V367.375C82.5521 367.275 82.2521 367.225 81.9521 367.225C80.8021 367.225 79.8855 367.783 79.2021 368.9V380H77.3521V365.55ZM87.949 380.225C86.8157 380.225 85.899 379.858 85.199 379.125C84.5157 378.392 84.124 377.392 84.024 376.125L85.549 375.65C85.649 376.75 85.9074 377.558 86.324 378.075C86.7407 378.592 87.324 378.85 88.074 378.85C88.7074 378.85 89.1907 378.675 89.524 378.325C89.874 377.958 90.049 377.45 90.049 376.8C90.049 375.85 89.4657 374.883 88.299 373.9L86.324 372.2C85.6407 371.633 85.1407 371.075 84.824 370.525C84.5074 369.975 84.349 369.325 84.349 368.575C84.349 367.558 84.6574 366.767 85.274 366.2C85.9074 365.617 86.749 365.325 87.799 365.325C88.8657 365.325 89.6824 365.667 90.249 366.35C90.8324 367.033 91.1574 367.958 91.224 369.125L89.924 369.55C89.824 367.65 89.1407 366.7 87.874 366.7C87.3074 366.7 86.8574 366.858 86.524 367.175C86.1907 367.475 86.024 367.9 86.024 368.45C86.024 368.9 86.1074 369.292 86.274 369.625C86.4407 369.958 86.749 370.325 87.199 370.725L89.249 372.55C90.0324 373.25 90.624 373.908 91.024 374.525C91.4407 375.125 91.649 375.867 91.649 376.75C91.649 377.85 91.3157 378.708 90.649 379.325C89.9824 379.925 89.0824 380.225 87.949 380.225ZM93.9311 361.075H95.7561V363.55H93.9311V361.075ZM93.9311 365.55H95.7561V380H93.9311V365.55ZM102.259 380.175C101.275 380.175 100.592 379.908 100.209 379.375C99.8419 378.825 99.6586 378.033 99.6586 377V366.75H97.8836V365.55H99.6586V361.075H101.484V365.55H103.884V366.75H101.484V376.825C101.484 377.558 101.567 378.067 101.734 378.35C101.9 378.617 102.242 378.75 102.759 378.75C103.075 378.75 103.425 378.708 103.809 378.625V380.025C103.292 380.125 102.775 380.175 102.259 380.175ZM105.44 382.175C106.607 382.175 107.39 382.05 107.79 381.8C108.19 381.55 108.39 381.175 108.39 380.675C108.39 380.358 108.315 379.908 108.165 379.325C108.032 378.725 107.949 378.375 107.915 378.275L104.94 365.55H106.765L109.265 377.85L111.69 365.55H113.54L110.04 381.025C109.824 381.942 109.39 382.6 108.74 383C108.09 383.4 107.149 383.6 105.915 383.6H105.44V382.175ZM124.039 380.225C122.606 380.225 121.606 379.783 121.039 378.9C120.473 378 120.189 376.625 120.189 374.775V370.775C120.189 368.925 120.473 367.558 121.039 366.675C121.606 365.775 122.606 365.325 124.039 365.325C125.489 365.325 126.498 365.775 127.064 366.675C127.631 367.558 127.914 368.925 127.914 370.775V374.775C127.914 376.625 127.631 378 127.064 378.9C126.498 379.783 125.489 380.225 124.039 380.225ZM124.039 378.85C124.639 378.85 125.081 378.692 125.364 378.375C125.664 378.058 125.856 377.633 125.939 377.1C126.023 376.55 126.064 375.808 126.064 374.875V370.675C126.064 369.742 126.023 369.008 125.939 368.475C125.856 367.925 125.664 367.492 125.364 367.175C125.081 366.858 124.639 366.7 124.039 366.7C123.439 366.7 122.998 366.858 122.714 367.175C122.431 367.492 122.248 367.925 122.164 368.475C122.081 369.008 122.039 369.742 122.039 370.675V374.875C122.039 375.808 122.081 376.55 122.164 377.1C122.248 377.633 122.431 378.058 122.714 378.375C122.998 378.692 123.439 378.85 124.039 378.85ZM131.35 366.875H129.5V365.55H131.35V364.05C131.35 363.233 131.408 362.567 131.525 362.05C131.658 361.533 131.916 361.125 132.3 360.825C132.683 360.525 133.25 360.375 134 360.375C134.533 360.375 135.025 360.433 135.475 360.55V361.9C135.141 361.817 134.8 361.775 134.45 361.775C133.933 361.775 133.591 361.933 133.425 362.25C133.275 362.55 133.2 363.092 133.2 363.875V365.55H135.525V366.875H133.2V380H131.35V366.875ZM147.317 380.25C145.417 380.25 144.083 379.692 143.317 378.575C142.567 377.458 142.192 375.908 142.192 373.925V365.875C142.192 363.842 142.567 362.283 143.317 361.2C144.083 360.1 145.417 359.55 147.317 359.55C149.05 359.55 150.283 360.042 151.017 361.025C151.75 362.008 152.117 363.433 152.117 365.3V366.525H150.317V365.35C150.317 364.383 150.242 363.6 150.092 363C149.942 362.383 149.65 361.908 149.217 361.575C148.783 361.242 148.158 361.075 147.342 361.075C146.458 361.075 145.783 361.258 145.317 361.625C144.85 361.992 144.533 362.5 144.367 363.15C144.2 363.783 144.117 364.6 144.117 365.6V374.225C144.117 375.792 144.35 376.933 144.817 377.65C145.3 378.367 146.142 378.725 147.342 378.725C148.525 378.725 149.317 378.367 149.717 377.65C150.117 376.917 150.317 375.808 150.317 374.325V373H152.117V374.2C152.117 376.133 151.758 377.625 151.042 378.675C150.325 379.725 149.083 380.25 147.317 380.25ZM157.217 380.225C156.351 380.225 155.651 379.917 155.117 379.3C154.584 378.683 154.317 377.917 154.317 377C154.317 376.05 154.501 375.267 154.867 374.65C155.251 374.033 155.834 373.483 156.617 373C157.401 372.517 158.576 371.925 160.142 371.225V370.2C160.142 369.3 160.084 368.6 159.967 368.1C159.867 367.6 159.684 367.242 159.417 367.025C159.167 366.808 158.809 366.7 158.342 366.7C156.992 366.7 156.317 367.525 156.317 369.175V369.675L154.517 369.65C154.534 368.167 154.851 367.075 155.467 366.375C156.084 365.675 157.076 365.325 158.442 365.325C159.709 365.325 160.609 365.708 161.142 366.475C161.692 367.242 161.967 368.45 161.967 370.1V377.125C161.967 377.592 161.976 378.125 161.992 378.725C162.026 379.325 162.059 379.75 162.092 380H160.467L160.192 378C159.976 378.633 159.601 379.167 159.067 379.6C158.551 380.017 157.934 380.225 157.217 380.225ZM157.792 378.675C158.292 378.675 158.742 378.508 159.142 378.175C159.559 377.825 159.892 377.417 160.142 376.95V372.45C159.009 373.05 158.184 373.517 157.667 373.85C157.167 374.183 156.784 374.558 156.517 374.975C156.267 375.375 156.142 375.9 156.142 376.55C156.142 377.267 156.292 377.8 156.592 378.15C156.909 378.5 157.309 378.675 157.792 378.675ZM164.904 359.75H166.729V380H164.904V359.75ZM173.383 384.75C171.899 384.75 170.749 384.533 169.933 384.1C169.133 383.667 168.733 383.008 168.733 382.125C168.733 381.458 168.958 380.85 169.408 380.3C169.874 379.75 170.441 379.308 171.108 378.975C170.041 378.692 169.508 378.167 169.508 377.4C169.508 376.933 169.641 376.508 169.908 376.125C170.191 375.725 170.633 375.275 171.233 374.775C170.599 374.308 170.133 373.717 169.833 373C169.549 372.267 169.408 371.392 169.408 370.375C169.408 368.908 169.749 367.7 170.433 366.75C171.116 365.8 172.124 365.325 173.458 365.325C174.924 365.325 175.958 365.925 176.558 367.125C176.708 366.858 176.966 366.567 177.333 366.25C177.716 365.917 178.108 365.667 178.508 365.5L178.883 365.375L179.383 366.65C178.983 366.717 178.533 366.883 178.033 367.15C177.549 367.417 177.208 367.667 177.008 367.9C177.124 368.217 177.224 368.633 177.308 369.15C177.408 369.65 177.458 370.075 177.458 370.425C177.458 371.975 177.141 373.208 176.508 374.125C175.874 375.025 174.866 375.475 173.483 375.475C173.233 375.475 172.966 375.458 172.683 375.425C172.416 375.375 172.191 375.317 172.008 375.25C171.358 375.9 171.033 376.45 171.033 376.9C171.033 377.133 171.124 377.317 171.308 377.45C171.508 377.567 171.816 377.65 172.233 377.7L174.533 378.05C175.733 378.233 176.633 378.6 177.233 379.15C177.849 379.683 178.158 380.433 178.158 381.4C178.158 382.517 177.724 383.35 176.858 383.9C176.008 384.467 174.849 384.75 173.383 384.75ZM173.483 374.15C174.433 374.15 175.066 373.8 175.383 373.1C175.699 372.4 175.858 371.492 175.858 370.375C175.858 367.875 175.066 366.625 173.483 366.625C172.566 366.625 171.933 366.992 171.583 367.725C171.233 368.458 171.058 369.342 171.058 370.375C171.058 372.892 171.866 374.15 173.483 374.15ZM173.458 383.275C174.474 383.275 175.266 383.125 175.833 382.825C176.416 382.525 176.708 382.058 176.708 381.425C176.708 380.892 176.516 380.475 176.133 380.175C175.766 379.875 175.049 379.642 173.983 379.475L172.133 379.225C171.583 379.625 171.133 380.008 170.783 380.375C170.449 380.758 170.283 381.192 170.283 381.675C170.283 382.225 170.541 382.625 171.058 382.875C171.574 383.142 172.374 383.275 173.458 383.275ZM182.974 380.225C182.108 380.225 181.408 379.917 180.874 379.3C180.341 378.683 180.074 377.917 180.074 377C180.074 376.05 180.258 375.267 180.624 374.65C181.008 374.033 181.591 373.483 182.374 373C183.158 372.517 184.333 371.925 185.899 371.225V370.2C185.899 369.3 185.841 368.6 185.724 368.1C185.624 367.6 185.441 367.242 185.174 367.025C184.924 366.808 184.566 366.7 184.099 366.7C182.749 366.7 182.074 367.525 182.074 369.175V369.675L180.274 369.65C180.291 368.167 180.608 367.075 181.224 366.375C181.841 365.675 182.833 365.325 184.199 365.325C185.466 365.325 186.366 365.708 186.899 366.475C187.449 367.242 187.724 368.45 187.724 370.1V377.125C187.724 377.592 187.733 378.125 187.749 378.725C187.783 379.325 187.816 379.75 187.849 380H186.224L185.949 378C185.733 378.633 185.358 379.167 184.824 379.6C184.308 380.017 183.691 380.225 182.974 380.225ZM183.549 378.675C184.049 378.675 184.499 378.508 184.899 378.175C185.316 377.825 185.649 377.417 185.899 376.95V372.45C184.766 373.05 183.941 373.517 183.424 373.85C182.924 374.183 182.541 374.558 182.274 374.975C182.024 375.375 181.899 375.9 181.899 376.55C181.899 377.267 182.049 377.8 182.349 378.15C182.666 378.5 183.066 378.675 183.549 378.675ZM190.536 365.55H192.386V367.525C192.819 366.808 193.327 366.275 193.911 365.925C194.511 365.575 195.111 365.4 195.711 365.4C195.827 365.4 195.936 365.408 196.036 365.425V367.375C195.736 367.275 195.436 367.225 195.136 367.225C193.986 367.225 193.069 367.783 192.386 368.9V380H190.536V365.55ZM197.433 382.175C198.599 382.175 199.383 382.05 199.783 381.8C200.183 381.55 200.383 381.175 200.383 380.675C200.383 380.358 200.308 379.908 200.158 379.325C200.024 378.725 199.941 378.375 199.908 378.275L196.933 365.55H198.758L201.258 377.85L203.683 365.55H205.533L202.033 381.025C201.816 381.942 201.383 382.6 200.733 383C200.083 383.4 199.141 383.6 197.908 383.6H197.433V382.175ZM217.132 380.25C215.548 380.25 214.34 379.767 213.507 378.8C212.673 377.817 212.198 376.467 212.082 374.75L213.757 374.25C213.907 375.683 214.223 376.783 214.707 377.55C215.207 378.317 216.023 378.7 217.157 378.7C219.057 378.7 220.007 377.725 220.007 375.775C220.007 374.942 219.807 374.208 219.407 373.575C219.023 372.942 218.398 372.217 217.532 371.4L213.957 367.975C213.307 367.375 212.832 366.75 212.532 366.1C212.248 365.433 212.107 364.7 212.107 363.9C212.107 362.517 212.515 361.45 213.332 360.7C214.165 359.933 215.282 359.55 216.682 359.55C218.182 359.55 219.332 359.95 220.132 360.75C220.932 361.55 221.398 362.858 221.532 364.675L219.907 365.1C219.807 363.733 219.515 362.717 219.032 362.05C218.565 361.383 217.782 361.05 216.682 361.05C215.815 361.05 215.123 361.275 214.607 361.725C214.09 362.175 213.832 362.842 213.832 363.725C213.832 364.292 213.94 364.8 214.157 365.25C214.373 365.7 214.74 366.175 215.257 366.675L218.832 370.05C219.748 370.917 220.465 371.808 220.982 372.725C221.515 373.625 221.782 374.6 221.782 375.65C221.782 377.117 221.357 378.25 220.507 379.05C219.657 379.85 218.532 380.25 217.132 380.25ZM226.081 380.225C225.347 380.225 224.789 379.958 224.406 379.425C224.022 378.892 223.831 378.133 223.831 377.15V365.55H225.681V376.75C225.681 377.483 225.789 378.008 226.006 378.325C226.239 378.625 226.589 378.775 227.056 378.775C227.472 378.775 227.897 378.65 228.331 378.4C228.781 378.133 229.206 377.783 229.606 377.35V365.55H231.431V380H229.606V378.4C229.122 378.967 228.581 379.417 227.981 379.75C227.381 380.067 226.747 380.225 226.081 380.225ZM234.258 365.55H236.083V366.75C236.833 365.8 237.758 365.325 238.858 365.325C240.125 365.325 240.983 365.85 241.433 366.9C241.9 367.933 242.133 369.325 242.133 371.075V374.125C242.133 376.108 241.875 377.625 241.358 378.675C240.842 379.708 239.942 380.225 238.658 380.225C237.758 380.225 236.9 379.767 236.083 378.85V384.75H234.258V365.55ZM238.383 378.775C239.15 378.775 239.658 378.417 239.908 377.7C240.175 376.983 240.308 375.808 240.308 374.175V371.075C240.308 369.525 240.175 368.417 239.908 367.75C239.658 367.083 239.133 366.75 238.333 366.75C237.583 366.75 236.833 367.125 236.083 367.875V377.725C236.75 378.425 237.517 378.775 238.383 378.775ZM244.683 365.55H246.508V366.75C247.258 365.8 248.183 365.325 249.283 365.325C250.55 365.325 251.408 365.85 251.858 366.9C252.325 367.933 252.558 369.325 252.558 371.075V374.125C252.558 376.108 252.3 377.625 251.783 378.675C251.267 379.708 250.367 380.225 249.083 380.225C248.183 380.225 247.325 379.767 246.508 378.85V384.75H244.683V365.55ZM248.808 378.775C249.575 378.775 250.083 378.417 250.333 377.7C250.6 376.983 250.733 375.808 250.733 374.175V371.075C250.733 369.525 250.6 368.417 250.333 367.75C250.083 367.083 249.558 366.75 248.758 366.75C248.008 366.75 247.258 367.125 246.508 367.875V377.725C247.175 378.425 247.942 378.775 248.808 378.775ZM255.358 359.75H257.183V380H255.358V359.75ZM259.762 382.175C260.928 382.175 261.712 382.05 262.112 381.8C262.512 381.55 262.712 381.175 262.712 380.675C262.712 380.358 262.637 379.908 262.487 379.325C262.353 378.725 262.27 378.375 262.237 378.275L259.262 365.55H261.087L263.587 377.85L266.012 365.55H267.862L264.362 381.025C264.145 381.942 263.712 382.6 263.062 383C262.412 383.4 261.47 383.6 260.237 383.6H259.762V382.175ZM279.861 380.25C277.961 380.25 276.627 379.692 275.861 378.575C275.111 377.458 274.736 375.908 274.736 373.925V365.875C274.736 363.842 275.111 362.283 275.861 361.2C276.627 360.1 277.961 359.55 279.861 359.55C281.594 359.55 282.827 360.042 283.561 361.025C284.294 362.008 284.661 363.433 284.661 365.3V366.525H282.861V365.35C282.861 364.383 282.786 363.6 282.636 363C282.486 362.383 282.194 361.908 281.761 361.575C281.327 361.242 280.702 361.075 279.886 361.075C279.002 361.075 278.327 361.258 277.861 361.625C277.394 361.992 277.077 362.5 276.911 363.15C276.744 363.783 276.661 364.6 276.661 365.6V374.225C276.661 375.792 276.894 376.933 277.361 377.65C277.844 378.367 278.686 378.725 279.886 378.725C281.069 378.725 281.861 378.367 282.261 377.65C282.661 376.917 282.861 375.808 282.861 374.325V373H284.661V374.2C284.661 376.133 284.302 377.625 283.586 378.675C282.869 379.725 281.627 380.25 279.861 380.25ZM287.286 359.75H289.111V367.075C290.195 365.908 291.37 365.325 292.636 365.325C293.353 365.325 293.903 365.592 294.286 366.125C294.67 366.658 294.861 367.417 294.861 368.4V380H293.011V368.8C293.011 368.067 292.895 367.542 292.661 367.225C292.445 366.908 292.103 366.75 291.636 366.75C291.236 366.75 290.811 366.875 290.361 367.125C289.928 367.375 289.511 367.708 289.111 368.125V380H287.286V359.75ZM300.064 380.225C299.197 380.225 298.497 379.917 297.964 379.3C297.431 378.683 297.164 377.917 297.164 377C297.164 376.05 297.347 375.267 297.714 374.65C298.097 374.033 298.681 373.483 299.464 373C300.247 372.517 301.422 371.925 302.989 371.225V370.2C302.989 369.3 302.931 368.6 302.814 368.1C302.714 367.6 302.531 367.242 302.264 367.025C302.014 366.808 301.656 366.7 301.189 366.7C299.839 366.7 299.164 367.525 299.164 369.175V369.675L297.364 369.65C297.381 368.167 297.697 367.075 298.314 366.375C298.931 365.675 299.922 365.325 301.289 365.325C302.556 365.325 303.456 365.708 303.989 366.475C304.539 367.242 304.814 368.45 304.814 370.1V377.125C304.814 377.592 304.822 378.125 304.839 378.725C304.872 379.325 304.906 379.75 304.939 380H303.314L303.039 378C302.822 378.633 302.447 379.167 301.914 379.6C301.397 380.017 300.781 380.225 300.064 380.225ZM300.639 378.675C301.139 378.675 301.589 378.508 301.989 378.175C302.406 377.825 302.739 377.417 302.989 376.95V372.45C301.856 373.05 301.031 373.517 300.514 373.85C300.014 374.183 299.631 374.558 299.364 374.975C299.114 375.375 298.989 375.9 298.989 376.55C298.989 377.267 299.139 377.8 299.439 378.15C299.756 378.5 300.156 378.675 300.639 378.675ZM307.701 361.075H309.526V363.55H307.701V361.075ZM307.701 365.55H309.526V380H307.701V365.55ZM312.603 365.55H314.428V367.05C314.911 366.517 315.445 366.1 316.028 365.8C316.628 365.483 317.253 365.325 317.903 365.325C318.62 365.325 319.17 365.592 319.553 366.125C319.936 366.658 320.128 367.417 320.128 368.4V380H318.303V368.8C318.303 368.067 318.186 367.542 317.953 367.225C317.736 366.908 317.395 366.75 316.928 366.75C316.528 366.75 316.111 366.875 315.678 367.125C315.245 367.358 314.828 367.683 314.428 368.1V380H312.603V365.55ZM30.1 396.75H32L36 414.325L40.075 396.75H41.975L42.475 417H40.9L40.5 400.875L36.625 417H35.4L31.575 400.9L31.175 417H29.6L30.1 396.75ZM47.9645 417.225C47.0978 417.225 46.3978 416.917 45.8645 416.3C45.3311 415.683 45.0645 414.917 45.0645 414C45.0645 413.05 45.2478 412.267 45.6145 411.65C45.9978 411.033 46.5811 410.483 47.3645 410C48.1478 409.517 49.3228 408.925 50.8895 408.225V407.2C50.8895 406.3 50.8311 405.6 50.7145 405.1C50.6145 404.6 50.4311 404.242 50.1645 404.025C49.9145 403.808 49.5561 403.7 49.0895 403.7C47.7395 403.7 47.0645 404.525 47.0645 406.175V406.675L45.2645 406.65C45.2811 405.167 45.5978 404.075 46.2145 403.375C46.8311 402.675 47.8228 402.325 49.1895 402.325C50.4561 402.325 51.3561 402.708 51.8895 403.475C52.4395 404.242 52.7145 405.45 52.7145 407.1V414.125C52.7145 414.592 52.7228 415.125 52.7395 415.725C52.7728 416.325 52.8061 416.75 52.8395 417H51.2145L50.9395 415C50.7228 415.633 50.3478 416.167 49.8145 416.6C49.2978 417.017 48.6811 417.225 47.9645 417.225ZM48.5395 415.675C49.0395 415.675 49.4895 415.508 49.8895 415.175C50.3061 414.825 50.6395 414.417 50.8895 413.95V409.45C49.7561 410.05 48.9311 410.517 48.4145 410.85C47.9145 411.183 47.5311 411.558 47.2645 411.975C47.0145 412.375 46.8895 412.9 46.8895 413.55C46.8895 414.267 47.0395 414.8 47.3395 415.15C47.6561 415.5 48.0561 415.675 48.5395 415.675ZM55.401 402.55H57.226V404.05C57.7093 403.517 58.2426 403.1 58.826 402.8C59.426 402.483 60.051 402.325 60.701 402.325C61.4176 402.325 61.9676 402.592 62.351 403.125C62.7343 403.658 62.926 404.417 62.926 405.4V417H61.101V405.8C61.101 405.067 60.9843 404.542 60.751 404.225C60.5343 403.908 60.1926 403.75 59.726 403.75C59.326 403.75 58.9093 403.875 58.476 404.125C58.0426 404.358 57.626 404.683 57.226 405.1V417H55.401V402.55ZM68.1305 417.225C67.2638 417.225 66.5638 416.917 66.0305 416.3C65.4971 415.683 65.2305 414.917 65.2305 414C65.2305 413.05 65.4138 412.267 65.7805 411.65C66.1638 411.033 66.7471 410.483 67.5305 410C68.3138 409.517 69.4888 408.925 71.0555 408.225V407.2C71.0555 406.3 70.9971 405.6 70.8805 405.1C70.7805 404.6 70.5971 404.242 70.3305 404.025C70.0805 403.808 69.7221 403.7 69.2555 403.7C67.9055 403.7 67.2305 404.525 67.2305 406.175V406.675L65.4305 406.65C65.4471 405.167 65.7638 404.075 66.3805 403.375C66.9971 402.675 67.9888 402.325 69.3555 402.325C70.6221 402.325 71.5221 402.708 72.0555 403.475C72.6055 404.242 72.8805 405.45 72.8805 407.1V414.125C72.8805 414.592 72.8888 415.125 72.9055 415.725C72.9388 416.325 72.9721 416.75 73.0055 417H71.3805L71.1055 415C70.8888 415.633 70.5138 416.167 69.9805 416.6C69.4638 417.017 68.8471 417.225 68.1305 417.225ZM68.7055 415.675C69.2055 415.675 69.6555 415.508 70.0555 415.175C70.4721 414.825 70.8055 414.417 71.0555 413.95V409.45C69.9221 410.05 69.0971 410.517 68.5805 410.85C68.0805 411.183 67.6971 411.558 67.4305 411.975C67.1805 412.375 67.0555 412.9 67.0555 413.55C67.0555 414.267 67.2055 414.8 67.5055 415.15C67.8221 415.5 68.2221 415.675 68.7055 415.675ZM79.242 421.75C77.7587 421.75 76.6087 421.533 75.792 421.1C74.992 420.667 74.592 420.008 74.592 419.125C74.592 418.458 74.817 417.85 75.267 417.3C75.7337 416.75 76.3003 416.308 76.967 415.975C75.9003 415.692 75.367 415.167 75.367 414.4C75.367 413.933 75.5003 413.508 75.767 413.125C76.0503 412.725 76.492 412.275 77.092 411.775C76.4587 411.308 75.992 410.717 75.692 410C75.4087 409.267 75.267 408.392 75.267 407.375C75.267 405.908 75.6087 404.7 76.292 403.75C76.9753 402.8 77.9837 402.325 79.317 402.325C80.7837 402.325 81.817 402.925 82.417 404.125C82.567 403.858 82.8253 403.567 83.192 403.25C83.5753 402.917 83.967 402.667 84.367 402.5L84.742 402.375L85.242 403.65C84.842 403.717 84.392 403.883 83.892 404.15C83.4087 404.417 83.067 404.667 82.867 404.9C82.9837 405.217 83.0837 405.633 83.167 406.15C83.267 406.65 83.317 407.075 83.317 407.425C83.317 408.975 83.0003 410.208 82.367 411.125C81.7337 412.025 80.7253 412.475 79.342 412.475C79.092 412.475 78.8253 412.458 78.542 412.425C78.2753 412.375 78.0503 412.317 77.867 412.25C77.217 412.9 76.892 413.45 76.892 413.9C76.892 414.133 76.9837 414.317 77.167 414.45C77.367 414.567 77.6753 414.65 78.092 414.7L80.392 415.05C81.592 415.233 82.492 415.6 83.092 416.15C83.7087 416.683 84.017 417.433 84.017 418.4C84.017 419.517 83.5837 420.35 82.717 420.9C81.867 421.467 80.7087 421.75 79.242 421.75ZM79.342 411.15C80.292 411.15 80.9253 410.8 81.242 410.1C81.5587 409.4 81.717 408.492 81.717 407.375C81.717 404.875 80.9253 403.625 79.342 403.625C78.4253 403.625 77.792 403.992 77.442 404.725C77.092 405.458 76.917 406.342 76.917 407.375C76.917 409.892 77.7253 411.15 79.342 411.15ZM79.317 420.275C80.3337 420.275 81.1253 420.125 81.692 419.825C82.2753 419.525 82.567 419.058 82.567 418.425C82.567 417.892 82.3753 417.475 81.992 417.175C81.6253 416.875 80.9087 416.642 79.842 416.475L77.992 416.225C77.442 416.625 76.992 417.008 76.642 417.375C76.3087 417.758 76.142 418.192 76.142 418.675C76.142 419.225 76.4003 419.625 76.917 419.875C77.4337 420.142 78.2337 420.275 79.317 420.275ZM89.7877 417.225C88.8544 417.225 88.1044 417.042 87.5377 416.675C86.971 416.308 86.5544 415.717 86.2877 414.9C86.021 414.083 85.8877 412.975 85.8877 411.575V407.925C85.8877 406.508 86.021 405.4 86.2877 404.6C86.571 403.783 86.996 403.2 87.5627 402.85C88.146 402.5 88.896 402.325 89.8127 402.325C90.8127 402.325 91.5794 402.542 92.1127 402.975C92.6627 403.392 93.0377 404.025 93.2377 404.875C93.4544 405.725 93.5627 406.867 93.5627 408.3V409.6H87.7127V412.125C87.7127 413.508 87.871 414.475 88.1877 415.025C88.5044 415.575 89.0377 415.85 89.7877 415.85C90.421 415.85 90.9044 415.65 91.2377 415.25C91.5877 414.85 91.7627 414.125 91.7627 413.075V412.075H93.5377V412.875C93.5377 414.275 93.246 415.35 92.6627 416.1C92.0794 416.85 91.121 417.225 89.7877 417.225ZM91.7627 408.55V407.35C91.7627 406.483 91.7127 405.8 91.6127 405.3C91.5294 404.8 91.346 404.408 91.0627 404.125C90.7794 403.842 90.3544 403.7 89.7877 403.7C89.271 403.7 88.8627 403.817 88.5627 404.05C88.2627 404.267 88.046 404.658 87.9127 405.225C87.7794 405.775 87.7127 406.558 87.7127 407.575V408.55H91.7627ZM96.026 402.55H97.726V404.025C98.1926 403.458 98.7176 403.033 99.301 402.75C99.8843 402.45 100.493 402.3 101.126 402.3C102.326 402.3 103.093 402.925 103.426 404.175C103.909 403.558 104.451 403.092 105.051 402.775C105.668 402.458 106.309 402.3 106.976 402.3C107.693 402.3 108.276 402.558 108.726 403.075C109.193 403.592 109.426 404.433 109.426 405.6V417H107.726V405.65C107.726 404.867 107.601 404.325 107.351 404.025C107.101 403.708 106.743 403.55 106.276 403.55C105.843 403.55 105.384 403.683 104.901 403.95C104.418 404.217 103.968 404.583 103.551 405.05C103.584 405.283 103.601 405.467 103.601 405.6V417H101.876V405.65C101.876 404.85 101.751 404.3 101.501 404C101.251 403.7 100.893 403.55 100.426 403.55C99.9926 403.55 99.5426 403.683 99.076 403.95C98.6093 404.217 98.1593 404.575 97.726 405.025V417H96.026V402.55ZM115.74 417.225C114.807 417.225 114.057 417.042 113.49 416.675C112.923 416.308 112.507 415.717 112.24 414.9C111.973 414.083 111.84 412.975 111.84 411.575V407.925C111.84 406.508 111.973 405.4 112.24 404.6C112.523 403.783 112.948 403.2 113.515 402.85C114.098 402.5 114.848 402.325 115.765 402.325C116.765 402.325 117.532 402.542 118.065 402.975C118.615 403.392 118.99 404.025 119.19 404.875C119.407 405.725 119.515 406.867 119.515 408.3V409.6H113.665V412.125C113.665 413.508 113.823 414.475 114.14 415.025C114.457 415.575 114.99 415.85 115.74 415.85C116.373 415.85 116.857 415.65 117.19 415.25C117.54 414.85 117.715 414.125 117.715 413.075V412.075H119.49V412.875C119.49 414.275 119.198 415.35 118.615 416.1C118.032 416.85 117.073 417.225 115.74 417.225ZM117.715 408.55V407.35C117.715 406.483 117.665 405.8 117.565 405.3C117.482 404.8 117.298 404.408 117.015 404.125C116.732 403.842 116.307 403.7 115.74 403.7C115.223 403.7 114.815 403.817 114.515 404.05C114.215 404.267 113.998 404.658 113.865 405.225C113.732 405.775 113.665 406.558 113.665 407.575V408.55H117.715ZM121.978 402.55H123.803V404.05C124.286 403.517 124.82 403.1 125.403 402.8C126.003 402.483 126.628 402.325 127.278 402.325C127.995 402.325 128.545 402.592 128.928 403.125C129.311 403.658 129.503 404.417 129.503 405.4V417H127.678V405.8C127.678 405.067 127.561 404.542 127.328 404.225C127.111 403.908 126.77 403.75 126.303 403.75C125.903 403.75 125.486 403.875 125.053 404.125C124.62 404.358 124.203 404.683 123.803 405.1V417H121.978V402.55ZM135.633 417.175C134.649 417.175 133.966 416.908 133.583 416.375C133.216 415.825 133.033 415.033 133.033 414V403.75H131.258V402.55H133.033V398.075H134.858V402.55H137.258V403.75H134.858V413.825C134.858 414.558 134.941 415.067 135.108 415.35C135.274 415.617 135.616 415.75 136.133 415.75C136.449 415.75 136.799 415.708 137.183 415.625V417.025C136.666 417.125 136.149 417.175 135.633 417.175ZM148.992 417.25C147.409 417.25 146.2 416.767 145.367 415.8C144.534 414.817 144.059 413.467 143.942 411.75L145.617 411.25C145.767 412.683 146.084 413.783 146.567 414.55C147.067 415.317 147.884 415.7 149.017 415.7C150.917 415.7 151.867 414.725 151.867 412.775C151.867 411.942 151.667 411.208 151.267 410.575C150.884 409.942 150.259 409.217 149.392 408.4L145.817 404.975C145.167 404.375 144.692 403.75 144.392 403.1C144.109 402.433 143.967 401.7 143.967 400.9C143.967 399.517 144.375 398.45 145.192 397.7C146.025 396.933 147.142 396.55 148.542 396.55C150.042 396.55 151.192 396.95 151.992 397.75C152.792 398.55 153.259 399.858 153.392 401.675L151.767 402.1C151.667 400.733 151.375 399.717 150.892 399.05C150.425 398.383 149.642 398.05 148.542 398.05C147.675 398.05 146.984 398.275 146.467 398.725C145.95 399.175 145.692 399.842 145.692 400.725C145.692 401.292 145.8 401.8 146.017 402.25C146.234 402.7 146.6 403.175 147.117 403.675L150.692 407.05C151.609 407.917 152.325 408.808 152.842 409.725C153.375 410.625 153.642 411.6 153.642 412.65C153.642 414.117 153.217 415.25 152.367 416.05C151.517 416.85 150.392 417.25 148.992 417.25ZM155.416 419.175C156.583 419.175 157.366 419.05 157.766 418.8C158.166 418.55 158.366 418.175 158.366 417.675C158.366 417.358 158.291 416.908 158.141 416.325C158.008 415.725 157.924 415.375 157.891 415.275L154.916 402.55H156.741L159.241 414.85L161.666 402.55H163.516L160.016 418.025C159.799 418.942 159.366 419.6 158.716 420C158.066 420.4 157.124 420.6 155.891 420.6H155.416V419.175ZM168.638 417.225C167.504 417.225 166.588 416.858 165.888 416.125C165.204 415.392 164.813 414.392 164.713 413.125L166.238 412.65C166.338 413.75 166.596 414.558 167.013 415.075C167.429 415.592 168.013 415.85 168.763 415.85C169.396 415.85 169.879 415.675 170.213 415.325C170.563 414.958 170.738 414.45 170.738 413.8C170.738 412.85 170.154 411.883 168.988 410.9L167.013 409.2C166.329 408.633 165.829 408.075 165.513 407.525C165.196 406.975 165.038 406.325 165.038 405.575C165.038 404.558 165.346 403.767 165.963 403.2C166.596 402.617 167.438 402.325 168.488 402.325C169.554 402.325 170.371 402.667 170.938 403.35C171.521 404.033 171.846 404.958 171.913 406.125L170.613 406.55C170.513 404.65 169.829 403.7 168.563 403.7C167.996 403.7 167.546 403.858 167.213 404.175C166.879 404.475 166.713 404.9 166.713 405.45C166.713 405.9 166.796 406.292 166.963 406.625C167.129 406.958 167.438 407.325 167.888 407.725L169.938 409.55C170.721 410.25 171.313 410.908 171.713 411.525C172.129 412.125 172.338 412.867 172.338 413.75C172.338 414.85 172.004 415.708 171.338 416.325C170.671 416.925 169.771 417.225 168.638 417.225ZM177.845 417.175C176.861 417.175 176.178 416.908 175.795 416.375C175.428 415.825 175.245 415.033 175.245 414V403.75H173.47V402.55H175.245V398.075H177.07V402.55H179.47V403.75H177.07V413.825C177.07 414.558 177.153 415.067 177.32 415.35C177.486 415.617 177.828 415.75 178.345 415.75C178.661 415.75 179.011 415.708 179.395 415.625V417.025C178.878 417.125 178.361 417.175 177.845 417.175ZM185.051 417.225C184.118 417.225 183.368 417.042 182.801 416.675C182.235 416.308 181.818 415.717 181.551 414.9C181.285 414.083 181.151 412.975 181.151 411.575V407.925C181.151 406.508 181.285 405.4 181.551 404.6C181.835 403.783 182.26 403.2 182.826 402.85C183.41 402.5 184.16 402.325 185.076 402.325C186.076 402.325 186.843 402.542 187.376 402.975C187.926 403.392 188.301 404.025 188.501 404.875C188.718 405.725 188.826 406.867 188.826 408.3V409.6H182.976V412.125C182.976 413.508 183.135 414.475 183.451 415.025C183.768 415.575 184.301 415.85 185.051 415.85C185.685 415.85 186.168 415.65 186.501 415.25C186.851 414.85 187.026 414.125 187.026 413.075V412.075H188.801V412.875C188.801 414.275 188.51 415.35 187.926 416.1C187.343 416.85 186.385 417.225 185.051 417.225ZM187.026 408.55V407.35C187.026 406.483 186.976 405.8 186.876 405.3C186.793 404.8 186.61 404.408 186.326 404.125C186.043 403.842 185.618 403.7 185.051 403.7C184.535 403.7 184.126 403.817 183.826 404.05C183.526 404.267 183.31 404.658 183.176 405.225C183.043 405.775 182.976 406.558 182.976 407.575V408.55H187.026ZM191.29 402.55H192.99V404.025C193.456 403.458 193.981 403.033 194.565 402.75C195.148 402.45 195.756 402.3 196.39 402.3C197.59 402.3 198.356 402.925 198.69 404.175C199.173 403.558 199.715 403.092 200.315 402.775C200.931 402.458 201.573 402.3 202.24 402.3C202.956 402.3 203.54 402.558 203.99 403.075C204.456 403.592 204.69 404.433 204.69 405.6V417H202.99V405.65C202.99 404.867 202.865 404.325 202.615 404.025C202.365 403.708 202.006 403.55 201.54 403.55C201.106 403.55 200.648 403.683 200.165 403.95C199.681 404.217 199.231 404.583 198.815 405.05C198.848 405.283 198.865 405.467 198.865 405.6V417H197.14V405.65C197.14 404.85 197.015 404.3 196.765 404C196.515 403.7 196.156 403.55 195.69 403.55C195.256 403.55 194.806 403.683 194.34 403.95C193.873 404.217 193.423 404.575 192.99 405.025V417H191.29V402.55Z" fill="#A7A9BE"/>
    <defs>
    <clipPath id="clip0">
    <rect width="739.85" height="236.511" fill="white" transform="translate(740.042 237.505) rotate(179.976)"/>
    </clipPath>
    </defs>
    </svg>
    