<svg width="788" height="567" viewBox="0 0 788 567" fill="none" xmlns="http://www.w3.org/2000/svg">
    <g clip-path="url(#clip0_203_59)">
    <path d="M0 0H788V567H0V0Z" fill="url(#paint0_radial_203_59)"/>
    <ellipse cx="479.5" cy="336.5" rx="86.5" ry="93.5" fill="#EAC25E"/>
    <path fill-rule="evenodd" clip-rule="evenodd" d="M-55 204L-48.595 236.668C-42.19 269.336 -29.38 334.671 -15.8583 334.671C-3.04833 334.671 9.76166 269.336 22.5717 240.298C35.3817 211.26 48.1917 218.519 61.7133 222.149C74.5233 225.779 87.3333 225.779 100.143 236.668C112.953 247.557 126.475 269.336 139.285 291.114C152.095 312.893 164.905 334.671 177.715 341.931C190.525 349.19 204.047 341.931 216.857 316.522C229.667 291.114 242.477 247.557 255.287 258.446C268.808 269.336 281.618 334.671 294.428 341.931C307.238 349.19 320.048 298.374 332.858 272.965C346.38 247.557 359.19 247.557 372 262.076C384.81 276.595 397.62 305.633 411.142 331.041C423.952 356.45 436.762 378.228 449.572 378.228C462.382 378.228 475.192 356.45 488.713 356.45C501.523 356.45 514.333 378.228 527.143 370.969C539.953 363.709 553.475 327.412 566.285 291.114C579.095 254.817 591.905 218.519 604.715 233.038C617.525 247.557 631.047 312.893 643.857 316.522C656.667 320.152 669.477 262.076 682.287 251.187C695.808 240.298 708.618 276.595 721.428 272.965C734.238 269.336 747.048 225.779 759.858 211.26C773.38 196.74 786.19 211.26 792.595 218.519L799 225.779V570H792.595C786.19 570 773.38 570 759.858 570C747.048 570 734.238 570 721.428 570C708.618 570 695.808 570 682.287 570C669.477 570 656.667 570 643.857 570C631.047 570 617.525 570 604.715 570C591.905 570 579.095 570 566.285 570C553.475 570 539.953 570 527.143 570C514.333 570 501.523 570 488.713 570C475.192 570 462.382 570 449.572 570C436.762 570 423.952 570 411.142 570C397.62 570 384.81 570 372 570C359.19 570 346.38 570 332.858 570C320.048 570 307.238 570 294.428 570C281.618 570 268.808 570 255.287 570C242.477 570 229.667 570 216.857 570C204.047 570 190.525 570 177.715 570C164.905 570 152.095 570 139.285 570C126.475 570 112.953 570 100.143 570C87.3333 570 74.5233 570 61.7133 570C48.1917 570 35.3817 570 22.5717 570C9.76166 570 -3.04833 570 -15.8583 570C-29.38 570 -42.19 570 -48.595 570H-55V204Z" fill="url(#paint1_linear_203_59)"/>
    <path d="M505.455 441.838C551.383 463.841 563.811 535.047 564.283 567.9L696.116 587L711 564.08C677.688 527.662 635.87 431.906 474.977 412.041C395.725 402.256 430.324 350.034 450.17 328C379.292 406.693 448.044 414.333 505.455 441.838Z" fill="url(#paint2_linear_203_59)"/>
    <path d="M247 -110.216L487.401 -15.9956" stroke="url(#paint3_linear_203_59)" stroke-width="2.11877"/>
    <path d="M-55 8.09106L245.202 117.301" stroke="url(#paint4_linear_203_59)" stroke-width="2.11877"/>
    <path fill-rule="evenodd" clip-rule="evenodd" d="M148.703 425.985H120.853H-52.9489C-54.0817 425.985 -54.9999 425.067 -54.9999 423.934V416.135C-54.9999 416.006 -54.9734 415.879 -54.922 415.762L-54.5846 414.989C-54.3194 414.382 -53.429 414.484 -53.3071 415.135C-53.229 415.551 -52.7785 415.814 -52.3552 415.788C-51.5978 415.741 -50.6017 415.859 -49.6584 416.028C-49.1282 416.123 -48.7606 415.403 -49.1701 415.053C-49.5255 414.749 -49.3107 414.167 -48.8432 414.167H-45.3453C-45.0377 414.167 -44.746 414.304 -44.5492 414.541C-44.0356 415.158 -43.0366 414.981 -42.6944 414.254C-41.916 412.601 -41.0105 411.385 -40.109 410.506C-39.2199 409.638 -38.9678 411.414 -39.2951 412.612C-39.6272 413.827 -37.2013 413.798 -35.9416 413.781C-35.3481 413.773 -34.7677 413.87 -34.2809 414.008C-33.9616 414.098 -33.6256 414.123 -33.2996 414.061C-29.5843 413.362 -25.436 414.543 -22.4784 415.832C-21.841 416.11 -21.0939 415.255 -21.5013 414.692L-21.7541 414.343C-22.0466 413.938 -21.6356 413.4 -21.1685 413.576C-20.7015 413.753 -20.2905 413.215 -20.583 412.81L-21.2491 411.889C-21.7252 411.231 -21.0892 410.346 -20.3136 410.587L-15.2552 412.159C-13.9351 412.569 -12.6052 411.577 -12.4094 410.208C-11.9316 406.868 -10.5991 404.877 -9.1899 403.765C-7.98956 402.818 -7.17522 404.286 -6.77196 405.761C-6.50073 406.753 -5.5889 407.108 -4.67316 407.156C-4.01408 407.19 -3.35944 407.487 -3.06778 408.079C-2.52394 409.183 -0.942429 409.169 -0.411942 408.058C1.40166 404.262 3.62888 399.757 3.62888 400.38V404.275C3.62888 404.844 4.35826 405.079 4.69084 404.617C4.98936 404.203 5.63843 404.342 5.74091 404.842L5.92969 405.764C6.1402 406.792 7.85057 406.924 8.38184 406.019C10.3996 402.582 13.4155 400.303 15.7334 399.067C16.6362 398.586 17.6408 399.283 17.6408 400.306C17.6408 401.575 19.2567 402.385 20.487 402.074C21.9174 401.712 23.3591 401.785 24.5263 402.013C25.0558 402.116 25.5616 401.453 25.258 401.007C25.0494 400.701 25.2068 400.285 25.5751 400.242C27.7757 399.987 30.9112 400.791 33.3197 401.622C34.1325 401.902 34.9341 401.03 34.5431 400.264C34.1667 399.526 34.885 398.708 35.6649 398.986L35.8441 399.05C36.374 399.238 36.9544 398.948 37.122 398.412L37.4649 397.312C37.6653 396.67 38.5714 396.662 38.7835 397.3C39.0314 398.047 40.5026 397.891 40.7072 397.132C42.3003 391.223 46.714 387.188 47.5083 388.169C49.0952 390.128 48.8115 394.927 48.0381 396.514C49.178 395.88 51.5561 394.814 53.0393 394.176C53.5777 394.527 54.2552 393.996 54.0423 393.389L53.4639 391.742C53.2302 391.076 53.6006 390.364 54.3057 390.383C57.1443 390.458 62.1039 392.491 65.626 394.177C66.7688 394.724 67.9979 394.075 67.512 392.905C66.8442 391.296 65.4 389.47 63.9455 387.921C62.8543 386.758 63.4683 385.139 64.7347 386.108C66.8291 387.709 68.3902 391.196 69.2421 393.894C69.4155 394.443 70.147 394.587 70.4971 394.13C70.834 393.69 71.526 393.808 71.6986 394.335L71.925 395.026C72.1981 395.859 73.2934 396.017 73.7393 395.261C78.3622 387.428 76.3207 380.087 75.4972 377.127C75.2307 376.169 75.0918 375.669 75.3478 375.76C76.1458 376.044 79.1029 382.65 80.8929 386.882C81.081 387.326 81.7215 387.302 81.8746 386.844C82.0319 386.374 82.6947 386.367 82.8613 386.835L83.3191 388.118C83.5594 388.792 84.4207 389.002 85.0156 388.604C88.2449 386.444 92.4185 386.536 94.8175 386.997C95.2294 387.077 95.6282 386.77 95.6282 386.351C95.6282 385.901 96.0826 385.593 96.5002 385.761L99.3246 386.892C99.7936 387.08 100.315 387.088 100.79 386.915C103.347 385.984 106.906 384.696 105.031 385.411C103.846 385.863 103.535 386.51 103.59 387.091C103.661 387.838 104.561 388.052 105.287 387.865L112.916 385.898C113.465 385.756 113.859 386.42 113.471 386.834C113.09 387.24 113.444 387.813 113.949 387.579C117.258 386.047 119.597 382.601 120.476 380.771C119.832 382.219 121.02 384.176 122.306 385.657C122.324 385.677 122.342 385.697 122.36 385.716L123.84 386.253C124.366 386.214 124.904 385.99 125.342 385.635C127.189 384.139 129.349 383.574 130.959 383.438C131.721 383.374 132.185 384.155 131.875 384.855C131.758 385.118 131.75 385.388 131.821 385.631C132.749 385.751 133.742 385.914 134.778 386.131C135.814 385.914 136.806 385.751 137.734 385.631C137.806 385.388 137.797 385.118 137.681 384.855C137.37 384.155 137.834 383.374 138.597 383.438C140.206 383.574 142.367 384.139 144.213 385.635C144.651 385.99 145.189 386.214 145.716 386.253L147.195 385.716C147.214 385.697 147.232 385.677 147.249 385.657C148.536 384.176 149.724 382.219 149.079 380.771C149.958 382.601 152.298 386.047 155.607 387.579C156.112 387.813 156.465 387.24 156.085 386.834C155.697 386.42 156.091 385.756 156.64 385.898L164.268 387.865C164.995 388.052 165.895 387.838 165.965 387.091C166.02 386.51 165.71 385.863 164.525 385.411C162.649 384.696 166.209 385.984 168.766 386.915C169.24 387.088 169.762 387.08 170.231 386.892L173.055 385.761C173.473 385.593 173.927 385.901 173.927 386.351C173.927 386.77 174.326 387.077 174.738 386.997C177.137 386.536 181.311 386.444 184.54 388.604C185.135 389.002 185.996 388.792 186.237 388.118L186.694 386.835C186.861 386.367 187.524 386.374 187.681 386.844C187.834 387.302 188.475 387.326 188.663 386.882C190.453 382.65 193.41 376.044 194.208 375.76C194.464 375.669 194.325 376.169 194.058 377.127C193.235 380.087 191.193 387.428 195.816 395.261C196.262 396.017 197.357 395.859 197.631 395.026L197.857 394.335C198.03 393.808 198.722 393.69 199.059 394.13C199.409 394.587 200.14 394.443 200.313 393.894C201.165 391.196 202.726 387.709 204.821 386.108C206.087 385.139 206.701 386.758 205.61 387.921C204.156 389.47 202.711 391.296 202.044 392.905C201.558 394.075 202.787 394.724 203.93 394.177C207.452 392.491 212.411 390.458 215.25 390.383C215.955 390.364 216.325 391.076 216.092 391.742L215.513 393.389C215.3 393.996 215.978 394.527 216.516 394.176C217.999 394.814 220.378 395.88 221.517 396.514C220.744 394.927 220.46 390.128 222.047 388.169C222.842 387.188 227.255 391.223 228.848 397.132C229.053 397.891 230.524 398.047 230.772 397.3C230.984 396.662 231.89 396.67 232.091 397.312L232.434 398.412C232.601 398.948 233.182 399.238 233.711 399.05L233.891 398.986C234.671 398.708 235.389 399.526 235.012 400.264C234.621 401.03 235.423 401.902 236.236 401.622C238.644 400.791 241.78 399.987 243.981 400.242C244.349 400.285 244.506 400.701 244.298 401.007C243.994 401.453 244.5 402.116 245.029 402.013C246.196 401.785 247.638 401.712 249.069 402.074C250.299 402.385 251.915 401.575 251.915 400.306C251.915 399.283 252.919 398.586 253.822 399.067C256.14 400.303 259.156 402.582 261.174 406.019C261.705 406.924 263.415 406.792 263.626 405.764L263.815 404.842C263.917 404.342 264.566 404.203 264.865 404.617C265.197 405.079 265.927 404.844 265.927 404.275V400.38C265.927 399.757 268.154 404.262 269.968 408.058C270.498 409.169 272.08 409.183 272.623 408.079C272.915 407.487 273.57 407.19 274.229 407.156C275.144 407.108 276.056 406.753 276.328 405.761C276.731 404.286 277.545 402.818 278.745 403.765C280.155 404.877 281.487 406.868 281.965 410.208C282.161 411.577 283.491 412.569 284.811 412.159L289.869 410.587C290.645 410.346 291.281 411.231 290.805 411.889L290.139 412.81C289.846 413.215 290.257 413.753 290.724 413.576C291.191 413.4 291.602 413.938 291.31 414.343L291.057 414.692C290.649 415.255 291.397 416.11 292.034 415.832C294.992 414.543 299.14 413.362 302.855 414.061C303.181 414.123 303.517 414.098 303.836 414.008C304.323 413.87 304.904 413.773 305.497 413.781C306.757 413.798 309.183 413.827 308.851 412.612C308.523 411.414 308.775 409.638 309.665 410.506C310.566 411.385 311.472 412.601 312.25 414.254C312.592 414.981 313.591 415.158 314.105 414.541C314.302 414.304 314.593 414.167 314.901 414.167H318.399C318.866 414.167 319.081 414.749 318.726 415.053C318.316 415.403 318.684 416.123 319.214 416.028C320.157 415.859 321.153 415.741 321.911 415.788C322.334 415.814 322.785 415.551 322.863 415.135C322.985 414.484 323.875 414.382 324.14 414.989L324.478 415.762C324.529 415.879 324.556 416.006 324.556 416.135V423.934C324.556 425.067 323.637 425.985 322.505 425.985H148.703ZM149.038 380.684C149.052 380.713 149.066 380.742 149.079 380.771C149.065 380.742 149.051 380.713 149.038 380.684ZM120.518 380.684C120.503 380.713 120.489 380.742 120.476 380.771C120.491 380.742 120.504 380.713 120.518 380.684Z" fill="url(#paint5_linear_203_59)"/>
    <path fill-rule="evenodd" clip-rule="evenodd" d="M89.1637 449.785C89.1329 449.885 89.1173 449.989 89.1173 450.093V450.093C89.1173 450.671 88.6391 451.131 88.0888 451.307C87.7944 451.401 87.4934 451.54 87.2224 451.737C86.8639 451.998 86.7329 452.452 86.7329 452.895V459.901V460.693C86.7329 460.825 86.6263 460.931 86.4946 460.931H86.2565C86.2564 460.931 86.2563 460.931 86.2563 460.931V460.931C86.2563 460.932 86.2563 460.932 86.2562 460.932H81.8832C81.3139 460.932 80.8524 460.47 80.8524 459.901V459.901V452.895C80.8524 452.451 80.7215 451.998 80.3629 451.737C80.0918 451.539 79.7907 451.4 79.4961 451.306C78.946 451.131 78.4681 450.671 78.4681 450.094V450.094C78.4681 449.989 78.4525 449.885 78.4217 449.786L78.3774 449.642C78.0681 448.639 77.0491 448.034 76.0205 448.242L75.5163 448.345C75.3684 448.375 75.2149 448.36 75.0751 448.304L74.7155 448.158C74.3821 448.023 74.018 448.268 74.018 448.628V448.628C74.018 448.998 73.6287 449.241 73.3522 448.994C73.1455 448.81 73.001 448.596 73.0644 448.391C73.1259 448.191 72.8924 448.386 72.5689 448.717C71.8436 449.461 70.876 449.937 69.8371 449.937H68.2942C67.9056 449.937 67.55 450.156 67.3749 450.503V450.503C67.0514 451.144 66.1943 451.249 65.6124 450.828C65.2485 450.565 64.9225 450.425 64.7995 450.624C64.4817 451.139 60.5082 452.685 59.0777 452.514C58.1501 452.402 56.0192 451.352 54.5492 450.627C53.7524 450.234 53.1498 449.937 53.038 449.937C52.7385 449.937 54.8385 442.156 61.7327 441.834C62.319 441.807 62.7445 441.199 62.4981 440.667V440.667C62.355 440.357 62.0252 440.181 61.687 440.223C60.8415 440.326 59.684 440.416 58.7962 440.349C58.1287 440.298 57.4594 440.144 56.79 440.144H54.3095C53.8181 440.144 54.3002 439.297 54.9482 438.159C55.5938 437.025 56.4042 435.601 56.5802 434.438C56.762 433.236 54.8066 432.76 54.9237 431.55C54.9887 430.879 55.5809 429.89 57.1799 428.479C57.581 428.125 58.0869 427.909 58.6172 427.837L65.4391 426.916C65.8621 426.859 66.0163 426.262 65.7246 425.95V425.95C65.3891 425.592 63.6924 424.462 63.2079 424.542C61.4217 424.836 58.3656 425.144 53.3686 425.356C53.1555 425.365 52.9258 425.324 52.7894 425.16C52.5408 424.862 52.5033 424.387 53.3679 423.863C53.6509 423.691 53.6598 423.253 53.3595 423.114V423.114C53.1786 423.03 53.0938 422.82 53.1654 422.634L54.3061 419.676C54.5066 419.155 54.9556 418.771 55.5006 418.653V418.653C55.9567 418.555 56.342 418.262 56.628 417.894C57.5548 416.699 59.4027 415.173 61.9788 415.121C62.7533 415.106 63.488 414.624 63.6361 413.863V413.863C63.8189 412.925 63.0354 412.049 62.0793 412.029C60.8974 412.005 59.3389 411.889 57.5004 411.606C55.5044 411.299 55.1869 408.747 56.9636 407.787L58.2518 407.091C59.5143 406.409 59.3389 404.545 57.9712 404.11V404.11C56.5019 403.643 56.457 401.612 57.9179 401.12C60.2543 400.332 62.6635 399.602 63.9357 399.44C64.297 399.394 64.6406 399.08 64.6406 398.716V398.716C64.6406 398.371 64.9483 398.102 65.2893 398.155V398.155C65.558 398.196 65.8236 398.04 65.8665 397.772C65.9399 397.313 65.8988 396.781 65.4353 396.68C65.2862 396.648 65.0363 396.604 64.7183 396.547C63.6648 396.361 61.8632 396.041 60.4967 395.588C59.8898 395.387 59.7047 394.675 60.0616 394.145L60.3696 393.687C60.5338 393.443 60.865 393.378 61.1088 393.543L61.2896 393.665C61.566 393.852 61.9386 393.654 61.9386 393.32V392.907C61.9386 392.706 62.1765 392.6 62.3257 392.734V392.734C62.4959 392.888 62.7618 392.727 62.7057 392.505L62.4529 391.503C62.4284 391.406 62.4268 391.301 62.4853 391.219C62.6085 391.048 62.8788 390.86 63.3638 390.763C63.9612 390.644 64.3634 389.826 63.9208 389.407V389.407C63.5321 389.039 62.2976 389.026 61.7747 388.913C61.3165 388.814 60.6895 388.563 59.8451 388.079C59.2048 387.712 58.9759 386.896 59.4766 386.353C60.4401 385.31 62.2612 384.224 65.1355 384.422C65.4862 384.446 65.8135 384.222 65.8927 383.88V383.88C65.9867 383.473 65.6982 383.078 65.2822 383.043L65.0588 383.025C64.1737 382.951 63.944 381.761 64.7381 381.363L67.7885 379.835C68.0017 379.728 68.2369 379.673 68.4754 379.673V379.673C69.2726 379.673 70.0244 379.031 69.7667 378.276C69.6687 377.989 69.5069 377.783 69.2498 377.783V377.783C67.9139 377.783 66.6254 377.312 65.5633 376.501C64.2749 375.518 62.8463 374.519 62.4154 374.519C62.1566 374.519 62.2181 374.428 62.4133 374.139C62.7887 373.583 63.6586 372.294 63.694 369.512C63.6996 369.072 63.7154 368.601 64.0414 368.305C64.7923 367.624 66.8513 366.787 71.4203 366.631C71.7351 366.62 72.0095 366.409 72.0937 366.105V366.105C72.2416 365.572 71.7536 365.081 71.2197 365.225L70.4719 365.427C70.1049 365.526 69.7125 365.439 69.4227 365.192L67.9908 363.976C66.9088 363.058 66.9882 361.274 68.1848 360.51V360.51C68.7116 360.174 69.2353 359.334 68.905 358.803C68.7234 358.512 68.4652 358.264 68.1127 358.198C67.2514 358.039 67.4617 354.041 71.0423 353.869C71.5257 353.846 71.9518 353.479 71.9518 352.995V352.742C71.9518 352.435 72.2009 352.186 72.5081 352.186V352.186C72.8153 352.186 73.0644 351.937 73.0644 351.629V350.964C73.0644 350.69 73.2864 350.468 73.5602 350.468H73.7078C74.0009 350.468 74.1953 350.164 74.0722 349.898V349.898C73.9273 349.584 74.219 349.246 74.5501 349.344L74.7888 349.414C75.1182 349.511 75.4485 349.264 75.4485 348.921V348.112C75.4485 347.857 75.5349 347.611 75.6937 347.412L83.5181 337.629C83.5339 337.609 83.5652 337.614 83.5735 337.638V337.638C83.5838 337.667 83.6262 337.667 83.6359 337.637C83.6479 337.601 83.6601 337.564 83.6723 337.529C83.6899 337.477 83.7572 337.465 83.7918 337.507L91.8851 347.411C92.0479 347.61 92.1369 347.859 92.1369 348.117V348.921C92.1369 349.264 92.4671 349.511 92.7966 349.414L93.0352 349.344C93.3663 349.246 93.6581 349.584 93.5132 349.897V349.897C93.3901 350.163 93.5844 350.467 93.8776 350.467H94.0251C94.299 350.467 94.521 350.689 94.521 350.963V351.629C94.521 351.936 94.77 352.185 95.0773 352.185V352.185C95.3845 352.185 95.6336 352.435 95.6336 352.742V352.995C95.6336 353.479 96.0597 353.846 96.543 353.869C100.124 354.041 100.334 358.039 99.4726 358.198C99.1202 358.263 98.8619 358.511 98.6804 358.803C98.35 359.334 98.8737 360.174 99.4006 360.51V360.51C100.597 361.274 100.677 363.057 99.5946 363.976L98.1627 365.192C97.8729 365.438 97.4805 365.526 97.1134 365.427L96.3657 365.225C95.8318 365.081 95.3438 365.572 95.4916 366.105V366.105C95.5759 366.408 95.8502 366.62 96.165 366.631C100.734 366.787 102.793 367.624 103.544 368.305C103.87 368.601 103.886 369.072 103.891 369.512C103.927 372.294 104.797 373.582 105.172 374.139C105.367 374.428 105.429 374.519 105.17 374.519C104.739 374.519 103.31 375.518 102.022 376.501C100.96 377.311 99.6715 377.783 98.3355 377.783V377.783C98.0785 377.783 97.9167 377.989 97.8186 378.276C97.561 379.03 98.3127 379.673 99.11 379.673V379.673C99.3484 379.673 99.5836 379.728 99.7968 379.835L102.847 381.363C103.641 381.76 103.412 382.951 102.527 383.024L102.303 383.043C101.887 383.077 101.599 383.473 101.693 383.88V383.88C101.772 384.222 102.099 384.446 102.45 384.422C105.324 384.224 107.145 385.309 108.109 386.353C108.609 386.896 108.381 387.711 107.74 388.079C106.896 388.563 106.269 388.814 105.811 388.913C105.288 389.026 104.053 389.039 103.665 389.407V389.407C103.222 389.825 103.624 390.643 104.222 390.763C104.707 390.859 104.977 391.048 105.1 391.219C105.159 391.3 105.157 391.406 105.132 391.503L104.88 392.505C104.824 392.727 105.089 392.887 105.26 392.734V392.734C105.409 392.6 105.647 392.705 105.647 392.906V393.32C105.647 393.654 106.019 393.852 106.296 393.665L106.477 393.543C106.72 393.378 107.052 393.442 107.216 393.687L107.524 394.144C107.881 394.675 107.696 395.387 107.089 395.588C105.722 396.041 103.921 396.36 102.867 396.547C102.549 396.604 102.299 396.648 102.15 396.68C101.687 396.78 101.645 397.313 101.719 397.772C101.762 398.04 102.027 398.196 102.296 398.155V398.155C102.637 398.102 102.945 398.371 102.945 398.716V398.716C102.945 399.08 103.288 399.394 103.65 399.44C104.922 399.602 107.331 400.331 109.667 401.119C111.128 401.612 111.083 403.643 109.614 404.11V404.11C108.247 404.545 108.071 406.408 109.334 407.091L110.622 407.787C112.398 408.747 112.081 411.299 110.085 411.606C108.246 411.889 106.688 412.004 105.506 412.029C104.55 412.049 103.766 412.924 103.949 413.863V413.863C104.097 414.623 104.832 415.106 105.607 415.121C108.183 415.172 110.031 416.698 110.957 417.893C111.243 418.262 111.629 418.554 112.085 418.653V418.653C112.63 418.771 113.079 419.155 113.279 419.675L114.42 422.634C114.492 422.82 114.407 423.03 114.226 423.114V423.114C113.926 423.253 113.934 423.691 114.217 423.862C115.082 424.387 115.045 424.861 114.796 425.16C114.66 425.324 114.43 425.365 114.217 425.356C109.22 425.143 106.164 424.836 104.377 424.541C103.893 424.461 102.196 425.592 101.861 425.95V425.95C101.569 426.262 101.723 426.858 102.146 426.916L108.968 427.837C109.498 427.909 110.004 428.124 110.405 428.478C112.004 429.89 112.597 430.879 112.662 431.55C112.779 432.759 110.823 433.236 111.005 434.437C111.181 435.601 111.992 437.024 112.637 438.159C113.285 439.297 113.767 440.144 113.276 440.144H110.795C110.126 440.144 109.457 440.298 108.789 440.349C107.901 440.416 106.744 440.326 105.898 440.222C105.56 440.181 105.23 440.357 105.087 440.666V440.666C104.841 441.199 105.266 441.807 105.853 441.834C112.747 442.155 114.847 449.937 114.547 449.937C114.436 449.937 113.833 450.234 113.036 450.627C111.566 451.351 109.435 452.402 108.508 452.513C107.077 452.685 103.104 451.139 102.786 450.624C102.663 450.424 102.337 450.565 101.973 450.828C101.391 451.249 100.534 451.143 100.21 450.502V450.502C100.035 450.155 99.6798 449.937 99.2911 449.937H97.7482C96.7093 449.937 95.7418 449.461 95.0165 448.717C94.693 448.385 94.4595 448.191 94.521 448.39C94.5843 448.596 94.4399 448.81 94.2332 448.994C93.9567 449.24 93.5673 448.998 93.5673 448.627V448.627C93.5673 448.268 93.2032 448.023 92.8699 448.158L92.5103 448.303C92.3704 448.36 92.2169 448.374 92.069 448.344L91.5649 448.242C90.5363 448.034 89.5172 448.639 89.2079 449.642L89.1637 449.785Z" fill="url(#paint6_linear_203_59)"/>
    <path fill-rule="evenodd" clip-rule="evenodd" d="M149.254 442.201C149.254 442.201 149.254 442.201 149.254 442.201V442.688C149.254 442.812 149.154 442.911 149.031 442.927C148.757 442.961 148.418 443.059 148.135 443.265C147.923 443.419 147.845 443.687 147.845 443.949V448.089V448.558C147.845 448.635 147.782 448.698 147.704 448.698H147.564C147.564 448.698 147.564 448.698 147.564 448.698V448.698C147.564 448.698 147.564 448.699 147.564 448.699H144.979C144.643 448.699 144.37 448.426 144.37 448.089V448.089V443.949C144.37 443.687 144.293 443.419 144.081 443.265C143.799 443.06 143.462 442.962 143.188 442.927C143.064 442.911 142.962 442.81 142.962 442.685V442.202C142.962 442.202 142.962 442.202 142.962 442.202V442.202C142.962 442.202 142.962 442.202 142.962 442.202L142.728 441.443C142.647 441.182 142.382 441.025 142.115 441.079L141.217 441.261C141.13 441.278 141.039 441.27 140.956 441.237L140.744 441.15C140.547 441.071 140.332 441.216 140.332 441.428V441.428C140.332 441.647 140.102 441.79 139.938 441.645C139.816 441.536 139.731 441.409 139.768 441.288C139.805 441.17 139.667 441.285 139.476 441.481C139.047 441.921 138.475 442.202 137.861 442.202H136.95C136.72 442.202 136.51 442.331 136.406 442.536V442.536C136.215 442.915 135.709 442.977 135.365 442.728C135.15 442.573 134.957 442.49 134.885 442.608C134.697 442.912 132.349 443.826 131.503 443.724C130.955 443.658 129.696 443.038 128.828 442.609C128.357 442.377 128.001 442.202 127.935 442.202C127.758 442.202 128.998 437.604 133.072 437.414C133.419 437.398 133.67 437.039 133.525 436.724V436.724C133.44 436.541 133.245 436.437 133.045 436.461C132.546 436.522 131.862 436.576 131.337 436.536C130.943 436.506 130.547 436.415 130.152 436.415H128.686C128.395 436.415 128.68 435.915 129.063 435.242C129.318 434.795 129.615 434.272 129.816 433.769C130.267 432.641 128.662 431.654 129.34 430.645C129.549 430.334 129.882 429.963 130.382 429.522C130.619 429.313 130.918 429.185 131.231 429.143L135.263 428.598C135.512 428.564 135.604 428.212 135.431 428.028V428.028C135.233 427.816 134.23 427.148 133.944 427.195C132.889 427.369 131.083 427.551 128.13 427.677C128.004 427.682 127.868 427.658 127.788 427.561C127.641 427.384 127.619 427.104 128.129 426.794C128.297 426.693 128.302 426.434 128.124 426.352V426.352C128.018 426.302 127.967 426.178 128.01 426.068L128.684 424.32C128.802 424.013 129.068 423.785 129.39 423.716V423.716C129.659 423.658 129.887 423.485 130.056 423.267C130.604 422.561 131.696 421.659 133.218 421.629C133.675 421.62 134.11 421.335 134.197 420.885V420.885C134.305 420.331 133.842 419.813 133.277 419.802C132.579 419.787 131.658 419.719 130.571 419.552C129.392 419.37 129.204 417.862 130.254 417.295L131.015 416.884C131.761 416.48 131.658 415.379 130.85 415.122V415.122C129.981 414.846 129.955 413.646 130.818 413.355C132.199 412.889 133.622 412.458 134.374 412.363C134.588 412.336 134.791 412.15 134.791 411.935V411.935C134.791 411.731 134.972 411.572 135.174 411.603V411.603C135.333 411.628 135.49 411.535 135.515 411.377C135.558 411.106 135.534 410.791 135.26 410.732C135.172 410.713 135.024 410.687 134.837 410.653C134.214 410.543 133.149 410.354 132.342 410.087C131.983 409.968 131.874 409.547 132.085 409.233L132.267 408.963C132.364 408.819 132.56 408.781 132.704 408.878L132.811 408.95C132.974 409.06 133.194 408.943 133.194 408.746V408.502C133.194 408.383 133.335 408.321 133.423 408.4V408.4C133.523 408.491 133.68 408.396 133.647 408.265L133.498 407.673C133.483 407.615 133.482 407.553 133.517 407.505C133.59 407.404 133.75 407.292 134.036 407.235C134.389 407.165 134.627 406.681 134.365 406.434V406.434C134.136 406.217 133.406 406.209 133.097 406.142C132.826 406.083 132.456 405.936 131.957 405.649C131.579 405.432 131.443 404.95 131.739 404.63C132.308 404.013 133.385 403.371 135.083 403.488C135.29 403.503 135.484 403.37 135.53 403.168V403.168C135.586 402.928 135.416 402.694 135.17 402.673L135.038 402.663C134.515 402.619 134.379 401.916 134.848 401.681L136.651 400.778C136.777 400.715 136.916 400.682 137.057 400.682V400.682C137.528 400.682 137.972 400.302 137.82 399.857C137.762 399.687 137.666 399.565 137.514 399.565V399.565C136.725 399.565 135.963 399.287 135.336 398.808C134.575 398.227 133.73 397.636 133.476 397.636C133.323 397.636 133.359 397.583 133.474 397.412C133.687 397.096 134.17 396.382 134.226 394.871C134.241 394.483 134.268 394.067 134.588 393.846C135.13 393.47 136.359 393.059 138.797 392.976C138.983 392.969 139.145 392.844 139.195 392.665V392.665C139.282 392.35 138.994 392.059 138.678 392.145L138.236 392.264C138.019 392.323 137.788 392.271 137.616 392.125L136.77 391.407C136.131 390.864 136.178 389.81 136.885 389.359V389.359C137.196 389.16 137.506 388.663 137.31 388.35C137.203 388.178 137.051 388.031 136.842 387.993C136.333 387.898 136.458 385.536 138.573 385.434C138.859 385.421 139.111 385.204 139.111 384.918V384.768C139.111 384.587 139.258 384.44 139.44 384.44V384.44C139.621 384.44 139.768 384.292 139.768 384.111V383.717C139.768 383.556 139.899 383.424 140.061 383.424H140.148C140.322 383.424 140.437 383.245 140.364 383.088V383.088C140.278 382.902 140.451 382.703 140.646 382.76L140.787 382.802C140.982 382.859 141.177 382.713 141.177 382.51V382.032C141.177 381.882 141.228 381.736 141.322 381.619L145.945 375.838C145.955 375.826 145.973 375.829 145.978 375.843V375.843C145.984 375.861 146.01 375.861 146.015 375.843C146.022 375.821 146.03 375.8 146.037 375.779C146.047 375.748 146.087 375.741 146.108 375.766L150.89 381.618C150.986 381.736 151.039 381.883 151.039 382.035V382.51C151.039 382.713 151.234 382.859 151.428 382.802L151.569 382.76C151.765 382.703 151.938 382.902 151.852 383.087V383.087C151.779 383.245 151.894 383.424 152.067 383.424H152.154C152.316 383.424 152.447 383.556 152.447 383.717V384.111C152.447 384.292 152.595 384.44 152.776 384.44V384.44C152.958 384.44 153.105 384.587 153.105 384.768V384.918C153.105 385.204 153.357 385.421 153.642 385.434C155.758 385.536 155.882 387.898 155.373 387.993C155.165 388.031 155.013 388.178 154.905 388.35C154.71 388.663 155.019 389.16 155.331 389.359V389.359C156.038 389.81 156.085 390.864 155.445 391.407L154.599 392.125C154.428 392.271 154.196 392.323 153.979 392.264L153.537 392.145C153.222 392.059 152.934 392.35 153.021 392.665V392.665C153.071 392.844 153.233 392.969 153.419 392.975C155.857 393.059 157.086 393.47 157.628 393.846C157.947 394.067 157.975 394.483 157.989 394.871C158.046 396.382 158.528 397.096 158.741 397.412C158.857 397.583 158.893 397.636 158.74 397.636C158.485 397.636 157.641 398.227 156.88 398.808C156.252 399.287 155.491 399.565 154.701 399.565V399.565C154.55 399.565 154.454 399.687 154.396 399.857C154.244 400.302 154.688 400.682 155.159 400.682V400.682C155.3 400.682 155.439 400.715 155.565 400.778L157.368 401.681C157.837 401.916 157.701 402.619 157.178 402.662L157.046 402.673C156.8 402.694 156.63 402.928 156.685 403.168V403.168C156.732 403.37 156.925 403.503 157.133 403.488C158.831 403.371 159.907 404.013 160.477 404.629C160.772 404.95 160.637 405.432 160.259 405.649C159.76 405.935 159.389 406.083 159.119 406.142C158.81 406.209 158.08 406.217 157.85 406.434V406.434C157.589 406.681 157.827 407.165 158.18 407.235C158.466 407.292 158.626 407.404 158.699 407.505C158.733 407.553 158.732 407.615 158.718 407.673L158.568 408.265C158.535 408.396 158.692 408.491 158.793 408.4V408.4C158.881 408.321 159.022 408.383 159.022 408.502V408.746C159.022 408.943 159.242 409.06 159.405 408.95L159.512 408.878C159.656 408.781 159.852 408.819 159.949 408.963L160.131 409.233C160.342 409.547 160.232 409.968 159.874 410.087C159.066 410.354 158.002 410.543 157.379 410.653C157.191 410.687 157.044 410.713 156.956 410.732C156.682 410.791 156.657 411.106 156.701 411.377C156.726 411.535 156.883 411.628 157.042 411.603V411.603C157.243 411.572 157.425 411.731 157.425 411.935V411.935C157.425 412.15 157.628 412.335 157.842 412.363C158.593 412.458 160.017 412.889 161.398 413.355C162.261 413.646 162.234 414.846 161.366 415.122V415.122C160.558 415.379 160.454 416.48 161.2 416.884L161.962 417.295C163.011 417.862 162.824 419.37 161.644 419.552C160.558 419.719 159.637 419.787 158.939 419.802C158.374 419.813 157.911 420.331 158.019 420.885V420.885C158.106 421.335 158.54 421.62 158.998 421.629C160.52 421.659 161.612 422.561 162.16 423.267C162.329 423.485 162.556 423.657 162.826 423.716V423.716C163.148 423.785 163.413 424.012 163.532 424.32L164.206 426.068C164.248 426.178 164.198 426.302 164.091 426.352V426.352C163.914 426.434 163.919 426.693 164.086 426.794C164.597 427.104 164.575 427.384 164.428 427.561C164.347 427.658 164.212 427.682 164.086 427.677C161.133 427.551 159.327 427.369 158.272 427.195C157.985 427.148 156.983 427.816 156.785 428.028V428.028C156.612 428.212 156.703 428.564 156.953 428.598L160.984 429.143C161.298 429.185 161.597 429.313 161.834 429.522C162.334 429.963 162.667 430.334 162.876 430.645C163.554 431.654 161.948 432.641 162.399 433.769C162.6 434.272 162.898 434.795 163.152 435.242C163.535 435.915 163.82 436.415 163.53 436.415H162.064C161.669 436.415 161.273 436.506 160.879 436.536C160.354 436.576 159.67 436.522 159.17 436.461C158.971 436.437 158.776 436.541 158.691 436.724V436.724C158.546 437.038 158.797 437.397 159.143 437.414C163.217 437.603 164.458 442.201 164.281 442.201C164.215 442.201 163.859 442.377 163.388 442.609C162.52 443.038 161.26 443.658 160.712 443.724C159.867 443.826 157.519 442.912 157.331 442.608C157.259 442.49 157.066 442.573 156.851 442.728C156.507 442.977 156.001 442.915 155.809 442.536V442.536C155.706 442.331 155.496 442.201 155.266 442.201H154.354C153.741 442.201 153.169 441.921 152.74 441.481C152.549 441.285 152.411 441.17 152.447 441.288C152.485 441.409 152.4 441.536 152.277 441.645C152.114 441.79 151.884 441.647 151.884 441.428V441.428C151.884 441.215 151.669 441.071 151.472 441.15L151.259 441.236C151.177 441.27 151.086 441.278 150.999 441.261L150.095 441.078C149.831 441.024 149.569 441.18 149.49 441.437L149.254 442.201C149.254 442.201 149.254 442.201 149.254 442.201V442.201Z" fill="url(#paint7_linear_203_59)"/>
    <path fill-rule="evenodd" clip-rule="evenodd" d="M218.482 472.77C218.436 472.917 218.413 473.071 218.413 473.225V473.225C218.413 474.078 217.707 474.757 216.894 475.016C216.459 475.155 216.015 475.36 215.614 475.652C215.084 476.037 214.891 476.707 214.891 477.362V487.712V488.883C214.891 489.077 214.733 489.235 214.539 489.235H214.187C214.187 489.235 214.187 489.235 214.187 489.235V489.235C214.187 489.235 214.187 489.235 214.187 489.235H207.726C206.885 489.235 206.204 488.553 206.204 487.712V487.712V477.362C206.204 476.707 206.01 476.037 205.48 475.652C205.08 475.36 204.635 475.155 204.2 475.016C203.387 474.757 202.682 474.078 202.682 473.225V473.225C202.682 473.071 202.658 472.917 202.613 472.77L202.548 472.558C202.091 471.076 200.585 470.182 199.065 470.49L198.321 470.641C198.102 470.685 197.875 470.664 197.669 470.58L197.138 470.365C196.645 470.165 196.107 470.528 196.107 471.059V471.059C196.107 471.606 195.532 471.964 195.124 471.6C194.818 471.328 194.605 471.012 194.699 470.708C194.789 470.414 194.444 470.701 193.967 471.191C192.895 472.29 191.466 472.993 189.931 472.993H187.652C187.078 472.993 186.552 473.316 186.294 473.828V473.828C185.816 474.776 184.55 474.932 183.69 474.31C183.152 473.921 182.671 473.713 182.489 474.008C182.02 474.769 176.15 477.053 174.037 476.799C172.666 476.635 169.518 475.083 167.347 474.012C166.17 473.432 165.279 472.993 165.114 472.993C164.672 472.993 167.774 461.498 177.959 461.023C178.825 460.983 179.453 460.085 179.089 459.298V459.298C178.878 458.841 178.391 458.581 177.891 458.642C176.642 458.795 174.932 458.928 173.621 458.829C172.635 458.754 171.646 458.527 170.657 458.527H166.993C166.267 458.527 166.979 457.276 167.936 455.594C169.061 453.618 170.524 451.047 170.39 449.214C170.301 448.002 168.605 447.77 168.047 446.69C167.571 445.768 168.061 444.092 171.233 441.293C171.826 440.77 172.573 440.452 173.356 440.346L183.434 438.984C184.059 438.9 184.287 438.019 183.856 437.558V437.558C183.36 437.029 180.854 435.359 180.138 435.477C177.499 435.913 172.985 436.366 165.603 436.681C165.288 436.694 164.949 436.633 164.747 436.391C164.38 435.95 164.324 435.249 165.602 434.474C166.02 434.221 166.033 433.574 165.589 433.368V433.368C165.322 433.244 165.197 432.935 165.303 432.66L166.988 428.289C167.284 427.52 167.947 426.952 168.752 426.778V426.778C169.426 426.633 169.995 426.201 170.418 425.656C171.787 423.891 174.517 421.637 178.322 421.561C179.466 421.538 180.552 420.826 180.77 419.702V419.702C181.041 418.316 179.883 417.022 178.471 416.993C176.725 416.957 174.422 416.787 171.706 416.369C168.758 415.915 168.289 412.145 170.913 410.726L172.816 409.698C174.681 408.69 174.422 405.937 172.402 405.294V405.294C170.231 404.604 170.165 401.605 172.323 400.877C175.775 399.713 179.334 398.635 181.213 398.396C181.747 398.328 182.254 397.864 182.254 397.326V397.326C182.254 396.816 182.709 396.419 183.213 396.497V396.497C183.61 396.558 184.002 396.328 184.065 395.931C184.174 395.253 184.113 394.467 183.428 394.319C183.208 394.271 182.839 394.206 182.369 394.122C180.813 393.846 178.151 393.374 176.133 392.706C175.236 392.409 174.963 391.356 175.49 390.573L175.945 389.896C176.188 389.536 176.677 389.441 177.037 389.684L177.304 389.864C177.712 390.14 178.263 389.848 178.263 389.355V388.744C178.263 388.447 178.614 388.291 178.835 388.489V388.489C179.086 388.716 179.479 388.479 179.396 388.151L179.023 386.671C178.986 386.527 178.984 386.371 179.07 386.252C179.252 385.999 179.652 385.72 180.368 385.577C181.251 385.401 181.845 384.192 181.191 383.574V383.574C180.617 383.031 178.793 383.011 178.021 382.844C177.344 382.698 176.418 382.328 175.17 381.612C174.224 381.069 173.886 379.864 174.626 379.063C176.049 377.521 178.739 375.917 182.985 376.21C183.504 376.246 183.987 375.915 184.104 375.409V375.409C184.243 374.808 183.817 374.224 183.202 374.173L182.872 374.145C181.565 374.037 181.225 372.278 182.398 371.691L186.905 369.434C187.22 369.276 187.567 369.194 187.919 369.194V369.194C189.097 369.194 190.208 368.245 189.827 367.131C189.682 366.707 189.443 366.402 189.063 366.402H188.551C186.909 366.402 185.324 365.825 184.024 364.821C182.025 363.277 179.65 361.58 178.967 361.58C178.585 361.58 178.676 361.446 178.964 361.019C179.533 360.176 180.869 358.197 180.858 353.869C180.856 353.429 180.862 352.962 181.148 352.627C182.035 351.59 185.005 350.176 192.27 349.928C192.735 349.912 193.14 349.599 193.265 349.151V349.151C193.483 348.364 192.762 347.638 191.973 347.851L190.869 348.149C190.327 348.296 189.747 348.166 189.319 347.803L187.203 346.006C185.605 344.649 185.722 342.014 187.49 340.886V340.886C188.268 340.389 189.042 339.148 188.554 338.364C188.286 337.933 187.904 337.567 187.384 337.471C186.111 337.235 186.422 331.33 191.711 331.075C192.426 331.041 193.055 330.499 193.055 329.784V329.41C193.055 328.956 193.423 328.588 193.877 328.588V328.588C194.331 328.588 194.699 328.22 194.699 327.766V326.783C194.699 326.378 195.026 326.05 195.431 326.05H195.649C196.082 326.05 196.369 325.601 196.187 325.208V325.208C195.973 324.745 196.404 324.246 196.893 324.39L197.246 324.494C197.733 324.638 198.22 324.273 198.22 323.765V322.57C198.22 322.194 198.348 321.83 198.583 321.537L210.141 307.083C210.165 307.054 210.211 307.061 210.223 307.097V307.097C210.239 307.14 210.301 307.141 210.316 307.097C210.334 307.043 210.351 306.989 210.369 306.936C210.395 306.86 210.495 306.842 210.546 306.905L222.502 321.534C222.743 321.829 222.874 322.197 222.874 322.577V323.765C222.874 324.273 223.362 324.637 223.848 324.494L224.201 324.39C224.69 324.246 225.121 324.745 224.907 325.208V325.208C224.725 325.601 225.012 326.05 225.445 326.05H225.663C226.068 326.05 226.396 326.378 226.396 326.783V327.766C226.396 328.22 226.764 328.588 227.218 328.588V328.588C227.672 328.588 228.039 328.956 228.039 329.41V329.784C228.039 330.499 228.669 331.041 229.383 331.075C234.672 331.33 234.983 337.235 233.711 337.471C233.19 337.567 232.809 337.933 232.54 338.364C232.052 339.148 232.826 340.389 233.604 340.886V340.886C235.372 342.014 235.489 344.649 233.891 346.006L231.776 347.803C231.348 348.166 230.768 348.296 230.226 348.149L229.121 347.851C228.332 347.638 227.611 348.364 227.83 349.151V349.151C227.954 349.599 228.36 349.912 228.825 349.928C236.09 350.176 239.059 351.59 239.946 352.627C240.232 352.962 240.238 353.429 240.237 353.869C240.225 358.197 241.562 360.176 242.13 361.019C242.419 361.446 242.51 361.58 242.127 361.58C241.445 361.58 239.069 363.277 237.07 364.821C235.771 365.825 234.186 366.402 232.544 366.402H232.031C231.651 366.402 231.412 366.706 231.267 367.13C230.887 368.245 231.997 369.194 233.175 369.194V369.194C233.527 369.194 233.875 369.276 234.19 369.434L238.696 371.691C239.869 372.278 239.53 374.037 238.222 374.145L237.892 374.173C237.278 374.224 236.851 374.808 236.99 375.409V375.409C237.107 375.915 237.591 376.246 238.109 376.21C242.355 375.917 245.045 377.521 246.469 379.063C247.208 379.864 246.87 381.069 245.924 381.612C244.677 382.328 243.751 382.697 243.074 382.844C242.301 383.011 240.478 383.031 239.903 383.574V383.574C239.25 384.192 239.844 385.401 240.726 385.577C241.443 385.72 241.842 385.998 242.024 386.251C242.11 386.371 242.108 386.527 242.072 386.67L241.698 388.151C241.616 388.479 242.008 388.716 242.26 388.489V388.489C242.48 388.291 242.832 388.447 242.832 388.744V389.355C242.832 389.848 243.382 390.14 243.79 389.864L244.058 389.684C244.418 389.44 244.907 389.536 245.15 389.896L245.605 390.572C246.132 391.356 245.858 392.409 244.962 392.705C242.943 393.374 240.282 393.846 238.725 394.122C238.256 394.206 237.886 394.271 237.666 394.319C236.981 394.467 236.921 395.253 237.029 395.931C237.092 396.327 237.485 396.558 237.882 396.497V396.497C238.386 396.419 238.84 396.816 238.84 397.326V397.326C238.84 397.864 239.348 398.328 239.881 398.396C241.761 398.635 245.32 399.712 248.771 400.877C250.929 401.605 250.863 404.604 248.693 405.294V405.294C246.672 405.936 246.413 408.69 248.278 409.698L250.181 410.726C252.806 412.145 252.337 415.915 249.388 416.368C246.672 416.786 244.37 416.957 242.624 416.993C241.211 417.022 240.054 418.316 240.324 419.702V419.702C240.543 420.825 241.628 421.538 242.772 421.561C246.578 421.637 249.308 423.891 250.677 425.656C251.099 426.201 251.668 426.633 252.342 426.778V426.778C253.147 426.952 253.811 427.52 254.107 428.289L255.792 432.66C255.898 432.934 255.772 433.244 255.505 433.368V433.368C255.062 433.573 255.075 434.221 255.493 434.474C256.77 435.249 256.715 435.95 256.347 436.391C256.146 436.633 255.807 436.694 255.492 436.681C248.11 436.366 243.595 435.912 240.957 435.477C240.241 435.359 237.734 437.029 237.239 437.558V437.558C236.808 438.019 237.036 438.9 237.66 438.984L247.738 440.346C248.522 440.452 249.269 440.77 249.862 441.293C253.033 444.092 253.524 445.768 253.047 446.69C252.489 447.77 250.793 448.002 250.705 449.214C250.571 451.047 252.034 453.618 253.158 455.594C254.116 457.275 254.828 458.527 254.102 458.527H250.438C249.449 458.527 248.46 458.753 247.474 458.828C246.162 458.928 244.452 458.795 243.203 458.642C242.704 458.581 242.216 458.841 242.005 459.298V459.298C241.641 460.085 242.27 460.982 243.136 461.023C253.32 461.497 256.423 472.992 255.98 472.992C255.815 472.992 254.925 473.431 253.748 474.012C251.576 475.083 248.428 476.635 247.058 476.799C244.945 477.053 239.075 474.769 238.605 474.008C238.424 473.713 237.942 473.921 237.404 474.31C236.545 474.931 235.279 474.775 234.801 473.828V473.828C234.542 473.316 234.017 472.992 233.443 472.992H231.163C229.629 472.992 228.199 472.29 227.128 471.191C226.65 470.701 226.305 470.414 226.396 470.708C226.489 471.012 226.276 471.328 225.971 471.6C225.562 471.964 224.987 471.606 224.987 471.059V471.059C224.987 470.527 224.449 470.165 223.957 470.365L223.426 470.58C223.219 470.664 222.992 470.685 222.774 470.64L222.03 470.49C220.51 470.182 219.004 471.076 218.547 472.558L218.482 472.77Z" fill="url(#paint8_linear_203_59)"/>
    <path d="M228.814 192.919C219.807 194.588 219.2 185.657 213.005 183.428L205.647 177.938L217.795 167.436C224.374 168.62 230.251 168.733 235.425 167.774C238.235 167.253 240.279 166.55 241.556 165.663C242.898 164.7 243.568 163.536 243.568 162.172C243.568 161.263 243.217 160.548 242.515 160.029C241.812 159.444 240.407 158.925 238.299 158.471C236.191 158.018 233.029 157.564 228.814 157.111C223.64 156.511 219.616 154.723 216.741 151.748C213.867 148.708 212.43 144.882 212.43 140.269C212.43 133.124 202.811 137.486 207.41 132.996C212.073 128.429 219.747 116.253 238.107 113.781C242.195 113.023 246.219 112.732 250.179 112.907C254.14 113.018 257.653 113.633 260.719 114.754L255.545 130.427C242.706 140.927 255.545 130.427 242.706 140.927C240.087 140.828 240.982 129.618 238.49 130.08C234.275 130.861 232.167 132.421 232.167 134.76C232.167 135.929 232.838 136.812 234.179 137.408C235.584 137.927 238.427 138.407 242.706 138.848C249.413 139.424 254.491 141.276 257.94 144.405C261.389 147.468 263.114 151.599 263.114 156.796C263.114 164.006 260.815 169.987 256.216 174.737C251.617 179.422 237.82 191.25 228.814 192.919Z" fill="#FF9E48"/>
    <path d="M297.97 152.577L266.452 118.015L278.999 107.663L299.024 103.952L308.318 132.339L305.226 110.965L317.42 100.543L338.498 96.6358L318.569 148.759V167.37L306.107 177.938L297.97 171.188V152.577Z" fill="#FF9E48"/>
    <path d="M357.594 93.0967L376.852 89.5274L403.104 120.813L390.704 95.1032L403.104 84.6618L420.255 81.4832V148.524L407.448 159.433L401.092 152.076L374.648 122.092V156.977L362.505 167.364L357.594 160.138L344.881 103.915L357.594 93.0967Z" fill="#FF9E48"/>
    <path d="M446.141 76.6855L492.418 68.1085V82.9199L479.708 93.3407L469.423 95.4732V99.3621L490.406 95.4732V107.44L477.945 118.015L469.133 119.777L469.423 124.6L492.418 120.338V135.149L479.708 145.333L433.884 154.145V87.1817L446.141 76.6855Z" fill="#FF9E48"/>
    <path d="M562.543 130.352C550.535 132.578 547.1 120.922 544.417 110.116L542.022 100.523L537.519 101.358V126.79L526.413 137.402L516.536 130.679L504.382 74.2686L516.536 63.6385L545.567 58.2579C551.06 57.2398 555.883 57.1905 560.034 58.11C564.25 58.9528 567.508 60.6552 569.807 63.2172C572.107 65.7793 573.256 69.0092 573.256 72.9069C573.256 77.2594 572.202 81.1251 570.095 84.504C568.051 87.8061 564.857 90.8016 560.513 93.4906C560.961 95.8762 561.472 98.0227 562.046 99.93C562.813 102.257 563.867 103.783 565.208 104.508C566.55 105.234 568.498 105.36 571.053 104.887C571.947 104.721 573.352 104.331 575.268 103.716V119.599C572.266 121.325 575.268 119.599 562.543 130.352ZM541.16 87.0409C545.886 86.1649 549.208 85.0296 551.124 83.6351C553.104 82.1637 554.094 80.1288 554.094 77.5303C554.094 75.3216 553.296 73.878 551.699 73.1996C550.102 72.4561 547.579 72.404 544.13 73.0433L537.519 74.2686V87.7157L541.16 87.0409Z" fill="#FF9E48"/>
    <path d="M636.566 112.728C630.115 113.923 614.777 112.471 609.603 110.312C604.429 108.088 600.373 104.52 597.435 99.6074C594.497 94.6952 593.028 88.9585 593.028 82.3973C593.028 76.096 590.09 74.4729 593.028 68.6664C596.03 62.8481 594.267 63.2172 599.554 58.11C605.855 52.0245 621.228 42.7732 627.999 41.5184C631.704 40.8317 635.281 40.591 638.73 40.7963C642.243 40.9897 645.405 41.6055 648.215 42.6437L641.892 58.9193C629.516 69.5477 641.892 58.9193 629.516 69.5477L618.06 66.0228C615.377 69.7031 614.298 73.5505 614.298 78.7474C614.298 82.1255 614.905 85.0662 616.118 87.5697C617.332 90.0082 619.025 91.8058 621.196 92.9624C623.432 94.1071 625.955 94.419 628.766 93.8981C630.299 93.614 631.576 93.2473 632.598 92.7981L619.823 87.5697L632.598 77.1097L649.173 72.0888V102.588C641.956 107.304 643.616 105.678 636.566 112.728Z" fill="#FF9E48"/>
    <path d="M684.472 80.9427L653.309 46.6358L665.501 36.0294L685.526 32.3181L694.819 60.7055L692.083 39.586L703.921 28.9086L725 25.002L705.071 77.1248V95.7364L692.083 106.559L684.472 99.5543V80.9427Z" fill="#FF9E48"/>
    <path d="M223.471 194.571C214.464 196.241 206.863 195.96 200.667 193.731L205.458 177.739C212.037 178.923 217.914 179.036 223.087 178.077C225.898 177.556 227.942 176.852 229.219 175.966C230.561 175.003 231.231 173.839 231.231 172.475C231.231 171.566 230.88 170.851 230.177 170.332C229.475 169.747 228.07 169.228 225.962 168.774C223.854 168.321 220.692 167.867 216.476 167.414C211.303 166.814 207.278 165.026 204.404 162.051C201.53 159.011 200.093 155.185 200.093 150.572C200.093 143.427 202.392 137.609 206.991 133.118C211.654 128.551 217.914 125.54 225.77 124.084C229.858 123.326 233.882 123.035 237.842 123.21C241.803 123.321 245.316 123.936 248.382 125.057L243.208 140.73C239.631 140.159 236.501 139.862 233.818 139.839C231.199 139.74 228.644 139.921 226.153 140.383C221.938 141.164 219.83 142.724 219.83 145.063C219.83 146.232 220.5 147.115 221.842 147.711C223.247 148.23 226.089 148.71 230.369 149.151C237.076 149.727 242.154 151.579 245.603 154.708C249.052 157.771 250.777 161.902 250.777 167.098C250.777 174.309 248.477 180.29 243.878 185.04C239.279 189.725 232.477 192.902 223.471 194.571ZM285.633 162.88L266.662 117.966L286.687 114.255L295.98 142.642L305.082 110.845L326.161 106.939L306.232 159.062V177.673L285.633 181.491V162.88ZM345.257 103.4L364.515 99.8304L390.767 131.116V94.9648L407.917 91.7862V158.827L388.755 162.379L362.311 132.395V167.28L345.257 170.441V103.4ZM433.804 86.9884L480.081 78.4115V93.2229L457.086 97.4847V109.665L478.069 105.776V118.054L457.086 121.943V134.903L480.081 130.641V145.452L433.804 154.029V86.9884ZM554.117 133.29C542.108 135.515 534.763 131.225 532.08 120.419L529.685 110.826L525.182 111.661V137.093L504.199 140.982V73.9415L533.23 68.5609C538.723 67.5428 543.545 67.4935 547.697 68.413C551.913 69.2557 555.171 70.9581 557.47 73.5202C559.769 76.0823 560.919 79.3122 560.919 83.2099C560.919 87.5624 559.865 91.4281 557.757 94.807C555.713 98.1091 552.52 101.105 548.176 103.794C548.623 106.179 549.134 108.326 549.709 110.233C550.476 112.559 551.53 114.086 552.871 114.811C554.212 115.537 556.161 115.663 558.716 115.19C559.61 115.024 561.015 114.634 562.931 114.019V129.902C559.929 131.628 556.991 132.757 554.117 133.29ZM528.822 97.3439C533.549 96.4679 536.871 95.3326 538.787 93.938C540.767 92.4667 541.757 90.4318 541.757 87.8333C541.757 85.6246 540.959 84.181 539.362 83.5025C537.765 82.7591 535.242 82.707 531.793 83.3463L525.182 84.5716V98.0187L528.822 97.3439ZM614.704 122.061C608.253 123.256 602.44 122.774 597.266 120.615C592.092 118.391 588.036 114.823 585.098 109.91C582.16 104.998 580.691 99.2615 580.691 92.7003C580.691 86.399 582.16 80.3451 585.098 74.5386C588.1 68.7202 592.252 63.7932 597.554 59.7573C602.855 55.7215 608.891 53.0762 615.662 51.8213C619.367 51.1347 622.944 50.894 626.393 51.0992C629.906 51.2926 633.068 51.9084 635.878 52.9466L629.555 69.2223C625.211 68.2084 621.155 68.0507 617.387 68.7491C612.468 69.6607 608.668 71.9891 605.985 75.7344C603.302 79.4148 601.961 83.8535 601.961 89.0504C601.961 92.4285 602.568 95.3692 603.781 97.8727C604.995 100.311 606.688 102.109 608.859 103.265C611.095 104.41 613.618 104.722 616.428 104.201C617.961 103.917 619.239 103.55 620.261 103.101V87.4127L636.836 82.3918V112.891C629.619 117.607 622.241 120.664 614.704 122.061ZM672.135 91.2456L653.164 46.3324L673.189 42.6211L682.482 71.0085L691.584 39.2116L712.663 35.3049L692.734 87.4278V106.039L672.135 109.857V91.2456Z" fill="#E5616A"/>
    <path d="M158.942 168.245L170.398 118.896L160.918 124.292L123.674 183.66H151.734L128.511 241.344L142.199 234.337L188.904 168.245H158.942Z" fill="#FF9E48"/>
    <path d="M146.884 175.227L160.937 124.292L114 191.399H142.06L128.007 242.334L174.944 175.227H146.884Z" fill="#E5616A"/>
    <path d="M260.917 202.646L262.221 202.439C264.587 202.065 266.407 202.411 267.68 203.478C268.975 204.543 269.622 206.252 269.622 208.606C269.622 209.958 269.298 211.247 268.651 212.476C268.024 213.701 267.165 214.728 266.073 215.556C264.981 216.363 263.778 216.871 262.464 217.079L262.251 217.113L270.077 224.226L268.772 224.433L261.887 218.215V225.523L260.917 225.677V202.646ZM262.433 216.194C263.586 216.011 264.637 215.558 265.588 214.834C266.538 214.11 267.286 213.224 267.832 212.176C268.378 211.106 268.651 209.978 268.651 208.791C268.651 206.723 268.095 205.214 266.983 204.265C265.891 203.311 264.324 202.997 262.282 203.32L261.887 203.383V216.28L262.433 216.194ZM277.389 200.037L285.548 198.745V199.635L278.39 200.769V213.298L284.365 212.352V213.242L278.39 214.188V222.019L285.548 220.885V221.776L277.389 223.068V200.037ZM311.086 194.7L300.683 219.901L290.28 197.995L291.372 197.822L300.774 217.552L310.055 194.863L311.086 194.7ZM317.563 193.674L318.564 193.515V216.547L317.563 216.705V193.674ZM330.944 192.445L325.697 193.276V192.386L337.132 190.575V191.465L331.945 192.287V214.427L330.944 214.586V192.445ZM363.087 209.495L362.026 209.663L357.719 201.563L345.647 203.474L341.432 212.925L340.37 213.093L351.714 187.712L363.087 209.495ZM357.355 200.73L351.653 189.933L346.072 202.517L357.355 200.73ZM370.411 185.304L371.412 185.145V207.286L378.449 206.171V207.062L370.411 208.335V185.304ZM385.584 182.901L386.585 182.742V205.773L385.584 205.932V182.901ZM403.878 180.894L393.869 182.479V181.588L405.394 179.763L395.355 203.494L405.303 201.918V202.808L393.869 204.619L403.878 180.894ZM412.574 178.626L413.575 178.467V201.498L412.574 201.657V178.626ZM423.346 179.223V199.951L422.467 200.09V176.721L439.209 195.104V174.407L440.089 174.268V197.637L423.346 179.223ZM459.69 171.44C457.688 171.757 455.858 172.569 454.2 173.875C452.562 175.158 451.258 176.747 450.288 178.641C449.337 180.511 448.862 182.439 448.862 184.425C448.862 186.431 449.347 188.217 450.318 189.783C451.288 191.349 452.572 192.517 454.17 193.288C455.787 194.035 457.526 194.261 459.387 193.966C460.478 193.793 461.449 193.537 462.298 193.198C463.168 192.855 463.997 192.397 464.785 191.821V184.605L457.263 185.796V184.906L465.786 183.556V191.018L465.847 190.978V192.114C464.876 192.861 463.875 193.45 462.844 193.879C461.833 194.326 460.721 194.645 459.508 194.837C457.385 195.174 455.434 194.961 453.654 194.198C451.875 193.416 450.459 192.186 449.408 190.51C448.377 188.811 447.861 186.804 447.861 184.491C447.861 182.259 448.397 180.138 449.469 178.125C450.56 176.11 452.006 174.427 453.806 173.078C455.626 171.725 457.557 170.887 459.599 170.563C461.014 170.339 462.137 170.295 462.966 170.429C463.795 170.544 464.755 170.832 465.847 171.294V172.43C464.816 171.877 463.855 171.527 462.966 171.381C462.096 171.212 461.004 171.231 459.69 171.44ZM484.47 167.238L485.471 167.08C487.857 166.702 489.717 167.052 491.052 168.131C492.386 169.189 493.054 170.792 493.054 172.942C493.054 174.436 492.73 175.818 492.083 177.088C491.436 178.337 490.556 179.366 489.444 180.177C488.332 180.968 487.089 181.472 485.714 181.689L485.471 181.728V190.111L484.47 190.27V167.238ZM485.774 180.789C487.614 180.498 489.121 179.686 490.294 178.354C491.466 177.001 492.053 175.27 492.053 173.162C492.053 171.156 491.497 169.708 490.385 168.82C489.293 167.908 487.736 167.612 485.714 167.932L485.471 167.97V180.837L485.774 180.789ZM500.469 164.704L501.47 164.546V186.687L508.506 185.572V186.463L500.469 187.736V164.704ZM536.781 181.984L535.72 182.153L531.413 174.052L519.341 175.964L515.125 185.414L514.064 185.582L525.407 160.202L536.781 181.984ZM531.049 173.219L525.347 162.422L519.766 175.006L531.049 173.219ZM544.985 159.957V180.685L544.105 180.824V157.455L560.848 175.839V155.141L561.727 155.002V178.371L544.985 159.957ZM571.35 155.781V176.509L570.47 176.649V153.28L587.212 171.663V150.966L588.092 150.826V174.195L571.35 155.781ZM596.987 149.418L597.987 149.259V172.29L596.987 172.449V149.418ZM607.759 150.015V170.743L606.879 170.882V147.513L623.622 165.896V145.199L624.501 145.06V168.429L607.759 150.015ZM644.102 142.232C642.101 142.549 640.271 143.36 638.613 144.667C636.975 145.95 635.671 147.539 634.7 149.432C633.75 151.303 633.275 153.231 633.275 155.216C633.275 157.223 633.76 159.009 634.73 160.575C635.701 162.141 636.985 163.309 638.582 164.08C640.2 164.827 641.939 165.053 643.799 164.758C644.891 164.585 645.862 164.329 646.711 163.99C647.58 163.647 648.409 163.188 649.198 162.613V155.397L641.676 156.588V155.698L650.199 154.348V161.81L650.26 161.769V162.906C649.289 163.653 648.288 164.242 647.257 164.671C646.246 165.118 645.134 165.437 643.92 165.629C641.797 165.966 639.846 165.753 638.067 164.99C636.287 164.208 634.872 162.978 633.821 161.302C632.789 159.603 632.274 157.596 632.274 155.283C632.274 153.051 632.81 150.93 633.881 148.917C634.973 146.902 636.419 145.219 638.218 143.87C640.038 142.517 641.969 141.679 644.011 141.355C645.427 141.131 646.549 141.087 647.378 141.221C648.207 141.336 649.168 141.624 650.26 142.085V143.222C649.228 142.668 648.268 142.319 647.378 142.173C646.509 142.004 645.417 142.023 644.102 142.232Z" fill="#454545"/>
    <path d="M260.917 202.646V201.941L260.221 202.051V202.756L260.917 202.646ZM267.68 203.478L267.192 204.058L267.196 204.062L267.68 203.478ZM268.651 212.476L268.049 212.217L268.044 212.226L268.651 212.476ZM266.073 215.556L266.42 216.112L266.428 216.106L266.073 215.556ZM262.251 217.113V216.408L260.631 216.665L261.746 217.678L262.251 217.113ZM270.077 224.226V224.931L271.697 224.675L270.582 223.661L270.077 224.226ZM268.772 224.433L268.269 224.999L268.474 225.185L268.772 225.138V224.433ZM261.887 218.215L262.391 217.648L261.191 216.564V218.325L261.887 218.215ZM261.887 225.523V226.228L262.584 226.118V225.413L261.887 225.523ZM260.917 225.677L260.221 225.787V226.492L260.917 226.382V225.677ZM265.588 214.834L265.944 215.383L265.944 215.383L265.588 214.834ZM267.832 212.176L268.436 212.431L268.439 212.425L267.832 212.176ZM266.983 204.265L266.486 204.837L266.491 204.841L266.983 204.265ZM261.887 203.383V202.678L261.191 202.788V203.493L261.887 203.383ZM261.887 216.28L261.191 216.39V217.095L261.887 216.985V216.28ZM260.917 203.351L262.221 203.144V201.734L260.917 201.941V203.351ZM262.221 203.144C264.465 202.789 266.086 203.132 267.192 204.058L268.169 202.899C266.727 201.69 264.708 201.34 262.221 201.734V203.144ZM267.196 204.062C268.318 204.985 268.925 206.495 268.925 208.717L270.318 208.496C270.318 206.009 269.631 204.101 268.165 202.895L267.196 204.062ZM268.925 208.717C268.925 209.948 268.632 211.11 268.049 212.217L269.253 212.735C269.964 211.385 270.318 209.967 270.318 208.496L268.925 208.717ZM268.044 212.226C267.477 213.335 266.704 214.258 265.718 215.005L266.428 216.106C267.625 215.198 268.571 214.067 269.258 212.726L268.044 212.226ZM265.726 214.999C264.745 215.725 263.662 216.185 262.464 216.374V217.784C263.894 217.558 265.218 217.001 266.42 216.112L265.726 214.999ZM262.464 216.374L262.251 216.408V217.818L262.464 217.784V216.374ZM261.746 217.678L269.571 224.791L270.582 223.661L262.757 216.548L261.746 217.678ZM270.077 223.521L268.772 223.728V225.138L270.077 224.931V223.521ZM269.276 223.866L262.391 217.648L261.384 218.781L268.269 224.999L269.276 223.866ZM261.191 218.325V225.634L262.584 225.413V218.104L261.191 218.325ZM261.887 224.818L260.917 224.972V226.382L261.887 226.228V224.818ZM261.613 225.567V202.535L260.221 202.756V225.787L261.613 225.567ZM262.433 216.899C263.706 216.697 264.881 216.193 265.944 215.383L265.231 214.285C264.393 214.923 263.466 215.325 262.433 215.489V216.899ZM265.944 215.383C266.996 214.582 267.83 213.595 268.436 212.431L267.228 211.92C266.743 212.853 266.08 213.639 265.231 214.285L265.944 215.383ZM268.439 212.425C269.047 211.235 269.347 209.982 269.347 208.681L267.955 208.901C267.955 209.974 267.709 210.978 267.225 211.926L268.439 212.425ZM269.347 208.681C269.347 206.484 268.754 204.78 267.475 203.688L266.491 204.841C267.436 205.649 267.955 206.962 267.955 208.901L269.347 208.681ZM267.48 203.692C266.22 202.592 264.45 202.272 262.282 202.615V204.025C264.198 203.722 265.562 204.031 266.486 204.837L267.48 203.692ZM262.282 202.615L261.887 202.678V204.088L262.282 204.025V202.615ZM261.191 203.493V216.39L262.584 216.17V203.272L261.191 203.493ZM261.887 216.985L262.433 216.899V215.489L261.887 215.575V216.985ZM277.389 200.037V199.332L276.692 199.442V200.147L277.389 200.037ZM285.548 198.745L286.244 198.634V197.929L285.548 198.04V198.745ZM285.548 199.635V200.34L286.244 200.23V199.525L285.548 199.635ZM278.39 200.769V200.064L277.693 200.174V200.879L278.39 200.769ZM278.39 213.298L277.693 213.408V214.113L278.39 214.003V213.298ZM284.365 212.352L285.061 212.241V211.536L284.365 211.647V212.352ZM284.365 213.242V213.947L285.061 213.837V213.132L284.365 213.242ZM278.39 214.188V213.483L277.693 213.594V214.299L278.39 214.188ZM278.39 222.019L277.693 222.129V222.834L278.39 222.724V222.019ZM285.548 220.885L286.244 220.775V220.07L285.548 220.18V220.885ZM285.548 221.776V222.481L286.244 222.371V221.666L285.548 221.776ZM277.389 223.068L276.692 223.178V223.883L277.389 223.773V223.068ZM277.389 200.742L285.548 199.45V198.04L277.389 199.332V200.742ZM284.851 198.855V199.745L286.244 199.525V198.634L284.851 198.855ZM285.548 198.93L278.39 200.064V201.474L285.548 200.34V198.93ZM277.693 200.879V213.408L279.086 213.188V200.659L277.693 200.879ZM278.39 214.003L284.365 213.057V211.647L278.39 212.593V214.003ZM283.668 212.462V213.352L285.061 213.132V212.241L283.668 212.462ZM284.365 212.537L278.39 213.483V214.893L284.365 213.947V212.537ZM277.693 214.299V222.129L279.086 221.909V214.078L277.693 214.299ZM278.39 222.724L285.548 221.59V220.18L278.39 221.314V222.724ZM284.851 220.996V221.886L286.244 221.666V220.775L284.851 220.996ZM285.548 221.071L277.389 222.363V223.773L285.548 222.481V221.071ZM278.085 222.958V199.927L276.692 200.147V223.178L278.085 222.958ZM311.086 194.7L311.722 194.887L312.161 193.825L311.086 193.995V194.7ZM300.683 219.901L300.047 220.289L300.683 221.628L301.319 220.088L300.683 219.901ZM290.28 197.995V197.29L289.206 197.46L289.644 198.384L290.28 197.995ZM291.372 197.822L292.007 197.433L291.823 197.046L291.372 197.117V197.822ZM300.774 217.552L300.139 217.942L300.778 219.283L301.411 217.737L300.774 217.552ZM310.055 194.863V194.158L309.602 194.23L309.418 194.678L310.055 194.863ZM310.451 194.513L300.047 219.714L301.319 220.088L311.722 194.887L310.451 194.513ZM301.319 219.512L290.915 197.607L289.644 198.384L300.047 220.289L301.319 219.512ZM290.28 198.7L291.372 198.527V197.117L290.28 197.29V198.7ZM290.736 198.211L300.139 217.942L301.409 217.163L292.007 197.433L290.736 198.211ZM301.411 217.737L310.692 195.048L309.418 194.678L300.137 217.368L301.411 217.737ZM310.055 195.568L311.086 195.405V193.995L310.055 194.158V195.568ZM317.563 193.674V192.969L316.867 193.079V193.784L317.563 193.674ZM318.564 193.515L319.261 193.405V192.7L318.564 192.81V193.515ZM318.564 216.547V217.252L319.261 217.141V216.436L318.564 216.547ZM317.563 216.705L316.867 216.815V217.52L317.563 217.41V216.705ZM317.563 194.379L318.564 194.22V192.81L317.563 192.969V194.379ZM317.868 193.626V216.657L319.261 216.436V193.405L317.868 193.626ZM318.564 215.842L317.563 216V217.41L318.564 217.252V215.842ZM318.26 216.595V193.564L316.867 193.784V216.815L318.26 216.595ZM330.944 192.445L331.64 192.335V191.63L330.944 191.74V192.445ZM325.697 193.276L325.001 193.386V194.091L325.697 193.981V193.276ZM325.697 192.386V191.681L325.001 191.791V192.496L325.697 192.386ZM337.132 190.575L337.828 190.464V189.759L337.132 189.87V190.575ZM337.132 191.465V192.17L337.828 192.06V191.355L337.132 191.465ZM331.945 192.287V191.582L331.249 191.692V192.397L331.945 192.287ZM331.945 214.427V215.132L332.641 215.022V214.317L331.945 214.427ZM330.944 214.586L330.248 214.696V215.401L330.944 215.291V214.586ZM330.944 191.74L325.697 192.571V193.981L330.944 193.15V191.74ZM326.393 193.166V192.275L325.001 192.496V193.386L326.393 193.166ZM325.697 193.091L337.132 191.28V189.87L325.697 191.681V193.091ZM336.435 190.685V191.575L337.828 191.355V190.464L336.435 190.685ZM337.132 190.76L331.945 191.582V192.992L337.132 192.17V190.76ZM331.249 192.397V214.538L332.641 214.317V192.176L331.249 192.397ZM331.945 213.722L330.944 213.881V215.291L331.945 215.132V213.722ZM331.64 214.475V192.335L330.248 192.555V214.696L331.64 214.475ZM363.087 209.495V210.2L364.202 210.023L363.713 209.086L363.087 209.495ZM362.026 209.663L361.402 210.075L361.594 210.436L362.026 210.368V209.663ZM357.719 201.563L358.343 201.15L358.151 200.789L357.719 200.858V201.563ZM345.647 203.474V202.769L345.212 202.838L345.021 203.265L345.647 203.474ZM341.432 212.925V213.63L341.867 213.561L342.058 213.134L341.432 212.925ZM340.37 213.093L339.744 212.883L339.256 213.974L340.37 213.798V213.093ZM351.714 187.712L352.339 187.304L351.713 186.104L351.087 187.503L351.714 187.712ZM357.355 200.73V201.435L358.475 201.257L357.979 200.319L357.355 200.73ZM351.653 189.933L352.277 189.522L351.646 188.327L351.026 189.726L351.653 189.933ZM346.072 202.517L345.445 202.309L344.963 203.397L346.072 203.222V202.517ZM363.087 208.79L362.026 208.958V210.368L363.087 210.2V208.79ZM362.649 209.251L358.343 201.15L357.095 201.975L361.402 210.075L362.649 209.251ZM357.719 200.858L345.647 202.769V204.179L357.719 202.267V200.858ZM345.021 203.265L340.805 212.716L342.058 213.134L346.274 203.683L345.021 203.265ZM341.432 212.22L340.37 212.388V213.798L341.432 213.63V212.22ZM340.996 213.302L352.34 187.922L351.087 187.503L339.744 212.883L340.996 213.302ZM351.088 188.121L362.462 209.903L363.713 209.086L352.339 187.304L351.088 188.121ZM357.979 200.319L352.277 189.522L351.028 190.344L356.731 201.14L357.979 200.319ZM351.026 189.726L345.445 202.309L346.699 202.724L352.28 190.14L351.026 189.726ZM346.072 203.222L357.355 201.435V200.025L346.072 201.812V203.222ZM370.411 185.304V184.599L369.715 184.709V185.414L370.411 185.304ZM371.412 185.145L372.109 185.035V184.33L371.412 184.44V185.145ZM371.412 207.286L370.716 207.396V208.101L371.412 207.991V207.286ZM378.449 206.171L379.145 206.061V205.356L378.449 205.466V206.171ZM378.449 207.062V207.767L379.145 207.656V206.951L378.449 207.062ZM370.411 208.335L369.715 208.445V209.15L370.411 209.04V208.335ZM370.411 186.009L371.412 185.85V184.44L370.411 184.599V186.009ZM370.716 185.255V207.396L372.109 207.175V185.035L370.716 185.255ZM371.412 207.991L378.449 206.876V205.466L371.412 206.581V207.991ZM377.753 206.282V207.172L379.145 206.951V206.061L377.753 206.282ZM378.449 206.357L370.411 207.63V209.04L378.449 207.767V206.357ZM371.108 208.225V185.193L369.715 185.414V208.445L371.108 208.225ZM385.584 182.901V182.196L384.887 182.306V183.011L385.584 182.901ZM386.585 182.742L387.281 182.632V181.927L386.585 182.037V182.742ZM386.585 205.773V206.478L387.281 206.368V205.663L386.585 205.773ZM385.584 205.932L384.887 206.042V206.747L385.584 206.637V205.932ZM385.584 183.605L386.585 183.447V182.037L385.584 182.196V183.605ZM385.888 182.852V205.883L387.281 205.663V182.632L385.888 182.852ZM386.585 205.068L385.584 205.227V206.637L386.585 206.478V205.068ZM386.28 205.821V182.79L384.887 183.011V206.042L386.28 205.821ZM403.878 180.894L404.511 181.087L404.962 180.017L403.878 180.189V180.894ZM393.869 182.479L393.173 182.589V183.294L393.869 183.184V182.479ZM393.869 181.588V180.883L393.173 180.994V181.699L393.869 181.588ZM405.394 179.763L406.027 179.957L406.48 178.886L405.394 179.058V179.763ZM395.355 203.494L394.722 203.3L394.269 204.37L395.355 204.199V203.494ZM405.303 201.918L406 201.808V201.103L405.303 201.213V201.918ZM405.303 202.808V203.513L406 203.403V202.698L405.303 202.808ZM393.869 204.619L393.236 204.426L392.785 205.496L393.869 205.324V204.619ZM403.878 180.189L393.869 181.774V183.184L403.878 181.598V180.189ZM394.565 182.368V181.478L393.173 181.699V182.589L394.565 182.368ZM393.869 182.293L405.394 180.468V179.058L393.869 180.883V182.293ZM404.762 179.569L394.722 203.3L395.988 203.687L406.027 179.957L404.762 179.569ZM395.355 204.199L405.303 202.623V201.213L395.355 202.789V204.199ZM404.607 202.028V202.919L406 202.698V201.808L404.607 202.028ZM405.303 202.103L393.869 203.914V205.324L405.303 203.513V202.103ZM394.502 204.813L404.511 181.087L403.245 180.7L393.236 204.426L394.502 204.813ZM412.574 178.626V177.921L411.878 178.031V178.736L412.574 178.626ZM413.575 178.467L414.271 178.357V177.652L413.575 177.762V178.467ZM413.575 201.498V202.203L414.271 202.093V201.388L413.575 201.498ZM412.574 201.657L411.878 201.767V202.472L412.574 202.362V201.657ZM412.574 179.331L413.575 179.172V177.762L412.574 177.921V179.331ZM412.879 178.577V201.609L414.271 201.388V178.357L412.879 178.577ZM413.575 200.793L412.574 200.952V202.362L413.575 202.203V200.793ZM413.27 201.547V178.515L411.878 178.736V201.767L413.27 201.547ZM423.346 179.223L423.889 178.695L422.65 177.332V179.333L423.346 179.223ZM423.346 199.951V200.656L424.043 200.545V199.84L423.346 199.951ZM422.467 200.09L421.771 200.2V200.905L422.467 200.795V200.09ZM422.467 176.721L423.009 176.193L421.771 174.833V176.831L422.467 176.721ZM439.209 195.104L438.667 195.633L439.905 196.993V194.994L439.209 195.104ZM439.209 174.407V173.702L438.513 173.812V174.517L439.209 174.407ZM440.089 174.268L440.785 174.157V173.452L440.089 173.563V174.268ZM440.089 197.637L439.546 198.165L440.785 199.527V197.526L440.089 197.637ZM422.65 179.333V200.061L424.043 199.84V179.112L422.65 179.333ZM423.346 199.246L422.467 199.385V200.795L423.346 200.656V199.246ZM423.163 199.98V176.611L421.771 176.831V200.2L423.163 199.98ZM421.925 177.249L438.667 195.633L439.751 194.576L423.009 176.193L421.925 177.249ZM439.905 194.994V174.297L438.513 174.517V195.215L439.905 194.994ZM439.209 175.112L440.089 174.973V173.563L439.209 173.702V175.112ZM439.392 174.378V197.747L440.785 197.526V174.157L439.392 174.378ZM440.631 197.109L423.889 178.695L422.804 179.75L439.546 198.165L440.631 197.109ZM454.2 173.875L454.566 174.417L454.568 174.416L454.2 173.875ZM450.288 178.641L449.681 178.39L449.68 178.393L450.288 178.641ZM450.318 189.783L449.713 190.228L449.713 190.228L450.318 189.783ZM454.17 193.288L453.797 193.942L453.806 193.946L454.17 193.288ZM462.298 193.198L462.141 192.536L462.137 192.538L462.298 193.198ZM464.785 191.821L465.127 192.381L465.482 192.123V191.711L464.785 191.821ZM464.785 184.605L465.482 184.495V183.79L464.785 183.9V184.605ZM457.263 185.796L456.567 185.906V186.611L457.263 186.501V185.796ZM457.263 184.906V184.201L456.567 184.311V185.016L457.263 184.906ZM465.786 183.556L466.483 183.445V182.741L465.786 182.851V183.556ZM465.786 191.018L465.09 191.128V192.269L466.098 191.599L465.786 191.018ZM465.847 190.978L466.543 190.867V189.727L465.536 190.396L465.847 190.978ZM465.847 192.114L466.207 192.66L466.543 192.401V192.003L465.847 192.114ZM462.844 193.879L462.672 193.223L462.664 193.227L462.656 193.23L462.844 193.879ZM453.654 194.198L453.3 194.862L453.305 194.864L453.654 194.198ZM449.408 190.51L448.8 190.951L448.805 190.959L449.408 190.51ZM449.469 178.125L448.871 177.857L448.869 177.863L449.469 178.125ZM453.806 173.078L453.457 172.523L453.455 172.525L453.806 173.078ZM462.966 170.429L462.755 171.135L462.762 171.136L462.77 171.137L462.966 170.429ZM465.847 171.294L466.543 171.183V170.775L466.194 170.627L465.847 171.294ZM465.847 172.43L465.453 173.073L466.543 173.658V172.319L465.847 172.43ZM462.966 171.381L462.736 172.083L462.745 172.085L462.754 172.087L462.966 171.381ZM459.69 170.735C457.562 171.072 455.604 171.939 453.832 173.335L454.568 174.416C456.113 173.198 457.815 172.442 459.69 172.145V170.735ZM453.834 173.333C452.094 174.697 450.708 176.386 449.681 178.39L450.894 178.891C451.808 177.107 453.031 175.62 454.566 174.417L453.834 173.333ZM449.68 178.393C448.671 180.378 448.166 182.429 448.166 184.535L449.558 184.314C449.558 182.448 450.003 180.643 450.895 178.889L449.68 178.393ZM448.166 184.535C448.166 186.662 448.682 188.564 449.713 190.228L450.922 189.337C450.013 187.87 449.558 186.199 449.558 184.314L448.166 184.535ZM449.713 190.228C450.738 191.882 452.101 193.124 453.797 193.942L454.542 192.633C453.044 191.91 451.839 190.816 450.922 189.337L449.713 190.228ZM453.806 193.946C455.531 194.743 457.395 194.986 459.387 194.671V193.261C457.657 193.535 456.044 193.326 454.533 192.629L453.806 193.946ZM459.387 194.671C460.52 194.492 461.546 194.223 462.46 193.858L462.137 192.538C461.352 192.851 460.437 193.095 459.387 193.261V194.671ZM462.456 193.86C463.391 193.491 464.282 192.998 465.127 192.381L464.443 191.261C463.712 191.795 462.945 192.22 462.141 192.536L462.456 193.86ZM465.482 191.711V184.495L464.089 184.715V191.932L465.482 191.711ZM464.785 183.9L457.263 185.091V186.501L464.785 185.31V183.9ZM457.96 185.686V184.795L456.567 185.016V185.906L457.96 185.686ZM457.263 185.611L465.786 184.261V182.851L457.263 184.201V185.611ZM465.09 183.666V191.128L466.483 190.908V183.445L465.09 183.666ZM466.098 191.599L466.158 191.559L465.536 190.396L465.475 190.437L466.098 191.599ZM465.151 191.088V192.224L466.543 192.003V190.867L465.151 191.088ZM465.487 191.567C464.571 192.273 463.633 192.823 462.672 193.223L463.016 194.535C464.118 194.076 465.182 193.45 466.207 192.66L465.487 191.567ZM462.656 193.23C461.715 193.646 460.667 193.949 459.508 194.132V195.542C460.775 195.342 461.951 195.006 463.032 194.528L462.656 193.23ZM459.508 194.132C457.503 194.45 455.673 194.249 454.003 193.533L453.305 194.864C455.194 195.673 457.266 195.897 459.508 195.542V194.132ZM454.008 193.535C452.334 192.799 451.003 191.644 450.011 190.062L448.805 190.959C449.915 192.728 451.416 194.033 453.3 194.862L454.008 193.535ZM450.015 190.07C449.047 188.474 448.557 186.584 448.557 184.381L447.165 184.601C447.165 187.025 447.706 189.148 448.801 190.951L450.015 190.07ZM448.557 184.381C448.557 182.269 449.063 180.277 450.069 178.388L448.869 177.863C447.731 179.999 447.165 182.25 447.165 184.601L448.557 184.381ZM450.066 178.394C451.098 176.487 452.46 174.903 454.157 173.631L453.455 172.525C451.552 173.952 450.022 175.733 448.872 177.857L450.066 178.394ZM454.154 173.633C455.871 172.357 457.683 171.572 459.599 171.268V169.858C457.431 170.202 455.38 171.093 453.457 172.523L454.154 173.633ZM459.599 171.268C460.982 171.049 462.023 171.016 462.755 171.135L463.176 169.724C462.25 169.573 461.047 169.629 459.599 169.858V171.268ZM462.77 171.137C463.528 171.242 464.436 171.51 465.5 171.96L466.194 170.627C465.074 170.154 464.061 169.846 463.161 169.722L462.77 171.137ZM465.151 171.404V172.54L466.543 172.319V171.183L465.151 171.404ZM466.241 171.786C465.171 171.212 464.149 170.835 463.177 170.676L462.754 172.087C463.561 172.219 464.46 172.541 465.453 173.073L466.241 171.786ZM463.195 170.679C462.228 170.491 461.052 170.519 459.69 170.735V172.145C460.957 171.944 461.965 171.933 462.736 172.083L463.195 170.679ZM484.47 167.238V166.533L483.774 166.644V167.349L484.47 167.238ZM491.052 168.131L490.571 168.717L490.575 168.72L491.052 168.131ZM492.083 177.088L492.688 177.342L492.69 177.337L492.083 177.088ZM489.444 180.177L489.778 180.743L489.786 180.737L489.444 180.177ZM485.471 181.728V181.023L484.775 181.133V181.838L485.471 181.728ZM485.471 190.111V190.816L486.167 190.706V190.001L485.471 190.111ZM484.47 190.27L483.774 190.38V191.085L484.47 190.975V190.27ZM490.294 178.354L490.777 178.784L490.782 178.779L490.294 178.354ZM490.385 168.82L489.897 169.4L489.906 169.408L490.385 168.82ZM485.471 167.97V167.265L484.775 167.376V168.081L485.471 167.97ZM485.471 180.837L484.775 180.947V181.652L485.471 181.542V180.837ZM484.47 167.943L485.471 167.785V166.375L484.47 166.533V167.943ZM485.471 167.785C487.732 167.427 489.401 167.771 490.571 168.717L491.533 167.545C490.034 166.333 487.982 165.977 485.471 166.375V167.785ZM490.575 168.72C491.747 169.649 492.357 171.063 492.357 173.052L493.75 172.832C493.75 170.521 493.026 168.728 491.529 167.541L490.575 168.72ZM492.357 173.052C492.357 174.44 492.058 175.697 491.476 176.839L492.69 177.337C493.402 175.94 493.75 174.433 493.75 172.832L492.357 173.052ZM491.478 176.834C490.892 177.965 490.103 178.888 489.102 179.617L489.786 180.737C491.01 179.845 491.98 178.708 492.688 177.342L491.478 176.834ZM489.111 179.611C488.11 180.323 486.982 180.783 485.714 180.984V182.394C487.195 182.16 488.555 181.612 489.778 180.743L489.111 179.611ZM485.714 180.984L485.471 181.023V182.433L485.714 182.394V180.984ZM484.775 181.838V190.221L486.167 190.001V181.617L484.775 181.838ZM485.471 189.406L484.47 189.565V190.975L485.471 190.816V189.406ZM485.166 190.159V167.128L483.774 167.349V190.38L485.166 190.159ZM485.774 181.494C487.77 181.178 489.458 180.283 490.777 178.784L489.81 177.923C488.784 179.089 487.459 179.817 485.774 180.084V181.494ZM490.782 178.779C492.121 177.235 492.749 175.296 492.749 173.052L491.356 173.272C491.356 175.245 490.812 176.768 489.806 177.928L490.782 178.779ZM492.749 173.052C492.749 170.912 492.152 169.262 490.863 168.232L489.906 169.408C490.841 170.155 491.356 171.399 491.356 173.272L492.749 173.052ZM490.872 168.239C489.613 167.187 487.857 166.887 485.714 167.227V168.637C487.614 168.336 488.973 168.628 489.897 169.4L490.872 168.239ZM485.714 167.227L485.471 167.265V168.675L485.714 168.637V167.227ZM484.775 168.081V180.947L486.167 180.727V167.86L484.775 168.081ZM485.471 181.542L485.774 181.494V180.084L485.471 180.132V181.542ZM500.469 164.704V163.999L499.773 164.11V164.815L500.469 164.704ZM501.47 164.546L502.166 164.436V163.731L501.47 163.841V164.546ZM501.47 186.687L500.773 186.797V187.502L501.47 187.392V186.687ZM508.506 185.572L509.203 185.462V184.757L508.506 184.867V185.572ZM508.506 186.463V187.168L509.203 187.057V186.352L508.506 186.463ZM500.469 187.736L499.773 187.846V188.551L500.469 188.441V187.736ZM500.469 165.409L501.47 165.251V163.841L500.469 163.999V165.409ZM500.773 164.656V186.797L502.166 186.576V164.436L500.773 164.656ZM501.47 187.392L508.506 186.277V184.867L501.47 185.982V187.392ZM507.81 185.682V186.573L509.203 186.352V185.462L507.81 185.682ZM508.506 185.758L500.469 187.031V188.441L508.506 187.168V185.758ZM501.165 187.625V164.594L499.773 164.815V187.846L501.165 187.625ZM536.781 181.984V182.689L537.896 182.513L537.407 181.576L536.781 181.984ZM535.72 182.153L535.096 182.565L535.288 182.926L535.72 182.857V182.153ZM531.413 174.052L532.036 173.64L531.845 173.279L531.413 173.347V174.052ZM519.341 175.964V175.259L518.906 175.328L518.715 175.755L519.341 175.964ZM515.125 185.414V186.119L515.561 186.05L515.752 185.623L515.125 185.414ZM514.064 185.582L513.438 185.373L512.95 186.464L514.064 186.287V185.582ZM525.407 160.202L526.033 159.793L525.407 158.594L524.781 159.992L525.407 160.202ZM531.049 173.219V173.924L532.169 173.747L531.673 172.808L531.049 173.219ZM525.347 162.422L525.971 162.012L525.34 160.817L524.72 162.215L525.347 162.422ZM519.766 175.006L519.139 174.799L518.656 175.887L519.766 175.711V175.006ZM536.781 181.279L535.72 181.448V182.857L536.781 182.689V181.279ZM536.343 181.74L532.036 173.64L530.789 174.464L535.096 182.565L536.343 181.74ZM531.413 173.347L519.341 175.259V176.669L531.413 174.757V173.347ZM518.715 175.755L514.499 185.205L515.752 185.623L519.968 176.173L518.715 175.755ZM515.125 184.709L514.064 184.877V186.287L515.125 186.119V184.709ZM514.69 185.792L526.033 160.411L524.781 159.992L513.438 185.373L514.69 185.792ZM524.782 160.61L536.156 182.393L537.407 181.576L526.033 159.793L524.782 160.61ZM531.673 172.808L525.971 162.012L524.722 162.833L530.424 173.63L531.673 172.808ZM524.72 162.215L519.139 174.799L520.393 175.213L525.974 162.63L524.72 162.215ZM519.766 175.711L531.049 173.924V172.514L519.766 174.301V175.711ZM544.985 159.957L545.527 159.429L544.289 158.067V160.067L544.985 159.957ZM544.985 180.685V181.39L545.681 181.28V180.575L544.985 180.685ZM544.105 180.824L543.409 180.935V181.64L544.105 181.529V180.824ZM544.105 157.455L544.648 156.927L543.409 155.567V157.566L544.105 157.455ZM560.848 175.839L560.305 176.367L561.544 177.727V175.729L560.848 175.839ZM560.848 155.141V154.436L560.151 154.547V155.252L560.848 155.141ZM561.727 155.002L562.424 154.892V154.187L561.727 154.297V155.002ZM561.727 178.371L561.185 178.899L562.424 180.261V178.261L561.727 178.371ZM544.289 160.067V180.795L545.681 180.575V159.847L544.289 160.067ZM544.985 179.98L544.105 180.119V181.529L544.985 181.39V179.98ZM544.802 180.714V157.345L543.409 157.566V180.935L544.802 180.714ZM543.563 157.984L560.305 176.367L561.39 175.311L544.648 156.927L543.563 157.984ZM561.544 175.729V155.031L560.151 155.252V175.949L561.544 175.729ZM560.848 155.846L561.727 155.707V154.297L560.848 154.436V155.846ZM561.031 155.112V178.481L562.424 178.261V154.892L561.031 155.112ZM562.27 177.843L545.527 159.429L544.442 160.485L561.185 178.899L562.27 177.843ZM571.35 155.781L571.892 155.253L570.653 153.891V155.891L571.35 155.781ZM571.35 176.509V177.214L572.046 177.104V176.399L571.35 176.509ZM570.47 176.649L569.774 176.759V177.464L570.47 177.354V176.649ZM570.47 153.28L571.012 152.751L569.774 151.391V153.39L570.47 153.28ZM587.212 171.663L586.67 172.191L587.909 173.551V171.553L587.212 171.663ZM587.212 150.966V150.261L586.516 150.371V151.076L587.212 150.966ZM588.092 150.826L588.788 150.716V150.011L588.092 150.121V150.826ZM588.092 174.195L587.55 174.723L588.788 176.086V174.085L588.092 174.195ZM570.653 155.891V176.62L572.046 176.399V155.671L570.653 155.891ZM571.35 175.804L570.47 175.944V177.354L571.35 177.214V175.804ZM571.166 176.538V153.169L569.774 153.39V176.759L571.166 176.538ZM569.928 153.808L586.67 172.191L587.755 171.135L571.012 152.751L569.928 153.808ZM587.909 171.553V150.855L586.516 151.076V171.773L587.909 171.553ZM587.212 151.671L588.092 151.531V150.121L587.212 150.261V151.671ZM587.396 150.937V174.306L588.788 174.085V150.716L587.396 150.937ZM588.634 173.667L571.892 155.253L570.807 156.309L587.55 174.723L588.634 173.667ZM596.987 149.418V148.713L596.29 148.823V149.528L596.987 149.418ZM597.987 149.259L598.684 149.149V148.444L597.987 148.554V149.259ZM597.987 172.29V172.995L598.684 172.885V172.18L597.987 172.29ZM596.987 172.449L596.29 172.559V173.264L596.987 173.154V172.449ZM596.987 150.123L597.987 149.964V148.554L596.987 148.713V150.123ZM597.291 149.369V172.401L598.684 172.18V149.149L597.291 149.369ZM597.987 171.585L596.987 171.744V173.154L597.987 172.995V171.585ZM597.683 172.339V149.307L596.29 149.528V172.559L597.683 172.339ZM607.759 150.015L608.301 149.487L607.063 148.124V150.125L607.759 150.015ZM607.759 170.743V171.448L608.455 171.337V170.632L607.759 170.743ZM606.879 170.882L606.183 170.992V171.697L606.879 171.587V170.882ZM606.879 147.513L607.422 146.985L606.183 145.625V147.623L606.879 147.513ZM623.622 165.896L623.08 166.425L624.318 167.784V165.786L623.622 165.896ZM623.622 145.199V144.494L622.925 144.604V145.309L623.622 145.199ZM624.501 145.06L625.198 144.949V144.244L624.501 144.355V145.06ZM624.501 168.429L623.959 168.957L625.198 170.319V168.318L624.501 168.429ZM607.063 150.125V170.853L608.455 170.632V149.904L607.063 150.125ZM607.759 170.038L606.879 170.177V171.587L607.759 171.448V170.038ZM607.576 170.772V147.403L606.183 147.623V170.992L607.576 170.772ZM606.337 148.041L623.08 166.425L624.164 165.368L607.422 146.985L606.337 148.041ZM624.318 165.786V145.089L622.925 145.309V166.007L624.318 165.786ZM623.622 145.904L624.501 145.765V144.355L623.622 144.494V145.904ZM623.805 145.17V168.539L625.198 168.318V144.949L623.805 145.17ZM625.044 167.901L608.301 149.487L607.217 150.542L623.959 168.957L625.044 167.901ZM638.613 144.667L638.978 145.209L638.98 145.208L638.613 144.667ZM634.7 149.432L634.094 149.182L634.092 149.184L634.7 149.432ZM634.73 160.575L634.126 161.02L634.126 161.02L634.73 160.575ZM638.582 164.08L638.21 164.734L638.219 164.738L638.582 164.08ZM646.711 163.99L646.553 163.328L646.55 163.33L646.711 163.99ZM649.198 162.613L649.54 163.173L649.894 162.915V162.503L649.198 162.613ZM649.198 155.397L649.894 155.286V154.581L649.198 154.692V155.397ZM641.676 156.588L640.98 156.698V157.403L641.676 157.293V156.588ZM641.676 155.698V154.993L640.98 155.103V155.808L641.676 155.698ZM650.199 154.348L650.895 154.237V153.532L650.199 153.643V154.348ZM650.199 161.81L649.503 161.92V163.061L650.51 162.391L650.199 161.81ZM650.26 161.769L650.956 161.659V160.519L649.948 161.188L650.26 161.769ZM650.26 162.906L650.62 163.452L650.956 163.193V162.795L650.26 162.906ZM647.257 164.671L647.085 164.015L647.077 164.018L647.069 164.022L647.257 164.671ZM638.067 164.99L637.713 165.653L637.718 165.656L638.067 164.99ZM633.821 161.302L633.213 161.743L633.218 161.751L633.821 161.302ZM633.881 148.917L633.284 148.649L633.281 148.655L633.881 148.917ZM638.218 143.87L637.87 143.315L637.867 143.317L638.218 143.87ZM647.378 141.221L647.168 141.927L647.175 141.928L647.183 141.929L647.378 141.221ZM650.26 142.085L650.956 141.975V141.567L650.606 141.419L650.26 142.085ZM650.26 143.222L649.866 143.865L650.956 144.45V143.111L650.26 143.222ZM647.378 142.173L647.149 142.875L647.158 142.877L647.167 142.879L647.378 142.173ZM644.102 141.527C641.974 141.864 640.016 142.731 638.245 144.127L638.98 145.208C640.525 143.99 642.227 143.234 644.102 142.936V141.527ZM638.247 144.125C636.506 145.489 635.121 147.178 634.094 149.182L635.306 149.683C636.221 147.899 637.443 146.412 638.978 145.209L638.247 144.125ZM634.092 149.184C633.084 151.17 632.578 153.221 632.578 155.327L633.971 155.106C633.971 153.24 634.416 151.435 635.308 149.68L634.092 149.184ZM632.578 155.327C632.578 157.454 633.094 159.356 634.126 161.02L635.335 160.129C634.425 158.662 633.971 156.991 633.971 155.106L632.578 155.327ZM634.126 161.02C635.151 162.674 636.513 163.916 638.21 164.734L638.955 163.425C637.457 162.702 636.251 161.607 635.335 160.129L634.126 161.02ZM638.219 164.738C639.943 165.535 641.808 165.778 643.799 165.463V164.053C642.07 164.327 640.456 164.118 638.946 163.421L638.219 164.738ZM643.799 165.463C644.932 165.284 645.959 165.015 646.872 164.65L646.55 163.33C645.764 163.643 644.85 163.887 643.799 164.053V165.463ZM646.869 164.651C647.804 164.283 648.695 163.79 649.54 163.173L648.856 162.053C648.124 162.587 647.357 163.011 646.553 163.328L646.869 164.651ZM649.894 162.503V155.286L648.502 155.507V162.723L649.894 162.503ZM649.198 154.692L641.676 155.883V157.293L649.198 156.102V154.692ZM642.372 156.478V155.587L640.98 155.808V156.698L642.372 156.478ZM641.676 156.403L650.199 155.053V153.643L641.676 154.993V156.403ZM649.503 154.458V161.92L650.895 161.7V154.237L649.503 154.458ZM650.51 162.391L650.571 162.351L649.948 161.188L649.887 161.229L650.51 162.391ZM649.563 161.88V163.016L650.956 162.795V161.659L649.563 161.88ZM649.899 162.359C648.984 163.065 648.046 163.615 647.085 164.015L647.429 165.327C648.53 164.868 649.594 164.242 650.62 163.452L649.899 162.359ZM647.069 164.022C646.128 164.438 645.08 164.741 643.92 164.924V166.334C645.188 166.134 646.364 165.798 647.445 165.32L647.069 164.022ZM643.92 164.924C641.916 165.242 640.086 165.04 638.416 164.325L637.718 165.656C639.607 166.465 641.679 166.689 643.92 166.334V164.924ZM638.421 164.327C636.747 163.591 635.416 162.436 634.423 160.854L633.218 161.751C634.328 163.52 635.828 164.825 637.713 165.653L638.421 164.327ZM634.428 160.861C633.46 159.266 632.97 157.376 632.97 155.173L631.577 155.393C631.577 157.817 632.119 159.94 633.213 161.743L634.428 160.861ZM632.97 155.173C632.97 153.061 633.475 151.069 634.481 149.18L633.281 148.655C632.144 150.79 631.577 153.042 631.577 155.393L632.97 155.173ZM634.478 149.185C635.511 147.279 636.873 145.695 638.57 144.423L637.867 143.317C635.965 144.743 634.435 146.525 633.284 148.649L634.478 149.185ZM638.567 144.425C640.284 143.149 642.095 142.364 644.011 142.06V140.65C641.843 140.994 639.793 141.885 637.87 143.315L638.567 144.425ZM644.011 142.06C645.394 141.841 646.436 141.808 647.168 141.927L647.589 140.516C646.662 140.365 645.459 140.421 644.011 140.65V142.06ZM647.183 141.929C647.941 142.034 648.849 142.302 649.913 142.752L650.606 141.419C649.486 140.946 648.473 140.638 647.574 140.514L647.183 141.929ZM649.563 142.196V143.332L650.956 143.111V141.975L649.563 142.196ZM650.654 142.578C649.584 142.004 648.562 141.627 647.589 141.468L647.167 142.879C647.974 143.011 648.873 143.333 649.866 143.865L650.654 142.578ZM647.607 141.471C646.64 141.283 645.464 141.311 644.102 141.527V142.936C645.369 142.736 646.377 142.725 647.149 142.875L647.607 141.471Z" fill="#454545"/>
    </g>
    <defs>
    <radialGradient id="paint0_radial_203_59" cx="0" cy="0" r="1" gradientUnits="userSpaceOnUse" gradientTransform="translate(511.551 337.12) rotate(161.347) scale(675.957 513.609)">
    <stop stop-color="white"/>
    <stop offset="1" stop-color="#9B9B9B"/>
    </radialGradient>
    <linearGradient id="paint1_linear_203_59" x1="372" y1="204" x2="372" y2="400.007" gradientUnits="userSpaceOnUse">
    <stop stop-color="#4C1E78"/>
    <stop offset="1" stop-color="#922FEE"/>
    <stop offset="1" stop-color="#922FEE"/>
    </linearGradient>
    <linearGradient id="paint2_linear_203_59" x1="642.249" y1="553.383" x2="368.613" y2="307.287" gradientUnits="userSpaceOnUse">
    <stop stop-color="#FFC15C"/>
    <stop offset="1" stop-color="#FFC15C" stop-opacity="0"/>
    </linearGradient>
    <linearGradient id="paint3_linear_203_59" x1="486.924" y1="-21.271" x2="280.369" y2="-94.0842" gradientUnits="userSpaceOnUse">
    <stop stop-color="white"/>
    <stop offset="1" stop-color="white" stop-opacity="0"/>
    </linearGradient>
    <linearGradient id="paint4_linear_203_59" x1="244.607" y1="111.186" x2="-8.82898" y2="14.9356" gradientUnits="userSpaceOnUse">
    <stop stop-color="white"/>
    <stop offset="1" stop-color="white" stop-opacity="0"/>
    </linearGradient>
    <linearGradient id="paint5_linear_203_59" x1="79.7726" y1="382.643" x2="79.3518" y2="426.171" gradientUnits="userSpaceOnUse">
    <stop stop-color="#E5616A"/>
    <stop offset="1" stop-color="#8D5256"/>
    </linearGradient>
    <linearGradient id="paint6_linear_203_59" x1="70.8299" y1="338.512" x2="70.8299" y2="460.932" gradientUnits="userSpaceOnUse">
    <stop offset="0.567708" stop-color="#E5616A"/>
    <stop offset="1" stop-color="#4F1A33"/>
    </linearGradient>
    <linearGradient id="paint7_linear_203_59" x1="138.448" y1="376.36" x2="138.448" y2="448.699" gradientUnits="userSpaceOnUse">
    <stop offset="0.567708" stop-color="#E5616A"/>
    <stop offset="1" stop-color="#4F1A33"/>
    </linearGradient>
    <linearGradient id="paint8_linear_203_59" x1="191.398" y1="308.389" x2="191.398" y2="489.235" gradientUnits="userSpaceOnUse">
    <stop offset="0.567708" stop-color="#E5616A"/>
    <stop offset="1" stop-color="#4F1A33"/>
    </linearGradient>
    <clipPath id="clip0_203_59">
    <path d="M0 0H788V567H0V0Z" fill="white"/>
    </clipPath>
    </defs>
    </svg>
    