<svg width="740" height="483" viewBox="0 0 740 483" fill="none" xmlns="http://www.w3.org/2000/svg">
    <rect width="740" height="483" fill="#1A1A1D"/>
    <path d="M71.4453 177H66.7334L48.8379 149.607V177H44.126V141.453H48.8379L66.7822 168.968V141.453H71.4453V177ZM90.0244 177.488C86.4437 177.488 83.5303 176.316 81.2842 173.973C79.0381 171.613 77.915 168.463 77.915 164.524V163.694C77.915 161.074 78.4115 158.738 79.4043 156.688C80.4134 154.62 81.8132 153.009 83.6035 151.854C85.4102 150.682 87.3633 150.096 89.4629 150.096C92.8971 150.096 95.5664 151.227 97.4707 153.489C99.375 155.752 100.327 158.991 100.327 163.206V165.086H82.4316C82.4967 167.69 83.2536 169.798 84.7021 171.409C86.167 173.004 88.0225 173.802 90.2686 173.802C91.8636 173.802 93.2145 173.476 94.3213 172.825C95.4281 172.174 96.3965 171.312 97.2266 170.237L99.9854 172.386C97.7718 175.787 94.4515 177.488 90.0244 177.488ZM89.4629 153.807C87.64 153.807 86.11 154.474 84.873 155.809C83.6361 157.127 82.8711 158.982 82.5781 161.375H95.8105V161.033C95.6803 158.738 95.0618 156.964 93.9551 155.711C92.8483 154.441 91.3509 153.807 89.4629 153.807ZM113.95 170.872L120.493 150.584H125.107L115.635 177H112.192L102.622 150.584H107.236L113.95 170.872ZM140.073 177.488C136.493 177.488 133.579 176.316 131.333 173.973C129.087 171.613 127.964 168.463 127.964 164.524V163.694C127.964 161.074 128.46 158.738 129.453 156.688C130.462 154.62 131.862 153.009 133.652 151.854C135.459 150.682 137.412 150.096 139.512 150.096C142.946 150.096 145.615 151.227 147.52 153.489C149.424 155.752 150.376 158.991 150.376 163.206V165.086H132.48C132.546 167.69 133.302 169.798 134.751 171.409C136.216 173.004 138.071 173.802 140.317 173.802C141.912 173.802 143.263 173.476 144.37 172.825C145.477 172.174 146.445 171.312 147.275 170.237L150.034 172.386C147.821 175.787 144.5 177.488 140.073 177.488ZM139.512 153.807C137.689 153.807 136.159 154.474 134.922 155.809C133.685 157.127 132.92 158.982 132.627 161.375H145.859V161.033C145.729 158.738 145.111 156.964 144.004 155.711C142.897 154.441 141.4 153.807 139.512 153.807ZM168.394 154.637C167.71 154.523 166.969 154.466 166.172 154.466C163.21 154.466 161.2 155.727 160.142 158.25V177H155.625V150.584H160.02L160.093 153.636C161.574 151.276 163.674 150.096 166.392 150.096C167.271 150.096 167.938 150.21 168.394 150.438V154.637ZM183.896 163.572C183.896 159.454 184.849 156.183 186.753 153.758C188.657 151.316 191.18 150.096 194.321 150.096C197.544 150.096 200.059 151.235 201.865 153.514L202.085 150.584H206.211V176.365C206.211 179.783 205.194 182.477 203.159 184.446C201.141 186.416 198.423 187.4 195.005 187.4C193.101 187.4 191.237 186.993 189.414 186.18C187.591 185.366 186.2 184.251 185.239 182.835L187.583 180.125C189.52 182.518 191.888 183.714 194.688 183.714C196.885 183.714 198.594 183.095 199.814 181.858C201.051 180.621 201.67 178.88 201.67 176.634V174.363C199.863 176.447 197.397 177.488 194.272 177.488C191.18 177.488 188.674 176.243 186.753 173.753C184.849 171.263 183.896 167.869 183.896 163.572ZM188.438 164.085C188.438 167.063 189.048 169.407 190.269 171.116C191.489 172.809 193.198 173.655 195.396 173.655C198.244 173.655 200.335 172.361 201.67 169.773V157.713C200.286 155.19 198.211 153.929 195.444 153.929C193.247 153.929 191.53 154.783 190.293 156.492C189.056 158.201 188.438 160.732 188.438 164.085ZM224.009 177.488C220.428 177.488 217.515 176.316 215.269 173.973C213.022 171.613 211.899 168.463 211.899 164.524V163.694C211.899 161.074 212.396 158.738 213.389 156.688C214.398 154.62 215.798 153.009 217.588 151.854C219.395 150.682 221.348 150.096 223.447 150.096C226.882 150.096 229.551 151.227 231.455 153.489C233.359 155.752 234.312 158.991 234.312 163.206V165.086H216.416C216.481 167.69 217.238 169.798 218.687 171.409C220.151 173.004 222.007 173.802 224.253 173.802C225.848 173.802 227.199 173.476 228.306 172.825C229.412 172.174 230.381 171.312 231.211 170.237L233.97 172.386C231.756 175.787 228.436 177.488 224.009 177.488ZM223.447 153.807C221.624 153.807 220.094 154.474 218.857 155.809C217.62 157.127 216.855 158.982 216.562 161.375H229.795V161.033C229.665 158.738 229.046 156.964 227.939 155.711C226.833 154.441 225.335 153.807 223.447 153.807ZM245.688 144.188V150.584H250.62V154.075H245.688V170.457C245.688 171.515 245.908 172.312 246.348 172.85C246.787 173.37 247.536 173.631 248.594 173.631C249.115 173.631 249.831 173.533 250.742 173.338V177C249.554 177.326 248.398 177.488 247.275 177.488C245.257 177.488 243.735 176.878 242.71 175.657C241.685 174.437 241.172 172.703 241.172 170.457V154.075H236.362V150.584H241.172V144.188H245.688ZM48.3252 236H43.8086V209.584H48.3252V236ZM43.4424 202.577C43.4424 201.845 43.6621 201.226 44.1016 200.722C44.5573 200.217 45.2246 199.965 46.1035 199.965C46.9824 199.965 47.6497 200.217 48.1055 200.722C48.5612 201.226 48.7891 201.845 48.7891 202.577C48.7891 203.31 48.5612 203.92 48.1055 204.408C47.6497 204.896 46.9824 205.141 46.1035 205.141C45.2246 205.141 44.5573 204.896 44.1016 204.408C43.6621 203.92 43.4424 203.31 43.4424 202.577ZM59.8486 209.584L59.9951 212.904C62.0133 210.365 64.6501 209.096 67.9053 209.096C73.488 209.096 76.3037 212.245 76.3525 218.544V236H71.8359V218.52C71.8197 216.615 71.3802 215.207 70.5176 214.296C69.6712 213.384 68.3447 212.929 66.5381 212.929C65.0732 212.929 63.7874 213.319 62.6807 214.101C61.5739 214.882 60.7113 215.907 60.0928 217.177V236H55.5762V209.584H59.8486ZM89.292 203.188V209.584H94.2236V213.075H89.292V229.457C89.292 230.515 89.5117 231.312 89.9512 231.85C90.3906 232.37 91.1393 232.631 92.1973 232.631C92.7181 232.631 93.4342 232.533 94.3457 232.338V236C93.1576 236.326 92.002 236.488 90.8789 236.488C88.8607 236.488 87.3389 235.878 86.3135 234.657C85.2881 233.437 84.7754 231.703 84.7754 229.457V213.075H79.9658V209.584H84.7754V203.188H89.292ZM110.483 236.488C106.903 236.488 103.989 235.316 101.743 232.973C99.4971 230.613 98.374 227.463 98.374 223.524V222.694C98.374 220.074 98.8704 217.738 99.8633 215.688C100.872 213.62 102.272 212.009 104.062 210.854C105.869 209.682 107.822 209.096 109.922 209.096C113.356 209.096 116.025 210.227 117.93 212.489C119.834 214.752 120.786 217.991 120.786 222.206V224.086H102.891C102.956 226.69 103.713 228.798 105.161 230.409C106.626 232.004 108.481 232.802 110.728 232.802C112.323 232.802 113.674 232.476 114.78 231.825C115.887 231.174 116.855 230.312 117.686 229.237L120.444 231.386C118.231 234.787 114.91 236.488 110.483 236.488ZM109.922 212.807C108.099 212.807 106.569 213.474 105.332 214.809C104.095 216.127 103.33 217.982 103.037 220.375H116.27V220.033C116.139 217.738 115.521 215.964 114.414 214.711C113.307 213.441 111.81 212.807 109.922 212.807ZM138.804 213.637C138.12 213.523 137.38 213.466 136.582 213.466C133.62 213.466 131.61 214.727 130.552 217.25V236H126.035V209.584H130.43L130.503 212.636C131.984 210.276 134.084 209.096 136.802 209.096C137.681 209.096 138.348 209.21 138.804 209.438V213.637ZM155.747 213.637C155.063 213.523 154.323 213.466 153.525 213.466C150.563 213.466 148.553 214.727 147.495 217.25V236H142.979V209.584H147.373L147.446 212.636C148.927 210.276 151.027 209.096 153.745 209.096C154.624 209.096 155.291 209.21 155.747 209.438V213.637ZM176.23 233.388C174.473 235.455 171.893 236.488 168.491 236.488C165.675 236.488 163.527 235.674 162.046 234.047C160.581 232.403 159.84 229.978 159.824 226.771V209.584H164.341V226.649C164.341 230.653 165.968 232.655 169.224 232.655C172.674 232.655 174.969 231.369 176.108 228.798V209.584H180.625V236H176.328L176.23 233.388ZM209.824 223.085C209.824 227.105 208.905 230.344 207.065 232.802C205.226 235.259 202.736 236.488 199.595 236.488C196.388 236.488 193.866 235.471 192.026 233.437V246.156H187.51V209.584H191.636L191.855 212.514C193.695 210.235 196.25 209.096 199.521 209.096C202.695 209.096 205.202 210.292 207.041 212.685C208.896 215.077 209.824 218.406 209.824 222.67V223.085ZM205.308 222.572C205.308 219.594 204.673 217.242 203.403 215.517C202.134 213.791 200.392 212.929 198.179 212.929C195.444 212.929 193.394 214.141 192.026 216.566V229.188C193.377 231.597 195.444 232.802 198.228 232.802C200.392 232.802 202.109 231.947 203.379 230.238C204.665 228.513 205.308 225.958 205.308 222.572ZM221.714 203.188V209.584H226.646V213.075H221.714V229.457C221.714 230.515 221.934 231.312 222.373 231.85C222.812 232.37 223.561 232.631 224.619 232.631C225.14 232.631 225.856 232.533 226.768 232.338V236C225.579 236.326 224.424 236.488 223.301 236.488C221.283 236.488 219.761 235.878 218.735 234.657C217.71 233.437 217.197 231.703 217.197 229.457V213.075H212.388V209.584H217.197V203.188H221.714ZM242.905 236.488C239.325 236.488 236.411 235.316 234.165 232.973C231.919 230.613 230.796 227.463 230.796 223.524V222.694C230.796 220.074 231.292 217.738 232.285 215.688C233.294 213.62 234.694 212.009 236.484 210.854C238.291 209.682 240.244 209.096 242.344 209.096C245.778 209.096 248.447 210.227 250.352 212.489C252.256 214.752 253.208 217.991 253.208 222.206V224.086H235.312C235.378 226.69 236.134 228.798 237.583 230.409C239.048 232.004 240.903 232.802 243.149 232.802C244.744 232.802 246.095 232.476 247.202 231.825C248.309 231.174 249.277 230.312 250.107 229.237L252.866 231.386C250.653 234.787 247.332 236.488 242.905 236.488ZM242.344 212.807C240.521 212.807 238.991 213.474 237.754 214.809C236.517 216.127 235.752 217.982 235.459 220.375H248.691V220.033C248.561 217.738 247.943 215.964 246.836 214.711C245.729 213.441 244.232 212.807 242.344 212.807ZM257.358 222.572C257.358 218.52 258.319 215.264 260.239 212.807C262.16 210.333 264.674 209.096 267.783 209.096C270.876 209.096 273.325 210.154 275.132 212.27V198.5H279.648V236H275.498L275.278 233.168C273.472 235.382 270.957 236.488 267.734 236.488C264.674 236.488 262.176 235.235 260.239 232.729C258.319 230.222 257.358 226.951 257.358 222.914V222.572ZM261.875 223.085C261.875 226.08 262.493 228.424 263.73 230.116C264.967 231.809 266.676 232.655 268.857 232.655C271.722 232.655 273.813 231.369 275.132 228.798V216.664C273.781 214.174 271.706 212.929 268.906 212.929C266.693 212.929 264.967 213.783 263.73 215.492C262.493 217.201 261.875 219.732 261.875 223.085ZM42.3193 281.572C42.3193 277.52 43.2796 274.264 45.2002 271.807C47.1208 269.333 49.6354 268.096 52.7441 268.096C55.8366 268.096 58.2861 269.154 60.0928 271.27V257.5H64.6094V295H60.459L60.2393 292.168C58.4326 294.382 55.918 295.488 52.6953 295.488C49.6354 295.488 47.137 294.235 45.2002 291.729C43.2796 289.222 42.3193 285.951 42.3193 281.914V281.572ZM46.8359 282.085C46.8359 285.08 47.4544 287.424 48.6914 289.116C49.9284 290.809 51.6374 291.655 53.8184 291.655C56.6829 291.655 58.7744 290.369 60.0928 287.798V275.664C58.7419 273.174 56.6667 271.929 53.8672 271.929C51.6536 271.929 49.9284 272.783 48.6914 274.492C47.4544 276.201 46.8359 278.732 46.8359 282.085ZM87.9492 292.388C86.1914 294.455 83.6117 295.488 80.21 295.488C77.3942 295.488 75.2458 294.674 73.7646 293.047C72.2998 291.403 71.5592 288.978 71.543 285.771V268.584H76.0596V285.649C76.0596 289.653 77.6872 291.655 80.9424 291.655C84.3929 291.655 86.6878 290.369 87.8271 287.798V268.584H92.3438V295H88.0469L87.9492 292.388ZM111.997 272.637C111.313 272.523 110.573 272.466 109.775 272.466C106.813 272.466 104.803 273.727 103.745 276.25V295H99.2285V268.584H103.623L103.696 271.636C105.177 269.276 107.277 268.096 109.995 268.096C110.874 268.096 111.541 268.21 111.997 268.438V272.637ZM121.079 295H116.562V268.584H121.079V295ZM116.196 261.577C116.196 260.845 116.416 260.226 116.855 259.722C117.311 259.217 117.979 258.965 118.857 258.965C119.736 258.965 120.404 259.217 120.859 259.722C121.315 260.226 121.543 260.845 121.543 261.577C121.543 262.31 121.315 262.92 120.859 263.408C120.404 263.896 119.736 264.141 118.857 264.141C117.979 264.141 117.311 263.896 116.855 263.408C116.416 262.92 116.196 262.31 116.196 261.577ZM132.603 268.584L132.749 271.904C134.767 269.365 137.404 268.096 140.659 268.096C146.242 268.096 149.058 271.245 149.106 277.544V295H144.59V277.52C144.574 275.615 144.134 274.207 143.271 273.296C142.425 272.384 141.099 271.929 139.292 271.929C137.827 271.929 136.541 272.319 135.435 273.101C134.328 273.882 133.465 274.907 132.847 276.177V295H128.33V268.584H132.603ZM154.844 281.572C154.844 277.454 155.796 274.183 157.7 271.758C159.604 269.316 162.127 268.096 165.269 268.096C168.491 268.096 171.006 269.235 172.812 271.514L173.032 268.584H177.158V294.365C177.158 297.783 176.141 300.477 174.106 302.446C172.088 304.416 169.37 305.4 165.952 305.4C164.048 305.4 162.184 304.993 160.361 304.18C158.538 303.366 157.147 302.251 156.187 300.835L158.53 298.125C160.467 300.518 162.835 301.714 165.635 301.714C167.832 301.714 169.541 301.095 170.762 299.858C171.999 298.621 172.617 296.88 172.617 294.634V292.363C170.811 294.447 168.345 295.488 165.22 295.488C162.127 295.488 159.621 294.243 157.7 291.753C155.796 289.263 154.844 285.869 154.844 281.572ZM159.385 282.085C159.385 285.063 159.995 287.407 161.216 289.116C162.437 290.809 164.146 291.655 166.343 291.655C169.191 291.655 171.283 290.361 172.617 287.773V275.713C171.234 273.19 169.159 271.929 166.392 271.929C164.194 271.929 162.477 272.783 161.24 274.492C160.003 276.201 159.385 278.732 159.385 282.085ZM205.039 288.384L211.191 268.584H216.025L205.405 299.077C203.761 303.472 201.149 305.669 197.568 305.669L196.714 305.596L195.029 305.278V301.616L196.25 301.714C197.78 301.714 198.968 301.405 199.814 300.786C200.677 300.168 201.385 299.036 201.938 297.393L202.939 294.707L193.516 268.584H198.447L205.039 288.384ZM218.491 281.548C218.491 278.96 218.996 276.632 220.005 274.565C221.03 272.498 222.446 270.903 224.253 269.78C226.076 268.657 228.151 268.096 230.479 268.096C234.076 268.096 236.981 269.341 239.194 271.831C241.424 274.321 242.539 277.633 242.539 281.768V282.085C242.539 284.657 242.043 286.968 241.05 289.019C240.073 291.053 238.665 292.64 236.826 293.779C235.003 294.919 232.904 295.488 230.527 295.488C226.947 295.488 224.041 294.243 221.812 291.753C219.598 289.263 218.491 285.967 218.491 281.865V281.548ZM223.032 282.085C223.032 285.015 223.708 287.367 225.059 289.141C226.426 290.915 228.249 291.802 230.527 291.802C232.822 291.802 234.645 290.907 235.996 289.116C237.347 287.31 238.022 284.787 238.022 281.548C238.022 278.651 237.331 276.307 235.947 274.517C234.58 272.71 232.757 271.807 230.479 271.807C228.249 271.807 226.45 272.694 225.083 274.468C223.716 276.242 223.032 278.781 223.032 282.085ZM264.512 292.388C262.754 294.455 260.174 295.488 256.772 295.488C253.957 295.488 251.808 294.674 250.327 293.047C248.862 291.403 248.122 288.978 248.105 285.771V268.584H252.622V285.649C252.622 289.653 254.25 291.655 257.505 291.655C260.955 291.655 263.25 290.369 264.39 287.798V268.584H268.906V295H264.609L264.512 292.388ZM288.56 272.637C287.876 272.523 287.135 272.466 286.338 272.466C283.376 272.466 281.366 273.727 280.308 276.25V295H275.791V268.584H280.186L280.259 271.636C281.74 269.276 283.84 268.096 286.558 268.096C287.437 268.096 288.104 268.21 288.56 268.438V272.637ZM185.264 327.584L185.386 330.514C187.323 328.235 189.935 327.096 193.223 327.096C196.917 327.096 199.432 328.512 200.767 331.344C201.646 330.074 202.785 329.049 204.185 328.268C205.601 327.486 207.269 327.096 209.189 327.096C214.984 327.096 217.93 330.164 218.027 336.3V354H213.511V336.568C213.511 334.68 213.079 333.272 212.217 332.345C211.354 331.401 209.906 330.929 207.871 330.929C206.195 330.929 204.803 331.433 203.696 332.442C202.59 333.435 201.947 334.778 201.768 336.471V354H197.227V336.69C197.227 332.849 195.347 330.929 191.587 330.929C188.625 330.929 186.598 332.19 185.508 334.713V354H180.991V327.584H185.264ZM235.825 354.488C232.244 354.488 229.331 353.316 227.085 350.973C224.839 348.613 223.716 345.463 223.716 341.524V340.694C223.716 338.074 224.212 335.738 225.205 333.688C226.214 331.62 227.614 330.009 229.404 328.854C231.211 327.682 233.164 327.096 235.264 327.096C238.698 327.096 241.367 328.227 243.271 330.489C245.176 332.752 246.128 335.991 246.128 340.206V342.086H228.232C228.298 344.69 229.054 346.798 230.503 348.409C231.968 350.004 233.823 350.802 236.069 350.802C237.664 350.802 239.015 350.476 240.122 349.825C241.229 349.174 242.197 348.312 243.027 347.237L245.786 349.386C243.573 352.787 240.252 354.488 235.825 354.488ZM235.264 330.807C233.441 330.807 231.911 331.474 230.674 332.809C229.437 334.127 228.672 335.982 228.379 338.375H241.611V338.033C241.481 335.738 240.863 333.964 239.756 332.711C238.649 331.441 237.152 330.807 235.264 330.807ZM262.339 354.488C258.758 354.488 255.845 353.316 253.599 350.973C251.353 348.613 250.229 345.463 250.229 341.524V340.694C250.229 338.074 250.726 335.738 251.719 333.688C252.728 331.62 254.128 330.009 255.918 328.854C257.725 327.682 259.678 327.096 261.777 327.096C265.212 327.096 267.881 328.227 269.785 330.489C271.689 332.752 272.642 335.991 272.642 340.206V342.086H254.746C254.811 344.69 255.568 346.798 257.017 348.409C258.481 350.004 260.337 350.802 262.583 350.802C264.178 350.802 265.529 350.476 266.636 349.825C267.743 349.174 268.711 348.312 269.541 347.237L272.3 349.386C270.086 352.787 266.766 354.488 262.339 354.488ZM261.777 330.807C259.954 330.807 258.424 331.474 257.188 332.809C255.951 334.127 255.186 335.982 254.893 338.375H268.125V338.033C267.995 335.738 267.376 333.964 266.27 332.711C265.163 331.441 263.665 330.807 261.777 330.807ZM284.019 321.188V327.584H288.95V331.075H284.019V347.457C284.019 348.515 284.238 349.312 284.678 349.85C285.117 350.37 285.866 350.631 286.924 350.631C287.445 350.631 288.161 350.533 289.072 350.338V354C287.884 354.326 286.729 354.488 285.605 354.488C283.587 354.488 282.065 353.878 281.04 352.657C280.015 351.437 279.502 349.703 279.502 347.457V331.075H274.692V327.584H279.502V321.188H284.019ZM299.155 354H294.639V327.584H299.155V354ZM294.272 320.577C294.272 319.845 294.492 319.226 294.932 318.722C295.387 318.217 296.055 317.965 296.934 317.965C297.812 317.965 298.48 318.217 298.936 318.722C299.391 319.226 299.619 319.845 299.619 320.577C299.619 321.31 299.391 321.92 298.936 322.408C298.48 322.896 297.812 323.141 296.934 323.141C296.055 323.141 295.387 322.896 294.932 322.408C294.492 321.92 294.272 321.31 294.272 320.577ZM310.679 327.584L310.825 330.904C312.843 328.365 315.48 327.096 318.735 327.096C324.318 327.096 327.134 330.245 327.183 336.544V354H322.666V336.52C322.65 334.615 322.21 333.207 321.348 332.296C320.501 331.384 319.175 330.929 317.368 330.929C315.903 330.929 314.618 331.319 313.511 332.101C312.404 332.882 311.541 333.907 310.923 335.177V354H306.406V327.584H310.679ZM332.92 340.572C332.92 336.454 333.872 333.183 335.776 330.758C337.681 328.316 340.203 327.096 343.345 327.096C346.567 327.096 349.082 328.235 350.889 330.514L351.108 327.584H355.234V353.365C355.234 356.783 354.217 359.477 352.183 361.446C350.164 363.416 347.446 364.4 344.028 364.4C342.124 364.4 340.26 363.993 338.438 363.18C336.615 362.366 335.223 361.251 334.263 359.835L336.606 357.125C338.543 359.518 340.911 360.714 343.711 360.714C345.908 360.714 347.617 360.095 348.838 358.858C350.075 357.621 350.693 355.88 350.693 353.634V351.363C348.887 353.447 346.421 354.488 343.296 354.488C340.203 354.488 337.697 353.243 335.776 350.753C333.872 348.263 332.92 344.869 332.92 340.572ZM337.461 341.085C337.461 344.063 338.071 346.407 339.292 348.116C340.513 349.809 342.222 350.655 344.419 350.655C347.267 350.655 349.359 349.361 350.693 346.773V334.713C349.31 332.19 347.235 330.929 344.468 330.929C342.271 330.929 340.553 331.783 339.316 333.492C338.079 335.201 337.461 337.732 337.461 341.085ZM377.451 346.993C377.451 345.772 376.987 344.828 376.06 344.161C375.148 343.478 373.545 342.892 371.25 342.403C368.971 341.915 367.157 341.329 365.806 340.646C364.471 339.962 363.478 339.148 362.827 338.204C362.192 337.26 361.875 336.137 361.875 334.835C361.875 332.67 362.786 330.839 364.609 329.342C366.449 327.844 368.792 327.096 371.641 327.096C374.635 327.096 377.061 327.869 378.916 329.415C380.788 330.961 381.724 332.939 381.724 335.348H377.183C377.183 334.111 376.654 333.045 375.596 332.149C374.554 331.254 373.236 330.807 371.641 330.807C369.997 330.807 368.711 331.165 367.783 331.881C366.855 332.597 366.392 333.533 366.392 334.688C366.392 335.779 366.823 336.601 367.686 337.154C368.548 337.708 370.103 338.237 372.349 338.741C374.611 339.246 376.442 339.848 377.842 340.548C379.242 341.248 380.275 342.094 380.942 343.087C381.626 344.063 381.968 345.26 381.968 346.676C381.968 349.036 381.024 350.932 379.136 352.364C377.248 353.78 374.798 354.488 371.787 354.488C369.671 354.488 367.799 354.114 366.172 353.365C364.544 352.617 363.267 351.575 362.339 350.24C361.427 348.889 360.972 347.433 360.972 345.87H365.488C365.57 347.384 366.172 348.588 367.295 349.483C368.434 350.362 369.932 350.802 371.787 350.802C373.496 350.802 374.863 350.46 375.889 349.776C376.93 349.076 377.451 348.149 377.451 346.993ZM59.7266 413C59.4661 412.479 59.2546 411.551 59.0918 410.217C56.9922 412.398 54.4857 413.488 51.5723 413.488C48.9681 413.488 46.8278 412.756 45.1514 411.291C43.4912 409.81 42.6611 407.938 42.6611 405.676C42.6611 402.925 43.7028 400.793 45.7861 399.279C47.8857 397.749 50.8317 396.984 54.624 396.984H59.0186V394.909C59.0186 393.33 58.5465 392.077 57.6025 391.149C56.6585 390.205 55.2669 389.733 53.4277 389.733C51.8164 389.733 50.4655 390.14 49.375 390.954C48.2845 391.768 47.7393 392.753 47.7393 393.908H43.1982C43.1982 392.59 43.6621 391.32 44.5898 390.1C45.5339 388.863 46.8034 387.886 48.3984 387.17C50.0098 386.454 51.7757 386.096 53.6963 386.096C56.7399 386.096 59.1243 386.861 60.8496 388.391C62.5749 389.904 63.4701 391.996 63.5352 394.665V406.823C63.5352 409.248 63.8444 411.177 64.4629 412.609V413H59.7266ZM52.2314 409.558C53.6475 409.558 54.9902 409.191 56.2598 408.459C57.5293 407.727 58.4489 406.774 59.0186 405.603V400.183H55.4785C49.9447 400.183 47.1777 401.802 47.1777 405.041C47.1777 406.457 47.6497 407.564 48.5938 408.361C49.5378 409.159 50.7503 409.558 52.2314 409.558ZM69.541 399.572C69.541 395.454 70.4932 392.183 72.3975 389.758C74.3018 387.316 76.8245 386.096 79.9658 386.096C83.1885 386.096 85.7031 387.235 87.5098 389.514L87.7295 386.584H91.8555V412.365C91.8555 415.783 90.8382 418.477 88.8037 420.446C86.7855 422.416 84.0674 423.4 80.6494 423.4C78.7451 423.4 76.8815 422.993 75.0586 422.18C73.2357 421.366 71.8441 420.251 70.8838 418.835L73.2275 416.125C75.1644 418.518 77.5326 419.714 80.332 419.714C82.5293 419.714 84.2383 419.095 85.459 417.858C86.696 416.621 87.3145 414.88 87.3145 412.634V410.363C85.5078 412.447 83.042 413.488 79.917 413.488C76.8245 413.488 74.318 412.243 72.3975 409.753C70.4932 407.263 69.541 403.869 69.541 399.572ZM74.082 400.085C74.082 403.063 74.6924 405.407 75.9131 407.116C77.1338 408.809 78.8428 409.655 81.04 409.655C83.8883 409.655 85.9798 408.361 87.3145 405.773V393.713C85.931 391.19 83.8558 389.929 81.0889 389.929C78.8916 389.929 77.1745 390.783 75.9375 392.492C74.7005 394.201 74.082 396.732 74.082 400.085ZM115 413C114.74 412.479 114.528 411.551 114.365 410.217C112.266 412.398 109.759 413.488 106.846 413.488C104.242 413.488 102.101 412.756 100.425 411.291C98.7646 409.81 97.9346 407.938 97.9346 405.676C97.9346 402.925 98.9762 400.793 101.06 399.279C103.159 397.749 106.105 396.984 109.897 396.984H114.292V394.909C114.292 393.33 113.82 392.077 112.876 391.149C111.932 390.205 110.54 389.733 108.701 389.733C107.09 389.733 105.739 390.14 104.648 390.954C103.558 391.768 103.013 392.753 103.013 393.908H98.4717C98.4717 392.59 98.9355 391.32 99.8633 390.1C100.807 388.863 102.077 387.886 103.672 387.17C105.283 386.454 107.049 386.096 108.97 386.096C112.013 386.096 114.398 386.861 116.123 388.391C117.848 389.904 118.743 391.996 118.809 394.665V406.823C118.809 409.248 119.118 411.177 119.736 412.609V413H115ZM107.505 409.558C108.921 409.558 110.264 409.191 111.533 408.459C112.803 407.727 113.722 406.774 114.292 405.603V400.183H110.752C105.218 400.183 102.451 401.802 102.451 405.041C102.451 406.457 102.923 407.564 103.867 408.361C104.811 409.159 106.024 409.558 107.505 409.558ZM130.796 413H126.279V386.584H130.796V413ZM125.913 379.577C125.913 378.845 126.133 378.226 126.572 377.722C127.028 377.217 127.695 376.965 128.574 376.965C129.453 376.965 130.12 377.217 130.576 377.722C131.032 378.226 131.26 378.845 131.26 379.577C131.26 380.31 131.032 380.92 130.576 381.408C130.12 381.896 129.453 382.141 128.574 382.141C127.695 382.141 127.028 381.896 126.572 381.408C126.133 380.92 125.913 380.31 125.913 379.577ZM142.319 386.584L142.466 389.904C144.484 387.365 147.121 386.096 150.376 386.096C155.959 386.096 158.774 389.245 158.823 395.544V413H154.307V395.52C154.29 393.615 153.851 392.207 152.988 391.296C152.142 390.384 150.815 389.929 149.009 389.929C147.544 389.929 146.258 390.319 145.151 391.101C144.045 391.882 143.182 392.907 142.563 394.177V413H138.047V386.584H142.319Z" fill="white"/>
    <path d="M49.375 349.264H63.4375V354H42.002V350.118L55.4053 332.369H42.2461V327.584H62.9248V331.344L49.375 349.264ZM66.6846 340.548C66.6846 337.96 67.1973 335.632 68.2227 333.565C69.248 331.482 70.6885 329.887 72.5439 328.78C74.3994 327.657 76.5316 327.096 78.9404 327.096C82.5049 327.096 85.3939 328.243 87.6074 330.538C89.8372 332.833 91.0417 335.877 91.2207 339.669L91.2451 341.061C91.2451 343.665 90.7406 345.992 89.7314 348.043C88.7386 350.094 87.3063 351.681 85.4346 352.804C83.5791 353.927 81.4307 354.488 78.9893 354.488C75.262 354.488 72.2754 353.251 70.0293 350.777C67.7995 348.287 66.6846 344.975 66.6846 340.841V340.548ZM72.6172 341.061C72.6172 343.779 73.1787 345.911 74.3018 347.457C75.4248 348.987 76.9873 349.752 78.9893 349.752C80.9912 349.752 82.5456 348.971 83.6523 347.408C84.7754 345.846 85.3369 343.559 85.3369 340.548C85.3369 337.879 84.7591 335.763 83.6035 334.2C82.4642 332.638 80.9098 331.856 78.9404 331.856C77.0036 331.856 75.4655 332.63 74.3262 334.176C73.1868 335.706 72.6172 338.001 72.6172 341.061ZM95.1514 340.548C95.1514 337.96 95.6641 335.632 96.6895 333.565C97.7148 331.482 99.1553 329.887 101.011 328.78C102.866 327.657 104.998 327.096 107.407 327.096C110.972 327.096 113.861 328.243 116.074 330.538C118.304 332.833 119.508 335.877 119.688 339.669L119.712 341.061C119.712 343.665 119.207 345.992 118.198 348.043C117.205 350.094 115.773 351.681 113.901 352.804C112.046 353.927 109.897 354.488 107.456 354.488C103.729 354.488 100.742 353.251 98.4961 350.777C96.2663 348.287 95.1514 344.975 95.1514 340.841V340.548ZM101.084 341.061C101.084 343.779 101.646 345.911 102.769 347.457C103.892 348.987 105.454 349.752 107.456 349.752C109.458 349.752 111.012 348.971 112.119 347.408C113.242 345.846 113.804 343.559 113.804 340.548C113.804 337.879 113.226 335.763 112.07 334.2C110.931 332.638 109.377 331.856 107.407 331.856C105.47 331.856 103.932 332.63 102.793 334.176C101.654 335.706 101.084 338.001 101.084 341.061ZM130.308 327.584L130.479 330.343C132.334 328.178 134.873 327.096 138.096 327.096C141.628 327.096 144.045 328.447 145.347 331.148C147.267 328.447 149.969 327.096 153.452 327.096C156.366 327.096 158.53 327.901 159.946 329.513C161.379 331.124 162.111 333.5 162.144 336.642V354H156.211V336.812C156.211 335.136 155.845 333.907 155.112 333.126C154.38 332.345 153.167 331.954 151.475 331.954C150.124 331.954 149.017 332.32 148.154 333.053C147.308 333.769 146.714 334.713 146.372 335.885L146.396 354H140.464V336.617C140.382 333.508 138.796 331.954 135.703 331.954C133.327 331.954 131.642 332.923 130.649 334.859V354H124.717V327.584H130.308Z" fill="url(#paint0_linear)"/>
    <path d="M63.3968 27C47.1619 27 34 47.0431 34 61.2149C34 75.3867 47.1619 96 63.3968 96C74.7022 96 103.511 87.4273 121.279 76.6116C121.279 76.6253 121.279 76.414 121.279 76.6116C121.336 76.5084 121.655 75.9302 121.741 75.7745C121.81 75.6494 122 74.9008 122 74.9008C122 73.9095 122 74.7843 122 73.6246C122 71.4793 122 72.0496 122 70.7173C122 68.6281 122 69.7686 122 68.6281C122 67.4876 122 68.5511 122 67.4876C122 66.2124 122 64.0661 122 62.3554C122 60.6446 122 55.5124 122 53.8017C122 52.0909 122 50.3802 122 47.5289C122 44.6467 110.085 39.4335 96.7541 34.982C83.7108 30.6264 69.3128 27 63.3968 27ZM74.3726 73.6246H52.421V69.2468L66.9539 53.2H52.7875V48.8051H74.3335V52.9631L59.6135 69.2468H74.3736L74.3726 73.6246Z" fill="url(#paint1_linear)"/>
    <path d="M122 47.8333C122 47.3072 121.655 46.7914 121.004 46.3438C120.353 45.8962 119.422 45.5344 118.315 45.2991C117.207 45.0638 115.968 44.9642 114.735 45.0114C113.502 45.0587 112.324 45.251 111.333 45.5667L84.6667 54.0667C83.8387 54.3306 83.1667 54.6728 82.7038 55.0662C82.241 55.4597 82 55.8935 82 56.3333V67.6667C82 68.1065 82.241 68.5403 82.7038 68.9338C83.1667 69.3272 83.8387 69.6694 84.6667 69.9333L111.333 78.4333C112.324 78.749 113.502 78.9413 114.735 78.9886C115.968 79.0358 117.207 78.9362 118.315 78.7009C119.422 78.4656 120.353 78.1038 121.004 77.6562C121.655 77.2086 122 76.6928 122 76.1667V47.8333Z" fill="#1A1A1D"/>
    <path d="M147.875 68.7637H160.777V73H141.283V69.9062L153.939 51.6777H141.301V47.4062H160.496V50.4297L147.875 68.7637ZM162.605 63.3145C162.605 61.4277 162.969 59.7461 163.695 58.2695C164.422 56.793 165.465 55.6504 166.824 54.8418C168.195 54.0332 169.783 53.6289 171.588 53.6289C174.154 53.6289 176.246 54.4141 177.863 55.9844C179.492 57.5547 180.4 59.6875 180.588 62.3828L180.623 63.6836C180.623 66.6016 179.809 68.9453 178.18 70.7148C176.551 72.4727 174.365 73.3516 171.623 73.3516C168.881 73.3516 166.689 72.4727 165.049 70.7148C163.42 68.957 162.605 66.5664 162.605 63.543V63.3145ZM167.686 63.6836C167.686 65.4883 168.025 66.8711 168.705 67.832C169.385 68.7812 170.357 69.2559 171.623 69.2559C172.854 69.2559 173.814 68.7871 174.506 67.8496C175.197 66.9004 175.543 65.3887 175.543 63.3145C175.543 61.5449 175.197 60.1738 174.506 59.2012C173.814 58.2285 172.842 57.7422 171.588 57.7422C170.346 57.7422 169.385 58.2285 168.705 59.2012C168.025 60.1621 167.686 61.6562 167.686 63.6836ZM182.961 63.3145C182.961 61.4277 183.324 59.7461 184.051 58.2695C184.777 56.793 185.82 55.6504 187.18 54.8418C188.551 54.0332 190.139 53.6289 191.943 53.6289C194.51 53.6289 196.602 54.4141 198.219 55.9844C199.848 57.5547 200.756 59.6875 200.943 62.3828L200.979 63.6836C200.979 66.6016 200.164 68.9453 198.535 70.7148C196.906 72.4727 194.721 73.3516 191.979 73.3516C189.236 73.3516 187.045 72.4727 185.404 70.7148C183.775 68.957 182.961 66.5664 182.961 63.543V63.3145ZM188.041 63.6836C188.041 65.4883 188.381 66.8711 189.061 67.832C189.74 68.7812 190.713 69.2559 191.979 69.2559C193.209 69.2559 194.17 68.7871 194.861 67.8496C195.553 66.9004 195.898 65.3887 195.898 63.3145C195.898 61.5449 195.553 60.1738 194.861 59.2012C194.17 58.2285 193.197 57.7422 191.943 57.7422C190.701 57.7422 189.74 58.2285 189.061 59.2012C188.381 60.1621 188.041 61.6562 188.041 63.6836ZM208.871 53.9805L209.029 56.1074C210.377 54.4551 212.199 53.6289 214.496 53.6289C216.945 53.6289 218.627 54.5957 219.541 56.5293C220.877 54.5957 222.781 53.6289 225.254 53.6289C227.316 53.6289 228.852 54.2324 229.859 55.4395C230.867 56.6348 231.371 58.4395 231.371 60.8535V73H226.273V60.8711C226.273 59.793 226.062 59.0078 225.641 58.5156C225.219 58.0117 224.475 57.7598 223.408 57.7598C221.885 57.7598 220.83 58.4863 220.244 59.9395L220.262 73H215.182V60.8887C215.182 59.7871 214.965 58.9902 214.531 58.498C214.098 58.0059 213.359 57.7598 212.316 57.7598C210.875 57.7598 209.832 58.3574 209.188 59.5527V73H204.107V53.9805H208.871ZM241.373 49.3047V53.9805H244.625V57.707H241.373V67.1992C241.373 67.9023 241.508 68.4062 241.777 68.7109C242.047 69.0156 242.562 69.168 243.324 69.168C243.887 69.168 244.385 69.127 244.818 69.0449V72.8945C243.822 73.1992 242.797 73.3516 241.742 73.3516C238.18 73.3516 236.363 71.5527 236.293 67.9551V57.707H233.516V53.9805H236.293V49.3047H241.373ZM252.816 73H247.719V53.9805H252.816V73ZM247.42 49.0586C247.42 48.2969 247.672 47.6699 248.176 47.1777C248.691 46.6855 249.389 46.4395 250.268 46.4395C251.135 46.4395 251.826 46.6855 252.342 47.1777C252.857 47.6699 253.115 48.2969 253.115 49.0586C253.115 49.832 252.852 50.4648 252.324 50.957C251.809 51.4492 251.123 51.6953 250.268 51.6953C249.412 51.6953 248.721 51.4492 248.193 50.957C247.678 50.4648 247.42 49.832 247.42 49.0586ZM258.406 73V57.707H255.576V53.9805H258.406V52.3633C258.406 50.2305 259.016 48.5781 260.234 47.4062C261.465 46.2227 263.182 45.6309 265.385 45.6309C266.088 45.6309 266.949 45.748 267.969 45.9824L267.916 49.9199C267.494 49.8145 266.979 49.7617 266.369 49.7617C264.459 49.7617 263.504 50.6582 263.504 52.4512V53.9805H267.283V57.707H263.504V73H258.406ZM277.021 65.8105L280.537 53.9805H285.986L278.34 75.9531L277.918 76.9551C276.781 79.4395 274.906 80.6816 272.293 80.6816C271.555 80.6816 270.805 80.5703 270.043 80.3477V76.498L270.816 76.5156C271.777 76.5156 272.492 76.3691 272.961 76.0762C273.441 75.7832 273.816 75.2969 274.086 74.6172L274.684 73.0527L268.021 53.9805H273.488L277.021 65.8105Z" fill="white"/>
    <path d="M421 193C439.225 193 454 178.897 454 161.5C454 144.103 439.225 130 421 130C402.775 130 388 144.103 388 161.5C388 178.897 402.775 193 421 193Z" fill="#F0F0F0"/>
    <path d="M689 262C707.225 262 722 248.121 722 231C722 213.879 707.225 200 689 200C670.775 200 656 213.879 656 231C656 248.121 670.775 262 689 262Z" fill="#F0F0F0"/>
    <path d="M586.253 361.764L580.508 359.458L576.567 332H524.086L519.814 359.345L514.675 361.796C514.429 361.913 514.232 362.106 514.115 362.343C513.999 362.581 513.969 362.849 514.033 363.104C514.096 363.359 514.248 363.586 514.463 363.749C514.679 363.912 514.946 364 515.221 364H585.779C586.061 364 586.334 363.907 586.552 363.737C586.77 363.567 586.92 363.33 586.976 363.067C587.032 362.803 586.99 362.53 586.858 362.292C586.727 362.055 586.513 361.868 586.253 361.764V361.764Z" fill="#E6E6E6"/>
    <path d="M680.866 336H421.134C419.771 335.997 418.466 335.477 417.503 334.553C416.541 333.629 416 332.377 416 331.072V296H686V331.072C686 332.377 685.459 333.629 684.497 334.553C683.534 335.477 682.229 335.997 680.866 336V336Z" fill="#CCCCCC"/>
    <path d="M686 313H416V164.864C416.002 163.309 416.655 161.819 417.816 160.719C418.976 159.62 420.55 159.002 422.192 159H679.808C681.45 159.002 683.024 159.62 684.184 160.719C685.345 161.819 685.998 163.309 686 164.864V313Z" fill="#3F3D56"/>
    <path d="M669.252 302H432.748C431.489 301.999 430.282 301.52 429.392 300.67C428.502 299.819 428.001 298.665 428 297.462V173.538C428.001 172.335 428.502 171.181 429.392 170.331C430.282 169.48 431.489 169.001 432.748 169H669.252C670.511 169.001 671.718 169.48 672.608 170.331C673.498 171.181 673.999 172.335 674 173.538V297.462C673.999 298.665 673.498 299.819 672.608 300.67C671.718 301.52 670.511 301.999 669.252 302V302Z" fill="white"/>
    <path d="M642.485 279.998H592.515C592.39 280.008 592.267 279.972 592.17 279.896C592.074 279.821 592.013 279.713 592 279.595V241.405C592.013 241.287 592.074 241.179 592.17 241.104C592.267 241.028 592.39 240.992 592.515 241.002H642.485C642.61 240.992 642.733 241.028 642.83 241.104C642.926 241.179 642.987 241.287 643 241.405V279.595C642.987 279.713 642.926 279.821 642.83 279.896C642.733 279.972 642.61 280.008 642.485 279.998V279.998Z" fill="#F0F0F0"/>
    <path d="M637.474 245H597.526C597.386 245 597.253 245.052 597.154 245.145C597.056 245.237 597 245.362 597 245.493V274.507C597 274.638 597.056 274.763 597.154 274.855C597.253 274.948 597.386 275 597.526 275H637.474C637.614 275 637.747 274.948 637.846 274.855C637.944 274.763 638 274.638 638 274.507V245.493C638 245.362 637.944 245.237 637.846 245.145C637.747 245.052 637.614 245 637.474 245V245Z" fill="white"/>
    <path d="M616.5 264C618.985 264 621 261.985 621 259.5C621 257.015 618.985 255 616.5 255C614.015 255 612 257.015 612 259.5C612 261.985 614.015 264 616.5 264Z" fill="#FFB8B8"/>
    <path d="M624 275H613L613.359 267.323L613.445 267.238L614.68 266H618.608L620.064 267.339L620.181 267.447L623.281 270.267L624 275Z" fill="url(#paint2_linear)"/>
    <path d="M615 275H607.031C607.011 273.228 607 272.167 607 272.167L607.461 271.882L607.463 271.881H607.464L612.543 268.756L613.609 267L613.615 267.062L613.928 270.762C613.928 270.762 614.446 272.459 615 275Z" fill="#2F2E41"/>
    <path d="M629 275H620.318C620.449 269.832 619.741 267 620.105 267L620.318 267.165L622.876 269.156L626.249 270.376H626.251L628.576 271.217L628.984 271.364V271.553C628.985 272.007 628.988 273.249 629 275Z" fill="#2F2E41"/>
    <path d="M611.304 261C611.304 261 611.735 260.396 611.635 258.378C611.534 256.36 615.387 257.501 618.606 257.309C621.825 257.116 621.144 260.678 621.144 260.678C621.144 260.678 621.376 260.466 621.873 258.747C622.371 257.028 621.242 255.316 621.242 255.316C620.909 253.509 619.117 254.088 619.117 254.088C619.344 254.134 619.541 254.246 619.67 254.401C619.799 254.557 619.85 254.745 619.815 254.929C619.084 253.908 617.292 254.487 617.292 254.487C614.902 253.29 612.48 254.866 612.48 254.866C609.593 255.388 611.286 257.22 611.286 257.22C608.382 258.39 611.304 261 611.304 261Z" fill="#2F2E41"/>
    <path d="M607 275H604.007C604.03 274.607 604.031 274.212 604.009 273.819C603.83 273.059 606.345 272.032 606.421 272.001L606.423 272H606.424L606.903 272.275L607 275Z" fill="#2F2E41"/>
    <path d="M630 275H625.555L625 271.307L625.623 271C625.623 271 625.679 271.009 625.779 271.026H625.782C626.798 271.181 627.78 271.424 628.704 271.748C628.9 271.822 629.074 271.921 629.216 272.038C629.304 272.108 629.347 272.199 629.338 272.291C629.315 272.429 629.575 273.445 630 275Z" fill="#2F2E41"/>
    <path d="M642.485 230.998H592.515C592.39 231.008 592.267 230.972 592.17 230.896C592.074 230.821 592.013 230.713 592 230.595V192.405C592.013 192.287 592.074 192.179 592.17 192.104C592.267 192.028 592.39 191.992 592.515 192.002H642.485C642.61 191.992 642.733 192.028 642.83 192.104C642.926 192.179 642.987 192.287 643 192.405V230.595C642.987 230.713 642.926 230.821 642.83 230.896C642.733 230.972 642.61 231.008 642.485 230.998V230.998Z" fill="#F0F0F0"/>
    <path d="M637.474 196H597.526C597.386 196 597.253 196.052 597.154 196.145C597.056 196.237 597 196.362 597 196.493V225.507C597 225.638 597.056 225.763 597.154 225.855C597.253 225.948 597.386 226 597.526 226H637.474C637.614 226 637.747 225.948 637.846 225.855C637.944 225.763 638 225.638 638 225.507V196.493C638 196.362 637.944 196.237 637.846 196.145C637.747 196.052 637.614 196 637.474 196V196Z" fill="white"/>
    <path d="M626.503 226C626.721 225.192 626.891 224.495 626.978 224.002C627.005 223.85 627.007 223.694 626.986 223.541C626.66 221.158 620.781 219.144 620.027 218.895L619.845 216.82L612.444 216L611.507 218.654L608.851 219.679C608.755 219.715 608.664 219.764 608.579 219.823C608.356 219.978 608.185 220.199 608.088 220.457C607.991 220.715 607.974 220.998 608.038 221.266L609.169 226H626.503L626.503 226Z" fill="url(#paint3_linear)"/>
    <path d="M611 226H606C606.179 224.719 606.34 223.587 606.444 222.866C606.826 220.244 608.491 220.02 608.751 220.002C608.772 220 608.785 220 608.786 220H609.838L611 226Z" fill="url(#paint4_linear)"/>
    <path d="M626.709 226H628C627.937 225.203 627.644 224.44 627.156 223.803C626.911 223.483 626.595 223.222 626.233 223.042L626.135 223L625 226H626.709Z" fill="url(#paint5_linear)"/>
    <path d="M616.5 216C619.538 216 622 213.538 622 210.5C622 207.462 619.538 205 616.5 205C613.462 205 611 207.462 611 210.5C611 213.538 613.462 216 616.5 216Z" fill="#A0616A"/>
    <path d="M612.407 208.085C612.969 208.748 613.92 208.935 614.798 209.011C616.849 209.125 618.906 208.957 620.912 208.513C621.037 209.715 620.697 211.011 621.406 212C621.739 210.803 621.932 209.572 621.983 208.331C622.036 207.798 621.966 207.261 621.779 206.759C621.679 206.508 621.511 206.29 621.292 206.129C621.074 205.969 620.815 205.872 620.545 205.851C620.95 205.545 621.423 205.343 621.925 205.263L620.201 204.399L620.644 203.945L617.523 203.755L618.427 203.182C617.066 202.995 615.689 202.952 614.319 203.053C613.679 203.053 613.051 203.227 612.503 203.557C611.987 203.924 611.69 204.655 612.009 205.195C611.609 205.261 611.232 205.427 610.914 205.679C610.596 205.931 610.348 206.259 610.193 206.633C609.997 207.228 609.949 207.862 610.055 208.479C610.172 209.47 610.403 210.443 610.742 211.381" fill="#2F2E41"/>
    <path d="M459 279.075V191.925C459.032 191.654 459.173 191.407 459.394 191.235C459.615 191.062 459.897 190.98 460.181 191.004H574.82C575.103 190.98 575.385 191.063 575.606 191.235C575.827 191.407 575.968 191.654 576 191.925V279.075C575.968 279.346 575.827 279.593 575.606 279.765C575.385 279.937 575.103 280.02 574.82 279.996H460.181C459.897 280.02 459.615 279.937 459.394 279.765C459.173 279.593 459.032 279.346 459 279.075V279.075Z" fill="#E4E4E4"/>
    <path d="M471 202.133V268.867C471 269.167 471.125 269.455 471.346 269.668C471.567 269.88 471.867 270 472.179 270H561.821C562.133 270 562.433 269.88 562.654 269.668C562.875 269.455 563 269.167 563 268.867V202.133C563 201.833 562.875 201.545 562.654 201.332C562.433 201.12 562.133 201 561.821 201H472.179C471.867 201 471.567 201.12 471.346 201.332C471.125 201.545 471 201.833 471 202.133V202.133Z" fill="white"/>
    <path d="M508 270H526L524.878 253.008L518.385 254.521L512.069 252.069L511.902 252.005L511.891 252C511.889 252.005 511.887 252.01 511.886 252.016C511.787 252.42 509.804 260.43 508 270Z" fill="url(#paint6_linear)"/>
    <path d="M497 255.865L498.696 270H514L512.048 252.173L512.029 252L511.879 252.11L511.863 252.121L508.088 254.86L497 255.865Z" fill="#2F2E41"/>
    <path d="M524 270H537.801L538 259.46L527.844 256.309L525.565 254C525.565 254 524.845 260.946 524 270Z" fill="#2F2E41"/>
    <path d="M490 270H502L501.231 259.971L496.971 256C496.971 256 493.601 262.591 490 270Z" fill="#2F2E41"/>
    <path d="M534 270H540C539.974 266.794 539.958 264.579 539.958 263.954C539.988 262.988 539.773 262.029 539.333 261.165C538.892 260.3 538.24 259.556 537.435 259L534.404 259.991L534 270Z" fill="#2F2E41"/>
    <path d="M535 248H503V235.582C503 231.327 506.256 226.21 510.259 224.177C515.877 221.323 522.019 221.273 527.11 224.04C529.506 225.346 531.493 227.203 532.876 229.428C534.259 231.653 534.991 234.171 535 236.735V248Z" fill="#2F2E41"/>
    <path d="M529.729 242.328C532.756 237.072 530.721 230.483 525.184 227.61C519.647 224.736 512.705 226.668 509.679 231.924C506.652 237.18 508.687 243.769 514.223 246.642C519.76 249.515 526.702 247.584 529.729 242.328Z" fill="#FFB8B8"/>
    <path d="M529.898 237H513.817L513.779 236.834C513.593 235.966 513.353 235.107 513.059 234.264C512.42 235.111 511.831 235.989 511.295 236.893L511.229 237H508.103C507.911 237 507.721 236.963 507.546 236.893C507.371 236.823 507.213 236.72 507.084 236.592C506.999 236.507 506.8 236.308 507.623 227.199C507.646 226.982 507.731 226.774 507.869 226.596C508.006 226.417 508.193 226.275 508.41 226.181C515.466 223.196 522.616 223.275 529.663 226.417H529.789L529.833 226.576C531.224 236.271 531.024 236.48 530.938 236.569C530.809 236.705 530.649 236.813 530.47 236.887C530.29 236.962 530.095 237 529.898 237V237Z" fill="#2F2E41"/>
    <defs>
    <linearGradient id="paint0_linear" x1="228" y1="130" x2="228" y2="426" gradientUnits="userSpaceOnUse">
    <stop offset="0.0208333" stop-color="#ED213A"/>
    <stop offset="1" stop-color="#93291E"/>
    </linearGradient>
    <linearGradient id="paint1_linear" x1="78" y1="27" x2="78" y2="96" gradientUnits="userSpaceOnUse">
    <stop stop-color="#EF3B36"/>
    <stop offset="1" stop-color="#B71706" stop-opacity="0.4"/>
    </linearGradient>
    <linearGradient id="paint2_linear" x1="618.5" y1="266" x2="618.5" y2="275" gradientUnits="userSpaceOnUse">
    <stop stop-color="#ED213A"/>
    <stop offset="1" stop-color="#93291E"/>
    </linearGradient>
    <linearGradient id="paint3_linear" x1="617.5" y1="216" x2="617.5" y2="226" gradientUnits="userSpaceOnUse">
    <stop stop-color="#ED213A"/>
    <stop offset="1" stop-color="#93291E"/>
    </linearGradient>
    <linearGradient id="paint4_linear" x1="608.5" y1="220" x2="608.5" y2="226" gradientUnits="userSpaceOnUse">
    <stop stop-color="#ED213A"/>
    <stop offset="1" stop-color="#93291E"/>
    </linearGradient>
    <linearGradient id="paint5_linear" x1="626.5" y1="223" x2="626.5" y2="226" gradientUnits="userSpaceOnUse">
    <stop stop-color="#ED213A"/>
    <stop offset="1" stop-color="#93291E"/>
    </linearGradient>
    <linearGradient id="paint6_linear" x1="517" y1="252" x2="517" y2="270" gradientUnits="userSpaceOnUse">
    <stop stop-color="#ED213A"/>
    <stop offset="1" stop-color="#93291E"/>
    </linearGradient>
    </defs>
    </svg>
    